M48
INCH,TZ
T1C0.0236
T2C0.0236
T3C0.0276
T4C0.0335
T5C0.0394
%
G90
G05
T1
X39685Y-35236
X40118Y-33504
X40591Y-34213
X41102Y-33110
X41589Y-20289
X42874Y-21142
X43898Y-25984
X43902Y-25423
X44528Y-20709
X44528Y-22205
X45787Y-22283
X46654Y-20512
X46693Y-22283
X46850Y-32283
X47205Y-22795
X47638Y-34449
X48583Y-20945
X49331Y-17706
X49764Y-22244
X49803Y-20945
X50157Y-20630
X51732Y-21417
X51732Y-22244
X52402Y-20866
X53701Y-22244
X54173Y-17717
X54213Y-20433
X54370Y-21339
X55122Y-24409
X55669Y-23465
X56024Y-22323
X56590Y-21156
X62559Y-20551
T3
X52166Y-24724
T4
X39040Y-33268
X39040Y-35236
T5
X39370Y-23425
X40370Y-23425
X41370Y-23425
X42370Y-23425
X42665Y-18201
X42665Y-19201
X43370Y-23425
X43665Y-18201
X43665Y-19201
X44370Y-23425
X44665Y-18201
X44665Y-19201
X45370Y-23425
X45665Y-18201
X45665Y-19201
X46665Y-18201
X46665Y-19201
X47665Y-18201
X47665Y-19201
X48665Y-18201
X48665Y-19201
X49665Y-18201
X49665Y-19201
X50665Y-18201
X50665Y-19201
X51665Y-18201
X51665Y-19201
X52665Y-18201
X52665Y-19201
X53665Y-18201
X53665Y-19201
X54665Y-18201
X54665Y-19201
X55665Y-18201
X55665Y-19201
X56665Y-18201
X56665Y-19201
X57665Y-18201
X57665Y-19201
X58665Y-18201
X58665Y-19201
X59055Y-23425
X59665Y-18201
X59665Y-19201
X60055Y-23425
X60665Y-18201
X60665Y-19201
X61055Y-23425
X61665Y-18201
X61665Y-19201
X62055Y-23425
X63055Y-23425
X64055Y-23425
X65055Y-23425
T2
G00X37840Y-32874
M15
G01X38115Y-32874
M16
G05
G00X38115Y-35630
M15
G01X37840Y-35630
M16
G05
T0
M30
