G04 #@! TF.GenerationSoftware,KiCad,Pcbnew,7.0.7-7.0.7~ubuntu23.04.1*
G04 #@! TF.CreationDate,2023-08-30T06:09:21+00:00*
G04 #@! TF.ProjectId,baggerdails,62616767-6572-4646-9169-6c732e6b6963,rev?*
G04 #@! TF.SameCoordinates,Original*
G04 #@! TF.FileFunction,Legend,Bot*
G04 #@! TF.FilePolarity,Positive*
%FSLAX46Y46*%
G04 Gerber Fmt 4.6, Leading zero omitted, Abs format (unit mm)*
G04 Created by KiCad (PCBNEW 7.0.7-7.0.7~ubuntu23.04.1) date 2023-08-30 06:09:21*
%MOMM*%
%LPD*%
G01*
G04 APERTURE LIST*
%ADD10C,0.150000*%
%ADD11C,0.120000*%
%ADD12C,0.010000*%
G04 APERTURE END LIST*
D10*
X12155714Y49275181D02*
X12155714Y48560896D01*
X12155714Y48560896D02*
X12203333Y48418039D01*
X12203333Y48418039D02*
X12298571Y48322800D01*
X12298571Y48322800D02*
X12441428Y48275181D01*
X12441428Y48275181D02*
X12536666Y48275181D01*
X11155714Y48275181D02*
X11727142Y48275181D01*
X11441428Y48275181D02*
X11441428Y49275181D01*
X11441428Y49275181D02*
X11536666Y49132324D01*
X11536666Y49132324D02*
X11631904Y49037086D01*
X11631904Y49037086D02*
X11727142Y48989467D01*
X10536666Y49275181D02*
X10441428Y49275181D01*
X10441428Y49275181D02*
X10346190Y49227562D01*
X10346190Y49227562D02*
X10298571Y49179943D01*
X10298571Y49179943D02*
X10250952Y49084705D01*
X10250952Y49084705D02*
X10203333Y48894229D01*
X10203333Y48894229D02*
X10203333Y48656134D01*
X10203333Y48656134D02*
X10250952Y48465658D01*
X10250952Y48465658D02*
X10298571Y48370420D01*
X10298571Y48370420D02*
X10346190Y48322800D01*
X10346190Y48322800D02*
X10441428Y48275181D01*
X10441428Y48275181D02*
X10536666Y48275181D01*
X10536666Y48275181D02*
X10631904Y48322800D01*
X10631904Y48322800D02*
X10679523Y48370420D01*
X10679523Y48370420D02*
X10727142Y48465658D01*
X10727142Y48465658D02*
X10774761Y48656134D01*
X10774761Y48656134D02*
X10774761Y48894229D01*
X10774761Y48894229D02*
X10727142Y49084705D01*
X10727142Y49084705D02*
X10679523Y49179943D01*
X10679523Y49179943D02*
X10631904Y49227562D01*
X10631904Y49227562D02*
X10536666Y49275181D01*
X9250952Y48275181D02*
X9822380Y48275181D01*
X9536666Y48275181D02*
X9536666Y49275181D01*
X9536666Y49275181D02*
X9631904Y49132324D01*
X9631904Y49132324D02*
X9727142Y49037086D01*
X9727142Y49037086D02*
X9822380Y48989467D01*
D11*
X57960000Y55100000D02*
X57960000Y49900000D01*
X7040000Y55100000D02*
X57960000Y55100000D01*
X7040000Y55100000D02*
X7040000Y52500000D01*
X9640000Y52500000D02*
X9640000Y49900000D01*
X7040000Y52500000D02*
X9640000Y52500000D01*
X7040000Y51230000D02*
X7040000Y49900000D01*
X9640000Y49900000D02*
X57960000Y49900000D01*
X7040000Y49900000D02*
X8370000Y49900000D01*
D12*
X172971Y17982178D02*
X-3347822Y17982178D01*
X-3347822Y18849802D01*
X172971Y18849802D01*
X172971Y17982178D01*
G36*
X172971Y17982178D02*
G01*
X-3347822Y17982178D01*
X-3347822Y18849802D01*
X172971Y18849802D01*
X172971Y17982178D01*
G37*
X-858106Y23524282D02*
X-857612Y23511332D01*
X-851181Y23489589D01*
X-832877Y23471149D01*
X-797170Y23449199D01*
X-765826Y23429146D01*
X-718107Y23390644D01*
X-674862Y23347421D01*
X-641781Y23305373D01*
X-624558Y23270396D01*
X-620338Y23256919D01*
X-612520Y23247666D01*
X-609884Y23244546D01*
X-588338Y23239304D01*
X-548686Y23238218D01*
X-480891Y23238218D01*
X-480891Y23125049D01*
X-640423Y23125049D01*
X-655318Y22947268D01*
X-657318Y22922963D01*
X-661977Y22862120D01*
X-665269Y22812611D01*
X-666908Y22779008D01*
X-666610Y22765884D01*
X-662276Y22769657D01*
X-642504Y22789324D01*
X-608321Y22824182D01*
X-561459Y22872424D01*
X-503646Y22932243D01*
X-436613Y23001833D01*
X-362088Y23079385D01*
X-281803Y23163093D01*
X-197487Y23251151D01*
X-110870Y23341750D01*
X-23681Y23433085D01*
X62349Y23523347D01*
X145492Y23610731D01*
X224016Y23693428D01*
X296192Y23769632D01*
X360291Y23837537D01*
X414583Y23895334D01*
X511592Y23998960D01*
X512034Y23910685D01*
X512475Y23822411D01*
X-88062Y23190842D01*
X-688599Y22559274D01*
X-700604Y22415326D01*
X-748635Y21839365D01*
X-757124Y21737209D01*
X-767657Y21609388D01*
X-777379Y21490233D01*
X-786102Y21382086D01*
X-793642Y21287287D01*
X-799813Y21208181D01*
X-804427Y21147108D01*
X-807300Y21106410D01*
X-808246Y21088430D01*
X-805749Y21080192D01*
X-794529Y21062401D01*
X-773249Y21035589D01*
X-762979Y21023871D01*
X-740775Y20998534D01*
X-695977Y20950014D01*
X-637719Y20888808D01*
X-564871Y20813693D01*
X-476297Y20723450D01*
X-370866Y20616855D01*
X-301508Y20546907D01*
X-204821Y20449342D01*
X-108474Y20352059D01*
X-15362Y20257986D01*
X71618Y20170050D01*
X149569Y20091180D01*
X215596Y20024301D01*
X266802Y19972342D01*
X467514Y19768380D01*
X431058Y19730329D01*
X422460Y19721755D01*
X397095Y19700703D01*
X379695Y19692277D01*
X366071Y19699470D01*
X340743Y19721056D01*
X310379Y19752005D01*
X291896Y19771552D01*
X257427Y19807248D01*
X208712Y19857316D01*
X147469Y19919999D01*
X75420Y19993543D01*
X-5715Y20076190D01*
X-94216Y20166185D01*
X-188363Y20261772D01*
X-286435Y20361195D01*
X-828839Y20910657D01*
X-850934Y20625254D01*
X-855750Y20564338D01*
X-862784Y20482452D01*
X-869128Y20420431D01*
X-875252Y20375013D01*
X-881627Y20342938D01*
X-888723Y20320948D01*
X-897009Y20305781D01*
X-908607Y20284584D01*
X-918150Y20245614D01*
X-920990Y20189469D01*
X-920990Y20107227D01*
X-1147326Y20107227D01*
X-1147326Y20283267D01*
X-1992918Y20283267D01*
X-2041797Y20227738D01*
X-2055164Y20213278D01*
X-2127612Y20155187D01*
X-2209468Y20119424D01*
X-2298100Y20107227D01*
X-2376308Y20113694D01*
X-2464767Y20140953D01*
X-2540493Y20189672D01*
X-2555252Y20203597D01*
X-2592136Y20248672D01*
X-2624497Y20301181D01*
X-2647703Y20352939D01*
X-2657121Y20395761D01*
X-2657303Y20401977D01*
X-2658658Y20424754D01*
X-2662200Y20440487D01*
X-2669610Y20447932D01*
X-2682569Y20445844D01*
X-2702757Y20432980D01*
X-2731855Y20408095D01*
X-2771544Y20369947D01*
X-2823504Y20317290D01*
X-2889416Y20248881D01*
X-2970960Y20163476D01*
X-3014396Y20117888D01*
X-3087000Y20041559D01*
X-3155691Y19969192D01*
X-3217777Y19903634D01*
X-3270566Y19847726D01*
X-3311366Y19804314D01*
X-3337485Y19776242D01*
X-3408881Y19698564D01*
X-3497137Y19786584D01*
X-2951310Y20358713D01*
X-2916895Y20394812D01*
X-2794454Y20523728D01*
X-2689349Y20635246D01*
X-2601264Y20729712D01*
X-2529884Y20807471D01*
X-2479412Y20863826D01*
X-2272753Y20863826D01*
X-2271128Y20850566D01*
X-2270844Y20849181D01*
X-2257302Y20817772D01*
X-2230252Y20803137D01*
X-2146871Y20771937D01*
X-2072582Y20719962D01*
X-2014154Y20651209D01*
X-1974110Y20568685D01*
X-1954974Y20475394D01*
X-1948636Y20396435D01*
X-999162Y20396435D01*
X-992542Y20424727D01*
X-991371Y20431671D01*
X-987732Y20462719D01*
X-982766Y20512919D01*
X-976843Y20578273D01*
X-970331Y20654781D01*
X-963599Y20738445D01*
X-941276Y21023871D01*
X-1242174Y21329435D01*
X-1297364Y21385296D01*
X-1364891Y21453112D01*
X-1425471Y21513357D01*
X-1476979Y21563948D01*
X-1517290Y21602800D01*
X-1544278Y21627830D01*
X-1555818Y21636954D01*
X-1563556Y21632595D01*
X-1586605Y21612759D01*
X-1621291Y21579625D01*
X-1664513Y21536180D01*
X-1713168Y21485413D01*
X-1725860Y21471949D01*
X-1782771Y21411725D01*
X-1850586Y21340136D01*
X-1924200Y21262563D01*
X-1998507Y21184389D01*
X-2068401Y21110995D01*
X-2072599Y21106591D01*
X-2137580Y21038215D01*
X-2187164Y20985268D01*
X-2223312Y20945233D01*
X-2247984Y20915589D01*
X-2263142Y20893819D01*
X-2270744Y20877405D01*
X-2272753Y20863826D01*
X-2479412Y20863826D01*
X-2474895Y20868869D01*
X-2435981Y20914252D01*
X-2412827Y20943965D01*
X-2405118Y20958356D01*
X-2405117Y20958441D01*
X-2406175Y20976376D01*
X-2409263Y21016579D01*
X-2414142Y21076313D01*
X-2420568Y21152842D01*
X-2428300Y21243431D01*
X-2437095Y21345343D01*
X-2446713Y21455841D01*
X-2456909Y21572189D01*
X-2467444Y21691652D01*
X-2478074Y21811493D01*
X-2488558Y21928975D01*
X-2498654Y22041363D01*
X-2508119Y22145919D01*
X-2516712Y22239909D01*
X-2524191Y22320595D01*
X-2530313Y22385241D01*
X-2534838Y22431112D01*
X-2537522Y22455470D01*
X-2542933Y22496268D01*
X-2413747Y22496268D01*
X-2412092Y22465347D01*
X-2408451Y22413347D01*
X-2403005Y22342513D01*
X-2395937Y22255089D01*
X-2387430Y22153319D01*
X-2377665Y22039448D01*
X-2366826Y21915721D01*
X-2355093Y21784382D01*
X-2345921Y21683092D01*
X-2334434Y21557474D01*
X-2323678Y21441238D01*
X-2313869Y21336620D01*
X-2305219Y21245860D01*
X-2297943Y21171196D01*
X-2292254Y21114866D01*
X-2288366Y21079109D01*
X-2286494Y21066163D01*
X-2280812Y21070174D01*
X-2259980Y21089862D01*
X-2226128Y21123678D01*
X-2181588Y21169163D01*
X-2128690Y21223854D01*
X-2069764Y21285290D01*
X-2007142Y21351010D01*
X-1943152Y21418551D01*
X-1880126Y21485453D01*
X-1820394Y21549254D01*
X-1766287Y21607493D01*
X-1720135Y21657708D01*
X-1684267Y21697437D01*
X-1661016Y21724220D01*
X-1654222Y21733523D01*
X-1472399Y21733523D01*
X-1196695Y21458032D01*
X-1129274Y21390776D01*
X-1065733Y21327838D01*
X-1016510Y21279900D01*
X-979804Y21245406D01*
X-953810Y21222801D01*
X-936724Y21210529D01*
X-926744Y21207034D01*
X-922065Y21210762D01*
X-920884Y21220156D01*
X-920127Y21235251D01*
X-917399Y21274117D01*
X-912892Y21333105D01*
X-906821Y21409527D01*
X-899404Y21500695D01*
X-890858Y21603920D01*
X-881398Y21716517D01*
X-871242Y21835795D01*
X-862277Y21940923D01*
X-852934Y22051649D01*
X-844557Y22152186D01*
X-837347Y22240057D01*
X-831504Y22312785D01*
X-827231Y22367890D01*
X-824727Y22402896D01*
X-824195Y22415326D01*
X-824616Y22415092D01*
X-836491Y22403650D01*
X-862870Y22376802D01*
X-901430Y22336982D01*
X-949847Y22286628D01*
X-1005797Y22228172D01*
X-1066958Y22164052D01*
X-1131005Y22096702D01*
X-1195615Y22028557D01*
X-1258465Y21962052D01*
X-1317232Y21899623D01*
X-1369591Y21843705D01*
X-1470467Y21735594D01*
X-1472399Y21733523D01*
X-1654222Y21733523D01*
X-1652710Y21735594D01*
X-1660852Y21746617D01*
X-1684522Y21773001D01*
X-1721522Y21812473D01*
X-1769650Y21862809D01*
X-1826704Y21921783D01*
X-1890480Y21987170D01*
X-1958778Y22056745D01*
X-2029395Y22128284D01*
X-2100129Y22199562D01*
X-2168778Y22268353D01*
X-2233139Y22332434D01*
X-2291011Y22389578D01*
X-2340190Y22437561D01*
X-2378476Y22474159D01*
X-2403666Y22497146D01*
X-2413558Y22504297D01*
X-2413747Y22496268D01*
X-2542933Y22496268D01*
X-2544610Y22508911D01*
X-2819703Y22508911D01*
X-2819860Y22609505D01*
X-2719109Y22609505D01*
X-2637376Y22609505D01*
X-2630105Y22609511D01*
X-2589050Y22610387D01*
X-2566723Y22614133D01*
X-2557471Y22622730D01*
X-2555643Y22638160D01*
X-2563694Y22660841D01*
X-2591270Y22698572D01*
X-2637376Y22747821D01*
X-2719109Y22828828D01*
X-2719109Y22609505D01*
X-2819860Y22609505D01*
X-2820032Y22719529D01*
X-2820361Y22930148D01*
X-3272086Y23389109D01*
X-3723811Y23848069D01*
X-3724430Y23935152D01*
X-3725049Y24022233D01*
X-3183231Y23473048D01*
X-3130863Y23420002D01*
X-3022197Y23310228D01*
X-2929291Y23216886D01*
X-2850945Y23138827D01*
X-2785957Y23074903D01*
X-2733128Y23023965D01*
X-2691257Y22984865D01*
X-2659145Y22956452D01*
X-2635590Y22937580D01*
X-2619392Y22927099D01*
X-2609351Y22923861D01*
X-2592421Y22924842D01*
X-2582916Y22932004D01*
X-2581277Y22951599D01*
X-2585218Y22989876D01*
X-2587935Y23013975D01*
X-2591716Y23054256D01*
X-2593240Y23081039D01*
X-2593985Y23090272D01*
X-2601254Y23100161D01*
X-2621332Y23103438D01*
X-2660311Y23102008D01*
X-2670263Y23101447D01*
X-2710102Y23102079D01*
X-2738440Y23110833D01*
X-2758414Y23125049D01*
X-2475148Y23125049D01*
X-2470987Y23077896D01*
X-2469065Y23056502D01*
X-2463076Y22998091D01*
X-2457174Y22959619D01*
X-2450273Y22937088D01*
X-2441288Y22926502D01*
X-2429130Y22923861D01*
X-2418199Y22922063D01*
X-2410950Y22913470D01*
X-2406900Y22893495D01*
X-2405137Y22857550D01*
X-2404752Y22801048D01*
X-2404752Y22678234D01*
X-2364553Y22638160D01*
X-2266435Y22540346D01*
X-2128119Y22402458D01*
X-2128119Y22508911D01*
X-1373663Y22508911D01*
X-1373663Y22270000D01*
X-1992169Y22270000D01*
X-1782408Y22053094D01*
X-1742230Y22011666D01*
X-1686672Y21954800D01*
X-1638430Y21905918D01*
X-1600029Y21867559D01*
X-1573997Y21842259D01*
X-1562860Y21832558D01*
X-1558627Y21835233D01*
X-1538776Y21853218D01*
X-1504549Y21886519D01*
X-1457773Y21933288D01*
X-1400276Y21991675D01*
X-1333888Y22059831D01*
X-1260436Y22135906D01*
X-1181749Y22218050D01*
X-1102659Y22301057D01*
X-1025129Y22382864D01*
X-962254Y22449917D01*
X-912498Y22503993D01*
X-874322Y22546871D01*
X-846189Y22580327D01*
X-826560Y22606139D01*
X-813899Y22626086D01*
X-806666Y22641944D01*
X-803325Y22655491D01*
X-802439Y22662090D01*
X-798512Y22698452D01*
X-793541Y22751982D01*
X-788073Y22816579D01*
X-782656Y22886138D01*
X-780819Y22910365D01*
X-775512Y22975822D01*
X-770452Y23032283D01*
X-766137Y23074382D01*
X-763066Y23096757D01*
X-757045Y23125049D01*
X-2475148Y23125049D01*
X-2758414Y23125049D01*
X-2766370Y23130711D01*
X-2771180Y23134896D01*
X-2810518Y23185573D01*
X-2826097Y23238218D01*
X-2485302Y23238218D01*
X-1070779Y23238218D01*
X-858119Y23238218D01*
X-801092Y23238218D01*
X-784007Y23238338D01*
X-758692Y23240538D01*
X-751384Y23247666D01*
X-757057Y23262492D01*
X-758733Y23265318D01*
X-777552Y23287056D01*
X-804817Y23311180D01*
X-832013Y23330746D01*
X-850629Y23338812D01*
X-852303Y23337537D01*
X-856456Y23320024D01*
X-858119Y23288515D01*
X-858119Y23238218D01*
X-1070779Y23238218D01*
X-1074474Y23328905D01*
X-1078168Y23419593D01*
X-1153614Y23434748D01*
X-1191449Y23441621D01*
X-1254632Y23451244D01*
X-1313935Y23458504D01*
X-1398812Y23467107D01*
X-1398812Y23363960D01*
X-1977227Y23363960D01*
X-1977227Y23454878D01*
X-2049529Y23446247D01*
X-2160002Y23427751D01*
X-2271184Y23394309D01*
X-2363150Y23347676D01*
X-2437458Y23287214D01*
X-2485302Y23238218D01*
X-2826097Y23238218D01*
X-2827828Y23244066D01*
X-2822526Y23305425D01*
X-2794025Y23364703D01*
X-2791267Y23368394D01*
X-2753178Y23400149D01*
X-2703524Y23418933D01*
X-2649998Y23423929D01*
X-2600293Y23414322D01*
X-2562100Y23389296D01*
X-2549169Y23376520D01*
X-2536572Y23373424D01*
X-2518533Y23383002D01*
X-2488072Y23406918D01*
X-2478726Y23414269D01*
X-2406570Y23460661D01*
X-2398503Y23464554D01*
X-1876633Y23464554D01*
X-1499406Y23464554D01*
X-1499406Y23527425D01*
X-1876633Y23527425D01*
X-1876633Y23464554D01*
X-2398503Y23464554D01*
X-2321085Y23501916D01*
X-2230233Y23535064D01*
X-2141973Y23557132D01*
X-2064264Y23565148D01*
X-2056009Y23565212D01*
X-2010121Y23569679D01*
X-1984921Y23582205D01*
X-1977227Y23604216D01*
X-1976324Y23611151D01*
X-1971385Y23617115D01*
X-1959389Y23621481D01*
X-1937320Y23624497D01*
X-1902164Y23626410D01*
X-1850906Y23627470D01*
X-1780529Y23627923D01*
X-1688020Y23628020D01*
X-1601340Y23627850D01*
X-1527668Y23627166D01*
X-1473735Y23625785D01*
X-1436712Y23623530D01*
X-1413770Y23620222D01*
X-1402080Y23615680D01*
X-1398812Y23609728D01*
X-1388063Y23595112D01*
X-1357945Y23585785D01*
X-1346418Y23584153D01*
X-1307114Y23578409D01*
X-1254812Y23570622D01*
X-1197624Y23561997D01*
X-1166084Y23557607D01*
X-1119926Y23552852D01*
X-1087359Y23551705D01*
X-1073977Y23554505D01*
X-1071692Y23556329D01*
X-1050595Y23560835D01*
X-1012645Y23563971D01*
X-963952Y23565148D01*
X-858119Y23565148D01*
X-858106Y23527425D01*
X-858106Y23524282D01*
G36*
X-858106Y23524282D02*
G01*
X-857612Y23511332D01*
X-851181Y23489589D01*
X-832877Y23471149D01*
X-797170Y23449199D01*
X-765826Y23429146D01*
X-718107Y23390644D01*
X-674862Y23347421D01*
X-641781Y23305373D01*
X-624558Y23270396D01*
X-620338Y23256919D01*
X-612520Y23247666D01*
X-609884Y23244546D01*
X-588338Y23239304D01*
X-548686Y23238218D01*
X-480891Y23238218D01*
X-480891Y23125049D01*
X-640423Y23125049D01*
X-655318Y22947268D01*
X-657318Y22922963D01*
X-661977Y22862120D01*
X-665269Y22812611D01*
X-666908Y22779008D01*
X-666610Y22765884D01*
X-662276Y22769657D01*
X-642504Y22789324D01*
X-608321Y22824182D01*
X-561459Y22872424D01*
X-503646Y22932243D01*
X-436613Y23001833D01*
X-362088Y23079385D01*
X-281803Y23163093D01*
X-197487Y23251151D01*
X-110870Y23341750D01*
X-23681Y23433085D01*
X62349Y23523347D01*
X145492Y23610731D01*
X224016Y23693428D01*
X296192Y23769632D01*
X360291Y23837537D01*
X414583Y23895334D01*
X511592Y23998960D01*
X512034Y23910685D01*
X512475Y23822411D01*
X-88062Y23190842D01*
X-688599Y22559274D01*
X-700604Y22415326D01*
X-748635Y21839365D01*
X-757124Y21737209D01*
X-767657Y21609388D01*
X-777379Y21490233D01*
X-786102Y21382086D01*
X-793642Y21287287D01*
X-799813Y21208181D01*
X-804427Y21147108D01*
X-807300Y21106410D01*
X-808246Y21088430D01*
X-805749Y21080192D01*
X-794529Y21062401D01*
X-773249Y21035589D01*
X-762979Y21023871D01*
X-740775Y20998534D01*
X-695977Y20950014D01*
X-637719Y20888808D01*
X-564871Y20813693D01*
X-476297Y20723450D01*
X-370866Y20616855D01*
X-301508Y20546907D01*
X-204821Y20449342D01*
X-108474Y20352059D01*
X-15362Y20257986D01*
X71618Y20170050D01*
X149569Y20091180D01*
X215596Y20024301D01*
X266802Y19972342D01*
X467514Y19768380D01*
X431058Y19730329D01*
X422460Y19721755D01*
X397095Y19700703D01*
X379695Y19692277D01*
X366071Y19699470D01*
X340743Y19721056D01*
X310379Y19752005D01*
X291896Y19771552D01*
X257427Y19807248D01*
X208712Y19857316D01*
X147469Y19919999D01*
X75420Y19993543D01*
X-5715Y20076190D01*
X-94216Y20166185D01*
X-188363Y20261772D01*
X-286435Y20361195D01*
X-828839Y20910657D01*
X-850934Y20625254D01*
X-855750Y20564338D01*
X-862784Y20482452D01*
X-869128Y20420431D01*
X-875252Y20375013D01*
X-881627Y20342938D01*
X-888723Y20320948D01*
X-897009Y20305781D01*
X-908607Y20284584D01*
X-918150Y20245614D01*
X-920990Y20189469D01*
X-920990Y20107227D01*
X-1147326Y20107227D01*
X-1147326Y20283267D01*
X-1992918Y20283267D01*
X-2041797Y20227738D01*
X-2055164Y20213278D01*
X-2127612Y20155187D01*
X-2209468Y20119424D01*
X-2298100Y20107227D01*
X-2376308Y20113694D01*
X-2464767Y20140953D01*
X-2540493Y20189672D01*
X-2555252Y20203597D01*
X-2592136Y20248672D01*
X-2624497Y20301181D01*
X-2647703Y20352939D01*
X-2657121Y20395761D01*
X-2657303Y20401977D01*
X-2658658Y20424754D01*
X-2662200Y20440487D01*
X-2669610Y20447932D01*
X-2682569Y20445844D01*
X-2702757Y20432980D01*
X-2731855Y20408095D01*
X-2771544Y20369947D01*
X-2823504Y20317290D01*
X-2889416Y20248881D01*
X-2970960Y20163476D01*
X-3014396Y20117888D01*
X-3087000Y20041559D01*
X-3155691Y19969192D01*
X-3217777Y19903634D01*
X-3270566Y19847726D01*
X-3311366Y19804314D01*
X-3337485Y19776242D01*
X-3408881Y19698564D01*
X-3497137Y19786584D01*
X-2951310Y20358713D01*
X-2916895Y20394812D01*
X-2794454Y20523728D01*
X-2689349Y20635246D01*
X-2601264Y20729712D01*
X-2529884Y20807471D01*
X-2479412Y20863826D01*
X-2272753Y20863826D01*
X-2271128Y20850566D01*
X-2270844Y20849181D01*
X-2257302Y20817772D01*
X-2230252Y20803137D01*
X-2146871Y20771937D01*
X-2072582Y20719962D01*
X-2014154Y20651209D01*
X-1974110Y20568685D01*
X-1954974Y20475394D01*
X-1948636Y20396435D01*
X-999162Y20396435D01*
X-992542Y20424727D01*
X-991371Y20431671D01*
X-987732Y20462719D01*
X-982766Y20512919D01*
X-976843Y20578273D01*
X-970331Y20654781D01*
X-963599Y20738445D01*
X-941276Y21023871D01*
X-1242174Y21329435D01*
X-1297364Y21385296D01*
X-1364891Y21453112D01*
X-1425471Y21513357D01*
X-1476979Y21563948D01*
X-1517290Y21602800D01*
X-1544278Y21627830D01*
X-1555818Y21636954D01*
X-1563556Y21632595D01*
X-1586605Y21612759D01*
X-1621291Y21579625D01*
X-1664513Y21536180D01*
X-1713168Y21485413D01*
X-1725860Y21471949D01*
X-1782771Y21411725D01*
X-1850586Y21340136D01*
X-1924200Y21262563D01*
X-1998507Y21184389D01*
X-2068401Y21110995D01*
X-2072599Y21106591D01*
X-2137580Y21038215D01*
X-2187164Y20985268D01*
X-2223312Y20945233D01*
X-2247984Y20915589D01*
X-2263142Y20893819D01*
X-2270744Y20877405D01*
X-2272753Y20863826D01*
X-2479412Y20863826D01*
X-2474895Y20868869D01*
X-2435981Y20914252D01*
X-2412827Y20943965D01*
X-2405118Y20958356D01*
X-2405117Y20958441D01*
X-2406175Y20976376D01*
X-2409263Y21016579D01*
X-2414142Y21076313D01*
X-2420568Y21152842D01*
X-2428300Y21243431D01*
X-2437095Y21345343D01*
X-2446713Y21455841D01*
X-2456909Y21572189D01*
X-2467444Y21691652D01*
X-2478074Y21811493D01*
X-2488558Y21928975D01*
X-2498654Y22041363D01*
X-2508119Y22145919D01*
X-2516712Y22239909D01*
X-2524191Y22320595D01*
X-2530313Y22385241D01*
X-2534838Y22431112D01*
X-2537522Y22455470D01*
X-2542933Y22496268D01*
X-2413747Y22496268D01*
X-2412092Y22465347D01*
X-2408451Y22413347D01*
X-2403005Y22342513D01*
X-2395937Y22255089D01*
X-2387430Y22153319D01*
X-2377665Y22039448D01*
X-2366826Y21915721D01*
X-2355093Y21784382D01*
X-2345921Y21683092D01*
X-2334434Y21557474D01*
X-2323678Y21441238D01*
X-2313869Y21336620D01*
X-2305219Y21245860D01*
X-2297943Y21171196D01*
X-2292254Y21114866D01*
X-2288366Y21079109D01*
X-2286494Y21066163D01*
X-2280812Y21070174D01*
X-2259980Y21089862D01*
X-2226128Y21123678D01*
X-2181588Y21169163D01*
X-2128690Y21223854D01*
X-2069764Y21285290D01*
X-2007142Y21351010D01*
X-1943152Y21418551D01*
X-1880126Y21485453D01*
X-1820394Y21549254D01*
X-1766287Y21607493D01*
X-1720135Y21657708D01*
X-1684267Y21697437D01*
X-1661016Y21724220D01*
X-1654222Y21733523D01*
X-1472399Y21733523D01*
X-1196695Y21458032D01*
X-1129274Y21390776D01*
X-1065733Y21327838D01*
X-1016510Y21279900D01*
X-979804Y21245406D01*
X-953810Y21222801D01*
X-936724Y21210529D01*
X-926744Y21207034D01*
X-922065Y21210762D01*
X-920884Y21220156D01*
X-920127Y21235251D01*
X-917399Y21274117D01*
X-912892Y21333105D01*
X-906821Y21409527D01*
X-899404Y21500695D01*
X-890858Y21603920D01*
X-881398Y21716517D01*
X-871242Y21835795D01*
X-862277Y21940923D01*
X-852934Y22051649D01*
X-844557Y22152186D01*
X-837347Y22240057D01*
X-831504Y22312785D01*
X-827231Y22367890D01*
X-824727Y22402896D01*
X-824195Y22415326D01*
X-824616Y22415092D01*
X-836491Y22403650D01*
X-862870Y22376802D01*
X-901430Y22336982D01*
X-949847Y22286628D01*
X-1005797Y22228172D01*
X-1066958Y22164052D01*
X-1131005Y22096702D01*
X-1195615Y22028557D01*
X-1258465Y21962052D01*
X-1317232Y21899623D01*
X-1369591Y21843705D01*
X-1470467Y21735594D01*
X-1472399Y21733523D01*
X-1654222Y21733523D01*
X-1652710Y21735594D01*
X-1660852Y21746617D01*
X-1684522Y21773001D01*
X-1721522Y21812473D01*
X-1769650Y21862809D01*
X-1826704Y21921783D01*
X-1890480Y21987170D01*
X-1958778Y22056745D01*
X-2029395Y22128284D01*
X-2100129Y22199562D01*
X-2168778Y22268353D01*
X-2233139Y22332434D01*
X-2291011Y22389578D01*
X-2340190Y22437561D01*
X-2378476Y22474159D01*
X-2403666Y22497146D01*
X-2413558Y22504297D01*
X-2413747Y22496268D01*
X-2542933Y22496268D01*
X-2544610Y22508911D01*
X-2819703Y22508911D01*
X-2819860Y22609505D01*
X-2719109Y22609505D01*
X-2637376Y22609505D01*
X-2630105Y22609511D01*
X-2589050Y22610387D01*
X-2566723Y22614133D01*
X-2557471Y22622730D01*
X-2555643Y22638160D01*
X-2563694Y22660841D01*
X-2591270Y22698572D01*
X-2637376Y22747821D01*
X-2719109Y22828828D01*
X-2719109Y22609505D01*
X-2819860Y22609505D01*
X-2820032Y22719529D01*
X-2820361Y22930148D01*
X-3272086Y23389109D01*
X-3723811Y23848069D01*
X-3724430Y23935152D01*
X-3725049Y24022233D01*
X-3183231Y23473048D01*
X-3130863Y23420002D01*
X-3022197Y23310228D01*
X-2929291Y23216886D01*
X-2850945Y23138827D01*
X-2785957Y23074903D01*
X-2733128Y23023965D01*
X-2691257Y22984865D01*
X-2659145Y22956452D01*
X-2635590Y22937580D01*
X-2619392Y22927099D01*
X-2609351Y22923861D01*
X-2592421Y22924842D01*
X-2582916Y22932004D01*
X-2581277Y22951599D01*
X-2585218Y22989876D01*
X-2587935Y23013975D01*
X-2591716Y23054256D01*
X-2593240Y23081039D01*
X-2593985Y23090272D01*
X-2601254Y23100161D01*
X-2621332Y23103438D01*
X-2660311Y23102008D01*
X-2670263Y23101447D01*
X-2710102Y23102079D01*
X-2738440Y23110833D01*
X-2758414Y23125049D01*
X-2475148Y23125049D01*
X-2470987Y23077896D01*
X-2469065Y23056502D01*
X-2463076Y22998091D01*
X-2457174Y22959619D01*
X-2450273Y22937088D01*
X-2441288Y22926502D01*
X-2429130Y22923861D01*
X-2418199Y22922063D01*
X-2410950Y22913470D01*
X-2406900Y22893495D01*
X-2405137Y22857550D01*
X-2404752Y22801048D01*
X-2404752Y22678234D01*
X-2364553Y22638160D01*
X-2266435Y22540346D01*
X-2128119Y22402458D01*
X-2128119Y22508911D01*
X-1373663Y22508911D01*
X-1373663Y22270000D01*
X-1992169Y22270000D01*
X-1782408Y22053094D01*
X-1742230Y22011666D01*
X-1686672Y21954800D01*
X-1638430Y21905918D01*
X-1600029Y21867559D01*
X-1573997Y21842259D01*
X-1562860Y21832558D01*
X-1558627Y21835233D01*
X-1538776Y21853218D01*
X-1504549Y21886519D01*
X-1457773Y21933288D01*
X-1400276Y21991675D01*
X-1333888Y22059831D01*
X-1260436Y22135906D01*
X-1181749Y22218050D01*
X-1102659Y22301057D01*
X-1025129Y22382864D01*
X-962254Y22449917D01*
X-912498Y22503993D01*
X-874322Y22546871D01*
X-846189Y22580327D01*
X-826560Y22606139D01*
X-813899Y22626086D01*
X-806666Y22641944D01*
X-803325Y22655491D01*
X-802439Y22662090D01*
X-798512Y22698452D01*
X-793541Y22751982D01*
X-788073Y22816579D01*
X-782656Y22886138D01*
X-780819Y22910365D01*
X-775512Y22975822D01*
X-770452Y23032283D01*
X-766137Y23074382D01*
X-763066Y23096757D01*
X-757045Y23125049D01*
X-2475148Y23125049D01*
X-2758414Y23125049D01*
X-2766370Y23130711D01*
X-2771180Y23134896D01*
X-2810518Y23185573D01*
X-2826097Y23238218D01*
X-2485302Y23238218D01*
X-1070779Y23238218D01*
X-858119Y23238218D01*
X-801092Y23238218D01*
X-784007Y23238338D01*
X-758692Y23240538D01*
X-751384Y23247666D01*
X-757057Y23262492D01*
X-758733Y23265318D01*
X-777552Y23287056D01*
X-804817Y23311180D01*
X-832013Y23330746D01*
X-850629Y23338812D01*
X-852303Y23337537D01*
X-856456Y23320024D01*
X-858119Y23288515D01*
X-858119Y23238218D01*
X-1070779Y23238218D01*
X-1074474Y23328905D01*
X-1078168Y23419593D01*
X-1153614Y23434748D01*
X-1191449Y23441621D01*
X-1254632Y23451244D01*
X-1313935Y23458504D01*
X-1398812Y23467107D01*
X-1398812Y23363960D01*
X-1977227Y23363960D01*
X-1977227Y23454878D01*
X-2049529Y23446247D01*
X-2160002Y23427751D01*
X-2271184Y23394309D01*
X-2363150Y23347676D01*
X-2437458Y23287214D01*
X-2485302Y23238218D01*
X-2826097Y23238218D01*
X-2827828Y23244066D01*
X-2822526Y23305425D01*
X-2794025Y23364703D01*
X-2791267Y23368394D01*
X-2753178Y23400149D01*
X-2703524Y23418933D01*
X-2649998Y23423929D01*
X-2600293Y23414322D01*
X-2562100Y23389296D01*
X-2549169Y23376520D01*
X-2536572Y23373424D01*
X-2518533Y23383002D01*
X-2488072Y23406918D01*
X-2478726Y23414269D01*
X-2406570Y23460661D01*
X-2398503Y23464554D01*
X-1876633Y23464554D01*
X-1499406Y23464554D01*
X-1499406Y23527425D01*
X-1876633Y23527425D01*
X-1876633Y23464554D01*
X-2398503Y23464554D01*
X-2321085Y23501916D01*
X-2230233Y23535064D01*
X-2141973Y23557132D01*
X-2064264Y23565148D01*
X-2056009Y23565212D01*
X-2010121Y23569679D01*
X-1984921Y23582205D01*
X-1977227Y23604216D01*
X-1976324Y23611151D01*
X-1971385Y23617115D01*
X-1959389Y23621481D01*
X-1937320Y23624497D01*
X-1902164Y23626410D01*
X-1850906Y23627470D01*
X-1780529Y23627923D01*
X-1688020Y23628020D01*
X-1601340Y23627850D01*
X-1527668Y23627166D01*
X-1473735Y23625785D01*
X-1436712Y23623530D01*
X-1413770Y23620222D01*
X-1402080Y23615680D01*
X-1398812Y23609728D01*
X-1388063Y23595112D01*
X-1357945Y23585785D01*
X-1346418Y23584153D01*
X-1307114Y23578409D01*
X-1254812Y23570622D01*
X-1197624Y23561997D01*
X-1166084Y23557607D01*
X-1119926Y23552852D01*
X-1087359Y23551705D01*
X-1073977Y23554505D01*
X-1071692Y23556329D01*
X-1050595Y23560835D01*
X-1012645Y23563971D01*
X-963952Y23565148D01*
X-858119Y23565148D01*
X-858106Y23527425D01*
X-858106Y23524282D01*
G37*
M02*
