G04 #@! TF.GenerationSoftware,KiCad,Pcbnew,7.0.8-7.0.8~ubuntu23.04.1*
G04 #@! TF.CreationDate,2023-11-21T11:50:29+00:00*
G04 #@! TF.ProjectId,baggerdails,62616767-6572-4646-9169-6c732e6b6963,rev?*
G04 #@! TF.SameCoordinates,Original*
G04 #@! TF.FileFunction,Copper,L2,Bot*
G04 #@! TF.FilePolarity,Positive*
%FSLAX46Y46*%
G04 Gerber Fmt 4.6, Leading zero omitted, Abs format (unit mm)*
G04 Created by KiCad (PCBNEW 7.0.8-7.0.8~ubuntu23.04.1) date 2023-11-21 11:50:29*
%MOMM*%
%LPD*%
G01*
G04 APERTURE LIST*
%ADD10C,0.300000*%
G04 #@! TA.AperFunction,NonConductor*
%ADD11C,0.300000*%
G04 #@! TD*
G04 #@! TA.AperFunction,EtchedComponent*
%ADD12C,0.010000*%
G04 #@! TD*
G04 #@! TA.AperFunction,ComponentPad*
%ADD13R,1.700000X1.700000*%
G04 #@! TD*
G04 #@! TA.AperFunction,ComponentPad*
%ADD14O,1.700000X1.700000*%
G04 #@! TD*
G04 #@! TA.AperFunction,ComponentPad*
%ADD15O,1.900000X1.200000*%
G04 #@! TD*
G04 #@! TA.AperFunction,ComponentPad*
%ADD16C,1.450000*%
G04 #@! TD*
G04 #@! TA.AperFunction,ViaPad*
%ADD17C,0.900000*%
G04 #@! TD*
G04 #@! TA.AperFunction,ViaPad*
%ADD18C,1.000000*%
G04 #@! TD*
G04 #@! TA.AperFunction,Conductor*
%ADD19C,0.200000*%
G04 #@! TD*
G04 #@! TA.AperFunction,Conductor*
%ADD20C,0.500000*%
G04 #@! TD*
G04 APERTURE END LIST*
D10*
D11*
X12954510Y1199172D02*
X12954510Y2699172D01*
X12954510Y2699172D02*
X13311653Y2699172D01*
X13311653Y2699172D02*
X13525939Y2627743D01*
X13525939Y2627743D02*
X13668796Y2484886D01*
X13668796Y2484886D02*
X13740225Y2342029D01*
X13740225Y2342029D02*
X13811653Y2056315D01*
X13811653Y2056315D02*
X13811653Y1842029D01*
X13811653Y1842029D02*
X13740225Y1556315D01*
X13740225Y1556315D02*
X13668796Y1413458D01*
X13668796Y1413458D02*
X13525939Y1270600D01*
X13525939Y1270600D02*
X13311653Y1199172D01*
X13311653Y1199172D02*
X12954510Y1199172D01*
X15097368Y1199172D02*
X15097368Y1984886D01*
X15097368Y1984886D02*
X15025939Y2127743D01*
X15025939Y2127743D02*
X14883082Y2199172D01*
X14883082Y2199172D02*
X14597368Y2199172D01*
X14597368Y2199172D02*
X14454510Y2127743D01*
X15097368Y1270600D02*
X14954510Y1199172D01*
X14954510Y1199172D02*
X14597368Y1199172D01*
X14597368Y1199172D02*
X14454510Y1270600D01*
X14454510Y1270600D02*
X14383082Y1413458D01*
X14383082Y1413458D02*
X14383082Y1556315D01*
X14383082Y1556315D02*
X14454510Y1699172D01*
X14454510Y1699172D02*
X14597368Y1770600D01*
X14597368Y1770600D02*
X14954510Y1770600D01*
X14954510Y1770600D02*
X15097368Y1842029D01*
X15811653Y1199172D02*
X15811653Y2199172D01*
X15811653Y2699172D02*
X15740225Y2627743D01*
X15740225Y2627743D02*
X15811653Y2556315D01*
X15811653Y2556315D02*
X15883082Y2627743D01*
X15883082Y2627743D02*
X15811653Y2699172D01*
X15811653Y2699172D02*
X15811653Y2556315D01*
X16740225Y1199172D02*
X16597368Y1270600D01*
X16597368Y1270600D02*
X16525939Y1413458D01*
X16525939Y1413458D02*
X16525939Y2699172D01*
X18311653Y2199172D02*
X18668796Y1199172D01*
X18668796Y1199172D02*
X19025939Y2199172D01*
X19883082Y2699172D02*
X20025939Y2699172D01*
X20025939Y2699172D02*
X20168796Y2627743D01*
X20168796Y2627743D02*
X20240225Y2556315D01*
X20240225Y2556315D02*
X20311653Y2413458D01*
X20311653Y2413458D02*
X20383082Y2127743D01*
X20383082Y2127743D02*
X20383082Y1770600D01*
X20383082Y1770600D02*
X20311653Y1484886D01*
X20311653Y1484886D02*
X20240225Y1342029D01*
X20240225Y1342029D02*
X20168796Y1270600D01*
X20168796Y1270600D02*
X20025939Y1199172D01*
X20025939Y1199172D02*
X19883082Y1199172D01*
X19883082Y1199172D02*
X19740225Y1270600D01*
X19740225Y1270600D02*
X19668796Y1342029D01*
X19668796Y1342029D02*
X19597367Y1484886D01*
X19597367Y1484886D02*
X19525939Y1770600D01*
X19525939Y1770600D02*
X19525939Y2127743D01*
X19525939Y2127743D02*
X19597367Y2413458D01*
X19597367Y2413458D02*
X19668796Y2556315D01*
X19668796Y2556315D02*
X19740225Y2627743D01*
X19740225Y2627743D02*
X19883082Y2699172D01*
X21025938Y1342029D02*
X21097367Y1270600D01*
X21097367Y1270600D02*
X21025938Y1199172D01*
X21025938Y1199172D02*
X20954510Y1270600D01*
X20954510Y1270600D02*
X21025938Y1342029D01*
X21025938Y1342029D02*
X21025938Y1199172D01*
X22525939Y1199172D02*
X21668796Y1199172D01*
X22097367Y1199172D02*
X22097367Y2699172D01*
X22097367Y2699172D02*
X21954510Y2484886D01*
X21954510Y2484886D02*
X21811653Y2342029D01*
X21811653Y2342029D02*
X21668796Y2270600D01*
D12*
X866017Y31530083D02*
X-266017Y31530083D01*
X-266017Y32096100D01*
X866017Y32096100D01*
X866017Y31530083D01*
G04 #@! TA.AperFunction,EtchedComponent*
G36*
X866017Y31530083D02*
G01*
X-266017Y31530083D01*
X-266017Y32096100D01*
X866017Y32096100D01*
X866017Y31530083D01*
G37*
G04 #@! TD.AperFunction*
X532979Y32638861D02*
X583008Y32520613D01*
X559752Y32429138D01*
X441504Y32379108D01*
X350029Y32402364D01*
X300000Y32520613D01*
X323255Y32612088D01*
X441504Y32662117D01*
X532979Y32638861D01*
G04 #@! TA.AperFunction,EtchedComponent*
G36*
X532979Y32638861D02*
G01*
X583008Y32520613D01*
X559752Y32429138D01*
X441504Y32379108D01*
X350029Y32402364D01*
X300000Y32520613D01*
X323255Y32612088D01*
X441504Y32662117D01*
X532979Y32638861D01*
G37*
G04 #@! TD.AperFunction*
X-882063Y27544711D02*
X-832034Y27426462D01*
X-855289Y27334987D01*
X-973538Y27284958D01*
X-1065013Y27308214D01*
X-1115042Y27426462D01*
X-1091786Y27517937D01*
X-973538Y27567966D01*
X-882063Y27544711D01*
G04 #@! TA.AperFunction,EtchedComponent*
G36*
X-882063Y27544711D02*
G01*
X-832034Y27426462D01*
X-855289Y27334987D01*
X-973538Y27284958D01*
X-1065013Y27308214D01*
X-1115042Y27426462D01*
X-1091786Y27517937D01*
X-973538Y27567966D01*
X-882063Y27544711D01*
G37*
G04 #@! TD.AperFunction*
X-1448080Y30091786D02*
X-1398050Y29973537D01*
X-1421306Y29882063D01*
X-1539555Y29832033D01*
X-1631029Y29855289D01*
X-1681059Y29973537D01*
X-1657803Y30065012D01*
X-1539555Y30115042D01*
X-1448080Y30091786D01*
G04 #@! TA.AperFunction,EtchedComponent*
G36*
X-1448080Y30091786D02*
G01*
X-1398050Y29973537D01*
X-1421306Y29882063D01*
X-1539555Y29832033D01*
X-1631029Y29855289D01*
X-1681059Y29973537D01*
X-1657803Y30065012D01*
X-1539555Y30115042D01*
X-1448080Y30091786D01*
G37*
G04 #@! TD.AperFunction*
X-3146130Y27261702D02*
X-3096100Y27143454D01*
X-3119356Y27051979D01*
X-3237605Y27001950D01*
X-3329080Y27025205D01*
X-3379109Y27143454D01*
X-3355853Y27234929D01*
X-3237605Y27284958D01*
X-3146130Y27261702D01*
G04 #@! TA.AperFunction,EtchedComponent*
G36*
X-3146130Y27261702D02*
G01*
X-3096100Y27143454D01*
X-3119356Y27051979D01*
X-3237605Y27001950D01*
X-3329080Y27025205D01*
X-3379109Y27143454D01*
X-3355853Y27234929D01*
X-3237605Y27284958D01*
X-3146130Y27261702D01*
G37*
G04 #@! TD.AperFunction*
X-1457879Y30948044D02*
X-1409917Y30866213D01*
X-1398050Y30681058D01*
X-1398731Y30581869D01*
X-1419417Y30452515D01*
X-1499910Y30404858D01*
X-1681059Y30398050D01*
X-1844410Y30406061D01*
X-1940334Y30446977D01*
X-1964067Y30539554D01*
X-1940811Y30631029D01*
X-1822563Y30681058D01*
X-1731088Y30704314D01*
X-1681059Y30822562D01*
X-1657803Y30914037D01*
X-1539555Y30964067D01*
X-1457879Y30948044D01*
G04 #@! TA.AperFunction,EtchedComponent*
G36*
X-1457879Y30948044D02*
G01*
X-1409917Y30866213D01*
X-1398050Y30681058D01*
X-1398731Y30581869D01*
X-1419417Y30452515D01*
X-1499910Y30404858D01*
X-1681059Y30398050D01*
X-1844410Y30406061D01*
X-1940334Y30446977D01*
X-1964067Y30539554D01*
X-1940811Y30631029D01*
X-1822563Y30681058D01*
X-1731088Y30704314D01*
X-1681059Y30822562D01*
X-1657803Y30914037D01*
X-1539555Y30964067D01*
X-1457879Y30948044D01*
G37*
G04 #@! TD.AperFunction*
X-936229Y30961984D02*
X-879970Y30933567D01*
X-848595Y30849082D01*
X-834988Y30680064D01*
X-832034Y30398050D01*
X-832554Y30248815D01*
X-839659Y30023777D01*
X-860780Y29898277D01*
X-903034Y29843850D01*
X-973538Y29832033D01*
X-1010846Y29834116D01*
X-1067106Y29862533D01*
X-1098481Y29947018D01*
X-1112088Y30116036D01*
X-1115042Y30398050D01*
X-1114521Y30547285D01*
X-1107417Y30772322D01*
X-1086296Y30897823D01*
X-1044041Y30952250D01*
X-973538Y30964067D01*
X-936229Y30961984D01*
G04 #@! TA.AperFunction,EtchedComponent*
G36*
X-936229Y30961984D02*
G01*
X-879970Y30933567D01*
X-848595Y30849082D01*
X-834988Y30680064D01*
X-832034Y30398050D01*
X-832554Y30248815D01*
X-839659Y30023777D01*
X-860780Y29898277D01*
X-903034Y29843850D01*
X-973538Y29832033D01*
X-1010846Y29834116D01*
X-1067106Y29862533D01*
X-1098481Y29947018D01*
X-1112088Y30116036D01*
X-1115042Y30398050D01*
X-1114521Y30547285D01*
X-1107417Y30772322D01*
X-1086296Y30897823D01*
X-1044041Y30952250D01*
X-973538Y30964067D01*
X-936229Y30961984D01*
G37*
G04 #@! TD.AperFunction*
X-2932749Y32654105D02*
X-2836825Y32613190D01*
X-2813092Y32520613D01*
X-2789836Y32429138D01*
X-2671588Y32379108D01*
X-2608913Y32371304D01*
X-2557928Y32319811D01*
X-2535247Y32191695D01*
X-2530084Y31954596D01*
X-2530084Y31530083D01*
X-3662117Y31530083D01*
X-3662117Y31954596D01*
X-3659516Y32142620D01*
X-3642351Y32295577D01*
X-3599646Y32363619D01*
X-3520613Y32379108D01*
X-3429138Y32402364D01*
X-3379109Y32520613D01*
X-3363086Y32602288D01*
X-3281255Y32650250D01*
X-3096100Y32662117D01*
X-2932749Y32654105D01*
G04 #@! TA.AperFunction,EtchedComponent*
G36*
X-2932749Y32654105D02*
G01*
X-2836825Y32613190D01*
X-2813092Y32520613D01*
X-2789836Y32429138D01*
X-2671588Y32379108D01*
X-2608913Y32371304D01*
X-2557928Y32319811D01*
X-2535247Y32191695D01*
X-2530084Y31954596D01*
X-2530084Y31530083D01*
X-3662117Y31530083D01*
X-3662117Y31954596D01*
X-3659516Y32142620D01*
X-3642351Y32295577D01*
X-3599646Y32363619D01*
X-3520613Y32379108D01*
X-3429138Y32402364D01*
X-3379109Y32520613D01*
X-3363086Y32602288D01*
X-3281255Y32650250D01*
X-3096100Y32662117D01*
X-2932749Y32654105D01*
G37*
G04 #@! TD.AperFunction*
X866017Y28416991D02*
X441504Y28416991D01*
X253480Y28419593D01*
X100523Y28436757D01*
X32481Y28479463D01*
X16991Y28558496D01*
X-6264Y28649971D01*
X-124513Y28700000D01*
X-215988Y28723255D01*
X-266017Y28841504D01*
X300000Y28841504D01*
X323255Y28750029D01*
X441504Y28700000D01*
X532979Y28723255D01*
X583008Y28841504D01*
X559752Y28932979D01*
X441504Y28983008D01*
X350029Y28959752D01*
X300000Y28841504D01*
X-266017Y28841504D01*
X-249994Y28923180D01*
X-168163Y28971142D01*
X16991Y28983008D01*
X180343Y28991020D01*
X276267Y29031935D01*
X300000Y29124512D01*
X316023Y29206188D01*
X397854Y29254150D01*
X583008Y29266017D01*
X866017Y29266017D01*
X866017Y28841504D01*
X866017Y28416991D01*
G04 #@! TA.AperFunction,EtchedComponent*
G36*
X866017Y28416991D02*
G01*
X441504Y28416991D01*
X253480Y28419593D01*
X100523Y28436757D01*
X32481Y28479463D01*
X16991Y28558496D01*
X-6264Y28649971D01*
X-124513Y28700000D01*
X-215988Y28723255D01*
X-266017Y28841504D01*
X300000Y28841504D01*
X323255Y28750029D01*
X441504Y28700000D01*
X532979Y28723255D01*
X583008Y28841504D01*
X559752Y28932979D01*
X441504Y28983008D01*
X350029Y28959752D01*
X300000Y28841504D01*
X-266017Y28841504D01*
X-249994Y28923180D01*
X-168163Y28971142D01*
X16991Y28983008D01*
X180343Y28991020D01*
X276267Y29031935D01*
X300000Y29124512D01*
X316023Y29206188D01*
X397854Y29254150D01*
X583008Y29266017D01*
X866017Y29266017D01*
X866017Y28841504D01*
X866017Y28416991D01*
G37*
G04 #@! TD.AperFunction*
X-1448080Y27261702D02*
X-1398050Y27143454D01*
X-1382027Y27061778D01*
X-1300196Y27013816D01*
X-1115042Y27001950D01*
X-1015853Y27001269D01*
X-886499Y26980583D01*
X-838842Y26900090D01*
X-832034Y26718941D01*
X-840045Y26555590D01*
X-880961Y26459666D01*
X-973538Y26435933D01*
X-1065013Y26459189D01*
X-1115042Y26577437D01*
X-1138298Y26668912D01*
X-1256546Y26718941D01*
X-1348021Y26695686D01*
X-1398050Y26577437D01*
X-1421306Y26485962D01*
X-1539555Y26435933D01*
X-1631029Y26459189D01*
X-1681059Y26577437D01*
X-1657803Y26668912D01*
X-1539555Y26718941D01*
X-1448080Y26742197D01*
X-1398050Y26860445D01*
X-1421306Y26951920D01*
X-1539555Y27001950D01*
X-1631029Y27025205D01*
X-1681059Y27143454D01*
X-1657803Y27234929D01*
X-1539555Y27284958D01*
X-1448080Y27261702D01*
G04 #@! TA.AperFunction,EtchedComponent*
G36*
X-1448080Y27261702D02*
G01*
X-1398050Y27143454D01*
X-1382027Y27061778D01*
X-1300196Y27013816D01*
X-1115042Y27001950D01*
X-1015853Y27001269D01*
X-886499Y26980583D01*
X-838842Y26900090D01*
X-832034Y26718941D01*
X-840045Y26555590D01*
X-880961Y26459666D01*
X-973538Y26435933D01*
X-1065013Y26459189D01*
X-1115042Y26577437D01*
X-1138298Y26668912D01*
X-1256546Y26718941D01*
X-1348021Y26695686D01*
X-1398050Y26577437D01*
X-1421306Y26485962D01*
X-1539555Y26435933D01*
X-1631029Y26459189D01*
X-1681059Y26577437D01*
X-1657803Y26668912D01*
X-1539555Y26718941D01*
X-1448080Y26742197D01*
X-1398050Y26860445D01*
X-1421306Y26951920D01*
X-1539555Y27001950D01*
X-1631029Y27025205D01*
X-1681059Y27143454D01*
X-1657803Y27234929D01*
X-1539555Y27284958D01*
X-1448080Y27261702D01*
G37*
G04 #@! TD.AperFunction*
X-2863121Y29242761D02*
X-2813092Y29124512D01*
X-2789836Y29033037D01*
X-2671588Y28983008D01*
X-2580113Y28959752D01*
X-2530084Y28841504D01*
X-2553339Y28750029D01*
X-2671588Y28700000D01*
X-2763063Y28676744D01*
X-2813092Y28558496D01*
X-2789836Y28467021D01*
X-2671588Y28416991D01*
X-2580113Y28393736D01*
X-2530084Y28275487D01*
X-2532167Y28238179D01*
X-2560583Y28181919D01*
X-2645069Y28150544D01*
X-2814087Y28136937D01*
X-3096100Y28133983D01*
X-3662117Y28133983D01*
X-3662117Y28416991D01*
X-3661437Y28516180D01*
X-3640750Y28645535D01*
X-3560257Y28693192D01*
X-3379109Y28700000D01*
X-3279920Y28700680D01*
X-3150565Y28721367D01*
X-3102909Y28801860D01*
X-3096100Y28983008D01*
X-3088089Y29146360D01*
X-3047173Y29242284D01*
X-2954596Y29266017D01*
X-2863121Y29242761D01*
G04 #@! TA.AperFunction,EtchedComponent*
G36*
X-2863121Y29242761D02*
G01*
X-2813092Y29124512D01*
X-2789836Y29033037D01*
X-2671588Y28983008D01*
X-2580113Y28959752D01*
X-2530084Y28841504D01*
X-2553339Y28750029D01*
X-2671588Y28700000D01*
X-2763063Y28676744D01*
X-2813092Y28558496D01*
X-2789836Y28467021D01*
X-2671588Y28416991D01*
X-2580113Y28393736D01*
X-2530084Y28275487D01*
X-2532167Y28238179D01*
X-2560583Y28181919D01*
X-2645069Y28150544D01*
X-2814087Y28136937D01*
X-3096100Y28133983D01*
X-3662117Y28133983D01*
X-3662117Y28416991D01*
X-3661437Y28516180D01*
X-3640750Y28645535D01*
X-3560257Y28693192D01*
X-3379109Y28700000D01*
X-3279920Y28700680D01*
X-3150565Y28721367D01*
X-3102909Y28801860D01*
X-3096100Y28983008D01*
X-3088089Y29146360D01*
X-3047173Y29242284D01*
X-2954596Y29266017D01*
X-2863121Y29242761D01*
G37*
G04 #@! TD.AperFunction*
X3929079Y29242761D02*
X3979108Y29124512D01*
X4002364Y29033037D01*
X4120613Y28983008D01*
X4183287Y28975204D01*
X4234273Y28923710D01*
X4256954Y28795594D01*
X4262117Y28558496D01*
X4259515Y28370471D01*
X4242351Y28217515D01*
X4199646Y28149473D01*
X4120613Y28133983D01*
X4029138Y28157239D01*
X3979108Y28275487D01*
X3955853Y28366962D01*
X3837604Y28416991D01*
X3746129Y28393736D01*
X3696100Y28275487D01*
X3672844Y28184012D01*
X3554596Y28133983D01*
X3463121Y28157239D01*
X3413092Y28275487D01*
X3436347Y28366962D01*
X3554596Y28416991D01*
X3646071Y28440247D01*
X3696100Y28558496D01*
X3719356Y28649971D01*
X3837604Y28700000D01*
X3929079Y28723255D01*
X3979108Y28841504D01*
X3955853Y28932979D01*
X3837604Y28983008D01*
X3746129Y29006264D01*
X3696100Y29124512D01*
X3719356Y29215987D01*
X3837604Y29266017D01*
X3929079Y29242761D01*
G04 #@! TA.AperFunction,EtchedComponent*
G36*
X3929079Y29242761D02*
G01*
X3979108Y29124512D01*
X4002364Y29033037D01*
X4120613Y28983008D01*
X4183287Y28975204D01*
X4234273Y28923710D01*
X4256954Y28795594D01*
X4262117Y28558496D01*
X4259515Y28370471D01*
X4242351Y28217515D01*
X4199646Y28149473D01*
X4120613Y28133983D01*
X4029138Y28157239D01*
X3979108Y28275487D01*
X3955853Y28366962D01*
X3837604Y28416991D01*
X3746129Y28393736D01*
X3696100Y28275487D01*
X3672844Y28184012D01*
X3554596Y28133983D01*
X3463121Y28157239D01*
X3413092Y28275487D01*
X3436347Y28366962D01*
X3554596Y28416991D01*
X3646071Y28440247D01*
X3696100Y28558496D01*
X3719356Y28649971D01*
X3837604Y28700000D01*
X3929079Y28723255D01*
X3979108Y28841504D01*
X3955853Y28932979D01*
X3837604Y28983008D01*
X3746129Y29006264D01*
X3696100Y29124512D01*
X3719356Y29215987D01*
X3837604Y29266017D01*
X3929079Y29242761D01*
G37*
G04 #@! TD.AperFunction*
X3859452Y32654105D02*
X3955376Y32613190D01*
X3979108Y32520613D01*
X4002364Y32429138D01*
X4120613Y32379108D01*
X4212088Y32355853D01*
X4262117Y32237604D01*
X4238861Y32146129D01*
X4120613Y32096100D01*
X4029138Y32072844D01*
X3979108Y31954596D01*
X3955853Y31863121D01*
X3837604Y31813092D01*
X3746129Y31789836D01*
X3696100Y31671588D01*
X3680077Y31589912D01*
X3598246Y31541950D01*
X3413092Y31530083D01*
X3249740Y31538095D01*
X3153816Y31579010D01*
X3130083Y31671588D01*
X3153339Y31763062D01*
X3271588Y31813092D01*
X3363062Y31836347D01*
X3413092Y31954596D01*
X3389836Y32046071D01*
X3271588Y32096100D01*
X3180113Y32119356D01*
X3130083Y32237604D01*
X3153339Y32329079D01*
X3271588Y32379108D01*
X3363062Y32402364D01*
X3413092Y32520613D01*
X3429115Y32602288D01*
X3510946Y32650250D01*
X3696100Y32662117D01*
X3859452Y32654105D01*
G04 #@! TA.AperFunction,EtchedComponent*
G36*
X3859452Y32654105D02*
G01*
X3955376Y32613190D01*
X3979108Y32520613D01*
X4002364Y32429138D01*
X4120613Y32379108D01*
X4212088Y32355853D01*
X4262117Y32237604D01*
X4238861Y32146129D01*
X4120613Y32096100D01*
X4029138Y32072844D01*
X3979108Y31954596D01*
X3955853Y31863121D01*
X3837604Y31813092D01*
X3746129Y31789836D01*
X3696100Y31671588D01*
X3680077Y31589912D01*
X3598246Y31541950D01*
X3413092Y31530083D01*
X3249740Y31538095D01*
X3153816Y31579010D01*
X3130083Y31671588D01*
X3153339Y31763062D01*
X3271588Y31813092D01*
X3363062Y31836347D01*
X3413092Y31954596D01*
X3389836Y32046071D01*
X3271588Y32096100D01*
X3180113Y32119356D01*
X3130083Y32237604D01*
X3153339Y32329079D01*
X3271588Y32379108D01*
X3363062Y32402364D01*
X3413092Y32520613D01*
X3429115Y32602288D01*
X3510946Y32650250D01*
X3696100Y32662117D01*
X3859452Y32654105D01*
G37*
G04 #@! TD.AperFunction*
X2485237Y27560162D02*
X2536223Y27508668D01*
X2558903Y27380553D01*
X2564067Y27143454D01*
X2561465Y26955429D01*
X2544301Y26802473D01*
X2501595Y26734431D01*
X2422562Y26718941D01*
X2331088Y26695686D01*
X2281058Y26577437D01*
X2265035Y26495761D01*
X2183204Y26447799D01*
X1998050Y26435933D01*
X1834698Y26443944D01*
X1738774Y26484860D01*
X1715042Y26577437D01*
X1691786Y26668912D01*
X1573537Y26718941D01*
X1482063Y26742197D01*
X1432033Y26860445D01*
X1455289Y26951920D01*
X1573537Y27001950D01*
X1665012Y27025205D01*
X1715042Y27143454D01*
X1738297Y27234929D01*
X1856546Y27284958D01*
X1938222Y27268935D01*
X1986184Y27187104D01*
X1998050Y27001950D01*
X2006061Y26838598D01*
X2046977Y26742674D01*
X2139554Y26718941D01*
X2202229Y26726746D01*
X2253214Y26778239D01*
X2275895Y26906355D01*
X2281058Y27143454D01*
X2283660Y27331478D01*
X2300824Y27484434D01*
X2343530Y27552477D01*
X2422562Y27567966D01*
X2485237Y27560162D01*
G04 #@! TA.AperFunction,EtchedComponent*
G36*
X2485237Y27560162D02*
G01*
X2536223Y27508668D01*
X2558903Y27380553D01*
X2564067Y27143454D01*
X2561465Y26955429D01*
X2544301Y26802473D01*
X2501595Y26734431D01*
X2422562Y26718941D01*
X2331088Y26695686D01*
X2281058Y26577437D01*
X2265035Y26495761D01*
X2183204Y26447799D01*
X1998050Y26435933D01*
X1834698Y26443944D01*
X1738774Y26484860D01*
X1715042Y26577437D01*
X1691786Y26668912D01*
X1573537Y26718941D01*
X1482063Y26742197D01*
X1432033Y26860445D01*
X1455289Y26951920D01*
X1573537Y27001950D01*
X1665012Y27025205D01*
X1715042Y27143454D01*
X1738297Y27234929D01*
X1856546Y27284958D01*
X1938222Y27268935D01*
X1986184Y27187104D01*
X1998050Y27001950D01*
X2006061Y26838598D01*
X2046977Y26742674D01*
X2139554Y26718941D01*
X2202229Y26726746D01*
X2253214Y26778239D01*
X2275895Y26906355D01*
X2281058Y27143454D01*
X2283660Y27331478D01*
X2300824Y27484434D01*
X2343530Y27552477D01*
X2422562Y27567966D01*
X2485237Y27560162D01*
G37*
G04 #@! TD.AperFunction*
X399189Y25869236D02*
X528543Y25848549D01*
X576200Y25768056D01*
X583008Y25586908D01*
X591020Y25423556D01*
X631935Y25327632D01*
X724512Y25303900D01*
X815987Y25280644D01*
X866017Y25162395D01*
X842761Y25070920D01*
X724512Y25020891D01*
X633037Y24997635D01*
X583008Y24879387D01*
X559752Y24787912D01*
X441504Y24737883D01*
X378829Y24745687D01*
X327844Y24797181D01*
X305163Y24925296D01*
X300000Y25162395D01*
X297398Y25350420D01*
X280234Y25503376D01*
X237529Y25571418D01*
X158496Y25586908D01*
X76820Y25570885D01*
X28858Y25489054D01*
X16991Y25303900D01*
X8980Y25140548D01*
X-31936Y25044624D01*
X-124513Y25020891D01*
X-206189Y25036914D01*
X-254151Y25118745D01*
X-266017Y25303900D01*
X-258005Y25467251D01*
X-217090Y25563175D01*
X-124513Y25586908D01*
X-33038Y25610164D01*
X16991Y25728412D01*
X33014Y25810088D01*
X114845Y25858050D01*
X300000Y25869916D01*
X399189Y25869236D01*
G04 #@! TA.AperFunction,EtchedComponent*
G36*
X399189Y25869236D02*
G01*
X528543Y25848549D01*
X576200Y25768056D01*
X583008Y25586908D01*
X591020Y25423556D01*
X631935Y25327632D01*
X724512Y25303900D01*
X815987Y25280644D01*
X866017Y25162395D01*
X842761Y25070920D01*
X724512Y25020891D01*
X633037Y24997635D01*
X583008Y24879387D01*
X559752Y24787912D01*
X441504Y24737883D01*
X378829Y24745687D01*
X327844Y24797181D01*
X305163Y24925296D01*
X300000Y25162395D01*
X297398Y25350420D01*
X280234Y25503376D01*
X237529Y25571418D01*
X158496Y25586908D01*
X76820Y25570885D01*
X28858Y25489054D01*
X16991Y25303900D01*
X8980Y25140548D01*
X-31936Y25044624D01*
X-124513Y25020891D01*
X-206189Y25036914D01*
X-254151Y25118745D01*
X-266017Y25303900D01*
X-258005Y25467251D01*
X-217090Y25563175D01*
X-124513Y25586908D01*
X-33038Y25610164D01*
X16991Y25728412D01*
X33014Y25810088D01*
X114845Y25858050D01*
X300000Y25869916D01*
X399189Y25869236D01*
G37*
G04 #@! TD.AperFunction*
X2544301Y30198573D02*
X2501595Y30130531D01*
X2422562Y30115042D01*
X2331088Y30091786D01*
X2281058Y29973537D01*
X2273254Y29910863D01*
X2221760Y29859877D01*
X2093645Y29837196D01*
X1856546Y29832033D01*
X1432033Y29832033D01*
X1432033Y30256546D01*
X1715042Y30256546D01*
X1731065Y30174870D01*
X1812896Y30126908D01*
X1998050Y30115042D01*
X2161402Y30123053D01*
X2257325Y30163969D01*
X2281058Y30256546D01*
X2265035Y30338222D01*
X2183204Y30386184D01*
X1998050Y30398050D01*
X1834698Y30390038D01*
X1738774Y30349123D01*
X1715042Y30256546D01*
X1432033Y30256546D01*
X1432033Y30964067D01*
X1715042Y30964067D01*
X1878393Y30956055D01*
X1974317Y30915140D01*
X1998050Y30822562D01*
X2021306Y30731088D01*
X2139554Y30681058D01*
X2231029Y30704314D01*
X2281058Y30822562D01*
X2304314Y30914037D01*
X2422562Y30964067D01*
X2485237Y30956262D01*
X2536223Y30904769D01*
X2558903Y30776653D01*
X2564067Y30539554D01*
X2561465Y30351530D01*
X2550806Y30256546D01*
X2544301Y30198573D01*
G04 #@! TA.AperFunction,EtchedComponent*
G36*
X2544301Y30198573D02*
G01*
X2501595Y30130531D01*
X2422562Y30115042D01*
X2331088Y30091786D01*
X2281058Y29973537D01*
X2273254Y29910863D01*
X2221760Y29859877D01*
X2093645Y29837196D01*
X1856546Y29832033D01*
X1432033Y29832033D01*
X1432033Y30256546D01*
X1715042Y30256546D01*
X1731065Y30174870D01*
X1812896Y30126908D01*
X1998050Y30115042D01*
X2161402Y30123053D01*
X2257325Y30163969D01*
X2281058Y30256546D01*
X2265035Y30338222D01*
X2183204Y30386184D01*
X1998050Y30398050D01*
X1834698Y30390038D01*
X1738774Y30349123D01*
X1715042Y30256546D01*
X1432033Y30256546D01*
X1432033Y30964067D01*
X1715042Y30964067D01*
X1878393Y30956055D01*
X1974317Y30915140D01*
X1998050Y30822562D01*
X2021306Y30731088D01*
X2139554Y30681058D01*
X2231029Y30704314D01*
X2281058Y30822562D01*
X2304314Y30914037D01*
X2422562Y30964067D01*
X2485237Y30956262D01*
X2536223Y30904769D01*
X2558903Y30776653D01*
X2564067Y30539554D01*
X2561465Y30351530D01*
X2550806Y30256546D01*
X2544301Y30198573D01*
G37*
G04 #@! TD.AperFunction*
X-2530084Y25162395D02*
X-2530084Y24737883D01*
X-3662117Y24737883D01*
X-3662117Y25020891D01*
X-3654106Y25184243D01*
X-3613190Y25280167D01*
X-3520613Y25303900D01*
X-3096100Y25303900D01*
X-3088089Y25140548D01*
X-3047173Y25044624D01*
X-2954596Y25020891D01*
X-2872920Y25036914D01*
X-2824959Y25118745D01*
X-2813092Y25303900D01*
X-2821104Y25467251D01*
X-2862019Y25563175D01*
X-2954596Y25586908D01*
X-3036272Y25570885D01*
X-3084234Y25489054D01*
X-3096100Y25303900D01*
X-3520613Y25303900D01*
X-3429138Y25327155D01*
X-3379109Y25445404D01*
X-3402365Y25536879D01*
X-3520613Y25586908D01*
X-3612088Y25610164D01*
X-3662117Y25728412D01*
X-3654313Y25791087D01*
X-3602819Y25842072D01*
X-3474704Y25864753D01*
X-3237605Y25869916D01*
X-3049580Y25867315D01*
X-2896624Y25850150D01*
X-2828582Y25807445D01*
X-2813092Y25728412D01*
X-2789836Y25636937D01*
X-2671588Y25586908D01*
X-2608913Y25579104D01*
X-2557928Y25527610D01*
X-2535247Y25399494D01*
X-2533165Y25303900D01*
X-2530084Y25162395D01*
G04 #@! TA.AperFunction,EtchedComponent*
G36*
X-2530084Y25162395D02*
G01*
X-2530084Y24737883D01*
X-3662117Y24737883D01*
X-3662117Y25020891D01*
X-3654106Y25184243D01*
X-3613190Y25280167D01*
X-3520613Y25303900D01*
X-3096100Y25303900D01*
X-3088089Y25140548D01*
X-3047173Y25044624D01*
X-2954596Y25020891D01*
X-2872920Y25036914D01*
X-2824959Y25118745D01*
X-2813092Y25303900D01*
X-2821104Y25467251D01*
X-2862019Y25563175D01*
X-2954596Y25586908D01*
X-3036272Y25570885D01*
X-3084234Y25489054D01*
X-3096100Y25303900D01*
X-3520613Y25303900D01*
X-3429138Y25327155D01*
X-3379109Y25445404D01*
X-3402365Y25536879D01*
X-3520613Y25586908D01*
X-3612088Y25610164D01*
X-3662117Y25728412D01*
X-3654313Y25791087D01*
X-3602819Y25842072D01*
X-3474704Y25864753D01*
X-3237605Y25869916D01*
X-3049580Y25867315D01*
X-2896624Y25850150D01*
X-2828582Y25807445D01*
X-2813092Y25728412D01*
X-2789836Y25636937D01*
X-2671588Y25586908D01*
X-2608913Y25579104D01*
X-2557928Y25527610D01*
X-2535247Y25399494D01*
X-2533165Y25303900D01*
X-2530084Y25162395D01*
G37*
G04 #@! TD.AperFunction*
X4254105Y25140548D02*
X4213190Y25044624D01*
X4120613Y25020891D01*
X4029138Y24997635D01*
X3979108Y24879387D01*
X3963085Y24797711D01*
X3881254Y24749749D01*
X3696100Y24737883D01*
X3532748Y24745894D01*
X3436825Y24786810D01*
X3413092Y24879387D01*
X3389836Y24970862D01*
X3271588Y25020891D01*
X3189912Y25036914D01*
X3141950Y25118745D01*
X3139152Y25162395D01*
X3413092Y25162395D01*
X3429115Y25080719D01*
X3510946Y25032758D01*
X3696100Y25020891D01*
X3795289Y25021572D01*
X3924643Y25042258D01*
X3972300Y25122751D01*
X3979108Y25303900D01*
X3971097Y25467251D01*
X3930181Y25563175D01*
X3837604Y25586908D01*
X3746129Y25563652D01*
X3696100Y25445404D01*
X3672844Y25353929D01*
X3554596Y25303900D01*
X3463121Y25280644D01*
X3413092Y25162395D01*
X3139152Y25162395D01*
X3130083Y25303900D01*
X3138095Y25467251D01*
X3179010Y25563175D01*
X3271588Y25586908D01*
X3363062Y25610164D01*
X3413092Y25728412D01*
X3429115Y25810088D01*
X3510946Y25858050D01*
X3696100Y25869916D01*
X3859452Y25861905D01*
X3955376Y25820989D01*
X3979108Y25728412D01*
X4002364Y25636937D01*
X4120613Y25586908D01*
X4202288Y25570885D01*
X4250250Y25489054D01*
X4262117Y25303900D01*
X4254105Y25140548D01*
G04 #@! TA.AperFunction,EtchedComponent*
G36*
X4254105Y25140548D02*
G01*
X4213190Y25044624D01*
X4120613Y25020891D01*
X4029138Y24997635D01*
X3979108Y24879387D01*
X3963085Y24797711D01*
X3881254Y24749749D01*
X3696100Y24737883D01*
X3532748Y24745894D01*
X3436825Y24786810D01*
X3413092Y24879387D01*
X3389836Y24970862D01*
X3271588Y25020891D01*
X3189912Y25036914D01*
X3141950Y25118745D01*
X3139152Y25162395D01*
X3413092Y25162395D01*
X3429115Y25080719D01*
X3510946Y25032758D01*
X3696100Y25020891D01*
X3795289Y25021572D01*
X3924643Y25042258D01*
X3972300Y25122751D01*
X3979108Y25303900D01*
X3971097Y25467251D01*
X3930181Y25563175D01*
X3837604Y25586908D01*
X3746129Y25563652D01*
X3696100Y25445404D01*
X3672844Y25353929D01*
X3554596Y25303900D01*
X3463121Y25280644D01*
X3413092Y25162395D01*
X3139152Y25162395D01*
X3130083Y25303900D01*
X3138095Y25467251D01*
X3179010Y25563175D01*
X3271588Y25586908D01*
X3363062Y25610164D01*
X3413092Y25728412D01*
X3429115Y25810088D01*
X3510946Y25858050D01*
X3696100Y25869916D01*
X3859452Y25861905D01*
X3955376Y25820989D01*
X3979108Y25728412D01*
X4002364Y25636937D01*
X4120613Y25586908D01*
X4202288Y25570885D01*
X4250250Y25489054D01*
X4262117Y25303900D01*
X4254105Y25140548D01*
G37*
G04 #@! TD.AperFunction*
X1149025Y29973537D02*
X1149025Y29549025D01*
X-549025Y29549025D01*
X-549025Y28558496D01*
X-549025Y27850975D01*
X1149025Y27850975D01*
X1149025Y28275487D01*
X1432033Y28275487D01*
X1455289Y28184012D01*
X1573537Y28133983D01*
X1665012Y28157239D01*
X1715042Y28275487D01*
X1731065Y28357163D01*
X1812896Y28405125D01*
X1998050Y28416991D01*
X2161402Y28408980D01*
X2257325Y28368064D01*
X2281058Y28275487D01*
X2304314Y28184012D01*
X2422562Y28133983D01*
X2485237Y28141787D01*
X2536223Y28193281D01*
X2558903Y28321397D01*
X2564067Y28558496D01*
X2561465Y28746520D01*
X2544301Y28899476D01*
X2501595Y28967519D01*
X2422562Y28983008D01*
X2331088Y29006264D01*
X2281058Y29124512D01*
X2257803Y29215987D01*
X2139554Y29266017D01*
X2048079Y29242761D01*
X1998050Y29124512D01*
X1982027Y29042836D01*
X1900196Y28994875D01*
X1715042Y28983008D01*
X1551690Y28974997D01*
X1455766Y28934081D01*
X1432033Y28841504D01*
X1455289Y28750029D01*
X1573537Y28700000D01*
X1665012Y28676744D01*
X1715042Y28558496D01*
X1691786Y28467021D01*
X1573537Y28416991D01*
X1482063Y28393736D01*
X1432033Y28275487D01*
X1149025Y28275487D01*
X1149025Y29549025D01*
X2847075Y29549025D01*
X2847075Y28558496D01*
X2847075Y27850975D01*
X1149025Y27850975D01*
X1149025Y27426462D01*
X1149025Y26152925D01*
X-549025Y26152925D01*
X-549025Y27143454D01*
X-266017Y27143454D01*
X-249994Y27061778D01*
X-168163Y27013816D01*
X16991Y27001950D01*
X180343Y27009961D01*
X276267Y27050877D01*
X300000Y27143454D01*
X323255Y27234929D01*
X441504Y27284958D01*
X532979Y27308214D01*
X583008Y27426462D01*
X566985Y27508138D01*
X485154Y27556100D01*
X300000Y27567966D01*
X136648Y27559955D01*
X40724Y27519039D01*
X16991Y27426462D01*
X-6264Y27334987D01*
X-124513Y27284958D01*
X-215988Y27261702D01*
X-266017Y27143454D01*
X-549025Y27143454D01*
X-549025Y27850975D01*
X-2247075Y27850975D01*
X-2247075Y29124512D01*
X-1681059Y29124512D01*
X-1657803Y29033037D01*
X-1539555Y28983008D01*
X-1448080Y28959752D01*
X-1398050Y28841504D01*
X-1374795Y28750029D01*
X-1256546Y28700000D01*
X-1165071Y28676744D01*
X-1115042Y28558496D01*
X-1138298Y28467021D01*
X-1256546Y28416991D01*
X-1348021Y28393736D01*
X-1398050Y28275487D01*
X-1374795Y28184012D01*
X-1256546Y28133983D01*
X-1165071Y28157239D01*
X-1115042Y28275487D01*
X-1091786Y28366962D01*
X-973538Y28416991D01*
X-882063Y28440247D01*
X-832034Y28558496D01*
X-855289Y28649971D01*
X-973538Y28700000D01*
X-1055214Y28716023D01*
X-1103176Y28797854D01*
X-1115042Y28983008D01*
X-1115723Y29082197D01*
X-1136409Y29211552D01*
X-1216902Y29259208D01*
X-1398050Y29266017D01*
X-1561402Y29258005D01*
X-1657326Y29217089D01*
X-1681059Y29124512D01*
X-2247075Y29124512D01*
X-2247075Y29549025D01*
X-549025Y29549025D01*
X-549025Y29973537D01*
X16991Y29973537D01*
X40247Y29882063D01*
X158496Y29832033D01*
X249971Y29855289D01*
X300000Y29973537D01*
X583008Y29973537D01*
X606264Y29882063D01*
X724512Y29832033D01*
X815987Y29855289D01*
X866017Y29973537D01*
X842761Y30065012D01*
X724512Y30115042D01*
X633037Y30091786D01*
X583008Y29973537D01*
X300000Y29973537D01*
X276744Y30065012D01*
X158496Y30115042D01*
X67021Y30091786D01*
X16991Y29973537D01*
X-549025Y29973537D01*
X-549025Y30681058D01*
X-266017Y30681058D01*
X-258005Y30517707D01*
X-217090Y30421783D01*
X-124513Y30398050D01*
X-42837Y30414073D01*
X5125Y30495904D01*
X16991Y30681058D01*
X10051Y30822562D01*
X300000Y30822562D01*
X323255Y30731088D01*
X441504Y30681058D01*
X532979Y30704314D01*
X583008Y30822562D01*
X559752Y30914037D01*
X441504Y30964067D01*
X350029Y30940811D01*
X300000Y30822562D01*
X10051Y30822562D01*
X8980Y30844410D01*
X-31936Y30940334D01*
X-124513Y30964067D01*
X-206189Y30948044D01*
X-254151Y30866213D01*
X-266017Y30681058D01*
X-549025Y30681058D01*
X-549025Y31247075D01*
X1149025Y31247075D01*
X1149025Y30822562D01*
X1149025Y29973537D01*
G04 #@! TA.AperFunction,EtchedComponent*
G36*
X1149025Y29973537D02*
G01*
X1149025Y29549025D01*
X-549025Y29549025D01*
X-549025Y28558496D01*
X-549025Y27850975D01*
X1149025Y27850975D01*
X1149025Y28275487D01*
X1432033Y28275487D01*
X1455289Y28184012D01*
X1573537Y28133983D01*
X1665012Y28157239D01*
X1715042Y28275487D01*
X1731065Y28357163D01*
X1812896Y28405125D01*
X1998050Y28416991D01*
X2161402Y28408980D01*
X2257325Y28368064D01*
X2281058Y28275487D01*
X2304314Y28184012D01*
X2422562Y28133983D01*
X2485237Y28141787D01*
X2536223Y28193281D01*
X2558903Y28321397D01*
X2564067Y28558496D01*
X2561465Y28746520D01*
X2544301Y28899476D01*
X2501595Y28967519D01*
X2422562Y28983008D01*
X2331088Y29006264D01*
X2281058Y29124512D01*
X2257803Y29215987D01*
X2139554Y29266017D01*
X2048079Y29242761D01*
X1998050Y29124512D01*
X1982027Y29042836D01*
X1900196Y28994875D01*
X1715042Y28983008D01*
X1551690Y28974997D01*
X1455766Y28934081D01*
X1432033Y28841504D01*
X1455289Y28750029D01*
X1573537Y28700000D01*
X1665012Y28676744D01*
X1715042Y28558496D01*
X1691786Y28467021D01*
X1573537Y28416991D01*
X1482063Y28393736D01*
X1432033Y28275487D01*
X1149025Y28275487D01*
X1149025Y29549025D01*
X2847075Y29549025D01*
X2847075Y28558496D01*
X2847075Y27850975D01*
X1149025Y27850975D01*
X1149025Y27426462D01*
X1149025Y26152925D01*
X-549025Y26152925D01*
X-549025Y27143454D01*
X-266017Y27143454D01*
X-249994Y27061778D01*
X-168163Y27013816D01*
X16991Y27001950D01*
X180343Y27009961D01*
X276267Y27050877D01*
X300000Y27143454D01*
X323255Y27234929D01*
X441504Y27284958D01*
X532979Y27308214D01*
X583008Y27426462D01*
X566985Y27508138D01*
X485154Y27556100D01*
X300000Y27567966D01*
X136648Y27559955D01*
X40724Y27519039D01*
X16991Y27426462D01*
X-6264Y27334987D01*
X-124513Y27284958D01*
X-215988Y27261702D01*
X-266017Y27143454D01*
X-549025Y27143454D01*
X-549025Y27850975D01*
X-2247075Y27850975D01*
X-2247075Y29124512D01*
X-1681059Y29124512D01*
X-1657803Y29033037D01*
X-1539555Y28983008D01*
X-1448080Y28959752D01*
X-1398050Y28841504D01*
X-1374795Y28750029D01*
X-1256546Y28700000D01*
X-1165071Y28676744D01*
X-1115042Y28558496D01*
X-1138298Y28467021D01*
X-1256546Y28416991D01*
X-1348021Y28393736D01*
X-1398050Y28275487D01*
X-1374795Y28184012D01*
X-1256546Y28133983D01*
X-1165071Y28157239D01*
X-1115042Y28275487D01*
X-1091786Y28366962D01*
X-973538Y28416991D01*
X-882063Y28440247D01*
X-832034Y28558496D01*
X-855289Y28649971D01*
X-973538Y28700000D01*
X-1055214Y28716023D01*
X-1103176Y28797854D01*
X-1115042Y28983008D01*
X-1115723Y29082197D01*
X-1136409Y29211552D01*
X-1216902Y29259208D01*
X-1398050Y29266017D01*
X-1561402Y29258005D01*
X-1657326Y29217089D01*
X-1681059Y29124512D01*
X-2247075Y29124512D01*
X-2247075Y29549025D01*
X-549025Y29549025D01*
X-549025Y29973537D01*
X16991Y29973537D01*
X40247Y29882063D01*
X158496Y29832033D01*
X249971Y29855289D01*
X300000Y29973537D01*
X583008Y29973537D01*
X606264Y29882063D01*
X724512Y29832033D01*
X815987Y29855289D01*
X866017Y29973537D01*
X842761Y30065012D01*
X724512Y30115042D01*
X633037Y30091786D01*
X583008Y29973537D01*
X300000Y29973537D01*
X276744Y30065012D01*
X158496Y30115042D01*
X67021Y30091786D01*
X16991Y29973537D01*
X-549025Y29973537D01*
X-549025Y30681058D01*
X-266017Y30681058D01*
X-258005Y30517707D01*
X-217090Y30421783D01*
X-124513Y30398050D01*
X-42837Y30414073D01*
X5125Y30495904D01*
X16991Y30681058D01*
X10051Y30822562D01*
X300000Y30822562D01*
X323255Y30731088D01*
X441504Y30681058D01*
X532979Y30704314D01*
X583008Y30822562D01*
X559752Y30914037D01*
X441504Y30964067D01*
X350029Y30940811D01*
X300000Y30822562D01*
X10051Y30822562D01*
X8980Y30844410D01*
X-31936Y30940334D01*
X-124513Y30964067D01*
X-206189Y30948044D01*
X-254151Y30866213D01*
X-266017Y30681058D01*
X-549025Y30681058D01*
X-549025Y31247075D01*
X1149025Y31247075D01*
X1149025Y30822562D01*
X1149025Y29973537D01*
G37*
G04 #@! TD.AperFunction*
X4828133Y30822562D02*
X4828133Y30115042D01*
X4828133Y29549025D01*
X4828133Y27284958D01*
X4828133Y26152925D01*
X4828133Y24171866D01*
X-4228134Y24171866D01*
X-4228134Y24454874D01*
X-3945126Y24454874D01*
X-2247075Y24454874D01*
X-2247075Y24737883D01*
X-1681059Y24737883D01*
X-1398050Y24737883D01*
X-1234699Y24745894D01*
X-1138775Y24786810D01*
X-1115042Y24879387D01*
X-1091786Y24970862D01*
X-973538Y25020891D01*
X-910863Y25028696D01*
X-859878Y25080189D01*
X-837197Y25208305D01*
X-832034Y25445404D01*
X-834635Y25633428D01*
X-851800Y25786384D01*
X-894505Y25854427D01*
X-973538Y25869916D01*
X-1065013Y25846661D01*
X-1115042Y25728412D01*
X-1138298Y25636937D01*
X-1256546Y25586908D01*
X-1348021Y25610164D01*
X-1398050Y25728412D01*
X-1421306Y25819887D01*
X-1539555Y25869916D01*
X-1576863Y25867833D01*
X-1633123Y25839417D01*
X-1664498Y25754931D01*
X-1678104Y25585913D01*
X-1681059Y25303900D01*
X-1681059Y24737883D01*
X-2247075Y24737883D01*
X-2247075Y26152925D01*
X-549025Y26152925D01*
X-549025Y25445404D01*
X-549025Y24454874D01*
X1149025Y24454874D01*
X1149025Y25303900D01*
X1432033Y25303900D01*
X1440045Y25140548D01*
X1480960Y25044624D01*
X1573537Y25020891D01*
X1665012Y25044147D01*
X1715042Y25162395D01*
X1738297Y25253870D01*
X1856546Y25303900D01*
X1938222Y25287877D01*
X1986184Y25206045D01*
X1998050Y25020891D01*
X1998730Y24921702D01*
X2019417Y24792348D01*
X2099910Y24744691D01*
X2281058Y24737883D01*
X2444410Y24745894D01*
X2540334Y24786810D01*
X2564067Y24879387D01*
X2540811Y24970862D01*
X2422562Y25020891D01*
X2331088Y25044147D01*
X2281058Y25162395D01*
X2257803Y25253870D01*
X2139554Y25303900D01*
X2057878Y25319922D01*
X2009916Y25401754D01*
X1998050Y25586908D01*
X1991110Y25728412D01*
X2281058Y25728412D01*
X2304314Y25636937D01*
X2422562Y25586908D01*
X2514037Y25610164D01*
X2564067Y25728412D01*
X2847075Y25728412D01*
X2847075Y24879387D01*
X2847075Y24454874D01*
X4545125Y24454874D01*
X4545125Y26152925D01*
X2847075Y26152925D01*
X2847075Y25728412D01*
X2564067Y25728412D01*
X2540811Y25819887D01*
X2422562Y25869916D01*
X2331088Y25846661D01*
X2281058Y25728412D01*
X1991110Y25728412D01*
X1990038Y25750260D01*
X1949123Y25846183D01*
X1856546Y25869916D01*
X1765071Y25846661D01*
X1715042Y25728412D01*
X1691786Y25636937D01*
X1573537Y25586908D01*
X1491862Y25570885D01*
X1443900Y25489054D01*
X1432033Y25303900D01*
X1149025Y25303900D01*
X1149025Y26152925D01*
X2847075Y26152925D01*
X2847075Y27567966D01*
X3130083Y27567966D01*
X3130083Y26435933D01*
X3696100Y26435933D01*
X3696100Y27284958D01*
X3979108Y27284958D01*
X3987120Y27121606D01*
X4028035Y27025682D01*
X4120613Y27001950D01*
X4202288Y27017973D01*
X4250250Y27099804D01*
X4262117Y27284958D01*
X4254105Y27448310D01*
X4213190Y27544234D01*
X4120613Y27567966D01*
X4038937Y27551943D01*
X3990975Y27470112D01*
X3979108Y27284958D01*
X3696100Y27284958D01*
X3696100Y27567966D01*
X3130083Y27567966D01*
X2847075Y27567966D01*
X2847075Y27850975D01*
X4545125Y27850975D01*
X4545125Y29549025D01*
X2847075Y29549025D01*
X2847075Y29973537D01*
X3130083Y29973537D01*
X3146106Y29891862D01*
X3227937Y29843900D01*
X3413092Y29832033D01*
X3696100Y29832033D01*
X3696100Y30115042D01*
X3979108Y30115042D01*
X3987120Y29951690D01*
X4028035Y29855766D01*
X4120613Y29832033D01*
X4202288Y29848056D01*
X4250250Y29929887D01*
X4262117Y30115042D01*
X4254105Y30278393D01*
X4213190Y30374317D01*
X4120613Y30398050D01*
X4038937Y30382027D01*
X3990975Y30300196D01*
X3988177Y30256546D01*
X3979108Y30115042D01*
X3696100Y30115042D01*
X3696100Y30256546D01*
X3693499Y30444570D01*
X3676334Y30597526D01*
X3633629Y30665569D01*
X3554596Y30681058D01*
X3463121Y30704314D01*
X3413092Y30822562D01*
X3979108Y30822562D01*
X4002364Y30731088D01*
X4120613Y30681058D01*
X4212088Y30704314D01*
X4262117Y30822562D01*
X4238861Y30914037D01*
X4120613Y30964067D01*
X4029138Y30940811D01*
X3979108Y30822562D01*
X3413092Y30822562D01*
X3389836Y30914037D01*
X3271588Y30964067D01*
X3189912Y30948044D01*
X3141950Y30866213D01*
X3130083Y30681058D01*
X3138095Y30517707D01*
X3179010Y30421783D01*
X3271588Y30398050D01*
X3363062Y30374794D01*
X3413092Y30256546D01*
X3389836Y30165071D01*
X3271588Y30115042D01*
X3180113Y30091786D01*
X3130083Y29973537D01*
X2847075Y29973537D01*
X2847075Y31247075D01*
X1149025Y31247075D01*
X1149025Y32096100D01*
X1432033Y32096100D01*
X2564067Y32096100D01*
X2564067Y32379108D01*
X2847075Y32379108D01*
X2847075Y31247075D01*
X4545125Y31247075D01*
X4545125Y32945125D01*
X2847075Y32945125D01*
X2847075Y32379108D01*
X2564067Y32379108D01*
X2556055Y32542460D01*
X2515140Y32638384D01*
X2422562Y32662117D01*
X2331088Y32638861D01*
X2281058Y32520613D01*
X2257803Y32429138D01*
X2139554Y32379108D01*
X2048079Y32402364D01*
X1998050Y32520613D01*
X1982027Y32602288D01*
X1900196Y32650250D01*
X1715042Y32662117D01*
X1615853Y32661436D01*
X1486498Y32640750D01*
X1438841Y32560257D01*
X1432033Y32379108D01*
X1432033Y32096100D01*
X1149025Y32096100D01*
X1149025Y32945125D01*
X-549025Y32945125D01*
X-549025Y32379108D01*
X-549025Y31247075D01*
X-2247075Y31247075D01*
X-2247075Y30822562D01*
X-2247075Y29549025D01*
X-3945126Y29549025D01*
X-3945126Y27850975D01*
X-2247075Y27850975D01*
X-2247075Y27284958D01*
X-2247075Y26152925D01*
X-3945126Y26152925D01*
X-3945126Y24454874D01*
X-4228134Y24454874D01*
X-4228134Y27143454D01*
X-3662117Y27143454D01*
X-3638862Y27051979D01*
X-3520613Y27001950D01*
X-3438937Y26985927D01*
X-3390975Y26904096D01*
X-3379109Y26718941D01*
X-3378428Y26619752D01*
X-3357742Y26490398D01*
X-3277249Y26442741D01*
X-3096100Y26435933D01*
X-2932749Y26443944D01*
X-2836825Y26484860D01*
X-2813092Y26577437D01*
X-2836348Y26668912D01*
X-2954596Y26718941D01*
X-3046071Y26742197D01*
X-3096100Y26860445D01*
X-3080078Y26942121D01*
X-2998246Y26990083D01*
X-2813092Y27001950D01*
X-2713903Y27002630D01*
X-2584549Y27023317D01*
X-2536892Y27103810D01*
X-2530084Y27284958D01*
X-2538095Y27448310D01*
X-2579011Y27544234D01*
X-2671588Y27567966D01*
X-2763063Y27544711D01*
X-2813092Y27426462D01*
X-2836348Y27334987D01*
X-2954596Y27284958D01*
X-3046071Y27308214D01*
X-3096100Y27426462D01*
X-3119356Y27517937D01*
X-3237605Y27567966D01*
X-3329080Y27544711D01*
X-3379109Y27426462D01*
X-3402365Y27334987D01*
X-3520613Y27284958D01*
X-3612088Y27261702D01*
X-3662117Y27143454D01*
X-4228134Y27143454D01*
X-4228134Y29832033D01*
X-3662117Y29832033D01*
X-3379109Y29832033D01*
X-3279920Y29832714D01*
X-3150565Y29853400D01*
X-3102909Y29933893D01*
X-3096100Y30115042D01*
X-3088089Y30278393D01*
X-3047173Y30374317D01*
X-2954596Y30398050D01*
X-2863121Y30374794D01*
X-2813092Y30256546D01*
X-2789836Y30165071D01*
X-2671588Y30115042D01*
X-2580113Y30138297D01*
X-2530084Y30256546D01*
X-2553339Y30348021D01*
X-2671588Y30398050D01*
X-2763063Y30421306D01*
X-2813092Y30539554D01*
X-2789836Y30631029D01*
X-2671588Y30681058D01*
X-2580113Y30704314D01*
X-2530084Y30822562D01*
X-2553339Y30914037D01*
X-2671588Y30964067D01*
X-2763063Y30940811D01*
X-2813092Y30822562D01*
X-2836348Y30731088D01*
X-2954596Y30681058D01*
X-3046071Y30657803D01*
X-3096100Y30539554D01*
X-3119356Y30448079D01*
X-3237605Y30398050D01*
X-3319281Y30414073D01*
X-3367242Y30495904D01*
X-3379109Y30681058D01*
X-3387120Y30844410D01*
X-3428036Y30940334D01*
X-3520613Y30964067D01*
X-3557922Y30961984D01*
X-3614181Y30933567D01*
X-3645556Y30849082D01*
X-3659163Y30680064D01*
X-3662117Y30398050D01*
X-3662117Y29832033D01*
X-4228134Y29832033D01*
X-4228134Y32945125D01*
X-3945126Y32945125D01*
X-3945126Y31247075D01*
X-2247075Y31247075D01*
X-2247075Y32096100D01*
X-1964067Y32096100D01*
X-832034Y32096100D01*
X-832034Y32379108D01*
X-840045Y32542460D01*
X-880961Y32638384D01*
X-973538Y32662117D01*
X-1065013Y32638861D01*
X-1115042Y32520613D01*
X-1138298Y32429138D01*
X-1256546Y32379108D01*
X-1348021Y32402364D01*
X-1398050Y32520613D01*
X-1414073Y32602288D01*
X-1495904Y32650250D01*
X-1681059Y32662117D01*
X-1780248Y32661436D01*
X-1909602Y32640750D01*
X-1957259Y32560257D01*
X-1964067Y32379108D01*
X-1964067Y32096100D01*
X-2247075Y32096100D01*
X-2247075Y32945125D01*
X-3945126Y32945125D01*
X-4228134Y32945125D01*
X-4228134Y33228133D01*
X4828133Y33228133D01*
X4828133Y32945125D01*
X4828133Y30822562D01*
G04 #@! TA.AperFunction,EtchedComponent*
G36*
X4828133Y30822562D02*
G01*
X4828133Y30115042D01*
X4828133Y29549025D01*
X4828133Y27284958D01*
X4828133Y26152925D01*
X4828133Y24171866D01*
X-4228134Y24171866D01*
X-4228134Y24454874D01*
X-3945126Y24454874D01*
X-2247075Y24454874D01*
X-2247075Y24737883D01*
X-1681059Y24737883D01*
X-1398050Y24737883D01*
X-1234699Y24745894D01*
X-1138775Y24786810D01*
X-1115042Y24879387D01*
X-1091786Y24970862D01*
X-973538Y25020891D01*
X-910863Y25028696D01*
X-859878Y25080189D01*
X-837197Y25208305D01*
X-832034Y25445404D01*
X-834635Y25633428D01*
X-851800Y25786384D01*
X-894505Y25854427D01*
X-973538Y25869916D01*
X-1065013Y25846661D01*
X-1115042Y25728412D01*
X-1138298Y25636937D01*
X-1256546Y25586908D01*
X-1348021Y25610164D01*
X-1398050Y25728412D01*
X-1421306Y25819887D01*
X-1539555Y25869916D01*
X-1576863Y25867833D01*
X-1633123Y25839417D01*
X-1664498Y25754931D01*
X-1678104Y25585913D01*
X-1681059Y25303900D01*
X-1681059Y24737883D01*
X-2247075Y24737883D01*
X-2247075Y26152925D01*
X-549025Y26152925D01*
X-549025Y25445404D01*
X-549025Y24454874D01*
X1149025Y24454874D01*
X1149025Y25303900D01*
X1432033Y25303900D01*
X1440045Y25140548D01*
X1480960Y25044624D01*
X1573537Y25020891D01*
X1665012Y25044147D01*
X1715042Y25162395D01*
X1738297Y25253870D01*
X1856546Y25303900D01*
X1938222Y25287877D01*
X1986184Y25206045D01*
X1998050Y25020891D01*
X1998730Y24921702D01*
X2019417Y24792348D01*
X2099910Y24744691D01*
X2281058Y24737883D01*
X2444410Y24745894D01*
X2540334Y24786810D01*
X2564067Y24879387D01*
X2540811Y24970862D01*
X2422562Y25020891D01*
X2331088Y25044147D01*
X2281058Y25162395D01*
X2257803Y25253870D01*
X2139554Y25303900D01*
X2057878Y25319922D01*
X2009916Y25401754D01*
X1998050Y25586908D01*
X1991110Y25728412D01*
X2281058Y25728412D01*
X2304314Y25636937D01*
X2422562Y25586908D01*
X2514037Y25610164D01*
X2564067Y25728412D01*
X2847075Y25728412D01*
X2847075Y24879387D01*
X2847075Y24454874D01*
X4545125Y24454874D01*
X4545125Y26152925D01*
X2847075Y26152925D01*
X2847075Y25728412D01*
X2564067Y25728412D01*
X2540811Y25819887D01*
X2422562Y25869916D01*
X2331088Y25846661D01*
X2281058Y25728412D01*
X1991110Y25728412D01*
X1990038Y25750260D01*
X1949123Y25846183D01*
X1856546Y25869916D01*
X1765071Y25846661D01*
X1715042Y25728412D01*
X1691786Y25636937D01*
X1573537Y25586908D01*
X1491862Y25570885D01*
X1443900Y25489054D01*
X1432033Y25303900D01*
X1149025Y25303900D01*
X1149025Y26152925D01*
X2847075Y26152925D01*
X2847075Y27567966D01*
X3130083Y27567966D01*
X3130083Y26435933D01*
X3696100Y26435933D01*
X3696100Y27284958D01*
X3979108Y27284958D01*
X3987120Y27121606D01*
X4028035Y27025682D01*
X4120613Y27001950D01*
X4202288Y27017973D01*
X4250250Y27099804D01*
X4262117Y27284958D01*
X4254105Y27448310D01*
X4213190Y27544234D01*
X4120613Y27567966D01*
X4038937Y27551943D01*
X3990975Y27470112D01*
X3979108Y27284958D01*
X3696100Y27284958D01*
X3696100Y27567966D01*
X3130083Y27567966D01*
X2847075Y27567966D01*
X2847075Y27850975D01*
X4545125Y27850975D01*
X4545125Y29549025D01*
X2847075Y29549025D01*
X2847075Y29973537D01*
X3130083Y29973537D01*
X3146106Y29891862D01*
X3227937Y29843900D01*
X3413092Y29832033D01*
X3696100Y29832033D01*
X3696100Y30115042D01*
X3979108Y30115042D01*
X3987120Y29951690D01*
X4028035Y29855766D01*
X4120613Y29832033D01*
X4202288Y29848056D01*
X4250250Y29929887D01*
X4262117Y30115042D01*
X4254105Y30278393D01*
X4213190Y30374317D01*
X4120613Y30398050D01*
X4038937Y30382027D01*
X3990975Y30300196D01*
X3988177Y30256546D01*
X3979108Y30115042D01*
X3696100Y30115042D01*
X3696100Y30256546D01*
X3693499Y30444570D01*
X3676334Y30597526D01*
X3633629Y30665569D01*
X3554596Y30681058D01*
X3463121Y30704314D01*
X3413092Y30822562D01*
X3979108Y30822562D01*
X4002364Y30731088D01*
X4120613Y30681058D01*
X4212088Y30704314D01*
X4262117Y30822562D01*
X4238861Y30914037D01*
X4120613Y30964067D01*
X4029138Y30940811D01*
X3979108Y30822562D01*
X3413092Y30822562D01*
X3389836Y30914037D01*
X3271588Y30964067D01*
X3189912Y30948044D01*
X3141950Y30866213D01*
X3130083Y30681058D01*
X3138095Y30517707D01*
X3179010Y30421783D01*
X3271588Y30398050D01*
X3363062Y30374794D01*
X3413092Y30256546D01*
X3389836Y30165071D01*
X3271588Y30115042D01*
X3180113Y30091786D01*
X3130083Y29973537D01*
X2847075Y29973537D01*
X2847075Y31247075D01*
X1149025Y31247075D01*
X1149025Y32096100D01*
X1432033Y32096100D01*
X2564067Y32096100D01*
X2564067Y32379108D01*
X2847075Y32379108D01*
X2847075Y31247075D01*
X4545125Y31247075D01*
X4545125Y32945125D01*
X2847075Y32945125D01*
X2847075Y32379108D01*
X2564067Y32379108D01*
X2556055Y32542460D01*
X2515140Y32638384D01*
X2422562Y32662117D01*
X2331088Y32638861D01*
X2281058Y32520613D01*
X2257803Y32429138D01*
X2139554Y32379108D01*
X2048079Y32402364D01*
X1998050Y32520613D01*
X1982027Y32602288D01*
X1900196Y32650250D01*
X1715042Y32662117D01*
X1615853Y32661436D01*
X1486498Y32640750D01*
X1438841Y32560257D01*
X1432033Y32379108D01*
X1432033Y32096100D01*
X1149025Y32096100D01*
X1149025Y32945125D01*
X-549025Y32945125D01*
X-549025Y32379108D01*
X-549025Y31247075D01*
X-2247075Y31247075D01*
X-2247075Y30822562D01*
X-2247075Y29549025D01*
X-3945126Y29549025D01*
X-3945126Y27850975D01*
X-2247075Y27850975D01*
X-2247075Y27284958D01*
X-2247075Y26152925D01*
X-3945126Y26152925D01*
X-3945126Y24454874D01*
X-4228134Y24454874D01*
X-4228134Y27143454D01*
X-3662117Y27143454D01*
X-3638862Y27051979D01*
X-3520613Y27001950D01*
X-3438937Y26985927D01*
X-3390975Y26904096D01*
X-3379109Y26718941D01*
X-3378428Y26619752D01*
X-3357742Y26490398D01*
X-3277249Y26442741D01*
X-3096100Y26435933D01*
X-2932749Y26443944D01*
X-2836825Y26484860D01*
X-2813092Y26577437D01*
X-2836348Y26668912D01*
X-2954596Y26718941D01*
X-3046071Y26742197D01*
X-3096100Y26860445D01*
X-3080078Y26942121D01*
X-2998246Y26990083D01*
X-2813092Y27001950D01*
X-2713903Y27002630D01*
X-2584549Y27023317D01*
X-2536892Y27103810D01*
X-2530084Y27284958D01*
X-2538095Y27448310D01*
X-2579011Y27544234D01*
X-2671588Y27567966D01*
X-2763063Y27544711D01*
X-2813092Y27426462D01*
X-2836348Y27334987D01*
X-2954596Y27284958D01*
X-3046071Y27308214D01*
X-3096100Y27426462D01*
X-3119356Y27517937D01*
X-3237605Y27567966D01*
X-3329080Y27544711D01*
X-3379109Y27426462D01*
X-3402365Y27334987D01*
X-3520613Y27284958D01*
X-3612088Y27261702D01*
X-3662117Y27143454D01*
X-4228134Y27143454D01*
X-4228134Y29832033D01*
X-3662117Y29832033D01*
X-3379109Y29832033D01*
X-3279920Y29832714D01*
X-3150565Y29853400D01*
X-3102909Y29933893D01*
X-3096100Y30115042D01*
X-3088089Y30278393D01*
X-3047173Y30374317D01*
X-2954596Y30398050D01*
X-2863121Y30374794D01*
X-2813092Y30256546D01*
X-2789836Y30165071D01*
X-2671588Y30115042D01*
X-2580113Y30138297D01*
X-2530084Y30256546D01*
X-2553339Y30348021D01*
X-2671588Y30398050D01*
X-2763063Y30421306D01*
X-2813092Y30539554D01*
X-2789836Y30631029D01*
X-2671588Y30681058D01*
X-2580113Y30704314D01*
X-2530084Y30822562D01*
X-2553339Y30914037D01*
X-2671588Y30964067D01*
X-2763063Y30940811D01*
X-2813092Y30822562D01*
X-2836348Y30731088D01*
X-2954596Y30681058D01*
X-3046071Y30657803D01*
X-3096100Y30539554D01*
X-3119356Y30448079D01*
X-3237605Y30398050D01*
X-3319281Y30414073D01*
X-3367242Y30495904D01*
X-3379109Y30681058D01*
X-3387120Y30844410D01*
X-3428036Y30940334D01*
X-3520613Y30964067D01*
X-3557922Y30961984D01*
X-3614181Y30933567D01*
X-3645556Y30849082D01*
X-3659163Y30680064D01*
X-3662117Y30398050D01*
X-3662117Y29832033D01*
X-4228134Y29832033D01*
X-4228134Y32945125D01*
X-3945126Y32945125D01*
X-3945126Y31247075D01*
X-2247075Y31247075D01*
X-2247075Y32096100D01*
X-1964067Y32096100D01*
X-832034Y32096100D01*
X-832034Y32379108D01*
X-840045Y32542460D01*
X-880961Y32638384D01*
X-973538Y32662117D01*
X-1065013Y32638861D01*
X-1115042Y32520613D01*
X-1138298Y32429138D01*
X-1256546Y32379108D01*
X-1348021Y32402364D01*
X-1398050Y32520613D01*
X-1414073Y32602288D01*
X-1495904Y32650250D01*
X-1681059Y32662117D01*
X-1780248Y32661436D01*
X-1909602Y32640750D01*
X-1957259Y32560257D01*
X-1964067Y32379108D01*
X-1964067Y32096100D01*
X-2247075Y32096100D01*
X-2247075Y32945125D01*
X-3945126Y32945125D01*
X-4228134Y32945125D01*
X-4228134Y33228133D01*
X4828133Y33228133D01*
X4828133Y32945125D01*
X4828133Y30822562D01*
G37*
G04 #@! TD.AperFunction*
D13*
X50000000Y40500000D03*
D14*
X52540000Y40500000D03*
X55080000Y40500000D03*
X57620000Y40500000D03*
X60160000Y40500000D03*
X62700000Y40500000D03*
X65240000Y40500000D03*
D13*
X0Y40500000D03*
D14*
X2540000Y40500000D03*
X5080000Y40500000D03*
X7620000Y40500000D03*
X10160000Y40500000D03*
X12700000Y40500000D03*
X15240000Y40500000D03*
D15*
X-3537500Y16500000D03*
D16*
X-837500Y15500000D03*
X-837500Y10500000D03*
D15*
X-3537500Y9500000D03*
D13*
X8370000Y51230000D03*
D14*
X8370000Y53770000D03*
X10910000Y51230000D03*
X10910000Y53770000D03*
X13450000Y51230000D03*
X13450000Y53770000D03*
X15990000Y51230000D03*
X15990000Y53770000D03*
X18530000Y51230000D03*
X18530000Y53770000D03*
X21070000Y51230000D03*
X21070000Y53770000D03*
X23610000Y51230000D03*
X23610000Y53770000D03*
X26150000Y51230000D03*
X26150000Y53770000D03*
X28690000Y51230000D03*
X28690000Y53770000D03*
X31230000Y51230000D03*
X31230000Y53770000D03*
X33770000Y51230000D03*
X33770000Y53770000D03*
X36310000Y51230000D03*
X36310000Y53770000D03*
X38850000Y51230000D03*
X38850000Y53770000D03*
X41390000Y51230000D03*
X41390000Y53770000D03*
X43930000Y51230000D03*
X43930000Y53770000D03*
X46470000Y51230000D03*
X46470000Y53770000D03*
X49010000Y51230000D03*
X49010000Y53770000D03*
X51550000Y51230000D03*
X51550000Y53770000D03*
X54090000Y51230000D03*
X54090000Y53770000D03*
X56630000Y51230000D03*
X56630000Y53770000D03*
D17*
X23400000Y46800000D03*
X31400000Y43500000D03*
X42300000Y43300000D03*
X26500000Y46800000D03*
X4400000Y15900000D03*
X26400000Y43500000D03*
X18600000Y43400000D03*
X37600000Y55000000D03*
X13100000Y43600000D03*
X800000Y10500000D03*
X3100000Y13100000D03*
X1900000Y14900000D03*
X18500000Y47900000D03*
X31400000Y45600000D03*
X37700000Y48100000D03*
X16300000Y43400000D03*
X33100000Y47000000D03*
X8900000Y46300000D03*
X13100000Y47400000D03*
X36400000Y43500000D03*
X11510000Y35425300D03*
X11500000Y34000000D03*
X21000000Y12500000D03*
X19000000Y18000000D03*
X27400000Y47600000D03*
X38100000Y45800000D03*
X25300000Y55026600D03*
X19900000Y42100000D03*
X41400000Y40400000D03*
X40010000Y38000000D03*
X5634931Y48465069D03*
X43737400Y46262600D03*
X58900000Y47800000D03*
D18*
X32501000Y37200000D03*
D19*
X11020048Y41700000D02*
X11210000Y41700000D01*
X11710000Y44000000D02*
X11710000Y43600000D01*
X11510000Y42900000D02*
X11610000Y42900000D01*
X11510000Y42300000D02*
X11020048Y42300000D01*
X10973942Y42900000D02*
X11510000Y42900000D01*
X11210000Y44700000D02*
X10962393Y44700000D01*
X11510000Y43500000D02*
X10973942Y43500000D01*
X11610000Y42300000D02*
X11510000Y42300000D01*
X11610000Y43500000D02*
X11510000Y43500000D01*
X11710000Y42800000D02*
X11710000Y42400000D01*
X10962393Y44100000D02*
X11610000Y44100000D01*
X11510000Y50630000D02*
X11510000Y45000000D01*
X10910000Y51230000D02*
X11510000Y50630000D01*
X11510000Y41400000D02*
X11510000Y35425300D01*
X11710000Y44000000D02*
G75*
G03*
X11610000Y44100000I-100000J0D01*
G01*
X11510000Y41400000D02*
G75*
G03*
X11210000Y41700000I-300000J0D01*
G01*
X10673900Y43200000D02*
G75*
G03*
X10973942Y42900000I300000J0D01*
G01*
X10962393Y44700007D02*
G75*
G03*
X10662393Y44400000I7J-300007D01*
G01*
X11020048Y42299952D02*
G75*
G03*
X10720048Y42000000I-48J-299952D01*
G01*
X11710000Y42800000D02*
G75*
G03*
X11610000Y42900000I-100000J0D01*
G01*
X10973942Y43499958D02*
G75*
G03*
X10673942Y43200000I-42J-299958D01*
G01*
X11210000Y44700000D02*
G75*
G03*
X11510000Y45000000I0J300000D01*
G01*
X11610000Y43500000D02*
G75*
G03*
X11710000Y43600000I0J100000D01*
G01*
X10662400Y44400000D02*
G75*
G03*
X10962393Y44100000I300000J0D01*
G01*
X11610000Y42300000D02*
G75*
G03*
X11710000Y42400000I0J100000D01*
G01*
X10720000Y42000000D02*
G75*
G03*
X11020048Y41700000I300000J0D01*
G01*
X13850000Y36350000D02*
X11500000Y34000000D01*
X13850000Y50830000D02*
X13850000Y36350000D01*
X13450000Y51230000D02*
X13850000Y50830000D01*
X16840000Y28700000D02*
X16768761Y28700000D01*
X21000000Y12640000D02*
X21000000Y12500000D01*
X16768761Y28100000D02*
X16840000Y28100000D01*
X16840000Y27500000D02*
X16768786Y27500000D01*
X15990000Y53770000D02*
X17140000Y52620000D01*
X17140000Y26600000D02*
X17140000Y16500000D01*
X17140000Y16500000D02*
X21000000Y12640000D01*
X17140000Y52620000D02*
X17140000Y29000000D01*
X16768786Y26900000D02*
X16840000Y26900000D01*
X16468800Y28400000D02*
G75*
G03*
X16768761Y28100000I300000J0D01*
G01*
X16468800Y27200000D02*
G75*
G03*
X16768786Y26900000I300000J0D01*
G01*
X16840000Y27500000D02*
G75*
G03*
X17140000Y27800000I0J300000D01*
G01*
X16768786Y27500014D02*
G75*
G03*
X16468786Y27200000I14J-300014D01*
G01*
X16840000Y28700000D02*
G75*
G03*
X17140000Y29000000I0J300000D01*
G01*
X17140000Y27800000D02*
G75*
G03*
X16840000Y28100000I-300000J0D01*
G01*
X16768761Y28700039D02*
G75*
G03*
X16468761Y28400000I39J-300039D01*
G01*
X17140000Y26600000D02*
G75*
G03*
X16840000Y26900000I-300000J0D01*
G01*
X17840000Y24800000D02*
X18103305Y24800000D01*
X17540000Y28100000D02*
X17540000Y43765461D01*
X17540000Y19460000D02*
X17540000Y24500000D01*
X17840000Y26000000D02*
X18103305Y26000000D01*
X17840000Y27200000D02*
X18103281Y27200000D01*
X19000000Y18000000D02*
X17540000Y19460000D01*
X19680000Y45905461D02*
X19680000Y52620000D01*
X18103305Y26600000D02*
X17840000Y26600000D01*
X18103281Y27800000D02*
X17840000Y27800000D01*
X17540000Y43765461D02*
X19680000Y45905461D01*
X19680000Y52620000D02*
X18530000Y53770000D01*
X18103305Y25400000D02*
X17840000Y25400000D01*
X17540000Y26900000D02*
G75*
G03*
X17840000Y26600000I300000J0D01*
G01*
X18103281Y27200019D02*
G75*
G03*
X18403281Y27500000I19J299981D01*
G01*
X18103305Y24799995D02*
G75*
G03*
X18403305Y25100000I-5J300005D01*
G01*
X18403300Y26300000D02*
G75*
G03*
X18103305Y26600000I-300000J0D01*
G01*
X18403300Y25100000D02*
G75*
G03*
X18103305Y25400000I-300000J0D01*
G01*
X18103305Y25999995D02*
G75*
G03*
X18403305Y26300000I-5J300005D01*
G01*
X17840000Y27200000D02*
G75*
G03*
X17540000Y26900000I0J-300000D01*
G01*
X17840000Y24800000D02*
G75*
G03*
X17540000Y24500000I0J-300000D01*
G01*
X17540000Y25700000D02*
G75*
G03*
X17840000Y25400000I300000J0D01*
G01*
X17840000Y26000000D02*
G75*
G03*
X17540000Y25700000I0J-300000D01*
G01*
X17540000Y28100000D02*
G75*
G03*
X17840000Y27800000I300000J0D01*
G01*
X18403300Y27500000D02*
G75*
G03*
X18103281Y27800000I-300000J0D01*
G01*
X27400000Y47600000D02*
X27400000Y51606346D01*
X22220000Y52380000D02*
X21070000Y51230000D01*
X26626346Y52380000D02*
X22220000Y52380000D01*
X27400000Y51606346D02*
X26626346Y52380000D01*
X29059746Y55026600D02*
X25300000Y55026600D01*
X38100000Y45800000D02*
X37573654Y45800000D01*
X29840000Y53360000D02*
X29840000Y54246346D01*
X29840000Y54246346D02*
X29059746Y55026600D01*
X32400000Y51686346D02*
X31486346Y52600000D01*
X30600000Y52600000D02*
X29840000Y53360000D01*
X32400000Y50973654D02*
X32400000Y51686346D01*
X31486346Y52600000D02*
X30600000Y52600000D01*
X37573654Y45800000D02*
X32400000Y50973654D01*
X26150000Y51230000D02*
X26150000Y48350000D01*
X26150000Y48350000D02*
X19900000Y42100000D01*
X15240000Y49995000D02*
X14835000Y50400000D01*
X14835000Y54251000D02*
X14835000Y50400000D01*
X15520000Y54936300D02*
X14835000Y54251000D01*
X25236346Y53770000D02*
X24070046Y54936300D01*
X15240000Y40500000D02*
X15240000Y49995000D01*
X24070046Y54936300D02*
X15520000Y54936300D01*
X26150000Y53770000D02*
X25236346Y53770000D01*
X28690000Y53770000D02*
X29840000Y52620000D01*
X29840000Y48999339D02*
X38374669Y40464670D01*
X38374669Y37369645D02*
X39744314Y36000000D01*
X38374669Y40464670D02*
X38374669Y37369645D01*
X39744314Y36000000D02*
X55660000Y36000000D01*
X29840000Y52620000D02*
X29840000Y48999339D01*
X55660000Y36000000D02*
X60160000Y40500000D01*
X31230000Y51230000D02*
X38774669Y43685331D01*
X38774669Y43685331D02*
X38774669Y37535331D01*
X39910000Y36400000D02*
X53520000Y36400000D01*
X53520000Y36400000D02*
X57620000Y40500000D01*
X38774669Y37535331D02*
X39910000Y36400000D01*
X40149339Y36800000D02*
X51380000Y36800000D01*
X36310000Y51230000D02*
X39174669Y48365331D01*
X39174669Y37774669D02*
X40149339Y36800000D01*
X39174669Y48365331D02*
X39174669Y37774669D01*
X51380000Y36800000D02*
X55080000Y40500000D01*
X12700000Y40500000D02*
X12300000Y40900000D01*
X34236000Y52559800D02*
X35158000Y53482000D01*
X30865000Y55776100D02*
X32500000Y54141100D01*
X35158000Y53482000D02*
X35158000Y53770000D01*
X32500000Y54141100D02*
X32500000Y53351600D01*
X35158000Y53770000D02*
X36310000Y53770000D01*
X12300000Y40900000D02*
X12300000Y54246346D01*
X13829754Y55776100D02*
X30865000Y55776100D01*
X12300000Y54246346D02*
X13829754Y55776100D01*
X32500000Y53351600D02*
X33292000Y52559800D01*
X33292000Y52559800D02*
X34236000Y52559800D01*
X41390000Y40676463D02*
X41390000Y51230000D01*
X41400000Y40400000D02*
X41390000Y40676463D01*
X40010000Y38000000D02*
X40010000Y52390000D01*
X40010000Y52390000D02*
X41390000Y53770000D01*
X5634931Y48465069D02*
X5634931Y48534931D01*
X6800000Y53826346D02*
X9273654Y56300000D01*
X6800000Y49700000D02*
X6800000Y53826346D01*
X42540000Y54246346D02*
X42540000Y52620000D01*
X40486346Y56300000D02*
X42540000Y54246346D01*
X5634931Y48534931D02*
X6800000Y49700000D01*
X42540000Y52620000D02*
X43930000Y51230000D01*
X9273654Y56300000D02*
X40486346Y56300000D01*
X46470000Y48995200D02*
X46470000Y51230000D01*
X43737400Y46262600D02*
X46470000Y48995200D01*
X57520000Y47800000D02*
X54090000Y51230000D01*
X58900000Y47800000D02*
X57520000Y47800000D01*
D20*
X0Y41557948D02*
X2221026Y43778974D01*
X28690000Y41011000D02*
X32501000Y37200000D01*
X0Y40500000D02*
X0Y41557948D01*
X8370000Y49928100D02*
X8370000Y51230000D01*
X28690000Y51230000D02*
X28690000Y41011000D01*
X2221026Y43778974D02*
X8370000Y49928100D01*
X-837500Y10500000D02*
X-2537500Y10500000D01*
X-2537500Y10500000D02*
X-3537500Y9500000D01*
X-2537500Y15500000D02*
X-3537500Y16500000D01*
X-837500Y15500000D02*
X-2537500Y15500000D01*
G04 #@! TA.AperFunction,Conductor*
G36*
X30345703Y50648804D02*
G01*
X30360350Y50633759D01*
X30398096Y50587765D01*
X30483589Y50483590D01*
X30544943Y50433239D01*
X30643550Y50352315D01*
X30826046Y50254768D01*
X31024066Y50194700D01*
X31024065Y50194700D01*
X31042529Y50192882D01*
X31230000Y50174417D01*
X31435934Y50194700D01*
X31633954Y50254768D01*
X31648191Y50262379D01*
X31716592Y50276621D01*
X31781837Y50251623D01*
X31794326Y50240703D01*
X38437851Y43597178D01*
X38471335Y43535857D01*
X38474169Y43509499D01*
X38474169Y41089503D01*
X38454484Y41022464D01*
X38401680Y40976709D01*
X38332522Y40966765D01*
X38268966Y40995790D01*
X38262488Y41001822D01*
X30176819Y49087491D01*
X30143334Y49148814D01*
X30140500Y49175172D01*
X30140500Y50555091D01*
X30160185Y50622130D01*
X30212989Y50667885D01*
X30282147Y50677829D01*
X30345703Y50648804D01*
G37*
G04 #@! TD.AperFunction*
G04 #@! TA.AperFunction,Conductor*
G36*
X12803165Y50401871D02*
G01*
X12863546Y50352318D01*
X12863550Y50352315D01*
X13046046Y50254768D01*
X13244066Y50194700D01*
X13244065Y50194700D01*
X13262964Y50192839D01*
X13437655Y50175633D01*
X13502440Y50149473D01*
X13542799Y50092439D01*
X13549499Y50052231D01*
X13549499Y41423983D01*
X13529814Y41356944D01*
X13477010Y41311189D01*
X13407852Y41301245D01*
X13346835Y41328129D01*
X13296121Y41369748D01*
X13286450Y41377685D01*
X13103954Y41475232D01*
X12905934Y41535300D01*
X12905932Y41535301D01*
X12905934Y41535301D01*
X12712346Y41554367D01*
X12647559Y41580528D01*
X12607200Y41637562D01*
X12600500Y41677770D01*
X12600500Y50306018D01*
X12620185Y50373057D01*
X12672989Y50418812D01*
X12742147Y50428756D01*
X12803165Y50401871D01*
G37*
G04 #@! TD.AperFunction*
G04 #@! TA.AperFunction,Conductor*
G36*
X17686434Y54616115D02*
G01*
X17732189Y54563311D01*
X17742133Y54494153D01*
X17715248Y54433135D01*
X17652317Y54356454D01*
X17554769Y54173957D01*
X17494699Y53975933D01*
X17474417Y53770001D01*
X17494699Y53564068D01*
X17514079Y53500180D01*
X17554768Y53366046D01*
X17652315Y53183550D01*
X17672499Y53158956D01*
X17783589Y53023590D01*
X17845405Y52972860D01*
X17943550Y52892315D01*
X18126046Y52794768D01*
X18324066Y52734700D01*
X18324065Y52734700D01*
X18344347Y52732703D01*
X18530000Y52714417D01*
X18735934Y52734700D01*
X18933954Y52794768D01*
X18948188Y52802377D01*
X19016589Y52816622D01*
X19081834Y52791625D01*
X19094326Y52780702D01*
X19343181Y52531848D01*
X19376666Y52470525D01*
X19379500Y52444167D01*
X19379500Y46081295D01*
X19359815Y46014256D01*
X19343181Y45993614D01*
X17652180Y44302614D01*
X17590857Y44269129D01*
X17521165Y44274113D01*
X17465232Y44315985D01*
X17440815Y44381449D01*
X17440499Y44390268D01*
X17440499Y52557159D01*
X17441095Y52565742D01*
X17442771Y52577757D01*
X17442774Y52577764D01*
X17440991Y52616322D01*
X17440566Y52625523D01*
X17440500Y52628387D01*
X17440500Y52647841D01*
X17440500Y52647844D01*
X17440007Y52650481D01*
X17439017Y52659013D01*
X17438773Y52664296D01*
X17437585Y52689991D01*
X17434784Y52696334D01*
X17426332Y52723630D01*
X17425061Y52730433D01*
X17408738Y52756795D01*
X17404731Y52764398D01*
X17392207Y52792763D01*
X17392206Y52792764D01*
X17392206Y52792765D01*
X17387308Y52797662D01*
X17369563Y52820066D01*
X17365918Y52825953D01*
X17341172Y52844640D01*
X17334694Y52850277D01*
X16979297Y53205674D01*
X16945813Y53266996D01*
X16950797Y53336688D01*
X16957621Y53351807D01*
X16965232Y53366046D01*
X17025300Y53564066D01*
X17045583Y53770000D01*
X17025300Y53975934D01*
X16965232Y54173954D01*
X16867685Y54356450D01*
X16867414Y54356780D01*
X16804752Y54433135D01*
X16777439Y54497445D01*
X16789230Y54566313D01*
X16836383Y54617873D01*
X16900605Y54635800D01*
X17619395Y54635800D01*
X17686434Y54616115D01*
G37*
G04 #@! TD.AperFunction*
G04 #@! TA.AperFunction,Conductor*
G36*
X40377552Y55979815D02*
G01*
X40398194Y55963181D01*
X41337334Y55024041D01*
X41370819Y54962718D01*
X41365835Y54893026D01*
X41323963Y54837093D01*
X41261807Y54812957D01*
X41184067Y54805301D01*
X40986043Y54745231D01*
X40942726Y54722077D01*
X40803550Y54647685D01*
X40803548Y54647684D01*
X40803547Y54647683D01*
X40643589Y54516411D01*
X40512585Y54356779D01*
X40512315Y54356450D01*
X40474319Y54285366D01*
X40414769Y54173957D01*
X40354699Y53975933D01*
X40334417Y53770001D01*
X40354699Y53564068D01*
X40374079Y53500180D01*
X40406349Y53393799D01*
X40414769Y53366044D01*
X40422379Y53351807D01*
X40436620Y53283404D01*
X40411619Y53218160D01*
X40400701Y53205674D01*
X39841948Y52646920D01*
X39835464Y52641278D01*
X39825768Y52633956D01*
X39793559Y52598626D01*
X39791585Y52596558D01*
X39777827Y52582800D01*
X39777822Y52582794D01*
X39776306Y52580580D01*
X39770976Y52573852D01*
X39750083Y52550934D01*
X39750083Y52550933D01*
X39747578Y52544467D01*
X39734259Y52519198D01*
X39730345Y52513485D01*
X39730343Y52513479D01*
X39723244Y52483301D01*
X39720702Y52475093D01*
X39709500Y52446174D01*
X39709500Y52439249D01*
X39706206Y52410859D01*
X39704621Y52404123D01*
X39704621Y52404119D01*
X39708905Y52373410D01*
X39709500Y52364834D01*
X39709500Y48485836D01*
X39689815Y48418797D01*
X39637011Y48373042D01*
X39567853Y48363098D01*
X39504297Y48392123D01*
X39472072Y48435735D01*
X39469462Y48441644D01*
X39461001Y48468961D01*
X39459730Y48475764D01*
X39443407Y48502126D01*
X39439400Y48509729D01*
X39426876Y48538094D01*
X39426875Y48538095D01*
X39426875Y48538096D01*
X39421977Y48542994D01*
X39404232Y48565397D01*
X39400587Y48571284D01*
X39375841Y48589971D01*
X39369363Y48595608D01*
X37299298Y50665673D01*
X37265813Y50726996D01*
X37270797Y50796688D01*
X37277618Y50811803D01*
X37285232Y50826046D01*
X37345300Y51024066D01*
X37365583Y51230000D01*
X37345300Y51435934D01*
X37285232Y51633954D01*
X37187685Y51816450D01*
X37105471Y51916629D01*
X37056410Y51976411D01*
X36918292Y52089760D01*
X36896450Y52107685D01*
X36713954Y52205232D01*
X36515934Y52265300D01*
X36515932Y52265301D01*
X36515934Y52265301D01*
X36310000Y52285583D01*
X36104067Y52265301D01*
X35906043Y52205231D01*
X35807433Y52152522D01*
X35723550Y52107685D01*
X35723548Y52107684D01*
X35723547Y52107683D01*
X35563589Y51976411D01*
X35433004Y51817290D01*
X35432315Y51816450D01*
X35412357Y51779111D01*
X35334769Y51633957D01*
X35274699Y51435933D01*
X35254417Y51230000D01*
X35274699Y51024068D01*
X35274700Y51024066D01*
X35334768Y50826046D01*
X35432315Y50643550D01*
X35432317Y50643548D01*
X35563589Y50483590D01*
X35624943Y50433239D01*
X35723550Y50352315D01*
X35906046Y50254768D01*
X36104066Y50194700D01*
X36104065Y50194700D01*
X36122529Y50192882D01*
X36310000Y50174417D01*
X36515934Y50194700D01*
X36713954Y50254768D01*
X36728191Y50262379D01*
X36796592Y50276621D01*
X36861837Y50251623D01*
X36874327Y50240702D01*
X38837850Y48277180D01*
X38871335Y48215857D01*
X38874169Y48189499D01*
X38874169Y46221470D01*
X38854484Y46154431D01*
X38801680Y46108676D01*
X38732522Y46098732D01*
X38668966Y46127757D01*
X38648119Y46151030D01*
X38609031Y46207658D01*
X38590483Y46234530D01*
X38472240Y46339283D01*
X38472238Y46339284D01*
X38472237Y46339285D01*
X38332365Y46412697D01*
X38178986Y46450500D01*
X38178985Y46450500D01*
X38021015Y46450500D01*
X38021014Y46450500D01*
X37867634Y46412697D01*
X37727761Y46339285D01*
X37727759Y46339284D01*
X37672800Y46290595D01*
X37609567Y46260875D01*
X37540303Y46270060D01*
X37502894Y46295731D01*
X33822665Y49975960D01*
X33789180Y50037283D01*
X33794164Y50106975D01*
X33836036Y50162908D01*
X33898189Y50187043D01*
X33975934Y50194700D01*
X34173954Y50254768D01*
X34356450Y50352315D01*
X34516410Y50483590D01*
X34647685Y50643550D01*
X34745232Y50826046D01*
X34805300Y51024066D01*
X34825583Y51230000D01*
X34805300Y51435934D01*
X34745232Y51633954D01*
X34647685Y51816450D01*
X34565471Y51916629D01*
X34516410Y51976411D01*
X34372180Y52094776D01*
X34332845Y52152522D01*
X34330974Y52222367D01*
X34367161Y52282135D01*
X34400746Y52304060D01*
X34408793Y52307613D01*
X34413666Y52312489D01*
X34436089Y52330252D01*
X34441952Y52333881D01*
X34460646Y52358639D01*
X34466284Y52365118D01*
X34467486Y52366320D01*
X35268955Y53167964D01*
X35330274Y53201454D01*
X35399966Y53196477D01*
X35452498Y53158956D01*
X35504911Y53095091D01*
X35563590Y53023590D01*
X35723550Y52892315D01*
X35906046Y52794768D01*
X36104066Y52734700D01*
X36104065Y52734700D01*
X36122529Y52732882D01*
X36310000Y52714417D01*
X36515934Y52734700D01*
X36713954Y52794768D01*
X36896450Y52892315D01*
X37056410Y53023590D01*
X37187685Y53183550D01*
X37285232Y53366046D01*
X37345300Y53564066D01*
X37365583Y53770000D01*
X37794417Y53770000D01*
X37814699Y53564068D01*
X37834079Y53500180D01*
X37874768Y53366046D01*
X37972315Y53183550D01*
X37992499Y53158956D01*
X38103589Y53023590D01*
X38165405Y52972860D01*
X38263550Y52892315D01*
X38446046Y52794768D01*
X38644066Y52734700D01*
X38644065Y52734700D01*
X38662529Y52732882D01*
X38850000Y52714417D01*
X39055934Y52734700D01*
X39253954Y52794768D01*
X39436450Y52892315D01*
X39596410Y53023590D01*
X39727685Y53183550D01*
X39825232Y53366046D01*
X39885300Y53564066D01*
X39905583Y53770000D01*
X39885300Y53975934D01*
X39825232Y54173954D01*
X39727685Y54356450D01*
X39663367Y54434822D01*
X39596410Y54516411D01*
X39450932Y54635800D01*
X39436450Y54647685D01*
X39253954Y54745232D01*
X39055934Y54805300D01*
X39055932Y54805301D01*
X39055934Y54805301D01*
X38850000Y54825583D01*
X38644067Y54805301D01*
X38446043Y54745231D01*
X38402726Y54722077D01*
X38263550Y54647685D01*
X38263548Y54647684D01*
X38263547Y54647683D01*
X38103589Y54516411D01*
X37972585Y54356779D01*
X37972315Y54356450D01*
X37934319Y54285366D01*
X37874769Y54173957D01*
X37814699Y53975933D01*
X37794417Y53770000D01*
X37365583Y53770000D01*
X37345300Y53975934D01*
X37285232Y54173954D01*
X37187685Y54356450D01*
X37123367Y54434822D01*
X37056410Y54516411D01*
X36910932Y54635800D01*
X36896450Y54647685D01*
X36713954Y54745232D01*
X36515934Y54805300D01*
X36515932Y54805301D01*
X36515934Y54805301D01*
X36310000Y54825583D01*
X36104067Y54805301D01*
X35906043Y54745231D01*
X35862726Y54722077D01*
X35723550Y54647685D01*
X35723548Y54647684D01*
X35723547Y54647683D01*
X35563589Y54516411D01*
X35432585Y54356779D01*
X35432315Y54356450D01*
X35394319Y54285366D01*
X35334769Y54173957D01*
X35334767Y54173952D01*
X35330540Y54160018D01*
X35292240Y54101581D01*
X35228427Y54073127D01*
X35197832Y54075322D01*
X35197649Y54073341D01*
X35186207Y54074402D01*
X35146964Y54070765D01*
X35141241Y54070500D01*
X35130151Y54070500D01*
X35119256Y54068464D01*
X35113588Y54067673D01*
X35074339Y54064036D01*
X35065644Y54061562D01*
X35056008Y54058332D01*
X35047563Y54055061D01*
X35014060Y54034317D01*
X35009058Y54031530D01*
X34973768Y54013957D01*
X34969111Y54010440D01*
X34903748Y53985754D01*
X34835414Y54000325D01*
X34785806Y54049527D01*
X34775733Y54073402D01*
X34745232Y54173954D01*
X34647685Y54356450D01*
X34583367Y54434822D01*
X34516410Y54516411D01*
X34370932Y54635800D01*
X34356450Y54647685D01*
X34173954Y54745232D01*
X33975934Y54805300D01*
X33975932Y54805301D01*
X33975934Y54805301D01*
X33788463Y54823765D01*
X33770000Y54825583D01*
X33769999Y54825583D01*
X33564067Y54805301D01*
X33366043Y54745231D01*
X33322726Y54722077D01*
X33183550Y54647685D01*
X33183548Y54647684D01*
X33183547Y54647683D01*
X33023589Y54516410D01*
X32899433Y54365125D01*
X32841688Y54325791D01*
X32771843Y54323920D01*
X32728852Y54344837D01*
X32701171Y54365741D01*
X32694687Y54371384D01*
X31278252Y55787819D01*
X31244767Y55849142D01*
X31249751Y55918834D01*
X31291623Y55974767D01*
X31357087Y55999184D01*
X31365933Y55999500D01*
X40310513Y55999500D01*
X40377552Y55979815D01*
G37*
G04 #@! TD.AperFunction*
G04 #@! TA.AperFunction,Conductor*
G36*
X30756206Y55455915D02*
G01*
X30776848Y55439281D01*
X32163181Y54052948D01*
X32196666Y53991625D01*
X32199500Y53965267D01*
X32199500Y53414460D01*
X32198906Y53405894D01*
X32197220Y53393799D01*
X32199433Y53346075D01*
X32199500Y53343203D01*
X32199500Y53323751D01*
X32199996Y53321100D01*
X32200986Y53312572D01*
X32202423Y53281575D01*
X32202424Y53281571D01*
X32205211Y53275262D01*
X32213671Y53247948D01*
X32214938Y53241169D01*
X32214939Y53241166D01*
X32231270Y53214791D01*
X32235275Y53207194D01*
X32247815Y53178804D01*
X32247817Y53178801D01*
X32252694Y53173925D01*
X32270450Y53151512D01*
X32274080Y53145648D01*
X32298846Y53126946D01*
X32305325Y53121308D01*
X32653959Y52772763D01*
X33034051Y52392767D01*
X33035104Y52391715D01*
X33040753Y52385224D01*
X33048040Y52375574D01*
X33083393Y52343346D01*
X33085444Y52341387D01*
X33089248Y52337584D01*
X33099229Y52327604D01*
X33099232Y52327602D01*
X33099233Y52327601D01*
X33101427Y52326099D01*
X33108161Y52320766D01*
X33131067Y52299884D01*
X33131068Y52299884D01*
X33131070Y52299882D01*
X33140836Y52293835D01*
X33139693Y52291991D01*
X33183146Y52258604D01*
X33206741Y52192839D01*
X33191035Y52124757D01*
X33161621Y52089690D01*
X33023590Y51976411D01*
X32892314Y51816450D01*
X32892313Y51816449D01*
X32892107Y51816062D01*
X32891945Y51815899D01*
X32888934Y51811390D01*
X32888077Y51811962D01*
X32843135Y51766228D01*
X32774994Y51750780D01*
X32709319Y51774625D01*
X32677331Y51809263D01*
X32668739Y51823141D01*
X32664731Y51830745D01*
X32652207Y51859108D01*
X32652206Y51859111D01*
X32647309Y51864008D01*
X32629563Y51886412D01*
X32625918Y51892299D01*
X32601172Y51910986D01*
X32594694Y51916623D01*
X31743267Y52768050D01*
X31737624Y52774535D01*
X31730302Y52784230D01*
X31694970Y52816440D01*
X31692919Y52818398D01*
X31679143Y52832174D01*
X31676932Y52833689D01*
X31670199Y52839022D01*
X31647279Y52859916D01*
X31640816Y52862420D01*
X31615538Y52875744D01*
X31609827Y52879656D01*
X31609824Y52879657D01*
X31609825Y52879657D01*
X31579648Y52886756D01*
X31571440Y52889297D01*
X31542519Y52900500D01*
X31535595Y52900500D01*
X31507204Y52903794D01*
X31500465Y52905379D01*
X31469755Y52901095D01*
X31461180Y52900500D01*
X30775833Y52900500D01*
X30708794Y52920185D01*
X30688152Y52936819D01*
X30176819Y53448153D01*
X30143334Y53509476D01*
X30140500Y53535834D01*
X30140500Y54183507D01*
X30141095Y54192083D01*
X30142771Y54204106D01*
X30142773Y54204110D01*
X30140566Y54251856D01*
X30140500Y54254718D01*
X30140500Y54274187D01*
X30140499Y54274193D01*
X30140009Y54276813D01*
X30139016Y54285366D01*
X30138008Y54307176D01*
X30137585Y54316337D01*
X30134788Y54322670D01*
X30126332Y54349977D01*
X30125061Y54356779D01*
X30108738Y54383141D01*
X30104731Y54390744D01*
X30092207Y54419109D01*
X30092206Y54419110D01*
X30092206Y54419111D01*
X30087308Y54424009D01*
X30069563Y54446412D01*
X30069561Y54446415D01*
X30065919Y54452298D01*
X30057641Y54458549D01*
X30041172Y54470986D01*
X30034694Y54476623D01*
X29316668Y55194649D01*
X29311024Y55201135D01*
X29303702Y55210830D01*
X29268370Y55243040D01*
X29266319Y55244998D01*
X29252543Y55258774D01*
X29252542Y55258775D01*
X29248488Y55262829D01*
X29250098Y55264440D01*
X29216639Y55314177D01*
X29215173Y55384031D01*
X29251706Y55443589D01*
X29314639Y55473941D01*
X29334857Y55475600D01*
X30689167Y55475600D01*
X30756206Y55455915D01*
G37*
G04 #@! TD.AperFunction*
G04 #@! TA.AperFunction,Conductor*
G36*
X20226434Y54616115D02*
G01*
X20272189Y54563311D01*
X20282133Y54494153D01*
X20255248Y54433135D01*
X20192317Y54356454D01*
X20094769Y54173957D01*
X20034699Y53975933D01*
X20014417Y53770000D01*
X20034699Y53564068D01*
X20054079Y53500180D01*
X20094768Y53366046D01*
X20192315Y53183550D01*
X20212499Y53158956D01*
X20323589Y53023590D01*
X20385405Y52972860D01*
X20483550Y52892315D01*
X20666046Y52794768D01*
X20864066Y52734700D01*
X20864065Y52734700D01*
X20882529Y52732882D01*
X21070000Y52714417D01*
X21275934Y52734700D01*
X21473954Y52794768D01*
X21656450Y52892315D01*
X21816410Y53023590D01*
X21947685Y53183550D01*
X22045232Y53366046D01*
X22105300Y53564066D01*
X22125583Y53770000D01*
X22105300Y53975934D01*
X22045232Y54173954D01*
X21947685Y54356450D01*
X21947414Y54356780D01*
X21884752Y54433135D01*
X21857439Y54497445D01*
X21869230Y54566313D01*
X21916383Y54617873D01*
X21980605Y54635800D01*
X23894213Y54635800D01*
X23961252Y54616115D01*
X23981894Y54599481D01*
X24979424Y53601951D01*
X24985067Y53595467D01*
X24992387Y53585774D01*
X24992388Y53585772D01*
X25012740Y53567219D01*
X25027721Y53553561D01*
X25029769Y53551606D01*
X25043549Y53537826D01*
X25045759Y53536312D01*
X25052489Y53530982D01*
X25075413Y53510084D01*
X25081214Y53507837D01*
X25081874Y53507581D01*
X25106984Y53494373D01*
X25107299Y53494157D01*
X25151572Y53440106D01*
X25156054Y53427736D01*
X25174767Y53366047D01*
X25174769Y53366044D01*
X25272315Y53183550D01*
X25292499Y53158956D01*
X25403589Y53023590D01*
X25553754Y52900354D01*
X25593089Y52842608D01*
X25594960Y52772763D01*
X25558773Y52712995D01*
X25496017Y52682279D01*
X25475090Y52680500D01*
X22282849Y52680500D01*
X22274274Y52681095D01*
X22262239Y52682774D01*
X22262236Y52682774D01*
X22240010Y52681747D01*
X22214478Y52680566D01*
X22211615Y52680500D01*
X22192156Y52680500D01*
X22189521Y52680008D01*
X22180994Y52679019D01*
X22150009Y52677586D01*
X22150006Y52677585D01*
X22143668Y52674786D01*
X22116379Y52666336D01*
X22109572Y52665064D01*
X22109566Y52665061D01*
X22083202Y52648739D01*
X22075603Y52644734D01*
X22047237Y52632208D01*
X22042336Y52627307D01*
X22019942Y52609569D01*
X22014048Y52605920D01*
X21995359Y52581173D01*
X21989718Y52574690D01*
X21634326Y52219299D01*
X21573003Y52185814D01*
X21503311Y52190798D01*
X21488193Y52197621D01*
X21473956Y52205231D01*
X21473955Y52205232D01*
X21473954Y52205232D01*
X21275934Y52265300D01*
X21275932Y52265301D01*
X21275934Y52265301D01*
X21070000Y52285583D01*
X20864067Y52265301D01*
X20666043Y52205231D01*
X20567433Y52152522D01*
X20483550Y52107685D01*
X20483548Y52107684D01*
X20483547Y52107683D01*
X20323589Y51976411D01*
X20200354Y51826246D01*
X20142608Y51786911D01*
X20072763Y51785040D01*
X20012995Y51821227D01*
X19982279Y51883983D01*
X19980500Y51904910D01*
X19980500Y52557155D01*
X19981095Y52565731D01*
X19982772Y52577759D01*
X19982774Y52577764D01*
X19980566Y52625523D01*
X19980500Y52628386D01*
X19980500Y52647841D01*
X19980500Y52647844D01*
X19980007Y52650481D01*
X19979017Y52659013D01*
X19978773Y52664296D01*
X19977585Y52689991D01*
X19974784Y52696334D01*
X19966332Y52723630D01*
X19965061Y52730433D01*
X19948738Y52756795D01*
X19944731Y52764398D01*
X19932207Y52792763D01*
X19932206Y52792764D01*
X19932206Y52792765D01*
X19927308Y52797662D01*
X19909563Y52820066D01*
X19905918Y52825953D01*
X19881172Y52844640D01*
X19874694Y52850277D01*
X19519297Y53205674D01*
X19485813Y53266996D01*
X19490797Y53336688D01*
X19497621Y53351807D01*
X19505232Y53366046D01*
X19565300Y53564066D01*
X19585583Y53770000D01*
X19565300Y53975934D01*
X19505232Y54173954D01*
X19407685Y54356450D01*
X19407414Y54356780D01*
X19344752Y54433135D01*
X19317439Y54497445D01*
X19329230Y54566313D01*
X19376383Y54617873D01*
X19440605Y54635800D01*
X20159395Y54635800D01*
X20226434Y54616115D01*
G37*
G04 #@! TD.AperFunction*
G04 #@! TA.AperFunction,Conductor*
G36*
X15476619Y55455915D02*
G01*
X15522374Y55403111D01*
X15532318Y55333953D01*
X15503293Y55270397D01*
X15459683Y55238173D01*
X15443639Y55231086D01*
X15416328Y55222626D01*
X15409568Y55221363D01*
X15409565Y55221361D01*
X15383167Y55205018D01*
X15375581Y55201018D01*
X15347180Y55188469D01*
X15342311Y55183598D01*
X15319897Y55165841D01*
X15314050Y55162221D01*
X15314047Y55162218D01*
X15295342Y55137450D01*
X15289710Y55130977D01*
X14666879Y54507871D01*
X14660386Y54502220D01*
X14650775Y54494962D01*
X14618550Y54459613D01*
X14616584Y54457554D01*
X14602781Y54443744D01*
X14602777Y54443739D01*
X14601278Y54441551D01*
X14595947Y54434822D01*
X14575084Y54411935D01*
X14575082Y54411932D01*
X14572561Y54405424D01*
X14559255Y54380173D01*
X14555318Y54374423D01*
X14555315Y54374417D01*
X14548233Y54344278D01*
X14545688Y54336055D01*
X14534500Y54307176D01*
X14534500Y54300203D01*
X14531213Y54271841D01*
X14529617Y54265053D01*
X14529617Y54265050D01*
X14533902Y54234384D01*
X14534499Y54225796D01*
X14534500Y51911003D01*
X14514815Y51843964D01*
X14462012Y51798209D01*
X14392853Y51788265D01*
X14329297Y51817290D01*
X14314647Y51832338D01*
X14196410Y51976410D01*
X14115747Y52042608D01*
X14036450Y52107685D01*
X13853954Y52205232D01*
X13655934Y52265300D01*
X13655932Y52265301D01*
X13655934Y52265301D01*
X13450000Y52285583D01*
X13244067Y52265301D01*
X13046043Y52205231D01*
X12863546Y52107683D01*
X12803163Y52058128D01*
X12738853Y52030816D01*
X12669985Y52042608D01*
X12618426Y52089760D01*
X12600499Y52153979D01*
X12600499Y54070514D01*
X12620184Y54137552D01*
X12636818Y54158194D01*
X13917906Y55439281D01*
X13979229Y55472766D01*
X14005587Y55475600D01*
X15409580Y55475600D01*
X15476619Y55455915D01*
G37*
G04 #@! TD.AperFunction*
G04 #@! TA.AperFunction,Conductor*
G36*
X69892539Y59929815D02*
G01*
X69938294Y59877011D01*
X69949500Y59825500D01*
X69949500Y174500D01*
X69929815Y107461D01*
X69877011Y61706D01*
X69825500Y50500D01*
X-4825500Y50500D01*
X-4892539Y70185D01*
X-4938294Y122989D01*
X-4949500Y174500D01*
X-4949500Y3054963D01*
X12598719Y3054963D01*
X12598719Y843381D01*
X22881730Y843381D01*
X22881730Y3054963D01*
X12598719Y3054963D01*
X-4949500Y3054963D01*
X-4949500Y3902657D01*
X43949500Y3902657D01*
X43985274Y3711286D01*
X43985275Y3711284D01*
X44055600Y3529752D01*
X44055604Y3529743D01*
X44158090Y3364222D01*
X44158092Y3364220D01*
X44289248Y3220348D01*
X44370076Y3159310D01*
X44444614Y3103021D01*
X44513452Y3068744D01*
X44618879Y3016247D01*
X44618883Y3016246D01*
X44618890Y3016242D01*
X44806144Y2962963D01*
X44999999Y2945000D01*
X45000000Y2945000D01*
X45000001Y2945000D01*
X45096928Y2953982D01*
X45193856Y2962963D01*
X45381110Y3016242D01*
X45555386Y3103021D01*
X45710749Y3220346D01*
X45841908Y3364220D01*
X45944397Y3529746D01*
X46014726Y3711286D01*
X46050500Y3902657D01*
X46050500Y4000000D01*
X46050500Y4016408D01*
X46050500Y19010045D01*
X46050500Y19010046D01*
X46050500Y19097343D01*
X46014726Y19288714D01*
X45944397Y19470254D01*
X45908943Y19527514D01*
X45841909Y19635779D01*
X45841907Y19635781D01*
X45710751Y19779653D01*
X45555386Y19896979D01*
X45381120Y19983754D01*
X45381107Y19983759D01*
X45193854Y20037038D01*
X45193855Y20037038D01*
X45000001Y20055000D01*
X44999999Y20055000D01*
X44806144Y20037038D01*
X44618892Y19983759D01*
X44618879Y19983754D01*
X44444613Y19896979D01*
X44289248Y19779653D01*
X44158092Y19635781D01*
X44158090Y19635779D01*
X44055604Y19470258D01*
X44055600Y19470249D01*
X44014191Y19363358D01*
X43985274Y19288714D01*
X43949500Y19097343D01*
X43949500Y19010046D01*
X43949500Y19010045D01*
X43949500Y4016408D01*
X43949500Y4000000D01*
X43949500Y3902657D01*
X-4949500Y3902657D01*
X-4949500Y9499997D01*
X-4693065Y9499997D01*
X-4672870Y9320751D01*
X-4672869Y9320746D01*
X-4613289Y9150477D01*
X-4517316Y8997739D01*
X-4517316Y8997738D01*
X-4389762Y8870184D01*
X-4237022Y8774211D01*
X-4066756Y8714632D01*
X-4066755Y8714632D01*
X-4066750Y8714631D01*
X-3976254Y8704435D01*
X-3932460Y8699501D01*
X-3932457Y8699500D01*
X-3932454Y8699500D01*
X-3142543Y8699500D01*
X-3142542Y8699501D01*
X-3075396Y8707066D01*
X-3008251Y8714631D01*
X-3008248Y8714632D01*
X-3008245Y8714632D01*
X-2837978Y8774211D01*
X-2685238Y8870184D01*
X-2557684Y8997738D01*
X-2461711Y9150478D01*
X-2402132Y9320745D01*
X-2381935Y9500000D01*
X-2394887Y9614949D01*
X-2402131Y9679250D01*
X-2402132Y9679255D01*
X-2459090Y9842032D01*
X-2462651Y9911811D01*
X-2429728Y9970669D01*
X-2387214Y10013182D01*
X-2325891Y10046667D01*
X-2299534Y10049500D01*
X-1717671Y10049500D01*
X-1650632Y10029815D01*
X-1610284Y9987499D01*
X-1590374Y9953013D01*
X-1590372Y9953010D01*
X-1460198Y9808436D01*
X-1460195Y9808434D01*
X-1460192Y9808431D01*
X-1342148Y9722667D01*
X-1302798Y9694077D01*
X-1269506Y9679255D01*
X-1125071Y9614949D01*
X-934774Y9574500D01*
X-740226Y9574500D01*
X-549929Y9614949D01*
X-372201Y9694078D01*
X-214808Y9808431D01*
X-84630Y9953008D01*
X12644Y10121492D01*
X72762Y10306518D01*
X93098Y10500000D01*
X72762Y10693482D01*
X12644Y10878508D01*
X12643Y10878509D01*
X12643Y10878511D01*
X12642Y10878512D01*
X-25290Y10944211D01*
X-84630Y11046992D01*
X-135618Y11103619D01*
X-214803Y11191565D01*
X-214806Y11191567D01*
X-214807Y11191568D01*
X-214808Y11191569D01*
X-293505Y11248746D01*
X-372203Y11305924D01*
X-508652Y11366674D01*
X-549929Y11385051D01*
X-549931Y11385052D01*
X-740226Y11425500D01*
X-934774Y11425500D01*
X-1125069Y11385052D01*
X-1302798Y11305924D01*
X-1460195Y11191567D01*
X-1460198Y11191565D01*
X-1590372Y11046991D01*
X-1590374Y11046988D01*
X-1610284Y11012501D01*
X-1660850Y10964285D01*
X-1717671Y10950500D01*
X-2508717Y10950500D01*
X-2515656Y10950890D01*
X-2529931Y10952498D01*
X-2554536Y10955271D01*
X-2612989Y10944211D01*
X-2671789Y10935348D01*
X-2679944Y10932833D01*
X-2687970Y10930025D01*
X-2687971Y10930024D01*
X-2687973Y10930024D01*
X-2687976Y10930022D01*
X-2740574Y10902223D01*
X-2794142Y10876425D01*
X-2801192Y10871620D01*
X-2808039Y10866565D01*
X-2829063Y10845542D01*
X-2850087Y10824517D01*
X-2873730Y10802580D01*
X-2893697Y10784053D01*
X-2899487Y10776792D01*
X-2900138Y10777312D01*
X-2909533Y10765072D01*
X-3337784Y10336819D01*
X-3399107Y10303334D01*
X-3425465Y10300500D01*
X-3932461Y10300500D01*
X-4066750Y10285370D01*
X-4066755Y10285369D01*
X-4237024Y10225789D01*
X-4389763Y10129816D01*
X-4517316Y10002263D01*
X-4613289Y9849524D01*
X-4672869Y9679255D01*
X-4672870Y9679250D01*
X-4693065Y9500004D01*
X-4693065Y9499997D01*
X-4949500Y9499997D01*
X-4949500Y16499997D01*
X-4693065Y16499997D01*
X-4672870Y16320751D01*
X-4672869Y16320746D01*
X-4613289Y16150477D01*
X-4526592Y16012501D01*
X-4517316Y15997738D01*
X-4389762Y15870184D01*
X-4237022Y15774211D01*
X-4066755Y15714633D01*
X-4066755Y15714632D01*
X-4066750Y15714631D01*
X-3976254Y15704435D01*
X-3932460Y15699501D01*
X-3932457Y15699500D01*
X-3932454Y15699500D01*
X-3425466Y15699500D01*
X-3358427Y15679815D01*
X-3337785Y15663181D01*
X-2876410Y15201807D01*
X-2871774Y15196620D01*
X-2847379Y15166030D01*
X-2847379Y15166029D01*
X-2798229Y15132520D01*
X-2750382Y15097207D01*
X-2742846Y15093224D01*
X-2735181Y15089533D01*
X-2735173Y15089528D01*
X-2678324Y15071993D01*
X-2678323Y15071993D01*
X-2622203Y15052355D01*
X-2622201Y15052355D01*
X-2622199Y15052354D01*
X-2622198Y15052354D01*
X-2613802Y15050766D01*
X-2605405Y15049500D01*
X-2605402Y15049500D01*
X-2545941Y15049500D01*
X-2486491Y15047275D01*
X-2486491Y15047276D01*
X-2486490Y15047275D01*
X-2486490Y15047276D01*
X-2477258Y15048315D01*
X-2477165Y15047487D01*
X-2461861Y15049500D01*
X-1717671Y15049500D01*
X-1650632Y15029815D01*
X-1610284Y14987499D01*
X-1590374Y14953013D01*
X-1590372Y14953010D01*
X-1460198Y14808436D01*
X-1460195Y14808434D01*
X-1460192Y14808431D01*
X-1342148Y14722667D01*
X-1302798Y14694077D01*
X-1234574Y14663703D01*
X-1125071Y14614949D01*
X-934774Y14574500D01*
X-740226Y14574500D01*
X-549929Y14614949D01*
X-372201Y14694078D01*
X-214808Y14808431D01*
X-84630Y14953008D01*
X12644Y15121492D01*
X72762Y15306518D01*
X93098Y15500000D01*
X72762Y15693482D01*
X12644Y15878508D01*
X12643Y15878509D01*
X12643Y15878511D01*
X12642Y15878512D01*
X-21298Y15937297D01*
X-84630Y16046992D01*
X-135618Y16103619D01*
X-214803Y16191565D01*
X-214806Y16191567D01*
X-214807Y16191568D01*
X-214808Y16191569D01*
X-293505Y16248746D01*
X-372203Y16305924D01*
X-508652Y16366674D01*
X-549929Y16385051D01*
X-549931Y16385052D01*
X-740226Y16425500D01*
X-934774Y16425500D01*
X-1125069Y16385052D01*
X-1302798Y16305924D01*
X-1460195Y16191567D01*
X-1460198Y16191565D01*
X-1590372Y16046991D01*
X-1590374Y16046988D01*
X-1610284Y16012501D01*
X-1660850Y15964285D01*
X-1717671Y15950500D01*
X-2299535Y15950500D01*
X-2366574Y15970185D01*
X-2387216Y15986819D01*
X-2429730Y16029333D01*
X-2463215Y16090656D01*
X-2459090Y16157969D01*
X-2402134Y16320738D01*
X-2402131Y16320751D01*
X-2381935Y16499997D01*
X-2381935Y16500004D01*
X-2402131Y16679250D01*
X-2402132Y16679255D01*
X-2461712Y16849524D01*
X-2557685Y17002263D01*
X-2685238Y17129816D01*
X-2837977Y17225789D01*
X-3008246Y17285369D01*
X-3008251Y17285370D01*
X-3142540Y17300500D01*
X-3142546Y17300500D01*
X-3932454Y17300500D01*
X-3932461Y17300500D01*
X-4066750Y17285370D01*
X-4066755Y17285369D01*
X-4237024Y17225789D01*
X-4389763Y17129816D01*
X-4517316Y17002263D01*
X-4613289Y16849524D01*
X-4672869Y16679255D01*
X-4672870Y16679250D01*
X-4693065Y16500004D01*
X-4693065Y16499997D01*
X-4949500Y16499997D01*
X-4949500Y24124962D01*
X-4433634Y24124962D01*
X-4429390Y24116148D01*
X-4420223Y24089950D01*
X-4418045Y24080410D01*
X-4411946Y24072762D01*
X-4397178Y24049260D01*
X-4397170Y24049245D01*
X-4392932Y24040444D01*
X-4392931Y24040443D01*
X-4385291Y24034351D01*
X-4365654Y24014714D01*
X-4359558Y24007070D01*
X-4359556Y24007068D01*
X-4350753Y24002829D01*
X-4327236Y23988052D01*
X-4319591Y23981955D01*
X-4310057Y23979779D01*
X-4283851Y23970610D01*
X-4275038Y23966366D01*
X-4275037Y23966366D01*
X4875036Y23966366D01*
X4875037Y23966366D01*
X4883849Y23970610D01*
X4910055Y23979780D01*
X4919589Y23981955D01*
X4927234Y23988052D01*
X4950748Y24002828D01*
X4959555Y24007068D01*
X4965647Y24014709D01*
X4985290Y24034352D01*
X4992931Y24040444D01*
X4997171Y24049251D01*
X5011948Y24072768D01*
X5018044Y24080410D01*
X5020219Y24089944D01*
X5029389Y24116150D01*
X5033633Y24124962D01*
X5033633Y24218770D01*
X5033633Y24218771D01*
X5033633Y26176080D01*
X5033633Y26176081D01*
X5033633Y26199829D01*
X5033633Y27308113D01*
X5033633Y27308114D01*
X5033633Y27331862D01*
X5033633Y27356524D01*
X5033632Y27356530D01*
X5033633Y28455758D01*
X5033633Y29572180D01*
X5033633Y29572181D01*
X5033633Y29595929D01*
X5033633Y30138197D01*
X5033633Y30138198D01*
X5033633Y30161946D01*
X5033633Y30845717D01*
X5033633Y30845718D01*
X5033633Y30869466D01*
X5033633Y30869467D01*
X5033633Y32968280D01*
X5033633Y32968281D01*
X5033633Y32992029D01*
X5033633Y33251288D01*
X5033633Y33251289D01*
X5033633Y33275037D01*
X5029389Y33283850D01*
X5020220Y33310056D01*
X5018044Y33319590D01*
X5011947Y33327235D01*
X4997170Y33350752D01*
X4992931Y33359555D01*
X4992929Y33359557D01*
X4985285Y33365653D01*
X4965648Y33385290D01*
X4959556Y33392930D01*
X4959555Y33392931D01*
X4959545Y33392936D01*
X4950739Y33397177D01*
X4927237Y33411945D01*
X4919589Y33418044D01*
X4919586Y33418045D01*
X4910049Y33420222D01*
X4883851Y33429389D01*
X4875037Y33433633D01*
X4851288Y33433633D01*
X-4181230Y33433633D01*
X-4275038Y33433633D01*
X-4283857Y33429387D01*
X-4310045Y33420224D01*
X-4319587Y33418046D01*
X-4319594Y33418042D01*
X-4327240Y33411945D01*
X-4350738Y33397180D01*
X-4359551Y33392936D01*
X-4359557Y33392931D01*
X-4365655Y33385284D01*
X-4385285Y33365654D01*
X-4392932Y33359556D01*
X-4392937Y33359550D01*
X-4397181Y33350737D01*
X-4411946Y33327239D01*
X-4418043Y33319593D01*
X-4418047Y33319586D01*
X-4420225Y33310044D01*
X-4429388Y33283856D01*
X-4433634Y33275037D01*
X-4433634Y24124962D01*
X-4949500Y24124962D01*
X-4949500Y39630248D01*
X-1050500Y39630248D01*
X-1038869Y39571771D01*
X-1038868Y39571770D01*
X-994553Y39505448D01*
X-928231Y39461133D01*
X-928230Y39461132D01*
X-869753Y39449501D01*
X-869750Y39449500D01*
X-869748Y39449500D01*
X869750Y39449500D01*
X869751Y39449501D01*
X884568Y39452448D01*
X928229Y39461132D01*
X928229Y39461133D01*
X928231Y39461133D01*
X994552Y39505448D01*
X1038867Y39571769D01*
X1038867Y39571771D01*
X1038868Y39571771D01*
X1050499Y39630248D01*
X1050500Y39630250D01*
X1050500Y40500000D01*
X4024417Y40500000D01*
X4044699Y40294068D01*
X4044700Y40294066D01*
X4104768Y40096046D01*
X4202315Y39913550D01*
X4202317Y39913548D01*
X4333589Y39753590D01*
X4393165Y39704698D01*
X4493550Y39622315D01*
X4676046Y39524768D01*
X4874066Y39464700D01*
X4874065Y39464700D01*
X4894347Y39462703D01*
X5080000Y39444417D01*
X5285934Y39464700D01*
X5483954Y39524768D01*
X5666450Y39622315D01*
X5826410Y39753590D01*
X5957685Y39913550D01*
X6055232Y40096046D01*
X6115300Y40294066D01*
X6135583Y40500000D01*
X6564417Y40500000D01*
X6584699Y40294068D01*
X6584700Y40294066D01*
X6644768Y40096046D01*
X6742315Y39913550D01*
X6742317Y39913548D01*
X6873589Y39753590D01*
X6933165Y39704698D01*
X7033550Y39622315D01*
X7216046Y39524768D01*
X7414066Y39464700D01*
X7414065Y39464700D01*
X7432529Y39462882D01*
X7620000Y39444417D01*
X7825934Y39464700D01*
X8023954Y39524768D01*
X8206450Y39622315D01*
X8366410Y39753590D01*
X8497685Y39913550D01*
X8595232Y40096046D01*
X8655300Y40294066D01*
X8675583Y40500000D01*
X8655300Y40705934D01*
X8595232Y40903954D01*
X8497685Y41086450D01*
X8385943Y41222609D01*
X8366410Y41246411D01*
X8216121Y41369748D01*
X8206450Y41377685D01*
X8023954Y41475232D01*
X7825934Y41535300D01*
X7825932Y41535301D01*
X7825934Y41535301D01*
X7632346Y41554367D01*
X7620000Y41555583D01*
X7619999Y41555583D01*
X7414067Y41535301D01*
X7250835Y41485785D01*
X7216050Y41475233D01*
X7216043Y41475231D01*
X7167905Y41449500D01*
X7033550Y41377685D01*
X7033548Y41377684D01*
X7033547Y41377683D01*
X6873589Y41246411D01*
X6742317Y41086453D01*
X6742315Y41086450D01*
X6703643Y41014102D01*
X6644769Y40903957D01*
X6584699Y40705933D01*
X6564417Y40500000D01*
X6135583Y40500000D01*
X6115300Y40705934D01*
X6055232Y40903954D01*
X5957685Y41086450D01*
X5845943Y41222609D01*
X5826410Y41246411D01*
X5676121Y41369748D01*
X5666450Y41377685D01*
X5483954Y41475232D01*
X5285934Y41535300D01*
X5285932Y41535301D01*
X5285934Y41535301D01*
X5080000Y41555583D01*
X4874067Y41535301D01*
X4710835Y41485785D01*
X4676050Y41475233D01*
X4676043Y41475231D01*
X4627905Y41449500D01*
X4493550Y41377685D01*
X4493548Y41377684D01*
X4493547Y41377683D01*
X4333589Y41246411D01*
X4202317Y41086453D01*
X4202315Y41086450D01*
X4163643Y41014102D01*
X4104769Y40903957D01*
X4044699Y40705933D01*
X4024417Y40500000D01*
X1050500Y40500000D01*
X1050500Y41369751D01*
X1050499Y41369753D01*
X1038868Y41428230D01*
X1038867Y41428231D01*
X994552Y41494553D01*
X928230Y41538868D01*
X897017Y41545077D01*
X835106Y41577463D01*
X800533Y41638179D01*
X804274Y41707949D01*
X833525Y41754371D01*
X2481357Y43402204D01*
X2481362Y43402207D01*
X2491566Y43412412D01*
X2491568Y43412412D01*
X2550948Y43471793D01*
X2563451Y43484296D01*
X2567770Y43488615D01*
X2567781Y43488628D01*
X8668209Y49589207D01*
X8673369Y49593819D01*
X8703970Y49618221D01*
X8737481Y49667374D01*
X8772795Y49715223D01*
X8772796Y49715229D01*
X8776792Y49722788D01*
X8780468Y49730422D01*
X8780472Y49730427D01*
X8798009Y49787285D01*
X8817647Y49843406D01*
X8817647Y49843415D01*
X8819234Y49851798D01*
X8820500Y49860196D01*
X8820500Y49919668D01*
X8822724Y49979116D01*
X8821683Y49988351D01*
X8822513Y49988445D01*
X8820499Y50003748D01*
X8820499Y50055500D01*
X8840184Y50122539D01*
X8892988Y50168294D01*
X8944499Y50179500D01*
X9239750Y50179500D01*
X9239751Y50179501D01*
X9256524Y50182837D01*
X9298229Y50191132D01*
X9298229Y50191133D01*
X9298231Y50191133D01*
X9364552Y50235448D01*
X9408867Y50301769D01*
X9408867Y50301771D01*
X9408868Y50301771D01*
X9420499Y50360248D01*
X9420500Y50360250D01*
X9420500Y52099751D01*
X9420499Y52099753D01*
X9408868Y52158230D01*
X9408867Y52158231D01*
X9364552Y52224553D01*
X9298230Y52268868D01*
X9298229Y52268869D01*
X9239752Y52280500D01*
X9239748Y52280500D01*
X7500252Y52280500D01*
X7500247Y52280500D01*
X7441770Y52268869D01*
X7441769Y52268868D01*
X7375447Y52224553D01*
X7327602Y52152947D01*
X7273989Y52108142D01*
X7204664Y52099435D01*
X7141637Y52129590D01*
X7104918Y52189033D01*
X7100500Y52221838D01*
X7100500Y53500180D01*
X7120185Y53567219D01*
X7172989Y53612974D01*
X7242147Y53622918D01*
X7305703Y53593893D01*
X7343160Y53536177D01*
X7394768Y53366046D01*
X7492315Y53183550D01*
X7512499Y53158956D01*
X7623589Y53023590D01*
X7685405Y52972860D01*
X7783550Y52892315D01*
X7966046Y52794768D01*
X8164066Y52734700D01*
X8164065Y52734700D01*
X8184347Y52732703D01*
X8370000Y52714417D01*
X8575934Y52734700D01*
X8773954Y52794768D01*
X8956450Y52892315D01*
X9116410Y53023590D01*
X9247685Y53183550D01*
X9345232Y53366046D01*
X9405300Y53564066D01*
X9425583Y53770000D01*
X9405300Y53975934D01*
X9345232Y54173954D01*
X9247685Y54356450D01*
X9183367Y54434822D01*
X9116410Y54516411D01*
X8970932Y54635800D01*
X8956450Y54647685D01*
X8773954Y54745232D01*
X8575934Y54805300D01*
X8575932Y54805301D01*
X8575934Y54805301D01*
X8498191Y54812958D01*
X8433404Y54839120D01*
X8393045Y54896155D01*
X8389929Y54965955D01*
X8422663Y55024040D01*
X9361805Y55963181D01*
X9423129Y55996666D01*
X9449487Y55999500D01*
X13328820Y55999500D01*
X13395859Y55979815D01*
X13441614Y55927011D01*
X13451558Y55857853D01*
X13422533Y55794297D01*
X13416501Y55787819D01*
X12131948Y54503266D01*
X12125464Y54497624D01*
X12115768Y54490302D01*
X12083559Y54454972D01*
X12081585Y54452904D01*
X12067827Y54439146D01*
X12067822Y54439140D01*
X12066306Y54436926D01*
X12060976Y54430198D01*
X12040083Y54407280D01*
X12040083Y54407279D01*
X12037578Y54400813D01*
X12024259Y54375544D01*
X12020345Y54369831D01*
X12015705Y54359319D01*
X12012458Y54360753D01*
X11987746Y54317272D01*
X11925862Y54284836D01*
X11856265Y54291006D01*
X11801052Y54333823D01*
X11792216Y54347972D01*
X11787685Y54356450D01*
X11787414Y54356780D01*
X11656410Y54516411D01*
X11510932Y54635800D01*
X11496450Y54647685D01*
X11313954Y54745232D01*
X11115934Y54805300D01*
X11115932Y54805301D01*
X11115934Y54805301D01*
X10928463Y54823765D01*
X10910000Y54825583D01*
X10909999Y54825583D01*
X10704067Y54805301D01*
X10506043Y54745231D01*
X10462726Y54722077D01*
X10323550Y54647685D01*
X10323548Y54647684D01*
X10323547Y54647683D01*
X10163589Y54516411D01*
X10032585Y54356779D01*
X10032315Y54356450D01*
X9994319Y54285366D01*
X9934769Y54173957D01*
X9874699Y53975933D01*
X9854417Y53770000D01*
X9874699Y53564068D01*
X9894079Y53500180D01*
X9934768Y53366046D01*
X10032315Y53183550D01*
X10052499Y53158956D01*
X10163589Y53023590D01*
X10225405Y52972860D01*
X10323550Y52892315D01*
X10506046Y52794768D01*
X10704066Y52734700D01*
X10704065Y52734700D01*
X10722529Y52732882D01*
X10910000Y52714417D01*
X11115934Y52734700D01*
X11313954Y52794768D01*
X11496450Y52892315D01*
X11656410Y53023590D01*
X11779647Y53173756D01*
X11837392Y53213090D01*
X11907236Y53214961D01*
X11967005Y53178774D01*
X11997721Y53116018D01*
X11999500Y53095091D01*
X11999500Y51904910D01*
X11979815Y51837871D01*
X11927011Y51792116D01*
X11857853Y51782172D01*
X11794297Y51811197D01*
X11779646Y51826246D01*
X11656410Y51976411D01*
X11518292Y52089760D01*
X11496450Y52107685D01*
X11313954Y52205232D01*
X11115934Y52265300D01*
X11115932Y52265301D01*
X11115934Y52265301D01*
X10910000Y52285583D01*
X10704067Y52265301D01*
X10506043Y52205231D01*
X10407433Y52152522D01*
X10323550Y52107685D01*
X10323548Y52107684D01*
X10323547Y52107683D01*
X10163589Y51976411D01*
X10033004Y51817290D01*
X10032315Y51816450D01*
X10012357Y51779111D01*
X9934769Y51633957D01*
X9874699Y51435933D01*
X9854417Y51230001D01*
X9874699Y51024068D01*
X9874700Y51024066D01*
X9934768Y50826046D01*
X10032315Y50643550D01*
X10032317Y50643548D01*
X10163589Y50483590D01*
X10224943Y50433239D01*
X10323550Y50352315D01*
X10506046Y50254768D01*
X10704066Y50194700D01*
X10704065Y50194700D01*
X10724347Y50192703D01*
X10910000Y50174417D01*
X11073347Y50190506D01*
X11141991Y50177487D01*
X11192702Y50129423D01*
X11209500Y50067103D01*
X11209500Y45124500D01*
X11189815Y45057461D01*
X11137011Y45011706D01*
X11085500Y45000500D01*
X11019981Y45000500D01*
X11019969Y45000501D01*
X11013754Y45000501D01*
X11013730Y45000508D01*
X10894729Y45000507D01*
X10894728Y45000507D01*
X10894726Y45000506D01*
X10845692Y44989314D01*
X10762801Y44970393D01*
X10762792Y44970389D01*
X10640884Y44911679D01*
X10535085Y44827305D01*
X10535082Y44827303D01*
X10450714Y44721504D01*
X10392003Y44599588D01*
X10361893Y44467667D01*
X10361893Y44342453D01*
X10361900Y44342366D01*
X10361900Y44332336D01*
X10392009Y44200415D01*
X10450720Y44078499D01*
X10535090Y43972700D01*
X10635868Y43892330D01*
X10676008Y43835141D01*
X10678857Y43765329D01*
X10643510Y43705060D01*
X10635860Y43698432D01*
X10546655Y43627304D01*
X10462276Y43521511D01*
X10403558Y43399592D01*
X10403557Y43399590D01*
X10373442Y43267658D01*
X10373442Y43251400D01*
X10373400Y43251257D01*
X10373400Y43200000D01*
X10373400Y43132334D01*
X10376106Y43120480D01*
X10403516Y43000397D01*
X10403517Y43000393D01*
X10462240Y42878468D01*
X10462241Y42878467D01*
X10546625Y42772665D01*
X10546626Y42772664D01*
X10546628Y42772662D01*
X10548743Y42770976D01*
X10652439Y42688296D01*
X10652445Y42688293D01*
X10654141Y42687227D01*
X10655004Y42686252D01*
X10657884Y42683955D01*
X10657481Y42683451D01*
X10700433Y42634892D01*
X10711082Y42565839D01*
X10682707Y42501990D01*
X10665474Y42485278D01*
X10592768Y42427309D01*
X10592766Y42427307D01*
X10508383Y42321509D01*
X10449663Y42199591D01*
X10419548Y42067659D01*
X10419548Y42051406D01*
X10419500Y42051243D01*
X10419500Y41932331D01*
X10449618Y41800393D01*
X10492052Y41712289D01*
X10503407Y41643348D01*
X10475688Y41579212D01*
X10417694Y41540244D01*
X10368180Y41535079D01*
X10160000Y41555583D01*
X9954067Y41535301D01*
X9790835Y41485785D01*
X9756050Y41475233D01*
X9756043Y41475231D01*
X9707905Y41449500D01*
X9573550Y41377685D01*
X9573548Y41377684D01*
X9573547Y41377683D01*
X9413589Y41246411D01*
X9282317Y41086453D01*
X9282315Y41086450D01*
X9243643Y41014103D01*
X9184769Y40903957D01*
X9124699Y40705933D01*
X9104417Y40500001D01*
X9124699Y40294068D01*
X9124700Y40294066D01*
X9184768Y40096046D01*
X9282315Y39913550D01*
X9282317Y39913548D01*
X9413589Y39753590D01*
X9473165Y39704698D01*
X9573550Y39622315D01*
X9756046Y39524768D01*
X9954066Y39464700D01*
X9954065Y39464700D01*
X9974347Y39462703D01*
X10160000Y39444417D01*
X10365934Y39464700D01*
X10563954Y39524768D01*
X10746450Y39622315D01*
X10906410Y39753590D01*
X10989646Y39855015D01*
X11047392Y39894349D01*
X11117236Y39896220D01*
X11177005Y39860033D01*
X11207721Y39797277D01*
X11209500Y39776350D01*
X11209500Y36077196D01*
X11189815Y36010157D01*
X11143131Y35967402D01*
X11137761Y35964584D01*
X11137760Y35964583D01*
X11019516Y35859829D01*
X10929781Y35729825D01*
X10929780Y35729824D01*
X10873762Y35582119D01*
X10854722Y35425301D01*
X10854722Y35425300D01*
X10873762Y35268482D01*
X10929780Y35120778D01*
X10929780Y35120777D01*
X11019517Y34990770D01*
X11137760Y34886017D01*
X11137762Y34886016D01*
X11253881Y34825071D01*
X11304094Y34776487D01*
X11320068Y34708468D01*
X11296733Y34642610D01*
X11253882Y34605479D01*
X11127761Y34539284D01*
X11009516Y34434529D01*
X10919781Y34304525D01*
X10919780Y34304524D01*
X10863762Y34156819D01*
X10844722Y34000001D01*
X10844722Y34000000D01*
X10863762Y33843182D01*
X10919780Y33695477D01*
X11009517Y33565470D01*
X11127760Y33460717D01*
X11127762Y33460716D01*
X11267634Y33387304D01*
X11421014Y33349500D01*
X11421015Y33349500D01*
X11578985Y33349500D01*
X11732365Y33387304D01*
X11751182Y33397180D01*
X11872240Y33460717D01*
X11990483Y33565470D01*
X12080220Y33695477D01*
X12136237Y33843182D01*
X12155278Y34000000D01*
X12137618Y34145438D01*
X12149080Y34214361D01*
X12173031Y34248062D01*
X14018059Y36093090D01*
X14024532Y36098721D01*
X14034224Y36106041D01*
X14034228Y36106042D01*
X14066459Y36141400D01*
X14068367Y36143398D01*
X14082174Y36157203D01*
X14083684Y36159408D01*
X14089023Y36166149D01*
X14091368Y36168722D01*
X14109916Y36189067D01*
X14112417Y36195524D01*
X14125750Y36220816D01*
X14129657Y36226519D01*
X14136757Y36256706D01*
X14139296Y36264908D01*
X14150500Y36293827D01*
X14150499Y36300744D01*
X14153796Y36329154D01*
X14155379Y36335881D01*
X14151094Y36366593D01*
X14150500Y36375167D01*
X14150500Y39825091D01*
X14170185Y39892130D01*
X14222989Y39937885D01*
X14292147Y39947829D01*
X14355703Y39918804D01*
X14370350Y39903759D01*
X14406235Y39860033D01*
X14493589Y39753590D01*
X14553165Y39704698D01*
X14653550Y39622315D01*
X14836046Y39524768D01*
X15034066Y39464700D01*
X15034065Y39464700D01*
X15052529Y39462882D01*
X15240000Y39444417D01*
X15445934Y39464700D01*
X15643954Y39524768D01*
X15826450Y39622315D01*
X15986410Y39753590D01*
X16117685Y39913550D01*
X16215232Y40096046D01*
X16275300Y40294066D01*
X16295583Y40500000D01*
X16275300Y40705934D01*
X16215232Y40903954D01*
X16117685Y41086450D01*
X16005943Y41222609D01*
X15986410Y41246411D01*
X15836121Y41369748D01*
X15826450Y41377685D01*
X15692095Y41449500D01*
X15643953Y41475233D01*
X15628504Y41479919D01*
X15570066Y41518216D01*
X15541609Y41582029D01*
X15540500Y41598579D01*
X15540500Y49932162D01*
X15541095Y49940738D01*
X15542771Y49952761D01*
X15542773Y49952765D01*
X15540566Y50000510D01*
X15540500Y50003373D01*
X15540500Y50022841D01*
X15540499Y50022847D01*
X15540009Y50025467D01*
X15539016Y50034020D01*
X15538839Y50037853D01*
X15537585Y50064992D01*
X15537584Y50064995D01*
X15535079Y50075648D01*
X15538894Y50145413D01*
X15579822Y50202041D01*
X15644867Y50227552D01*
X15691780Y50222695D01*
X15784063Y50194701D01*
X15784065Y50194700D01*
X15802529Y50192882D01*
X15990000Y50174417D01*
X16195934Y50194700D01*
X16393954Y50254768D01*
X16576450Y50352315D01*
X16619038Y50387266D01*
X16636835Y50401871D01*
X16701145Y50429184D01*
X16770013Y50417393D01*
X16821573Y50370240D01*
X16839500Y50306018D01*
X16839500Y29124533D01*
X16819815Y29057494D01*
X16767011Y29011739D01*
X16715517Y29000533D01*
X16701097Y29000532D01*
X16701063Y29000531D01*
X16687754Y28997492D01*
X16569142Y28970406D01*
X16569139Y28970405D01*
X16447232Y28911683D01*
X16447226Y28911680D01*
X16341440Y28827305D01*
X16257077Y28721506D01*
X16198368Y28599584D01*
X16168261Y28467667D01*
X16168260Y28467658D01*
X16168261Y28400000D01*
X16168261Y28342893D01*
X16168299Y28342410D01*
X16168299Y28332348D01*
X16168300Y28332338D01*
X16198405Y28200430D01*
X16198406Y28200428D01*
X16257110Y28078517D01*
X16263583Y28070399D01*
X16341468Y27972723D01*
X16436471Y27896948D01*
X16476607Y27839756D01*
X16479451Y27769944D01*
X16444100Y27709677D01*
X16436466Y27703063D01*
X16341482Y27627311D01*
X16341472Y27627301D01*
X16257109Y27521510D01*
X16257106Y27521505D01*
X16198395Y27399585D01*
X16168286Y27267666D01*
X16168286Y27142727D01*
X16168299Y27142562D01*
X16168299Y27132336D01*
X16198406Y27000427D01*
X16198410Y27000416D01*
X16257117Y26878504D01*
X16341484Y26772706D01*
X16433245Y26699525D01*
X16447278Y26688334D01*
X16569191Y26629619D01*
X16701114Y26599503D01*
X16701120Y26599503D01*
X16701142Y26599500D01*
X16712613Y26599500D01*
X16715500Y26599500D01*
X16723369Y26597190D01*
X16724321Y26597095D01*
X16724336Y26597092D01*
X16724300Y26596916D01*
X16782539Y26579815D01*
X16828294Y26527011D01*
X16839500Y26475500D01*
X16839500Y16562842D01*
X16838905Y16554268D01*
X16837227Y16542237D01*
X16839434Y16494491D01*
X16839500Y16491628D01*
X16839500Y16472155D01*
X16839993Y16469518D01*
X16840982Y16460985D01*
X16842415Y16430009D01*
X16842416Y16430003D01*
X16845214Y16423666D01*
X16853664Y16396380D01*
X16854937Y16389571D01*
X16854937Y16389570D01*
X16871260Y16363207D01*
X16875263Y16355614D01*
X16887794Y16327235D01*
X16887795Y16327234D01*
X16887796Y16327232D01*
X16892689Y16322339D01*
X16910435Y16299935D01*
X16914077Y16294052D01*
X16914080Y16294049D01*
X16938826Y16275361D01*
X16945311Y16269718D01*
X20360539Y12854490D01*
X20394024Y12793167D01*
X20389040Y12723475D01*
X20388801Y12722840D01*
X20363763Y12656820D01*
X20363762Y12656815D01*
X20344721Y12500001D01*
X20344721Y12500000D01*
X20363762Y12343182D01*
X20419780Y12195478D01*
X20419780Y12195477D01*
X20509517Y12065470D01*
X20627760Y11960717D01*
X20627762Y11960716D01*
X20767634Y11887304D01*
X20921014Y11849500D01*
X20921015Y11849500D01*
X21078985Y11849500D01*
X21232365Y11887304D01*
X21232364Y11887304D01*
X21372240Y11960717D01*
X21490483Y12065470D01*
X21580220Y12195477D01*
X21636237Y12343182D01*
X21655278Y12500000D01*
X21636237Y12656818D01*
X21636236Y12656820D01*
X21610957Y12723475D01*
X21580220Y12804523D01*
X21490483Y12934530D01*
X21372240Y13039283D01*
X21372238Y13039284D01*
X21372237Y13039285D01*
X21232365Y13112697D01*
X21078986Y13150500D01*
X21078985Y13150500D01*
X20965834Y13150500D01*
X20898795Y13170185D01*
X20878153Y13186819D01*
X17476819Y16588153D01*
X17443334Y16649476D01*
X17440500Y16675834D01*
X17440500Y18835167D01*
X17460185Y18902206D01*
X17512989Y18947961D01*
X17582147Y18957905D01*
X17645703Y18928880D01*
X17652181Y18922848D01*
X18326965Y18248064D01*
X18360450Y18186741D01*
X18362380Y18145437D01*
X18344722Y18000001D01*
X18344721Y18000000D01*
X18363762Y17843182D01*
X18419779Y17695477D01*
X18419780Y17695477D01*
X18509517Y17565470D01*
X18627760Y17460717D01*
X18627762Y17460716D01*
X18767634Y17387304D01*
X18921014Y17349500D01*
X18921015Y17349500D01*
X19078985Y17349500D01*
X19232365Y17387304D01*
X19232364Y17387305D01*
X19372240Y17460717D01*
X19490483Y17565470D01*
X19580220Y17695477D01*
X19636237Y17843182D01*
X19655278Y18000000D01*
X19636237Y18156818D01*
X19580220Y18304523D01*
X19490483Y18434530D01*
X19372240Y18539283D01*
X19372238Y18539284D01*
X19372237Y18539285D01*
X19232365Y18612697D01*
X19078986Y18650500D01*
X19078985Y18650500D01*
X18921015Y18650500D01*
X18921011Y18650500D01*
X18871349Y18638260D01*
X18801547Y18641330D01*
X18753995Y18670976D01*
X17876819Y19548153D01*
X17843334Y19609476D01*
X17840500Y19635834D01*
X17840500Y24375500D01*
X17860185Y24442539D01*
X17912989Y24488294D01*
X17964500Y24499500D01*
X18051923Y24499500D01*
X18051947Y24499493D01*
X18051947Y24499494D01*
X18170928Y24499496D01*
X18170970Y24499496D01*
X18302897Y24529609D01*
X18424815Y24588324D01*
X18530612Y24672695D01*
X18614982Y24778493D01*
X18673694Y24900413D01*
X18673695Y24900417D01*
X18703804Y25032334D01*
X18703805Y25032342D01*
X18703805Y25156969D01*
X18703800Y25157035D01*
X18703800Y25167658D01*
X18703799Y25167666D01*
X18673689Y25299587D01*
X18614979Y25421500D01*
X18614978Y25421501D01*
X18614977Y25421504D01*
X18530608Y25527301D01*
X18530605Y25527304D01*
X18530604Y25527305D01*
X18435623Y25603050D01*
X18395483Y25660239D01*
X18392633Y25730050D01*
X18427979Y25790320D01*
X18435624Y25796944D01*
X18530610Y25872693D01*
X18543442Y25888784D01*
X18614982Y25978493D01*
X18673694Y26100413D01*
X18690964Y26176080D01*
X18703804Y26232334D01*
X18703805Y26232342D01*
X18703805Y26356969D01*
X18703800Y26357035D01*
X18703800Y26367658D01*
X18703799Y26367666D01*
X18673689Y26499587D01*
X18614979Y26621500D01*
X18614978Y26621501D01*
X18614977Y26621504D01*
X18530608Y26727301D01*
X18530605Y26727304D01*
X18530604Y26727305D01*
X18473673Y26772706D01*
X18435599Y26803070D01*
X18395461Y26860255D01*
X18392611Y26930067D01*
X18427957Y26990337D01*
X18435589Y26996952D01*
X18530578Y27072695D01*
X18614952Y27178492D01*
X18619666Y27188279D01*
X18673667Y27300409D01*
X18673666Y27300409D01*
X18673668Y27300411D01*
X18703781Y27432339D01*
X18703781Y27448618D01*
X18703800Y27448683D01*
X18703800Y27567659D01*
X18703800Y27567663D01*
X18673686Y27699595D01*
X18667867Y27711678D01*
X18614971Y27821515D01*
X18614968Y27821520D01*
X18530595Y27927314D01*
X18530592Y27927317D01*
X18530591Y27927318D01*
X18473651Y27972723D01*
X18424788Y28011688D01*
X18302864Y28070397D01*
X18302862Y28070398D01*
X18302859Y28070399D01*
X18170925Y28100504D01*
X18170924Y28100504D01*
X18103261Y28100500D01*
X17964500Y28100500D01*
X17897461Y28120185D01*
X17851706Y28172989D01*
X17840500Y28224500D01*
X17840500Y43589630D01*
X17860185Y43656669D01*
X17876814Y43677306D01*
X19848059Y45648551D01*
X19854532Y45654182D01*
X19864224Y45661502D01*
X19864228Y45661503D01*
X19896459Y45696861D01*
X19898367Y45698859D01*
X19912174Y45712664D01*
X19913684Y45714869D01*
X19919023Y45721610D01*
X19921763Y45724617D01*
X19939916Y45744528D01*
X19942416Y45750983D01*
X19955749Y45776279D01*
X19959656Y45781980D01*
X19966757Y45812176D01*
X19969292Y45820360D01*
X19980500Y45849288D01*
X19980500Y45856214D01*
X19983795Y45884606D01*
X19985378Y45891338D01*
X19985379Y45891342D01*
X19981095Y45922053D01*
X19980500Y45930628D01*
X19980500Y50555091D01*
X20000185Y50622130D01*
X20052989Y50667885D01*
X20122147Y50677829D01*
X20185703Y50648804D01*
X20200350Y50633759D01*
X20238096Y50587765D01*
X20323589Y50483590D01*
X20384943Y50433239D01*
X20483550Y50352315D01*
X20666046Y50254768D01*
X20864066Y50194700D01*
X20864065Y50194700D01*
X20884347Y50192703D01*
X21070000Y50174417D01*
X21275934Y50194700D01*
X21473954Y50254768D01*
X21656450Y50352315D01*
X21816410Y50483590D01*
X21947685Y50643550D01*
X22045232Y50826046D01*
X22105300Y51024066D01*
X22125583Y51230000D01*
X22105300Y51435934D01*
X22045232Y51633954D01*
X22037620Y51648194D01*
X22023379Y51716596D01*
X22048379Y51781840D01*
X22059282Y51794312D01*
X22308154Y52043184D01*
X22369476Y52076666D01*
X22395834Y52079500D01*
X22686018Y52079500D01*
X22753057Y52059815D01*
X22798812Y52007011D01*
X22808756Y51937853D01*
X22781871Y51876835D01*
X22732317Y51816454D01*
X22634769Y51633957D01*
X22574699Y51435933D01*
X22554417Y51230000D01*
X22574699Y51024068D01*
X22574700Y51024066D01*
X22634768Y50826046D01*
X22732315Y50643550D01*
X22732317Y50643548D01*
X22863589Y50483590D01*
X22924943Y50433239D01*
X23023550Y50352315D01*
X23206046Y50254768D01*
X23404066Y50194700D01*
X23404065Y50194700D01*
X23422529Y50192882D01*
X23610000Y50174417D01*
X23815934Y50194700D01*
X24013954Y50254768D01*
X24196450Y50352315D01*
X24356410Y50483590D01*
X24487685Y50643550D01*
X24585232Y50826046D01*
X24645300Y51024066D01*
X24665583Y51230000D01*
X24645300Y51435934D01*
X24585232Y51633954D01*
X24487685Y51816450D01*
X24486996Y51817290D01*
X24438129Y51876835D01*
X24410816Y51941145D01*
X24422607Y52010013D01*
X24469760Y52061573D01*
X24533982Y52079500D01*
X25226018Y52079500D01*
X25293057Y52059815D01*
X25338812Y52007011D01*
X25348756Y51937853D01*
X25321871Y51876835D01*
X25272317Y51816454D01*
X25174769Y51633957D01*
X25114699Y51435933D01*
X25094417Y51230000D01*
X25114699Y51024068D01*
X25114700Y51024066D01*
X25174768Y50826046D01*
X25272315Y50643550D01*
X25272317Y50643548D01*
X25403589Y50483590D01*
X25464943Y50433239D01*
X25563550Y50352315D01*
X25746046Y50254768D01*
X25761496Y50250082D01*
X25819932Y50211788D01*
X25848390Y50147976D01*
X25849500Y50131422D01*
X25849499Y48525834D01*
X25829814Y48458794D01*
X25813180Y48438153D01*
X20146003Y42770976D01*
X20084680Y42737491D01*
X20028648Y42738260D01*
X19978986Y42750500D01*
X19978985Y42750500D01*
X19821015Y42750500D01*
X19821014Y42750500D01*
X19667634Y42712697D01*
X19527762Y42639285D01*
X19409516Y42534529D01*
X19319781Y42404525D01*
X19319780Y42404524D01*
X19263762Y42256819D01*
X19244721Y42100001D01*
X19244721Y42100000D01*
X19263762Y41943182D01*
X19317916Y41800393D01*
X19319780Y41795477D01*
X19409517Y41665470D01*
X19527760Y41560717D01*
X19527762Y41560716D01*
X19667634Y41487304D01*
X19821014Y41449500D01*
X19821015Y41449500D01*
X19978985Y41449500D01*
X20132365Y41487304D01*
X20146177Y41494553D01*
X20272240Y41560717D01*
X20390483Y41665470D01*
X20480220Y41795477D01*
X20536237Y41943182D01*
X20555278Y42100000D01*
X20537618Y42245438D01*
X20549080Y42314361D01*
X20573031Y42348062D01*
X26318059Y48093090D01*
X26324532Y48098721D01*
X26334224Y48106041D01*
X26334228Y48106042D01*
X26366459Y48141400D01*
X26368367Y48143398D01*
X26382174Y48157203D01*
X26383684Y48159408D01*
X26389023Y48166149D01*
X26390489Y48167758D01*
X26409916Y48189067D01*
X26412416Y48195522D01*
X26425750Y48220817D01*
X26429656Y48226519D01*
X26429655Y48226519D01*
X26429657Y48226520D01*
X26436757Y48256709D01*
X26439291Y48264894D01*
X26450500Y48293827D01*
X26450500Y48300752D01*
X26453795Y48329145D01*
X26455378Y48335877D01*
X26455379Y48335881D01*
X26451092Y48366609D01*
X26450499Y48375152D01*
X26450499Y50131423D01*
X26470184Y50198461D01*
X26522988Y50244216D01*
X26538489Y50250078D01*
X26553954Y50254768D01*
X26736450Y50352315D01*
X26896410Y50483590D01*
X26896410Y50483591D01*
X26896835Y50483939D01*
X26961145Y50511252D01*
X27030013Y50499461D01*
X27081573Y50452309D01*
X27099500Y50388086D01*
X27099500Y48251896D01*
X27079815Y48184857D01*
X27033131Y48142102D01*
X27027761Y48139284D01*
X27027760Y48139283D01*
X26981975Y48098721D01*
X26909516Y48034529D01*
X26819781Y47904525D01*
X26819780Y47904524D01*
X26763762Y47756819D01*
X26744721Y47600001D01*
X26744721Y47600000D01*
X26763762Y47443182D01*
X26817118Y47302497D01*
X26819780Y47295477D01*
X26909517Y47165470D01*
X27027760Y47060717D01*
X27027762Y47060716D01*
X27167634Y46987304D01*
X27321014Y46949500D01*
X27321015Y46949500D01*
X27478985Y46949500D01*
X27632365Y46987304D01*
X27632364Y46987305D01*
X27772240Y47060717D01*
X27890483Y47165470D01*
X27980220Y47295477D01*
X27999558Y47346469D01*
X28041736Y47402171D01*
X28107333Y47426228D01*
X28175524Y47411001D01*
X28224657Y47361325D01*
X28239500Y47302497D01*
X28239500Y41039783D01*
X28239110Y41032845D01*
X28237941Y41022464D01*
X28234729Y40993966D01*
X28245788Y40935521D01*
X28254652Y40876710D01*
X28257162Y40868573D01*
X28259978Y40860525D01*
X28287777Y40807928D01*
X28313576Y40754356D01*
X28318383Y40747304D01*
X28323432Y40740464D01*
X28323433Y40740463D01*
X28323434Y40740462D01*
X28365496Y40698401D01*
X28405944Y40654806D01*
X28405945Y40654806D01*
X28413207Y40649015D01*
X28412685Y40648362D01*
X28424930Y40638966D01*
X31760084Y37303813D01*
X31793569Y37242490D01*
X31795204Y37207500D01*
X31795355Y37207500D01*
X31795355Y37204269D01*
X31795499Y37201187D01*
X31795355Y37200001D01*
X31795354Y37200001D01*
X31815859Y37031131D01*
X31815860Y37031126D01*
X31876182Y36872069D01*
X31896836Y36842147D01*
X31972817Y36732071D01*
X32078505Y36638440D01*
X32100150Y36619264D01*
X32250773Y36540211D01*
X32250775Y36540210D01*
X32415944Y36499500D01*
X32586056Y36499500D01*
X32751225Y36540210D01*
X32830692Y36581919D01*
X32901849Y36619264D01*
X32901850Y36619266D01*
X32901852Y36619266D01*
X33029183Y36732071D01*
X33125818Y36872070D01*
X33186140Y37031128D01*
X33206645Y37200000D01*
X33186140Y37368872D01*
X33125818Y37527930D01*
X33099904Y37565472D01*
X33091476Y37577682D01*
X33029183Y37667929D01*
X32901852Y37780734D01*
X32901849Y37780737D01*
X32751226Y37859790D01*
X32586056Y37900500D01*
X32488966Y37900500D01*
X32421927Y37920185D01*
X32401285Y37936819D01*
X29176818Y41161286D01*
X29143333Y41222609D01*
X29140500Y41248958D01*
X29140499Y50205330D01*
X29160184Y50272365D01*
X29206046Y50314684D01*
X29276450Y50352315D01*
X29336834Y50401871D01*
X29401145Y50429184D01*
X29470013Y50417393D01*
X29521573Y50370240D01*
X29539500Y50306018D01*
X29539500Y49062181D01*
X29538905Y49053607D01*
X29537227Y49041576D01*
X29539434Y48993830D01*
X29539500Y48990967D01*
X29539500Y48971494D01*
X29539993Y48968857D01*
X29540982Y48960324D01*
X29542415Y48929348D01*
X29542416Y48929342D01*
X29545214Y48923005D01*
X29553664Y48895719D01*
X29554937Y48888910D01*
X29554937Y48888909D01*
X29554939Y48888906D01*
X29569111Y48866016D01*
X29571260Y48862546D01*
X29575263Y48854953D01*
X29587794Y48826574D01*
X29587795Y48826573D01*
X29587796Y48826571D01*
X29592689Y48821678D01*
X29610435Y48799274D01*
X29614077Y48793391D01*
X29614080Y48793388D01*
X29638826Y48774700D01*
X29645311Y48769057D01*
X38037850Y40376518D01*
X38071335Y40315195D01*
X38074169Y40288837D01*
X38074169Y37432487D01*
X38073574Y37423913D01*
X38071896Y37411882D01*
X38074103Y37364136D01*
X38074169Y37361273D01*
X38074169Y37341800D01*
X38074662Y37339163D01*
X38075651Y37330630D01*
X38077084Y37299654D01*
X38077085Y37299648D01*
X38079883Y37293311D01*
X38088333Y37266025D01*
X38089606Y37259216D01*
X38089606Y37259215D01*
X38089608Y37259212D01*
X38099961Y37242490D01*
X38105929Y37232852D01*
X38109932Y37225259D01*
X38122463Y37196880D01*
X38122464Y37196879D01*
X38122465Y37196877D01*
X38127358Y37191984D01*
X38145104Y37169580D01*
X38148746Y37163697D01*
X38148749Y37163694D01*
X38173495Y37145006D01*
X38179980Y37139363D01*
X39487395Y35831947D01*
X39493037Y35825463D01*
X39500353Y35815776D01*
X39500354Y35815775D01*
X39500356Y35815772D01*
X39515175Y35802263D01*
X39535678Y35783571D01*
X39537726Y35781616D01*
X39551517Y35767825D01*
X39552977Y35766825D01*
X39553733Y35766307D01*
X39560472Y35760969D01*
X39583377Y35740087D01*
X39583379Y35740086D01*
X39583381Y35740084D01*
X39589837Y35737583D01*
X39615121Y35724257D01*
X39620834Y35720343D01*
X39635528Y35716888D01*
X39651012Y35713245D01*
X39659225Y35710702D01*
X39688140Y35699500D01*
X39688141Y35699500D01*
X39695067Y35699500D01*
X39723455Y35696207D01*
X39730196Y35694621D01*
X39760908Y35698906D01*
X39769482Y35699500D01*
X55597159Y35699500D01*
X55605733Y35698905D01*
X55617761Y35697228D01*
X55617761Y35697229D01*
X55617765Y35697227D01*
X55660920Y35699222D01*
X55665510Y35699434D01*
X55668373Y35699500D01*
X55687843Y35699500D01*
X55687844Y35699500D01*
X55690468Y35699991D01*
X55699021Y35700984D01*
X55700245Y35701041D01*
X55729992Y35702415D01*
X55736322Y35705211D01*
X55763629Y35713668D01*
X55770433Y35714939D01*
X55796797Y35731264D01*
X55804392Y35735267D01*
X55832765Y35747794D01*
X55837661Y35752691D01*
X55860069Y35770439D01*
X55865952Y35774081D01*
X55884649Y35798842D01*
X55890266Y35805297D01*
X59595673Y39510704D01*
X59656994Y39544187D01*
X59726686Y39539203D01*
X59741804Y39532380D01*
X59750493Y39527736D01*
X59756046Y39524768D01*
X59954066Y39464700D01*
X59954065Y39464700D01*
X59972529Y39462882D01*
X60160000Y39444417D01*
X60365934Y39464700D01*
X60563954Y39524768D01*
X60746450Y39622315D01*
X60906410Y39753590D01*
X61037685Y39913550D01*
X61135232Y40096046D01*
X61195300Y40294066D01*
X61215583Y40500000D01*
X61215583Y40500001D01*
X61644417Y40500001D01*
X61664699Y40294068D01*
X61664700Y40294066D01*
X61724768Y40096046D01*
X61822315Y39913550D01*
X61822317Y39913548D01*
X61953589Y39753590D01*
X62013165Y39704698D01*
X62113550Y39622315D01*
X62296046Y39524768D01*
X62494066Y39464700D01*
X62494065Y39464700D01*
X62512529Y39462882D01*
X62700000Y39444417D01*
X62905934Y39464700D01*
X63103954Y39524768D01*
X63286450Y39622315D01*
X63446410Y39753590D01*
X63577685Y39913550D01*
X63675232Y40096046D01*
X63735300Y40294066D01*
X63755583Y40500000D01*
X64184417Y40500000D01*
X64204699Y40294068D01*
X64204700Y40294066D01*
X64264768Y40096046D01*
X64362315Y39913550D01*
X64362317Y39913548D01*
X64493589Y39753590D01*
X64553165Y39704698D01*
X64653550Y39622315D01*
X64836046Y39524768D01*
X65034066Y39464700D01*
X65034065Y39464700D01*
X65052529Y39462882D01*
X65240000Y39444417D01*
X65445934Y39464700D01*
X65643954Y39524768D01*
X65826450Y39622315D01*
X65986410Y39753590D01*
X66117685Y39913550D01*
X66215232Y40096046D01*
X66275300Y40294066D01*
X66295583Y40500000D01*
X66275300Y40705934D01*
X66215232Y40903954D01*
X66117685Y41086450D01*
X66005943Y41222609D01*
X65986410Y41246411D01*
X65836121Y41369748D01*
X65826450Y41377685D01*
X65643954Y41475232D01*
X65445934Y41535300D01*
X65445932Y41535301D01*
X65445934Y41535301D01*
X65240000Y41555583D01*
X65034067Y41535301D01*
X64870835Y41485785D01*
X64836050Y41475233D01*
X64836043Y41475231D01*
X64787905Y41449500D01*
X64653550Y41377685D01*
X64653548Y41377684D01*
X64653547Y41377683D01*
X64493589Y41246411D01*
X64362317Y41086453D01*
X64362315Y41086450D01*
X64323643Y41014103D01*
X64264769Y40903957D01*
X64204699Y40705933D01*
X64184417Y40500000D01*
X63755583Y40500000D01*
X63735300Y40705934D01*
X63675232Y40903954D01*
X63577685Y41086450D01*
X63465943Y41222609D01*
X63446410Y41246411D01*
X63296121Y41369748D01*
X63286450Y41377685D01*
X63103954Y41475232D01*
X62905934Y41535300D01*
X62905932Y41535301D01*
X62905934Y41535301D01*
X62700000Y41555583D01*
X62494067Y41535301D01*
X62330835Y41485785D01*
X62296050Y41475233D01*
X62296043Y41475231D01*
X62247905Y41449500D01*
X62113550Y41377685D01*
X62113548Y41377684D01*
X62113547Y41377683D01*
X61953589Y41246411D01*
X61822317Y41086453D01*
X61822315Y41086450D01*
X61783643Y41014103D01*
X61724769Y40903957D01*
X61664699Y40705933D01*
X61644417Y40500001D01*
X61215583Y40500001D01*
X61195300Y40705934D01*
X61135232Y40903954D01*
X61037685Y41086450D01*
X60925943Y41222609D01*
X60906410Y41246411D01*
X60756121Y41369748D01*
X60746450Y41377685D01*
X60563954Y41475232D01*
X60365934Y41535300D01*
X60365932Y41535301D01*
X60365934Y41535301D01*
X60160000Y41555583D01*
X59954067Y41535301D01*
X59790835Y41485785D01*
X59756050Y41475233D01*
X59756043Y41475231D01*
X59707905Y41449500D01*
X59573550Y41377685D01*
X59573548Y41377684D01*
X59573547Y41377683D01*
X59413589Y41246411D01*
X59282317Y41086453D01*
X59282315Y41086450D01*
X59243643Y41014103D01*
X59184769Y40903957D01*
X59124699Y40705933D01*
X59104417Y40500001D01*
X59124699Y40294068D01*
X59184769Y40096044D01*
X59192379Y40081807D01*
X59206620Y40013404D01*
X59181619Y39948160D01*
X59170701Y39935674D01*
X55571848Y36336819D01*
X55510525Y36303334D01*
X55484167Y36300500D01*
X54144833Y36300500D01*
X54077794Y36320185D01*
X54032039Y36372989D01*
X54022095Y36442147D01*
X54051120Y36505703D01*
X54057152Y36512181D01*
X55544972Y38000001D01*
X57055674Y39510704D01*
X57116995Y39544187D01*
X57186687Y39539203D01*
X57201806Y39532380D01*
X57216046Y39524768D01*
X57414066Y39464700D01*
X57414065Y39464700D01*
X57432529Y39462882D01*
X57620000Y39444417D01*
X57825934Y39464700D01*
X58023954Y39524768D01*
X58206450Y39622315D01*
X58366410Y39753590D01*
X58497685Y39913550D01*
X58595232Y40096046D01*
X58655300Y40294066D01*
X58675583Y40500000D01*
X58655300Y40705934D01*
X58595232Y40903954D01*
X58497685Y41086450D01*
X58385943Y41222609D01*
X58366410Y41246411D01*
X58216121Y41369748D01*
X58206450Y41377685D01*
X58023954Y41475232D01*
X57825934Y41535300D01*
X57825932Y41535301D01*
X57825934Y41535301D01*
X57632346Y41554367D01*
X57620000Y41555583D01*
X57619999Y41555583D01*
X57414067Y41535301D01*
X57250835Y41485785D01*
X57216050Y41475233D01*
X57216043Y41475231D01*
X57167905Y41449500D01*
X57033550Y41377685D01*
X57033548Y41377684D01*
X57033547Y41377683D01*
X56873589Y41246411D01*
X56742317Y41086453D01*
X56742315Y41086450D01*
X56703643Y41014103D01*
X56644769Y40903957D01*
X56584699Y40705933D01*
X56564417Y40500000D01*
X56584699Y40294068D01*
X56644769Y40096044D01*
X56652379Y40081807D01*
X56666620Y40013404D01*
X56641619Y39948160D01*
X56630701Y39935674D01*
X53431848Y36736819D01*
X53370525Y36703334D01*
X53344167Y36700500D01*
X52004833Y36700500D01*
X51937794Y36720185D01*
X51892039Y36772989D01*
X51882095Y36842147D01*
X51911120Y36905703D01*
X51917152Y36912181D01*
X52532903Y37527932D01*
X54515673Y39510704D01*
X54576994Y39544187D01*
X54646686Y39539203D01*
X54661804Y39532380D01*
X54670493Y39527736D01*
X54676046Y39524768D01*
X54874066Y39464700D01*
X54874065Y39464700D01*
X54892529Y39462882D01*
X55080000Y39444417D01*
X55285934Y39464700D01*
X55483954Y39524768D01*
X55666450Y39622315D01*
X55826410Y39753590D01*
X55957685Y39913550D01*
X56055232Y40096046D01*
X56115300Y40294066D01*
X56135583Y40500000D01*
X56115300Y40705934D01*
X56055232Y40903954D01*
X55957685Y41086450D01*
X55845943Y41222609D01*
X55826410Y41246411D01*
X55676121Y41369748D01*
X55666450Y41377685D01*
X55483954Y41475232D01*
X55285934Y41535300D01*
X55285932Y41535301D01*
X55285934Y41535301D01*
X55080000Y41555583D01*
X54874067Y41535301D01*
X54710835Y41485785D01*
X54676050Y41475233D01*
X54676043Y41475231D01*
X54627905Y41449500D01*
X54493550Y41377685D01*
X54493548Y41377684D01*
X54493547Y41377683D01*
X54333589Y41246411D01*
X54202317Y41086453D01*
X54202315Y41086450D01*
X54163643Y41014103D01*
X54104769Y40903957D01*
X54044699Y40705933D01*
X54024417Y40500000D01*
X54044699Y40294068D01*
X54104769Y40096044D01*
X54112379Y40081807D01*
X54126620Y40013404D01*
X54101619Y39948160D01*
X54090701Y39935674D01*
X51291848Y37136819D01*
X51230525Y37103334D01*
X51204167Y37100500D01*
X40325172Y37100500D01*
X40258133Y37120185D01*
X40237491Y37136819D01*
X40192836Y37181474D01*
X40159351Y37242797D01*
X40164335Y37312489D01*
X40206207Y37368422D01*
X40236545Y37385097D01*
X40242356Y37387302D01*
X40242365Y37387304D01*
X40382240Y37460717D01*
X40500483Y37565470D01*
X40590220Y37695477D01*
X40646237Y37843182D01*
X40665278Y38000000D01*
X40646237Y38156818D01*
X40590220Y38304523D01*
X40500483Y38434530D01*
X40382240Y38539283D01*
X40376869Y38542102D01*
X40326659Y38590689D01*
X40310500Y38651896D01*
X40310500Y39630248D01*
X48949500Y39630248D01*
X48961131Y39571771D01*
X48961132Y39571770D01*
X49005447Y39505448D01*
X49071769Y39461133D01*
X49071770Y39461132D01*
X49130247Y39449501D01*
X49130250Y39449500D01*
X49130252Y39449500D01*
X50869750Y39449500D01*
X50869751Y39449501D01*
X50884568Y39452448D01*
X50928229Y39461132D01*
X50928229Y39461133D01*
X50928231Y39461133D01*
X50994552Y39505448D01*
X51038867Y39571769D01*
X51038867Y39571771D01*
X51038868Y39571771D01*
X51050499Y39630248D01*
X51050500Y39630250D01*
X51050500Y41369751D01*
X51050499Y41369753D01*
X51038868Y41428230D01*
X51038867Y41428231D01*
X50994552Y41494553D01*
X50928230Y41538868D01*
X50928229Y41538869D01*
X50869752Y41550500D01*
X50869748Y41550500D01*
X49130252Y41550500D01*
X49130247Y41550500D01*
X49071770Y41538869D01*
X49071769Y41538868D01*
X49005447Y41494553D01*
X48961132Y41428231D01*
X48961131Y41428230D01*
X48949500Y41369753D01*
X48949500Y39630248D01*
X40310500Y39630248D01*
X40310500Y50542905D01*
X40330185Y50609944D01*
X40382989Y50655699D01*
X40452147Y50665643D01*
X40515703Y50636618D01*
X40530354Y50621569D01*
X40643589Y50483590D01*
X40704943Y50433239D01*
X40803550Y50352315D01*
X40986046Y50254768D01*
X41001496Y50250082D01*
X41059932Y50211788D01*
X41088390Y50147976D01*
X41089500Y50131422D01*
X41089500Y41046647D01*
X41069815Y40979608D01*
X41032576Y40945504D01*
X41033931Y40943542D01*
X41027760Y40939283D01*
X40909516Y40834529D01*
X40819781Y40704525D01*
X40819780Y40704524D01*
X40763762Y40556819D01*
X40744722Y40400001D01*
X40744722Y40400000D01*
X40763762Y40243182D01*
X40819564Y40096046D01*
X40819780Y40095477D01*
X40909517Y39965470D01*
X41027760Y39860717D01*
X41027762Y39860716D01*
X41167634Y39787304D01*
X41321014Y39749500D01*
X41321015Y39749500D01*
X41478985Y39749500D01*
X41632365Y39787304D01*
X41704361Y39825091D01*
X41772240Y39860717D01*
X41890483Y39965470D01*
X41980220Y40095477D01*
X42036237Y40243182D01*
X42055278Y40400000D01*
X42036237Y40556818D01*
X42034362Y40561761D01*
X41999075Y40654806D01*
X41980220Y40704523D01*
X41890483Y40834530D01*
X41772240Y40939283D01*
X41770490Y40940202D01*
X41756869Y40947351D01*
X41706659Y40995938D01*
X41690500Y41057145D01*
X41690500Y46262600D01*
X43082122Y46262600D01*
X43101162Y46105782D01*
X43157179Y45958078D01*
X43157180Y45958077D01*
X43246917Y45828070D01*
X43365160Y45723317D01*
X43365162Y45723316D01*
X43505034Y45649904D01*
X43658414Y45612100D01*
X43658415Y45612100D01*
X43816385Y45612100D01*
X43969765Y45649904D01*
X43977916Y45654182D01*
X44109640Y45723317D01*
X44227883Y45828070D01*
X44317620Y45958077D01*
X44373637Y46105782D01*
X44392678Y46262600D01*
X44375018Y46408038D01*
X44386480Y46476961D01*
X44410431Y46510662D01*
X46638059Y48738290D01*
X46644532Y48743921D01*
X46654224Y48751241D01*
X46654228Y48751242D01*
X46686459Y48786600D01*
X46688367Y48788598D01*
X46702174Y48802403D01*
X46703684Y48804608D01*
X46709023Y48811349D01*
X46718439Y48821678D01*
X46729916Y48834267D01*
X46732417Y48840724D01*
X46745750Y48866016D01*
X46749657Y48871719D01*
X46756757Y48901906D01*
X46759296Y48910108D01*
X46770500Y48939027D01*
X46770500Y48945952D01*
X46773794Y48974344D01*
X46775379Y48981081D01*
X46771095Y49011792D01*
X46770500Y49020367D01*
X46770500Y50131422D01*
X46790185Y50198461D01*
X46842989Y50244216D01*
X46858488Y50250077D01*
X46873954Y50254768D01*
X47056450Y50352315D01*
X47216410Y50483590D01*
X47347685Y50643550D01*
X47445232Y50826046D01*
X47505300Y51024066D01*
X47525583Y51230000D01*
X47954417Y51230000D01*
X47974699Y51024068D01*
X47974700Y51024066D01*
X48034768Y50826046D01*
X48132315Y50643550D01*
X48132317Y50643548D01*
X48263589Y50483590D01*
X48324943Y50433239D01*
X48423550Y50352315D01*
X48606046Y50254768D01*
X48804066Y50194700D01*
X48804065Y50194700D01*
X48824347Y50192703D01*
X49010000Y50174417D01*
X49215934Y50194700D01*
X49413954Y50254768D01*
X49596450Y50352315D01*
X49756410Y50483590D01*
X49887685Y50643550D01*
X49985232Y50826046D01*
X50045300Y51024066D01*
X50065583Y51230000D01*
X50494417Y51230000D01*
X50514699Y51024068D01*
X50514700Y51024066D01*
X50574768Y50826046D01*
X50672315Y50643550D01*
X50672317Y50643548D01*
X50803589Y50483590D01*
X50864943Y50433239D01*
X50963550Y50352315D01*
X51146046Y50254768D01*
X51344066Y50194700D01*
X51344065Y50194700D01*
X51362529Y50192882D01*
X51550000Y50174417D01*
X51755934Y50194700D01*
X51953954Y50254768D01*
X52136450Y50352315D01*
X52296410Y50483590D01*
X52427685Y50643550D01*
X52525232Y50826046D01*
X52585300Y51024066D01*
X52605583Y51230000D01*
X53034417Y51230000D01*
X53054699Y51024068D01*
X53054700Y51024066D01*
X53114768Y50826046D01*
X53212315Y50643550D01*
X53212317Y50643548D01*
X53343589Y50483590D01*
X53404943Y50433239D01*
X53503550Y50352315D01*
X53686046Y50254768D01*
X53884066Y50194700D01*
X53884065Y50194700D01*
X53902529Y50192882D01*
X54090000Y50174417D01*
X54295934Y50194700D01*
X54493954Y50254768D01*
X54508188Y50262377D01*
X54576589Y50276622D01*
X54641834Y50251625D01*
X54654326Y50240702D01*
X57263081Y47631947D01*
X57268723Y47625463D01*
X57276039Y47615776D01*
X57276040Y47615775D01*
X57276042Y47615772D01*
X57293342Y47600001D01*
X57311364Y47583571D01*
X57313412Y47581616D01*
X57327203Y47567825D01*
X57328663Y47566825D01*
X57329419Y47566307D01*
X57336158Y47560969D01*
X57359063Y47540087D01*
X57359065Y47540086D01*
X57359067Y47540084D01*
X57365523Y47537583D01*
X57390807Y47524257D01*
X57396520Y47520343D01*
X57411214Y47516888D01*
X57426698Y47513245D01*
X57434911Y47510702D01*
X57463826Y47499500D01*
X57463827Y47499500D01*
X57470753Y47499500D01*
X57499141Y47496207D01*
X57505882Y47494621D01*
X57536594Y47498906D01*
X57545168Y47499500D01*
X58251923Y47499500D01*
X58318962Y47479815D01*
X58353972Y47445941D01*
X58409517Y47365470D01*
X58527760Y47260717D01*
X58527762Y47260716D01*
X58667634Y47187304D01*
X58821014Y47149500D01*
X58821015Y47149500D01*
X58978985Y47149500D01*
X59132365Y47187304D01*
X59132365Y47187305D01*
X59272240Y47260717D01*
X59390483Y47365470D01*
X59480220Y47495477D01*
X59536237Y47643182D01*
X59555278Y47800000D01*
X59554286Y47808175D01*
X59536237Y47956819D01*
X59508278Y48030539D01*
X59480220Y48104523D01*
X59390483Y48234530D01*
X59272240Y48339283D01*
X59272238Y48339284D01*
X59272237Y48339285D01*
X59132365Y48412697D01*
X58978986Y48450500D01*
X58978985Y48450500D01*
X58821015Y48450500D01*
X58821014Y48450500D01*
X58667634Y48412697D01*
X58527762Y48339285D01*
X58409516Y48234529D01*
X58353973Y48154060D01*
X58299690Y48110070D01*
X58251923Y48100500D01*
X57695833Y48100500D01*
X57628794Y48120185D01*
X57608152Y48136819D01*
X55079298Y50665673D01*
X55045813Y50726996D01*
X55050797Y50796688D01*
X55057618Y50811803D01*
X55065232Y50826046D01*
X55125300Y51024066D01*
X55145583Y51230000D01*
X55125300Y51435934D01*
X55065232Y51633954D01*
X54967685Y51816450D01*
X54885471Y51916629D01*
X54836410Y51976411D01*
X54698292Y52089760D01*
X54676450Y52107685D01*
X54493954Y52205232D01*
X54295934Y52265300D01*
X54295932Y52265301D01*
X54295934Y52265301D01*
X54090000Y52285583D01*
X53884067Y52265301D01*
X53686043Y52205231D01*
X53587433Y52152522D01*
X53503550Y52107685D01*
X53503548Y52107684D01*
X53503547Y52107683D01*
X53343589Y51976411D01*
X53213004Y51817290D01*
X53212315Y51816450D01*
X53192357Y51779111D01*
X53114769Y51633957D01*
X53054699Y51435933D01*
X53034417Y51230000D01*
X52605583Y51230000D01*
X52585300Y51435934D01*
X52525232Y51633954D01*
X52427685Y51816450D01*
X52345471Y51916629D01*
X52296410Y51976411D01*
X52158292Y52089760D01*
X52136450Y52107685D01*
X51953954Y52205232D01*
X51755934Y52265300D01*
X51755932Y52265301D01*
X51755934Y52265301D01*
X51550000Y52285583D01*
X51344067Y52265301D01*
X51146043Y52205231D01*
X51047433Y52152522D01*
X50963550Y52107685D01*
X50963548Y52107684D01*
X50963547Y52107683D01*
X50803589Y51976411D01*
X50673004Y51817290D01*
X50672315Y51816450D01*
X50652357Y51779111D01*
X50574769Y51633957D01*
X50514699Y51435933D01*
X50494417Y51230000D01*
X50065583Y51230000D01*
X50045300Y51435934D01*
X49985232Y51633954D01*
X49887685Y51816450D01*
X49805471Y51916629D01*
X49756410Y51976411D01*
X49618292Y52089760D01*
X49596450Y52107685D01*
X49413954Y52205232D01*
X49215934Y52265300D01*
X49215932Y52265301D01*
X49215934Y52265301D01*
X49010000Y52285583D01*
X48804067Y52265301D01*
X48606043Y52205231D01*
X48507433Y52152522D01*
X48423550Y52107685D01*
X48423548Y52107684D01*
X48423547Y52107683D01*
X48263589Y51976411D01*
X48133004Y51817290D01*
X48132315Y51816450D01*
X48112357Y51779111D01*
X48034769Y51633957D01*
X47974699Y51435933D01*
X47954417Y51230000D01*
X47525583Y51230000D01*
X47505300Y51435934D01*
X47445232Y51633954D01*
X47347685Y51816450D01*
X47265471Y51916629D01*
X47216410Y51976411D01*
X47078292Y52089760D01*
X47056450Y52107685D01*
X46873954Y52205232D01*
X46675934Y52265300D01*
X46675932Y52265301D01*
X46675934Y52265301D01*
X46488463Y52283765D01*
X46470000Y52285583D01*
X46469999Y52285583D01*
X46264067Y52265301D01*
X46066043Y52205231D01*
X45967433Y52152522D01*
X45883550Y52107685D01*
X45883548Y52107684D01*
X45883547Y52107683D01*
X45723589Y51976411D01*
X45593004Y51817290D01*
X45592315Y51816450D01*
X45572357Y51779111D01*
X45494769Y51633957D01*
X45434699Y51435933D01*
X45414417Y51230000D01*
X45434699Y51024068D01*
X45434700Y51024066D01*
X45494768Y50826046D01*
X45592315Y50643550D01*
X45592317Y50643548D01*
X45723589Y50483590D01*
X45784943Y50433239D01*
X45883550Y50352315D01*
X46066046Y50254768D01*
X46081496Y50250082D01*
X46139932Y50211788D01*
X46168390Y50147976D01*
X46169500Y50131422D01*
X46169500Y49171035D01*
X46149815Y49103996D01*
X46133181Y49083354D01*
X43983403Y46933576D01*
X43922080Y46900091D01*
X43866048Y46900860D01*
X43816386Y46913100D01*
X43816385Y46913100D01*
X43658415Y46913100D01*
X43658414Y46913100D01*
X43505034Y46875297D01*
X43365162Y46801885D01*
X43246916Y46697129D01*
X43157181Y46567125D01*
X43157180Y46567124D01*
X43101162Y46419419D01*
X43082122Y46262601D01*
X43082122Y46262600D01*
X41690500Y46262600D01*
X41690500Y50131422D01*
X41710185Y50198461D01*
X41762989Y50244216D01*
X41778488Y50250077D01*
X41793954Y50254768D01*
X41976450Y50352315D01*
X42136410Y50483590D01*
X42267685Y50643550D01*
X42365232Y50826046D01*
X42425300Y51024066D01*
X42445583Y51230000D01*
X42425300Y51435934D01*
X42365232Y51633954D01*
X42267685Y51816450D01*
X42185471Y51916629D01*
X42136410Y51976411D01*
X41998292Y52089760D01*
X41976450Y52107685D01*
X41793954Y52205232D01*
X41595934Y52265300D01*
X41595932Y52265301D01*
X41595934Y52265301D01*
X41408463Y52283765D01*
X41390000Y52285583D01*
X41389999Y52285583D01*
X41184067Y52265301D01*
X40986043Y52205231D01*
X40887433Y52152522D01*
X40803550Y52107685D01*
X40803548Y52107684D01*
X40803547Y52107683D01*
X40643589Y51976410D01*
X40530353Y51838431D01*
X40472608Y51799097D01*
X40402763Y51797226D01*
X40342995Y51833414D01*
X40312279Y51896169D01*
X40310500Y51917096D01*
X40310500Y52214168D01*
X40330185Y52281207D01*
X40346815Y52301845D01*
X40825672Y52780703D01*
X40886995Y52814187D01*
X40956687Y52809203D01*
X40971805Y52802380D01*
X40977447Y52799365D01*
X40984051Y52795834D01*
X40986046Y52794768D01*
X41184066Y52734700D01*
X41184065Y52734700D01*
X41204347Y52732703D01*
X41390000Y52714417D01*
X41595934Y52734700D01*
X41793954Y52794768D01*
X41976450Y52892315D01*
X42036834Y52941871D01*
X42101145Y52969184D01*
X42170013Y52957393D01*
X42221573Y52910240D01*
X42239500Y52846018D01*
X42239500Y52682842D01*
X42238905Y52674268D01*
X42237227Y52662237D01*
X42239434Y52614491D01*
X42239500Y52611628D01*
X42239500Y52592155D01*
X42239993Y52589518D01*
X42240982Y52580985D01*
X42242415Y52550009D01*
X42242416Y52550003D01*
X42245214Y52543666D01*
X42253664Y52516380D01*
X42254937Y52509571D01*
X42254937Y52509570D01*
X42254939Y52509567D01*
X42271201Y52483301D01*
X42271260Y52483207D01*
X42275263Y52475614D01*
X42287794Y52447235D01*
X42287795Y52447234D01*
X42287796Y52447232D01*
X42292689Y52442339D01*
X42310435Y52419935D01*
X42314077Y52414052D01*
X42314080Y52414049D01*
X42338826Y52395361D01*
X42345311Y52389718D01*
X42940701Y51794328D01*
X42974186Y51733005D01*
X42969202Y51663313D01*
X42962381Y51648200D01*
X42954770Y51633961D01*
X42894699Y51435933D01*
X42874417Y51230000D01*
X42894699Y51024068D01*
X42894700Y51024066D01*
X42954768Y50826046D01*
X43052315Y50643550D01*
X43052317Y50643548D01*
X43183589Y50483590D01*
X43244943Y50433239D01*
X43343550Y50352315D01*
X43526046Y50254768D01*
X43724066Y50194700D01*
X43724065Y50194700D01*
X43744347Y50192703D01*
X43930000Y50174417D01*
X44135934Y50194700D01*
X44333954Y50254768D01*
X44516450Y50352315D01*
X44676410Y50483590D01*
X44807685Y50643550D01*
X44905232Y50826046D01*
X44965300Y51024066D01*
X44985583Y51230000D01*
X44965300Y51435934D01*
X44905232Y51633954D01*
X44807685Y51816450D01*
X44725471Y51916629D01*
X44676410Y51976411D01*
X44538292Y52089760D01*
X44516450Y52107685D01*
X44333954Y52205232D01*
X44135934Y52265300D01*
X44135932Y52265301D01*
X44135934Y52265301D01*
X43930000Y52285583D01*
X43724067Y52265301D01*
X43526039Y52205230D01*
X43511800Y52197619D01*
X43443397Y52183380D01*
X43378154Y52208384D01*
X43365672Y52219299D01*
X43130800Y52454171D01*
X42876819Y52708153D01*
X42843334Y52769476D01*
X42840500Y52795834D01*
X42840500Y53770000D01*
X45414417Y53770000D01*
X45434699Y53564068D01*
X45454079Y53500180D01*
X45494768Y53366046D01*
X45592315Y53183550D01*
X45612499Y53158956D01*
X45723589Y53023590D01*
X45785405Y52972860D01*
X45883550Y52892315D01*
X46066046Y52794768D01*
X46264066Y52734700D01*
X46264065Y52734700D01*
X46284347Y52732703D01*
X46470000Y52714417D01*
X46675934Y52734700D01*
X46873954Y52794768D01*
X47056450Y52892315D01*
X47216410Y53023590D01*
X47347685Y53183550D01*
X47445232Y53366046D01*
X47505300Y53564066D01*
X47525583Y53770000D01*
X47525583Y53770001D01*
X50494417Y53770001D01*
X50514699Y53564068D01*
X50534079Y53500180D01*
X50574768Y53366046D01*
X50672315Y53183550D01*
X50692499Y53158956D01*
X50803589Y53023590D01*
X50865405Y52972860D01*
X50963550Y52892315D01*
X51146046Y52794768D01*
X51344066Y52734700D01*
X51344065Y52734700D01*
X51362529Y52732882D01*
X51550000Y52714417D01*
X51755934Y52734700D01*
X51953954Y52794768D01*
X52136450Y52892315D01*
X52296410Y53023590D01*
X52427685Y53183550D01*
X52525232Y53366046D01*
X52585300Y53564066D01*
X52605583Y53770000D01*
X52605583Y53770001D01*
X53034417Y53770001D01*
X53054699Y53564068D01*
X53074079Y53500180D01*
X53114768Y53366046D01*
X53212315Y53183550D01*
X53232499Y53158956D01*
X53343589Y53023590D01*
X53405405Y52972860D01*
X53503550Y52892315D01*
X53686046Y52794768D01*
X53884066Y52734700D01*
X53884065Y52734700D01*
X53902529Y52732882D01*
X54090000Y52714417D01*
X54295934Y52734700D01*
X54493954Y52794768D01*
X54676450Y52892315D01*
X54836410Y53023590D01*
X54967685Y53183550D01*
X55065232Y53366046D01*
X55125300Y53564066D01*
X55145583Y53770000D01*
X55574417Y53770000D01*
X55594699Y53564068D01*
X55614079Y53500180D01*
X55654768Y53366046D01*
X55752315Y53183550D01*
X55772499Y53158956D01*
X55883589Y53023590D01*
X55945405Y52972860D01*
X56043550Y52892315D01*
X56226046Y52794768D01*
X56424066Y52734700D01*
X56424065Y52734700D01*
X56442529Y52732882D01*
X56630000Y52714417D01*
X56835934Y52734700D01*
X57033954Y52794768D01*
X57216450Y52892315D01*
X57376410Y53023590D01*
X57507685Y53183550D01*
X57605232Y53366046D01*
X57665300Y53564066D01*
X57685583Y53770000D01*
X57665300Y53975934D01*
X57605232Y54173954D01*
X57507685Y54356450D01*
X57443367Y54434822D01*
X57376410Y54516411D01*
X57230932Y54635800D01*
X57216450Y54647685D01*
X57033954Y54745232D01*
X56835934Y54805300D01*
X56835932Y54805301D01*
X56835934Y54805301D01*
X56630000Y54825583D01*
X56424067Y54805301D01*
X56226043Y54745231D01*
X56182726Y54722077D01*
X56043550Y54647685D01*
X56043548Y54647684D01*
X56043547Y54647683D01*
X55883589Y54516411D01*
X55752585Y54356779D01*
X55752315Y54356450D01*
X55714319Y54285366D01*
X55654769Y54173957D01*
X55594699Y53975933D01*
X55574417Y53770000D01*
X55145583Y53770000D01*
X55125300Y53975934D01*
X55065232Y54173954D01*
X54967685Y54356450D01*
X54903367Y54434822D01*
X54836410Y54516411D01*
X54690932Y54635800D01*
X54676450Y54647685D01*
X54493954Y54745232D01*
X54295934Y54805300D01*
X54295932Y54805301D01*
X54295934Y54805301D01*
X54090000Y54825583D01*
X53884067Y54805301D01*
X53686043Y54745231D01*
X53642726Y54722077D01*
X53503550Y54647685D01*
X53503548Y54647684D01*
X53503547Y54647683D01*
X53343589Y54516411D01*
X53212585Y54356779D01*
X53212315Y54356450D01*
X53174319Y54285366D01*
X53114769Y54173957D01*
X53054699Y53975933D01*
X53034417Y53770001D01*
X52605583Y53770001D01*
X52585300Y53975934D01*
X52525232Y54173954D01*
X52427685Y54356450D01*
X52363367Y54434822D01*
X52296410Y54516411D01*
X52150932Y54635800D01*
X52136450Y54647685D01*
X51953954Y54745232D01*
X51755934Y54805300D01*
X51755932Y54805301D01*
X51755934Y54805301D01*
X51568463Y54823765D01*
X51550000Y54825583D01*
X51549999Y54825583D01*
X51344067Y54805301D01*
X51146043Y54745231D01*
X51102726Y54722077D01*
X50963550Y54647685D01*
X50963548Y54647684D01*
X50963547Y54647683D01*
X50803589Y54516411D01*
X50672585Y54356779D01*
X50672315Y54356450D01*
X50634319Y54285366D01*
X50574769Y54173957D01*
X50514699Y53975933D01*
X50494417Y53770001D01*
X47525583Y53770001D01*
X47505300Y53975934D01*
X47445232Y54173954D01*
X47347685Y54356450D01*
X47283367Y54434822D01*
X47216410Y54516411D01*
X47070932Y54635800D01*
X47056450Y54647685D01*
X46873954Y54745232D01*
X46675934Y54805300D01*
X46675932Y54805301D01*
X46675934Y54805301D01*
X46470000Y54825583D01*
X46264067Y54805301D01*
X46066043Y54745231D01*
X46022726Y54722077D01*
X45883550Y54647685D01*
X45883548Y54647684D01*
X45883547Y54647683D01*
X45723589Y54516411D01*
X45592585Y54356779D01*
X45592315Y54356450D01*
X45554319Y54285366D01*
X45494769Y54173957D01*
X45434699Y53975933D01*
X45414417Y53770000D01*
X42840500Y53770000D01*
X42840500Y54183508D01*
X42841095Y54192084D01*
X42842772Y54204109D01*
X42842773Y54204111D01*
X42840566Y54251856D01*
X42840500Y54254719D01*
X42840500Y54274187D01*
X42840499Y54274193D01*
X42840009Y54276813D01*
X42839016Y54285366D01*
X42838755Y54291006D01*
X42837585Y54316338D01*
X42834786Y54322676D01*
X42826333Y54349973D01*
X42825061Y54356779D01*
X42822600Y54360753D01*
X42819512Y54365741D01*
X42808740Y54383139D01*
X42804734Y54390738D01*
X42792206Y54419112D01*
X42787309Y54424009D01*
X42769561Y54446415D01*
X42765919Y54452298D01*
X42757641Y54458549D01*
X42741176Y54470983D01*
X42734692Y54476626D01*
X41750148Y55461170D01*
X40743267Y56468050D01*
X40737624Y56474535D01*
X40730302Y56484230D01*
X40694970Y56516440D01*
X40692919Y56518398D01*
X40679143Y56532174D01*
X40676932Y56533689D01*
X40670199Y56539022D01*
X40647279Y56559916D01*
X40640816Y56562420D01*
X40615538Y56575744D01*
X40609827Y56579656D01*
X40609824Y56579657D01*
X40609825Y56579657D01*
X40579648Y56586756D01*
X40571440Y56589297D01*
X40542519Y56600500D01*
X40535595Y56600500D01*
X40507204Y56603794D01*
X40500465Y56605379D01*
X40469755Y56601095D01*
X40461180Y56600500D01*
X9336495Y56600500D01*
X9327921Y56601095D01*
X9315892Y56602773D01*
X9315889Y56602773D01*
X9290873Y56601617D01*
X9268144Y56600566D01*
X9265281Y56600500D01*
X9245809Y56600500D01*
X9244861Y56600323D01*
X9243169Y56600007D01*
X9234641Y56599018D01*
X9205451Y56597668D01*
X9203662Y56597585D01*
X9197317Y56594785D01*
X9170034Y56586335D01*
X9163222Y56585062D01*
X9163221Y56585061D01*
X9136860Y56568740D01*
X9129261Y56564735D01*
X9100889Y56552207D01*
X9095990Y56547307D01*
X9073596Y56529569D01*
X9067702Y56525920D01*
X9049013Y56501173D01*
X9043372Y56494690D01*
X6631948Y54083266D01*
X6625464Y54077624D01*
X6615768Y54070302D01*
X6583559Y54034972D01*
X6581585Y54032904D01*
X6567827Y54019146D01*
X6567822Y54019140D01*
X6566306Y54016926D01*
X6560976Y54010198D01*
X6540083Y53987280D01*
X6540083Y53987279D01*
X6537578Y53980813D01*
X6524259Y53955544D01*
X6520345Y53949831D01*
X6520343Y53949825D01*
X6513244Y53919647D01*
X6510702Y53911439D01*
X6499500Y53882520D01*
X6499500Y53875595D01*
X6496206Y53847205D01*
X6494621Y53840469D01*
X6494621Y53840465D01*
X6498905Y53809756D01*
X6499500Y53801180D01*
X6499500Y49875835D01*
X6479815Y49808796D01*
X6463181Y49788154D01*
X5824885Y49149859D01*
X5763562Y49116374D01*
X5721638Y49116948D01*
X5721361Y49114665D01*
X5713916Y49115569D01*
X5555946Y49115569D01*
X5555945Y49115569D01*
X5402565Y49077766D01*
X5262693Y49004354D01*
X5144447Y48899598D01*
X5054712Y48769594D01*
X5054711Y48769593D01*
X4998693Y48621888D01*
X4979653Y48465070D01*
X4979653Y48465069D01*
X4998693Y48308251D01*
X5043894Y48189067D01*
X5054711Y48160546D01*
X5144448Y48030539D01*
X5262691Y47925786D01*
X5262693Y47925785D01*
X5402561Y47852375D01*
X5407887Y47850355D01*
X5463588Y47808175D01*
X5487643Y47742577D01*
X5472414Y47674387D01*
X5451594Y47646734D01*
X1933863Y44128915D01*
X-298196Y41896856D01*
X-303383Y41892221D01*
X-333967Y41867831D01*
X-333971Y41867827D01*
X-367481Y41818677D01*
X-402794Y41770830D01*
X-406784Y41763281D01*
X-410472Y41755622D01*
X-428008Y41698771D01*
X-450714Y41633879D01*
X-454310Y41635137D01*
X-477831Y41589188D01*
X-538239Y41554080D01*
X-567819Y41550500D01*
X-869753Y41550500D01*
X-928230Y41538869D01*
X-928231Y41538868D01*
X-994553Y41494553D01*
X-1038868Y41428231D01*
X-1038869Y41428230D01*
X-1050500Y41369753D01*
X-1050500Y39630248D01*
X-4949500Y39630248D01*
X-4949500Y59825500D01*
X-4929815Y59892539D01*
X-4877011Y59938294D01*
X-4825500Y59949500D01*
X69825500Y59949500D01*
X69892539Y59929815D01*
G37*
G04 #@! TD.AperFunction*
M02*
