G04 #@! TF.GenerationSoftware,KiCad,Pcbnew,7.0.8-7.0.8~ubuntu23.04.1*
G04 #@! TF.CreationDate,2023-11-21T11:50:29+00:00*
G04 #@! TF.ProjectId,baggerdails,62616767-6572-4646-9169-6c732e6b6963,rev?*
G04 #@! TF.SameCoordinates,Original*
G04 #@! TF.FileFunction,Soldermask,Bot*
G04 #@! TF.FilePolarity,Negative*
%FSLAX46Y46*%
G04 Gerber Fmt 4.6, Leading zero omitted, Abs format (unit mm)*
G04 Created by KiCad (PCBNEW 7.0.8-7.0.8~ubuntu23.04.1) date 2023-11-21 11:50:29*
%MOMM*%
%LPD*%
G01*
G04 APERTURE LIST*
%ADD10C,2.700000*%
%ADD11R,1.700000X1.700000*%
%ADD12O,1.700000X1.700000*%
%ADD13O,1.900000X1.200000*%
%ADD14C,1.450000*%
G04 APERTURE END LIST*
D10*
X61500000Y52500000D03*
D11*
X50000000Y40500000D03*
D12*
X52540000Y40500000D03*
X55080000Y40500000D03*
X57620000Y40500000D03*
X60160000Y40500000D03*
X62700000Y40500000D03*
X65240000Y40500000D03*
D10*
X3500000Y3500000D03*
X3500000Y52500000D03*
D11*
X0Y40500000D03*
D12*
X2540000Y40500000D03*
X5080000Y40500000D03*
X7620000Y40500000D03*
X10160000Y40500000D03*
X12700000Y40500000D03*
X15240000Y40500000D03*
D10*
X61500000Y3500000D03*
D13*
X-3537500Y16500000D03*
D14*
X-837500Y15500000D03*
X-837500Y10500000D03*
D13*
X-3537500Y9500000D03*
D11*
X8370000Y51230000D03*
D12*
X8370000Y53770000D03*
X10910000Y51230000D03*
X10910000Y53770000D03*
X13450000Y51230000D03*
X13450000Y53770000D03*
X15990000Y51230000D03*
X15990000Y53770000D03*
X18530000Y51230000D03*
X18530000Y53770000D03*
X21070000Y51230000D03*
X21070000Y53770000D03*
X23610000Y51230000D03*
X23610000Y53770000D03*
X26150000Y51230000D03*
X26150000Y53770000D03*
X28690000Y51230000D03*
X28690000Y53770000D03*
X31230000Y51230000D03*
X31230000Y53770000D03*
X33770000Y51230000D03*
X33770000Y53770000D03*
X36310000Y51230000D03*
X36310000Y53770000D03*
X38850000Y51230000D03*
X38850000Y53770000D03*
X41390000Y51230000D03*
X41390000Y53770000D03*
X43930000Y51230000D03*
X43930000Y53770000D03*
X46470000Y51230000D03*
X46470000Y53770000D03*
X49010000Y51230000D03*
X49010000Y53770000D03*
X51550000Y51230000D03*
X51550000Y53770000D03*
X54090000Y51230000D03*
X54090000Y53770000D03*
X56630000Y51230000D03*
X56630000Y53770000D03*
M02*
