M48
; DRILL file {KiCad 7.0.7-7.0.7~ubuntu23.04.1} date Wed Aug 30 06:09:21 2023
; FORMAT={-:-/ absolute / metric / decimal}
; #@! TF.CreationDate,2023-08-30T06:09:21+00:00
; #@! TF.GenerationSoftware,Kicad,Pcbnew,7.0.7-7.0.7~ubuntu23.04.1
; #@! TF.FileFunction,MixedPlating,1,2
FMAT,2
METRIC
; #@! TA.AperFunction,Plated,PTH,ViaDrill
T1C0.600
; #@! TA.AperFunction,Plated,PTH,ComponentDrill
T2C0.600
; #@! TA.AperFunction,Plated,PTH,ViaDrill
T3C0.700
; #@! TA.AperFunction,Plated,PTH,ComponentDrill
T4C0.850
; #@! TA.AperFunction,Plated,PTH,ComponentDrill
T5C1.000
; #@! TA.AperFunction,NonPlated,NPTH,ComponentDrill
T6C2.700
%
G90
G05
T1
X0.8Y10.5
X1.9Y14.9
X3.1Y13.1
X4.4Y15.9
X5.635Y48.465
X8.9Y46.3
X11.5Y34.0
X11.51Y35.425
X13.1Y47.4
X13.1Y43.6
X16.3Y43.4
X18.5Y47.9
X18.6Y43.4
X19.0Y18.0
X19.9Y42.1
X21.0Y12.5
X23.4Y46.8
X25.3Y55.027
X26.4Y43.5
X26.5Y46.8
X27.4Y47.6
X31.4Y45.6
X31.4Y43.5
X33.1Y47.0
X36.4Y43.5
X37.6Y55.0
X37.7Y48.1
X38.1Y45.8
X40.01Y38.0
X41.4Y40.4
X42.3Y43.3
X43.737Y46.263
X58.9Y47.8
T3
X32.501Y37.2
T4
X-0.837Y15.5
X-0.837Y10.5
T5
X0.0Y40.5
X2.54Y40.5
X5.08Y40.5
X7.62Y40.5
X8.37Y53.77
X8.37Y51.23
X10.16Y40.5
X10.91Y53.77
X10.91Y51.23
X12.7Y40.5
X13.45Y53.77
X13.45Y51.23
X15.24Y40.5
X15.99Y53.77
X15.99Y51.23
X18.53Y53.77
X18.53Y51.23
X21.07Y53.77
X21.07Y51.23
X23.61Y53.77
X23.61Y51.23
X26.15Y53.77
X26.15Y51.23
X28.69Y53.77
X28.69Y51.23
X31.23Y53.77
X31.23Y51.23
X33.77Y53.77
X33.77Y51.23
X36.31Y53.77
X36.31Y51.23
X38.85Y53.77
X38.85Y51.23
X41.39Y53.77
X41.39Y51.23
X43.93Y53.77
X43.93Y51.23
X46.47Y53.77
X46.47Y51.23
X49.01Y53.77
X49.01Y51.23
X50.0Y40.5
X51.55Y53.77
X51.55Y51.23
X52.54Y40.5
X54.09Y53.77
X54.09Y51.23
X55.08Y40.5
X56.63Y53.77
X56.63Y51.23
X57.62Y40.5
X60.16Y40.5
X62.7Y40.5
X65.24Y40.5
T6
X3.5Y52.5
X3.5Y3.5
X61.5Y52.5
X61.5Y3.5
T2
G00X-3.887Y16.5
M15
G01X-3.188Y16.5
M16
G05
G00X-3.188Y9.5
M15
G01X-3.887Y9.5
M16
G05
T0
M30
