%TF.GenerationSoftware,KiCad,Pcbnew,7.0.7-7.0.7~ubuntu23.04.1*%
%TF.CreationDate,2023-08-30T06:09:58+00:00*%
%TF.ProjectId,baggerdails,62616767-6572-4646-9169-6c732e6b6963,rev?*%
%TF.SameCoordinates,Original*%
%TF.FileFunction,Plated,1,2,PTH,Mixed*%
%TF.FilePolarity,Positive*%
%FSLAX46Y46*%
G04 Gerber Fmt 4.6, Leading zero omitted, Abs format (unit mm)*
G04 Created by KiCad (PCBNEW 7.0.7-7.0.7~ubuntu23.04.1) date 2023-08-30 06:09:58*
%MOMM*%
%LPD*%
G01*
G04 APERTURE LIST*
%TA.AperFunction,ViaDrill*%
%ADD10C,0.600000*%
%TD*%
G04 aperture for slot hole*
%TA.AperFunction,ComponentDrill*%
%ADD11O,1.300000X0.600000*%
%TD*%
%TA.AperFunction,ViaDrill*%
%ADD12C,0.700000*%
%TD*%
%TA.AperFunction,ComponentDrill*%
%ADD13C,0.850000*%
%TD*%
%TA.AperFunction,ComponentDrill*%
%ADD14C,1.000000*%
%TD*%
G04 APERTURE END LIST*
D10*
X100800000Y-89500000D03*
X101900000Y-85100000D03*
X103100000Y-86900000D03*
X104400000Y-84100000D03*
X105634931Y-51534931D03*
X108900000Y-53700000D03*
X111500000Y-66000000D03*
X111510000Y-64574700D03*
X113100000Y-52600000D03*
X113100000Y-56400000D03*
X116300000Y-56600000D03*
X118500000Y-52100000D03*
X118600000Y-56600000D03*
X119000000Y-82000000D03*
X119900000Y-57900000D03*
X121000000Y-87500000D03*
X123400000Y-53200000D03*
X125300000Y-44973400D03*
X126400000Y-56500000D03*
X126500000Y-53200000D03*
X127400000Y-52400000D03*
X131400000Y-54400000D03*
X131400000Y-56500000D03*
X133100000Y-53000000D03*
X136400000Y-56500000D03*
X137600000Y-45000000D03*
X137700000Y-51900000D03*
X138100000Y-54200000D03*
X140010000Y-62000000D03*
X141400000Y-59600000D03*
X142300000Y-56700000D03*
X143737400Y-53737400D03*
X158900000Y-52200000D03*
D11*
%TO.C,J102*%
X96462500Y-83500000D03*
X96462500Y-90500000D03*
%TD*%
D12*
X132501000Y-62800000D03*
D13*
%TO.C,J102*%
X99162500Y-84500000D03*
X99162500Y-89500000D03*
D14*
%TO.C,J103*%
X100000000Y-59500000D03*
X102540000Y-59500000D03*
X105080000Y-59500000D03*
X107620000Y-59500000D03*
%TO.C,J101*%
X108370000Y-46230000D03*
X108370000Y-48770000D03*
%TO.C,J103*%
X110160000Y-59500000D03*
%TO.C,J101*%
X110910000Y-46230000D03*
X110910000Y-48770000D03*
%TO.C,J103*%
X112700000Y-59500000D03*
%TO.C,J101*%
X113450000Y-46230000D03*
X113450000Y-48770000D03*
%TO.C,J103*%
X115240000Y-59500000D03*
%TO.C,J101*%
X115990000Y-46230000D03*
X115990000Y-48770000D03*
X118530000Y-46230000D03*
X118530000Y-48770000D03*
X121070000Y-46230000D03*
X121070000Y-48770000D03*
X123610000Y-46230000D03*
X123610000Y-48770000D03*
X126150000Y-46230000D03*
X126150000Y-48770000D03*
X128690000Y-46230000D03*
X128690000Y-48770000D03*
X131230000Y-46230000D03*
X131230000Y-48770000D03*
X133770000Y-46230000D03*
X133770000Y-48770000D03*
X136310000Y-46230000D03*
X136310000Y-48770000D03*
X138850000Y-46230000D03*
X138850000Y-48770000D03*
X141390000Y-46230000D03*
X141390000Y-48770000D03*
X143930000Y-46230000D03*
X143930000Y-48770000D03*
X146470000Y-46230000D03*
X146470000Y-48770000D03*
X149010000Y-46230000D03*
X149010000Y-48770000D03*
%TO.C,J104*%
X150000000Y-59500000D03*
%TO.C,J101*%
X151550000Y-46230000D03*
X151550000Y-48770000D03*
%TO.C,J104*%
X152540000Y-59500000D03*
%TO.C,J101*%
X154090000Y-46230000D03*
X154090000Y-48770000D03*
%TO.C,J104*%
X155080000Y-59500000D03*
%TO.C,J101*%
X156630000Y-46230000D03*
X156630000Y-48770000D03*
%TO.C,J104*%
X157620000Y-59500000D03*
X160160000Y-59500000D03*
X162700000Y-59500000D03*
X165240000Y-59500000D03*
M02*
