%TF.GenerationSoftware,KiCad,Pcbnew,7.0.8-7.0.8~ubuntu23.04.1*%
%TF.CreationDate,2023-11-21T11:50:57+00:00*%
%TF.ProjectId,baggerdails,62616767-6572-4646-9169-6c732e6b6963,rev?*%
%TF.SameCoordinates,Original*%
%TF.FileFunction,Copper,L2,Bot*%
%TF.FilePolarity,Positive*%
%FSLAX46Y46*%
G04 Gerber Fmt 4.6, Leading zero omitted, Abs format (unit mm)*
G04 Created by KiCad (PCBNEW 7.0.8-7.0.8~ubuntu23.04.1) date 2023-11-21 11:50:57*
%MOMM*%
%LPD*%
G01*
G04 APERTURE LIST*
%ADD10C,0.300000*%
%TA.AperFunction,NonConductor*%
%ADD11C,0.300000*%
%TD*%
%TA.AperFunction,EtchedComponent*%
%ADD12C,0.010000*%
%TD*%
%TA.AperFunction,ComponentPad*%
%ADD13R,1.700000X1.700000*%
%TD*%
%TA.AperFunction,ComponentPad*%
%ADD14O,1.700000X1.700000*%
%TD*%
%TA.AperFunction,ComponentPad*%
%ADD15O,1.900000X1.200000*%
%TD*%
%TA.AperFunction,ComponentPad*%
%ADD16C,1.450000*%
%TD*%
%TA.AperFunction,ViaPad*%
%ADD17C,0.900000*%
%TD*%
%TA.AperFunction,ViaPad*%
%ADD18C,1.000000*%
%TD*%
%TA.AperFunction,Conductor*%
%ADD19C,0.200000*%
%TD*%
%TA.AperFunction,Conductor*%
%ADD20C,0.500000*%
%TD*%
G04 APERTURE END LIST*
D10*
D11*
X112954510Y-98800828D02*
X112954510Y-97300828D01*
X112954510Y-97300828D02*
X113311653Y-97300828D01*
X113311653Y-97300828D02*
X113525939Y-97372257D01*
X113525939Y-97372257D02*
X113668796Y-97515114D01*
X113668796Y-97515114D02*
X113740225Y-97657971D01*
X113740225Y-97657971D02*
X113811653Y-97943685D01*
X113811653Y-97943685D02*
X113811653Y-98157971D01*
X113811653Y-98157971D02*
X113740225Y-98443685D01*
X113740225Y-98443685D02*
X113668796Y-98586542D01*
X113668796Y-98586542D02*
X113525939Y-98729400D01*
X113525939Y-98729400D02*
X113311653Y-98800828D01*
X113311653Y-98800828D02*
X112954510Y-98800828D01*
X115097368Y-98800828D02*
X115097368Y-98015114D01*
X115097368Y-98015114D02*
X115025939Y-97872257D01*
X115025939Y-97872257D02*
X114883082Y-97800828D01*
X114883082Y-97800828D02*
X114597368Y-97800828D01*
X114597368Y-97800828D02*
X114454510Y-97872257D01*
X115097368Y-98729400D02*
X114954510Y-98800828D01*
X114954510Y-98800828D02*
X114597368Y-98800828D01*
X114597368Y-98800828D02*
X114454510Y-98729400D01*
X114454510Y-98729400D02*
X114383082Y-98586542D01*
X114383082Y-98586542D02*
X114383082Y-98443685D01*
X114383082Y-98443685D02*
X114454510Y-98300828D01*
X114454510Y-98300828D02*
X114597368Y-98229400D01*
X114597368Y-98229400D02*
X114954510Y-98229400D01*
X114954510Y-98229400D02*
X115097368Y-98157971D01*
X115811653Y-98800828D02*
X115811653Y-97800828D01*
X115811653Y-97300828D02*
X115740225Y-97372257D01*
X115740225Y-97372257D02*
X115811653Y-97443685D01*
X115811653Y-97443685D02*
X115883082Y-97372257D01*
X115883082Y-97372257D02*
X115811653Y-97300828D01*
X115811653Y-97300828D02*
X115811653Y-97443685D01*
X116740225Y-98800828D02*
X116597368Y-98729400D01*
X116597368Y-98729400D02*
X116525939Y-98586542D01*
X116525939Y-98586542D02*
X116525939Y-97300828D01*
X118311653Y-97800828D02*
X118668796Y-98800828D01*
X118668796Y-98800828D02*
X119025939Y-97800828D01*
X119883082Y-97300828D02*
X120025939Y-97300828D01*
X120025939Y-97300828D02*
X120168796Y-97372257D01*
X120168796Y-97372257D02*
X120240225Y-97443685D01*
X120240225Y-97443685D02*
X120311653Y-97586542D01*
X120311653Y-97586542D02*
X120383082Y-97872257D01*
X120383082Y-97872257D02*
X120383082Y-98229400D01*
X120383082Y-98229400D02*
X120311653Y-98515114D01*
X120311653Y-98515114D02*
X120240225Y-98657971D01*
X120240225Y-98657971D02*
X120168796Y-98729400D01*
X120168796Y-98729400D02*
X120025939Y-98800828D01*
X120025939Y-98800828D02*
X119883082Y-98800828D01*
X119883082Y-98800828D02*
X119740225Y-98729400D01*
X119740225Y-98729400D02*
X119668796Y-98657971D01*
X119668796Y-98657971D02*
X119597367Y-98515114D01*
X119597367Y-98515114D02*
X119525939Y-98229400D01*
X119525939Y-98229400D02*
X119525939Y-97872257D01*
X119525939Y-97872257D02*
X119597367Y-97586542D01*
X119597367Y-97586542D02*
X119668796Y-97443685D01*
X119668796Y-97443685D02*
X119740225Y-97372257D01*
X119740225Y-97372257D02*
X119883082Y-97300828D01*
X121025938Y-98657971D02*
X121097367Y-98729400D01*
X121097367Y-98729400D02*
X121025938Y-98800828D01*
X121025938Y-98800828D02*
X120954510Y-98729400D01*
X120954510Y-98729400D02*
X121025938Y-98657971D01*
X121025938Y-98657971D02*
X121025938Y-98800828D01*
X122525939Y-98800828D02*
X121668796Y-98800828D01*
X122097367Y-98800828D02*
X122097367Y-97300828D01*
X122097367Y-97300828D02*
X121954510Y-97515114D01*
X121954510Y-97515114D02*
X121811653Y-97657971D01*
X121811653Y-97657971D02*
X121668796Y-97729400D01*
%TO.C,Eurovibes*%
D12*
X100866017Y-68469917D02*
X99733983Y-68469917D01*
X99733983Y-67903900D01*
X100866017Y-67903900D01*
X100866017Y-68469917D01*
%TA.AperFunction,EtchedComponent*%
G36*
X100866017Y-68469917D02*
G01*
X99733983Y-68469917D01*
X99733983Y-67903900D01*
X100866017Y-67903900D01*
X100866017Y-68469917D01*
G37*
%TD.AperFunction*%
X100532979Y-67361139D02*
X100583008Y-67479387D01*
X100559752Y-67570862D01*
X100441504Y-67620892D01*
X100350029Y-67597636D01*
X100300000Y-67479387D01*
X100323255Y-67387912D01*
X100441504Y-67337883D01*
X100532979Y-67361139D01*
%TA.AperFunction,EtchedComponent*%
G36*
X100532979Y-67361139D02*
G01*
X100583008Y-67479387D01*
X100559752Y-67570862D01*
X100441504Y-67620892D01*
X100350029Y-67597636D01*
X100300000Y-67479387D01*
X100323255Y-67387912D01*
X100441504Y-67337883D01*
X100532979Y-67361139D01*
G37*
%TD.AperFunction*%
X99117937Y-72455289D02*
X99167966Y-72573538D01*
X99144711Y-72665013D01*
X99026462Y-72715042D01*
X98934987Y-72691786D01*
X98884958Y-72573538D01*
X98908214Y-72482063D01*
X99026462Y-72432034D01*
X99117937Y-72455289D01*
%TA.AperFunction,EtchedComponent*%
G36*
X99117937Y-72455289D02*
G01*
X99167966Y-72573538D01*
X99144711Y-72665013D01*
X99026462Y-72715042D01*
X98934987Y-72691786D01*
X98884958Y-72573538D01*
X98908214Y-72482063D01*
X99026462Y-72432034D01*
X99117937Y-72455289D01*
G37*
%TD.AperFunction*%
X98551920Y-69908214D02*
X98601950Y-70026463D01*
X98578694Y-70117937D01*
X98460445Y-70167967D01*
X98368971Y-70144711D01*
X98318941Y-70026463D01*
X98342197Y-69934988D01*
X98460445Y-69884958D01*
X98551920Y-69908214D01*
%TA.AperFunction,EtchedComponent*%
G36*
X98551920Y-69908214D02*
G01*
X98601950Y-70026463D01*
X98578694Y-70117937D01*
X98460445Y-70167967D01*
X98368971Y-70144711D01*
X98318941Y-70026463D01*
X98342197Y-69934988D01*
X98460445Y-69884958D01*
X98551920Y-69908214D01*
G37*
%TD.AperFunction*%
X96853870Y-72738298D02*
X96903900Y-72856546D01*
X96880644Y-72948021D01*
X96762395Y-72998050D01*
X96670920Y-72974795D01*
X96620891Y-72856546D01*
X96644147Y-72765071D01*
X96762395Y-72715042D01*
X96853870Y-72738298D01*
%TA.AperFunction,EtchedComponent*%
G36*
X96853870Y-72738298D02*
G01*
X96903900Y-72856546D01*
X96880644Y-72948021D01*
X96762395Y-72998050D01*
X96670920Y-72974795D01*
X96620891Y-72856546D01*
X96644147Y-72765071D01*
X96762395Y-72715042D01*
X96853870Y-72738298D01*
G37*
%TD.AperFunction*%
X98542121Y-69051956D02*
X98590083Y-69133787D01*
X98601950Y-69318942D01*
X98601269Y-69418131D01*
X98580583Y-69547485D01*
X98500090Y-69595142D01*
X98318941Y-69601950D01*
X98155590Y-69593939D01*
X98059666Y-69553023D01*
X98035933Y-69460446D01*
X98059189Y-69368971D01*
X98177437Y-69318942D01*
X98268912Y-69295686D01*
X98318941Y-69177438D01*
X98342197Y-69085963D01*
X98460445Y-69035933D01*
X98542121Y-69051956D01*
%TA.AperFunction,EtchedComponent*%
G36*
X98542121Y-69051956D02*
G01*
X98590083Y-69133787D01*
X98601950Y-69318942D01*
X98601269Y-69418131D01*
X98580583Y-69547485D01*
X98500090Y-69595142D01*
X98318941Y-69601950D01*
X98155590Y-69593939D01*
X98059666Y-69553023D01*
X98035933Y-69460446D01*
X98059189Y-69368971D01*
X98177437Y-69318942D01*
X98268912Y-69295686D01*
X98318941Y-69177438D01*
X98342197Y-69085963D01*
X98460445Y-69035933D01*
X98542121Y-69051956D01*
G37*
%TD.AperFunction*%
X99063771Y-69038016D02*
X99120030Y-69066433D01*
X99151405Y-69150918D01*
X99165012Y-69319936D01*
X99167966Y-69601950D01*
X99167446Y-69751185D01*
X99160341Y-69976223D01*
X99139220Y-70101723D01*
X99096966Y-70156150D01*
X99026462Y-70167967D01*
X98989154Y-70165884D01*
X98932894Y-70137467D01*
X98901519Y-70052982D01*
X98887912Y-69883964D01*
X98884958Y-69601950D01*
X98885479Y-69452715D01*
X98892583Y-69227678D01*
X98913704Y-69102177D01*
X98955959Y-69047750D01*
X99026462Y-69035933D01*
X99063771Y-69038016D01*
%TA.AperFunction,EtchedComponent*%
G36*
X99063771Y-69038016D02*
G01*
X99120030Y-69066433D01*
X99151405Y-69150918D01*
X99165012Y-69319936D01*
X99167966Y-69601950D01*
X99167446Y-69751185D01*
X99160341Y-69976223D01*
X99139220Y-70101723D01*
X99096966Y-70156150D01*
X99026462Y-70167967D01*
X98989154Y-70165884D01*
X98932894Y-70137467D01*
X98901519Y-70052982D01*
X98887912Y-69883964D01*
X98884958Y-69601950D01*
X98885479Y-69452715D01*
X98892583Y-69227678D01*
X98913704Y-69102177D01*
X98955959Y-69047750D01*
X99026462Y-69035933D01*
X99063771Y-69038016D01*
G37*
%TD.AperFunction*%
X97067251Y-67345895D02*
X97163175Y-67386810D01*
X97186908Y-67479387D01*
X97210164Y-67570862D01*
X97328412Y-67620892D01*
X97391087Y-67628696D01*
X97442072Y-67680189D01*
X97464753Y-67808305D01*
X97469916Y-68045404D01*
X97469916Y-68469917D01*
X96337883Y-68469917D01*
X96337883Y-68045404D01*
X96340484Y-67857380D01*
X96357649Y-67704423D01*
X96400354Y-67636381D01*
X96479387Y-67620892D01*
X96570862Y-67597636D01*
X96620891Y-67479387D01*
X96636914Y-67397712D01*
X96718745Y-67349750D01*
X96903900Y-67337883D01*
X97067251Y-67345895D01*
%TA.AperFunction,EtchedComponent*%
G36*
X97067251Y-67345895D02*
G01*
X97163175Y-67386810D01*
X97186908Y-67479387D01*
X97210164Y-67570862D01*
X97328412Y-67620892D01*
X97391087Y-67628696D01*
X97442072Y-67680189D01*
X97464753Y-67808305D01*
X97469916Y-68045404D01*
X97469916Y-68469917D01*
X96337883Y-68469917D01*
X96337883Y-68045404D01*
X96340484Y-67857380D01*
X96357649Y-67704423D01*
X96400354Y-67636381D01*
X96479387Y-67620892D01*
X96570862Y-67597636D01*
X96620891Y-67479387D01*
X96636914Y-67397712D01*
X96718745Y-67349750D01*
X96903900Y-67337883D01*
X97067251Y-67345895D01*
G37*
%TD.AperFunction*%
X100866017Y-71583009D02*
X100441504Y-71583009D01*
X100253480Y-71580407D01*
X100100523Y-71563243D01*
X100032481Y-71520537D01*
X100016991Y-71441504D01*
X99993736Y-71350029D01*
X99875487Y-71300000D01*
X99784012Y-71276745D01*
X99733983Y-71158496D01*
X100300000Y-71158496D01*
X100323255Y-71249971D01*
X100441504Y-71300000D01*
X100532979Y-71276745D01*
X100583008Y-71158496D01*
X100559752Y-71067021D01*
X100441504Y-71016992D01*
X100350029Y-71040248D01*
X100300000Y-71158496D01*
X99733983Y-71158496D01*
X99750006Y-71076820D01*
X99831837Y-71028858D01*
X100016991Y-71016992D01*
X100180343Y-71008980D01*
X100276267Y-70968065D01*
X100300000Y-70875488D01*
X100316023Y-70793812D01*
X100397854Y-70745850D01*
X100583008Y-70733983D01*
X100866017Y-70733983D01*
X100866017Y-71158496D01*
X100866017Y-71583009D01*
%TA.AperFunction,EtchedComponent*%
G36*
X100866017Y-71583009D02*
G01*
X100441504Y-71583009D01*
X100253480Y-71580407D01*
X100100523Y-71563243D01*
X100032481Y-71520537D01*
X100016991Y-71441504D01*
X99993736Y-71350029D01*
X99875487Y-71300000D01*
X99784012Y-71276745D01*
X99733983Y-71158496D01*
X100300000Y-71158496D01*
X100323255Y-71249971D01*
X100441504Y-71300000D01*
X100532979Y-71276745D01*
X100583008Y-71158496D01*
X100559752Y-71067021D01*
X100441504Y-71016992D01*
X100350029Y-71040248D01*
X100300000Y-71158496D01*
X99733983Y-71158496D01*
X99750006Y-71076820D01*
X99831837Y-71028858D01*
X100016991Y-71016992D01*
X100180343Y-71008980D01*
X100276267Y-70968065D01*
X100300000Y-70875488D01*
X100316023Y-70793812D01*
X100397854Y-70745850D01*
X100583008Y-70733983D01*
X100866017Y-70733983D01*
X100866017Y-71158496D01*
X100866017Y-71583009D01*
G37*
%TD.AperFunction*%
X98551920Y-72738298D02*
X98601950Y-72856546D01*
X98617973Y-72938222D01*
X98699804Y-72986184D01*
X98884958Y-72998050D01*
X98984147Y-72998731D01*
X99113501Y-73019417D01*
X99161158Y-73099910D01*
X99167966Y-73281059D01*
X99159955Y-73444410D01*
X99119039Y-73540334D01*
X99026462Y-73564067D01*
X98934987Y-73540811D01*
X98884958Y-73422563D01*
X98861702Y-73331088D01*
X98743454Y-73281059D01*
X98651979Y-73304314D01*
X98601950Y-73422563D01*
X98578694Y-73514038D01*
X98460445Y-73564067D01*
X98368971Y-73540811D01*
X98318941Y-73422563D01*
X98342197Y-73331088D01*
X98460445Y-73281059D01*
X98551920Y-73257803D01*
X98601950Y-73139555D01*
X98578694Y-73048080D01*
X98460445Y-72998050D01*
X98368971Y-72974795D01*
X98318941Y-72856546D01*
X98342197Y-72765071D01*
X98460445Y-72715042D01*
X98551920Y-72738298D01*
%TA.AperFunction,EtchedComponent*%
G36*
X98551920Y-72738298D02*
G01*
X98601950Y-72856546D01*
X98617973Y-72938222D01*
X98699804Y-72986184D01*
X98884958Y-72998050D01*
X98984147Y-72998731D01*
X99113501Y-73019417D01*
X99161158Y-73099910D01*
X99167966Y-73281059D01*
X99159955Y-73444410D01*
X99119039Y-73540334D01*
X99026462Y-73564067D01*
X98934987Y-73540811D01*
X98884958Y-73422563D01*
X98861702Y-73331088D01*
X98743454Y-73281059D01*
X98651979Y-73304314D01*
X98601950Y-73422563D01*
X98578694Y-73514038D01*
X98460445Y-73564067D01*
X98368971Y-73540811D01*
X98318941Y-73422563D01*
X98342197Y-73331088D01*
X98460445Y-73281059D01*
X98551920Y-73257803D01*
X98601950Y-73139555D01*
X98578694Y-73048080D01*
X98460445Y-72998050D01*
X98368971Y-72974795D01*
X98318941Y-72856546D01*
X98342197Y-72765071D01*
X98460445Y-72715042D01*
X98551920Y-72738298D01*
G37*
%TD.AperFunction*%
X97136879Y-70757239D02*
X97186908Y-70875488D01*
X97210164Y-70966963D01*
X97328412Y-71016992D01*
X97419887Y-71040248D01*
X97469916Y-71158496D01*
X97446661Y-71249971D01*
X97328412Y-71300000D01*
X97236937Y-71323256D01*
X97186908Y-71441504D01*
X97210164Y-71532979D01*
X97328412Y-71583009D01*
X97419887Y-71606264D01*
X97469916Y-71724513D01*
X97467833Y-71761821D01*
X97439417Y-71818081D01*
X97354931Y-71849456D01*
X97185913Y-71863063D01*
X96903900Y-71866017D01*
X96337883Y-71866017D01*
X96337883Y-71583009D01*
X96338563Y-71483820D01*
X96359250Y-71354465D01*
X96439743Y-71306808D01*
X96620891Y-71300000D01*
X96720080Y-71299320D01*
X96849435Y-71278633D01*
X96897091Y-71198140D01*
X96903900Y-71016992D01*
X96911911Y-70853640D01*
X96952827Y-70757716D01*
X97045404Y-70733983D01*
X97136879Y-70757239D01*
%TA.AperFunction,EtchedComponent*%
G36*
X97136879Y-70757239D02*
G01*
X97186908Y-70875488D01*
X97210164Y-70966963D01*
X97328412Y-71016992D01*
X97419887Y-71040248D01*
X97469916Y-71158496D01*
X97446661Y-71249971D01*
X97328412Y-71300000D01*
X97236937Y-71323256D01*
X97186908Y-71441504D01*
X97210164Y-71532979D01*
X97328412Y-71583009D01*
X97419887Y-71606264D01*
X97469916Y-71724513D01*
X97467833Y-71761821D01*
X97439417Y-71818081D01*
X97354931Y-71849456D01*
X97185913Y-71863063D01*
X96903900Y-71866017D01*
X96337883Y-71866017D01*
X96337883Y-71583009D01*
X96338563Y-71483820D01*
X96359250Y-71354465D01*
X96439743Y-71306808D01*
X96620891Y-71300000D01*
X96720080Y-71299320D01*
X96849435Y-71278633D01*
X96897091Y-71198140D01*
X96903900Y-71016992D01*
X96911911Y-70853640D01*
X96952827Y-70757716D01*
X97045404Y-70733983D01*
X97136879Y-70757239D01*
G37*
%TD.AperFunction*%
X103929079Y-70757239D02*
X103979108Y-70875488D01*
X104002364Y-70966963D01*
X104120613Y-71016992D01*
X104183287Y-71024796D01*
X104234273Y-71076290D01*
X104256954Y-71204406D01*
X104262117Y-71441504D01*
X104259515Y-71629529D01*
X104242351Y-71782485D01*
X104199646Y-71850527D01*
X104120613Y-71866017D01*
X104029138Y-71842761D01*
X103979108Y-71724513D01*
X103955853Y-71633038D01*
X103837604Y-71583009D01*
X103746129Y-71606264D01*
X103696100Y-71724513D01*
X103672844Y-71815988D01*
X103554596Y-71866017D01*
X103463121Y-71842761D01*
X103413092Y-71724513D01*
X103436347Y-71633038D01*
X103554596Y-71583009D01*
X103646071Y-71559753D01*
X103696100Y-71441504D01*
X103719356Y-71350029D01*
X103837604Y-71300000D01*
X103929079Y-71276745D01*
X103979108Y-71158496D01*
X103955853Y-71067021D01*
X103837604Y-71016992D01*
X103746129Y-70993736D01*
X103696100Y-70875488D01*
X103719356Y-70784013D01*
X103837604Y-70733983D01*
X103929079Y-70757239D01*
%TA.AperFunction,EtchedComponent*%
G36*
X103929079Y-70757239D02*
G01*
X103979108Y-70875488D01*
X104002364Y-70966963D01*
X104120613Y-71016992D01*
X104183287Y-71024796D01*
X104234273Y-71076290D01*
X104256954Y-71204406D01*
X104262117Y-71441504D01*
X104259515Y-71629529D01*
X104242351Y-71782485D01*
X104199646Y-71850527D01*
X104120613Y-71866017D01*
X104029138Y-71842761D01*
X103979108Y-71724513D01*
X103955853Y-71633038D01*
X103837604Y-71583009D01*
X103746129Y-71606264D01*
X103696100Y-71724513D01*
X103672844Y-71815988D01*
X103554596Y-71866017D01*
X103463121Y-71842761D01*
X103413092Y-71724513D01*
X103436347Y-71633038D01*
X103554596Y-71583009D01*
X103646071Y-71559753D01*
X103696100Y-71441504D01*
X103719356Y-71350029D01*
X103837604Y-71300000D01*
X103929079Y-71276745D01*
X103979108Y-71158496D01*
X103955853Y-71067021D01*
X103837604Y-71016992D01*
X103746129Y-70993736D01*
X103696100Y-70875488D01*
X103719356Y-70784013D01*
X103837604Y-70733983D01*
X103929079Y-70757239D01*
G37*
%TD.AperFunction*%
X103859452Y-67345895D02*
X103955376Y-67386810D01*
X103979108Y-67479387D01*
X104002364Y-67570862D01*
X104120613Y-67620892D01*
X104212088Y-67644147D01*
X104262117Y-67762396D01*
X104238861Y-67853871D01*
X104120613Y-67903900D01*
X104029138Y-67927156D01*
X103979108Y-68045404D01*
X103955853Y-68136879D01*
X103837604Y-68186908D01*
X103746129Y-68210164D01*
X103696100Y-68328412D01*
X103680077Y-68410088D01*
X103598246Y-68458050D01*
X103413092Y-68469917D01*
X103249740Y-68461905D01*
X103153816Y-68420990D01*
X103130083Y-68328412D01*
X103153339Y-68236938D01*
X103271588Y-68186908D01*
X103363062Y-68163653D01*
X103413092Y-68045404D01*
X103389836Y-67953929D01*
X103271588Y-67903900D01*
X103180113Y-67880644D01*
X103130083Y-67762396D01*
X103153339Y-67670921D01*
X103271588Y-67620892D01*
X103363062Y-67597636D01*
X103413092Y-67479387D01*
X103429115Y-67397712D01*
X103510946Y-67349750D01*
X103696100Y-67337883D01*
X103859452Y-67345895D01*
%TA.AperFunction,EtchedComponent*%
G36*
X103859452Y-67345895D02*
G01*
X103955376Y-67386810D01*
X103979108Y-67479387D01*
X104002364Y-67570862D01*
X104120613Y-67620892D01*
X104212088Y-67644147D01*
X104262117Y-67762396D01*
X104238861Y-67853871D01*
X104120613Y-67903900D01*
X104029138Y-67927156D01*
X103979108Y-68045404D01*
X103955853Y-68136879D01*
X103837604Y-68186908D01*
X103746129Y-68210164D01*
X103696100Y-68328412D01*
X103680077Y-68410088D01*
X103598246Y-68458050D01*
X103413092Y-68469917D01*
X103249740Y-68461905D01*
X103153816Y-68420990D01*
X103130083Y-68328412D01*
X103153339Y-68236938D01*
X103271588Y-68186908D01*
X103363062Y-68163653D01*
X103413092Y-68045404D01*
X103389836Y-67953929D01*
X103271588Y-67903900D01*
X103180113Y-67880644D01*
X103130083Y-67762396D01*
X103153339Y-67670921D01*
X103271588Y-67620892D01*
X103363062Y-67597636D01*
X103413092Y-67479387D01*
X103429115Y-67397712D01*
X103510946Y-67349750D01*
X103696100Y-67337883D01*
X103859452Y-67345895D01*
G37*
%TD.AperFunction*%
X102485237Y-72439838D02*
X102536223Y-72491332D01*
X102558903Y-72619447D01*
X102564067Y-72856546D01*
X102561465Y-73044571D01*
X102544301Y-73197527D01*
X102501595Y-73265569D01*
X102422562Y-73281059D01*
X102331088Y-73304314D01*
X102281058Y-73422563D01*
X102265035Y-73504239D01*
X102183204Y-73552201D01*
X101998050Y-73564067D01*
X101834698Y-73556056D01*
X101738774Y-73515140D01*
X101715042Y-73422563D01*
X101691786Y-73331088D01*
X101573537Y-73281059D01*
X101482063Y-73257803D01*
X101432033Y-73139555D01*
X101455289Y-73048080D01*
X101573537Y-72998050D01*
X101665012Y-72974795D01*
X101715042Y-72856546D01*
X101738297Y-72765071D01*
X101856546Y-72715042D01*
X101938222Y-72731065D01*
X101986184Y-72812896D01*
X101998050Y-72998050D01*
X102006061Y-73161402D01*
X102046977Y-73257326D01*
X102139554Y-73281059D01*
X102202229Y-73273254D01*
X102253214Y-73221761D01*
X102275895Y-73093645D01*
X102281058Y-72856546D01*
X102283660Y-72668522D01*
X102300824Y-72515566D01*
X102343530Y-72447523D01*
X102422562Y-72432034D01*
X102485237Y-72439838D01*
%TA.AperFunction,EtchedComponent*%
G36*
X102485237Y-72439838D02*
G01*
X102536223Y-72491332D01*
X102558903Y-72619447D01*
X102564067Y-72856546D01*
X102561465Y-73044571D01*
X102544301Y-73197527D01*
X102501595Y-73265569D01*
X102422562Y-73281059D01*
X102331088Y-73304314D01*
X102281058Y-73422563D01*
X102265035Y-73504239D01*
X102183204Y-73552201D01*
X101998050Y-73564067D01*
X101834698Y-73556056D01*
X101738774Y-73515140D01*
X101715042Y-73422563D01*
X101691786Y-73331088D01*
X101573537Y-73281059D01*
X101482063Y-73257803D01*
X101432033Y-73139555D01*
X101455289Y-73048080D01*
X101573537Y-72998050D01*
X101665012Y-72974795D01*
X101715042Y-72856546D01*
X101738297Y-72765071D01*
X101856546Y-72715042D01*
X101938222Y-72731065D01*
X101986184Y-72812896D01*
X101998050Y-72998050D01*
X102006061Y-73161402D01*
X102046977Y-73257326D01*
X102139554Y-73281059D01*
X102202229Y-73273254D01*
X102253214Y-73221761D01*
X102275895Y-73093645D01*
X102281058Y-72856546D01*
X102283660Y-72668522D01*
X102300824Y-72515566D01*
X102343530Y-72447523D01*
X102422562Y-72432034D01*
X102485237Y-72439838D01*
G37*
%TD.AperFunction*%
X100399189Y-74130764D02*
X100528543Y-74151451D01*
X100576200Y-74231944D01*
X100583008Y-74413092D01*
X100591020Y-74576444D01*
X100631935Y-74672368D01*
X100724512Y-74696100D01*
X100815987Y-74719356D01*
X100866017Y-74837605D01*
X100842761Y-74929080D01*
X100724512Y-74979109D01*
X100633037Y-75002365D01*
X100583008Y-75120613D01*
X100559752Y-75212088D01*
X100441504Y-75262117D01*
X100378829Y-75254313D01*
X100327844Y-75202819D01*
X100305163Y-75074704D01*
X100300000Y-74837605D01*
X100297398Y-74649580D01*
X100280234Y-74496624D01*
X100237529Y-74428582D01*
X100158496Y-74413092D01*
X100076820Y-74429115D01*
X100028858Y-74510946D01*
X100016991Y-74696100D01*
X100008980Y-74859452D01*
X99968064Y-74955376D01*
X99875487Y-74979109D01*
X99793811Y-74963086D01*
X99745849Y-74881255D01*
X99733983Y-74696100D01*
X99741995Y-74532749D01*
X99782910Y-74436825D01*
X99875487Y-74413092D01*
X99966962Y-74389836D01*
X100016991Y-74271588D01*
X100033014Y-74189912D01*
X100114845Y-74141950D01*
X100300000Y-74130084D01*
X100399189Y-74130764D01*
%TA.AperFunction,EtchedComponent*%
G36*
X100399189Y-74130764D02*
G01*
X100528543Y-74151451D01*
X100576200Y-74231944D01*
X100583008Y-74413092D01*
X100591020Y-74576444D01*
X100631935Y-74672368D01*
X100724512Y-74696100D01*
X100815987Y-74719356D01*
X100866017Y-74837605D01*
X100842761Y-74929080D01*
X100724512Y-74979109D01*
X100633037Y-75002365D01*
X100583008Y-75120613D01*
X100559752Y-75212088D01*
X100441504Y-75262117D01*
X100378829Y-75254313D01*
X100327844Y-75202819D01*
X100305163Y-75074704D01*
X100300000Y-74837605D01*
X100297398Y-74649580D01*
X100280234Y-74496624D01*
X100237529Y-74428582D01*
X100158496Y-74413092D01*
X100076820Y-74429115D01*
X100028858Y-74510946D01*
X100016991Y-74696100D01*
X100008980Y-74859452D01*
X99968064Y-74955376D01*
X99875487Y-74979109D01*
X99793811Y-74963086D01*
X99745849Y-74881255D01*
X99733983Y-74696100D01*
X99741995Y-74532749D01*
X99782910Y-74436825D01*
X99875487Y-74413092D01*
X99966962Y-74389836D01*
X100016991Y-74271588D01*
X100033014Y-74189912D01*
X100114845Y-74141950D01*
X100300000Y-74130084D01*
X100399189Y-74130764D01*
G37*
%TD.AperFunction*%
X102544301Y-69801427D02*
X102501595Y-69869469D01*
X102422562Y-69884958D01*
X102331088Y-69908214D01*
X102281058Y-70026463D01*
X102273254Y-70089137D01*
X102221760Y-70140123D01*
X102093645Y-70162804D01*
X101856546Y-70167967D01*
X101432033Y-70167967D01*
X101432033Y-69743454D01*
X101715042Y-69743454D01*
X101731065Y-69825130D01*
X101812896Y-69873092D01*
X101998050Y-69884958D01*
X102161402Y-69876947D01*
X102257325Y-69836031D01*
X102281058Y-69743454D01*
X102265035Y-69661778D01*
X102183204Y-69613816D01*
X101998050Y-69601950D01*
X101834698Y-69609962D01*
X101738774Y-69650877D01*
X101715042Y-69743454D01*
X101432033Y-69743454D01*
X101432033Y-69035933D01*
X101715042Y-69035933D01*
X101878393Y-69043945D01*
X101974317Y-69084860D01*
X101998050Y-69177438D01*
X102021306Y-69268912D01*
X102139554Y-69318942D01*
X102231029Y-69295686D01*
X102281058Y-69177438D01*
X102304314Y-69085963D01*
X102422562Y-69035933D01*
X102485237Y-69043738D01*
X102536223Y-69095231D01*
X102558903Y-69223347D01*
X102564067Y-69460446D01*
X102561465Y-69648470D01*
X102550806Y-69743454D01*
X102544301Y-69801427D01*
%TA.AperFunction,EtchedComponent*%
G36*
X102544301Y-69801427D02*
G01*
X102501595Y-69869469D01*
X102422562Y-69884958D01*
X102331088Y-69908214D01*
X102281058Y-70026463D01*
X102273254Y-70089137D01*
X102221760Y-70140123D01*
X102093645Y-70162804D01*
X101856546Y-70167967D01*
X101432033Y-70167967D01*
X101432033Y-69743454D01*
X101715042Y-69743454D01*
X101731065Y-69825130D01*
X101812896Y-69873092D01*
X101998050Y-69884958D01*
X102161402Y-69876947D01*
X102257325Y-69836031D01*
X102281058Y-69743454D01*
X102265035Y-69661778D01*
X102183204Y-69613816D01*
X101998050Y-69601950D01*
X101834698Y-69609962D01*
X101738774Y-69650877D01*
X101715042Y-69743454D01*
X101432033Y-69743454D01*
X101432033Y-69035933D01*
X101715042Y-69035933D01*
X101878393Y-69043945D01*
X101974317Y-69084860D01*
X101998050Y-69177438D01*
X102021306Y-69268912D01*
X102139554Y-69318942D01*
X102231029Y-69295686D01*
X102281058Y-69177438D01*
X102304314Y-69085963D01*
X102422562Y-69035933D01*
X102485237Y-69043738D01*
X102536223Y-69095231D01*
X102558903Y-69223347D01*
X102564067Y-69460446D01*
X102561465Y-69648470D01*
X102550806Y-69743454D01*
X102544301Y-69801427D01*
G37*
%TD.AperFunction*%
X97469916Y-74837605D02*
X97469916Y-75262117D01*
X96337883Y-75262117D01*
X96337883Y-74979109D01*
X96345894Y-74815757D01*
X96386810Y-74719833D01*
X96479387Y-74696100D01*
X96903900Y-74696100D01*
X96911911Y-74859452D01*
X96952827Y-74955376D01*
X97045404Y-74979109D01*
X97127080Y-74963086D01*
X97175041Y-74881255D01*
X97186908Y-74696100D01*
X97178896Y-74532749D01*
X97137981Y-74436825D01*
X97045404Y-74413092D01*
X96963728Y-74429115D01*
X96915766Y-74510946D01*
X96903900Y-74696100D01*
X96479387Y-74696100D01*
X96570862Y-74672845D01*
X96620891Y-74554596D01*
X96597635Y-74463121D01*
X96479387Y-74413092D01*
X96387912Y-74389836D01*
X96337883Y-74271588D01*
X96345687Y-74208913D01*
X96397181Y-74157928D01*
X96525296Y-74135247D01*
X96762395Y-74130084D01*
X96950420Y-74132685D01*
X97103376Y-74149850D01*
X97171418Y-74192555D01*
X97186908Y-74271588D01*
X97210164Y-74363063D01*
X97328412Y-74413092D01*
X97391087Y-74420896D01*
X97442072Y-74472390D01*
X97464753Y-74600506D01*
X97466835Y-74696100D01*
X97469916Y-74837605D01*
%TA.AperFunction,EtchedComponent*%
G36*
X97469916Y-74837605D02*
G01*
X97469916Y-75262117D01*
X96337883Y-75262117D01*
X96337883Y-74979109D01*
X96345894Y-74815757D01*
X96386810Y-74719833D01*
X96479387Y-74696100D01*
X96903900Y-74696100D01*
X96911911Y-74859452D01*
X96952827Y-74955376D01*
X97045404Y-74979109D01*
X97127080Y-74963086D01*
X97175041Y-74881255D01*
X97186908Y-74696100D01*
X97178896Y-74532749D01*
X97137981Y-74436825D01*
X97045404Y-74413092D01*
X96963728Y-74429115D01*
X96915766Y-74510946D01*
X96903900Y-74696100D01*
X96479387Y-74696100D01*
X96570862Y-74672845D01*
X96620891Y-74554596D01*
X96597635Y-74463121D01*
X96479387Y-74413092D01*
X96387912Y-74389836D01*
X96337883Y-74271588D01*
X96345687Y-74208913D01*
X96397181Y-74157928D01*
X96525296Y-74135247D01*
X96762395Y-74130084D01*
X96950420Y-74132685D01*
X97103376Y-74149850D01*
X97171418Y-74192555D01*
X97186908Y-74271588D01*
X97210164Y-74363063D01*
X97328412Y-74413092D01*
X97391087Y-74420896D01*
X97442072Y-74472390D01*
X97464753Y-74600506D01*
X97466835Y-74696100D01*
X97469916Y-74837605D01*
G37*
%TD.AperFunction*%
X104254105Y-74859452D02*
X104213190Y-74955376D01*
X104120613Y-74979109D01*
X104029138Y-75002365D01*
X103979108Y-75120613D01*
X103963085Y-75202289D01*
X103881254Y-75250251D01*
X103696100Y-75262117D01*
X103532748Y-75254106D01*
X103436825Y-75213190D01*
X103413092Y-75120613D01*
X103389836Y-75029138D01*
X103271588Y-74979109D01*
X103189912Y-74963086D01*
X103141950Y-74881255D01*
X103139152Y-74837605D01*
X103413092Y-74837605D01*
X103429115Y-74919281D01*
X103510946Y-74967242D01*
X103696100Y-74979109D01*
X103795289Y-74978428D01*
X103924643Y-74957742D01*
X103972300Y-74877249D01*
X103979108Y-74696100D01*
X103971097Y-74532749D01*
X103930181Y-74436825D01*
X103837604Y-74413092D01*
X103746129Y-74436348D01*
X103696100Y-74554596D01*
X103672844Y-74646071D01*
X103554596Y-74696100D01*
X103463121Y-74719356D01*
X103413092Y-74837605D01*
X103139152Y-74837605D01*
X103130083Y-74696100D01*
X103138095Y-74532749D01*
X103179010Y-74436825D01*
X103271588Y-74413092D01*
X103363062Y-74389836D01*
X103413092Y-74271588D01*
X103429115Y-74189912D01*
X103510946Y-74141950D01*
X103696100Y-74130084D01*
X103859452Y-74138095D01*
X103955376Y-74179011D01*
X103979108Y-74271588D01*
X104002364Y-74363063D01*
X104120613Y-74413092D01*
X104202288Y-74429115D01*
X104250250Y-74510946D01*
X104262117Y-74696100D01*
X104254105Y-74859452D01*
%TA.AperFunction,EtchedComponent*%
G36*
X104254105Y-74859452D02*
G01*
X104213190Y-74955376D01*
X104120613Y-74979109D01*
X104029138Y-75002365D01*
X103979108Y-75120613D01*
X103963085Y-75202289D01*
X103881254Y-75250251D01*
X103696100Y-75262117D01*
X103532748Y-75254106D01*
X103436825Y-75213190D01*
X103413092Y-75120613D01*
X103389836Y-75029138D01*
X103271588Y-74979109D01*
X103189912Y-74963086D01*
X103141950Y-74881255D01*
X103139152Y-74837605D01*
X103413092Y-74837605D01*
X103429115Y-74919281D01*
X103510946Y-74967242D01*
X103696100Y-74979109D01*
X103795289Y-74978428D01*
X103924643Y-74957742D01*
X103972300Y-74877249D01*
X103979108Y-74696100D01*
X103971097Y-74532749D01*
X103930181Y-74436825D01*
X103837604Y-74413092D01*
X103746129Y-74436348D01*
X103696100Y-74554596D01*
X103672844Y-74646071D01*
X103554596Y-74696100D01*
X103463121Y-74719356D01*
X103413092Y-74837605D01*
X103139152Y-74837605D01*
X103130083Y-74696100D01*
X103138095Y-74532749D01*
X103179010Y-74436825D01*
X103271588Y-74413092D01*
X103363062Y-74389836D01*
X103413092Y-74271588D01*
X103429115Y-74189912D01*
X103510946Y-74141950D01*
X103696100Y-74130084D01*
X103859452Y-74138095D01*
X103955376Y-74179011D01*
X103979108Y-74271588D01*
X104002364Y-74363063D01*
X104120613Y-74413092D01*
X104202288Y-74429115D01*
X104250250Y-74510946D01*
X104262117Y-74696100D01*
X104254105Y-74859452D01*
G37*
%TD.AperFunction*%
X101149025Y-70026463D02*
X101149025Y-70450975D01*
X99450975Y-70450975D01*
X99450975Y-71441504D01*
X99450975Y-72149025D01*
X101149025Y-72149025D01*
X101149025Y-71724513D01*
X101432033Y-71724513D01*
X101455289Y-71815988D01*
X101573537Y-71866017D01*
X101665012Y-71842761D01*
X101715042Y-71724513D01*
X101731065Y-71642837D01*
X101812896Y-71594875D01*
X101998050Y-71583009D01*
X102161402Y-71591020D01*
X102257325Y-71631936D01*
X102281058Y-71724513D01*
X102304314Y-71815988D01*
X102422562Y-71866017D01*
X102485237Y-71858213D01*
X102536223Y-71806719D01*
X102558903Y-71678603D01*
X102564067Y-71441504D01*
X102561465Y-71253480D01*
X102544301Y-71100524D01*
X102501595Y-71032481D01*
X102422562Y-71016992D01*
X102331088Y-70993736D01*
X102281058Y-70875488D01*
X102257803Y-70784013D01*
X102139554Y-70733983D01*
X102048079Y-70757239D01*
X101998050Y-70875488D01*
X101982027Y-70957164D01*
X101900196Y-71005125D01*
X101715042Y-71016992D01*
X101551690Y-71025003D01*
X101455766Y-71065919D01*
X101432033Y-71158496D01*
X101455289Y-71249971D01*
X101573537Y-71300000D01*
X101665012Y-71323256D01*
X101715042Y-71441504D01*
X101691786Y-71532979D01*
X101573537Y-71583009D01*
X101482063Y-71606264D01*
X101432033Y-71724513D01*
X101149025Y-71724513D01*
X101149025Y-70450975D01*
X102847075Y-70450975D01*
X102847075Y-71441504D01*
X102847075Y-72149025D01*
X101149025Y-72149025D01*
X101149025Y-72573538D01*
X101149025Y-73847075D01*
X99450975Y-73847075D01*
X99450975Y-72856546D01*
X99733983Y-72856546D01*
X99750006Y-72938222D01*
X99831837Y-72986184D01*
X100016991Y-72998050D01*
X100180343Y-72990039D01*
X100276267Y-72949123D01*
X100300000Y-72856546D01*
X100323255Y-72765071D01*
X100441504Y-72715042D01*
X100532979Y-72691786D01*
X100583008Y-72573538D01*
X100566985Y-72491862D01*
X100485154Y-72443900D01*
X100300000Y-72432034D01*
X100136648Y-72440045D01*
X100040724Y-72480961D01*
X100016991Y-72573538D01*
X99993736Y-72665013D01*
X99875487Y-72715042D01*
X99784012Y-72738298D01*
X99733983Y-72856546D01*
X99450975Y-72856546D01*
X99450975Y-72149025D01*
X97752925Y-72149025D01*
X97752925Y-70875488D01*
X98318941Y-70875488D01*
X98342197Y-70966963D01*
X98460445Y-71016992D01*
X98551920Y-71040248D01*
X98601950Y-71158496D01*
X98625205Y-71249971D01*
X98743454Y-71300000D01*
X98834929Y-71323256D01*
X98884958Y-71441504D01*
X98861702Y-71532979D01*
X98743454Y-71583009D01*
X98651979Y-71606264D01*
X98601950Y-71724513D01*
X98625205Y-71815988D01*
X98743454Y-71866017D01*
X98834929Y-71842761D01*
X98884958Y-71724513D01*
X98908214Y-71633038D01*
X99026462Y-71583009D01*
X99117937Y-71559753D01*
X99167966Y-71441504D01*
X99144711Y-71350029D01*
X99026462Y-71300000D01*
X98944786Y-71283977D01*
X98896824Y-71202146D01*
X98884958Y-71016992D01*
X98884277Y-70917803D01*
X98863591Y-70788448D01*
X98783098Y-70740792D01*
X98601950Y-70733983D01*
X98438598Y-70741995D01*
X98342674Y-70782911D01*
X98318941Y-70875488D01*
X97752925Y-70875488D01*
X97752925Y-70450975D01*
X99450975Y-70450975D01*
X99450975Y-70026463D01*
X100016991Y-70026463D01*
X100040247Y-70117937D01*
X100158496Y-70167967D01*
X100249971Y-70144711D01*
X100300000Y-70026463D01*
X100583008Y-70026463D01*
X100606264Y-70117937D01*
X100724512Y-70167967D01*
X100815987Y-70144711D01*
X100866017Y-70026463D01*
X100842761Y-69934988D01*
X100724512Y-69884958D01*
X100633037Y-69908214D01*
X100583008Y-70026463D01*
X100300000Y-70026463D01*
X100276744Y-69934988D01*
X100158496Y-69884958D01*
X100067021Y-69908214D01*
X100016991Y-70026463D01*
X99450975Y-70026463D01*
X99450975Y-69318942D01*
X99733983Y-69318942D01*
X99741995Y-69482293D01*
X99782910Y-69578217D01*
X99875487Y-69601950D01*
X99957163Y-69585927D01*
X100005125Y-69504096D01*
X100016991Y-69318942D01*
X100010051Y-69177438D01*
X100300000Y-69177438D01*
X100323255Y-69268912D01*
X100441504Y-69318942D01*
X100532979Y-69295686D01*
X100583008Y-69177438D01*
X100559752Y-69085963D01*
X100441504Y-69035933D01*
X100350029Y-69059189D01*
X100300000Y-69177438D01*
X100010051Y-69177438D01*
X100008980Y-69155590D01*
X99968064Y-69059666D01*
X99875487Y-69035933D01*
X99793811Y-69051956D01*
X99745849Y-69133787D01*
X99733983Y-69318942D01*
X99450975Y-69318942D01*
X99450975Y-68752925D01*
X101149025Y-68752925D01*
X101149025Y-69177438D01*
X101149025Y-70026463D01*
%TA.AperFunction,EtchedComponent*%
G36*
X101149025Y-70026463D02*
G01*
X101149025Y-70450975D01*
X99450975Y-70450975D01*
X99450975Y-71441504D01*
X99450975Y-72149025D01*
X101149025Y-72149025D01*
X101149025Y-71724513D01*
X101432033Y-71724513D01*
X101455289Y-71815988D01*
X101573537Y-71866017D01*
X101665012Y-71842761D01*
X101715042Y-71724513D01*
X101731065Y-71642837D01*
X101812896Y-71594875D01*
X101998050Y-71583009D01*
X102161402Y-71591020D01*
X102257325Y-71631936D01*
X102281058Y-71724513D01*
X102304314Y-71815988D01*
X102422562Y-71866017D01*
X102485237Y-71858213D01*
X102536223Y-71806719D01*
X102558903Y-71678603D01*
X102564067Y-71441504D01*
X102561465Y-71253480D01*
X102544301Y-71100524D01*
X102501595Y-71032481D01*
X102422562Y-71016992D01*
X102331088Y-70993736D01*
X102281058Y-70875488D01*
X102257803Y-70784013D01*
X102139554Y-70733983D01*
X102048079Y-70757239D01*
X101998050Y-70875488D01*
X101982027Y-70957164D01*
X101900196Y-71005125D01*
X101715042Y-71016992D01*
X101551690Y-71025003D01*
X101455766Y-71065919D01*
X101432033Y-71158496D01*
X101455289Y-71249971D01*
X101573537Y-71300000D01*
X101665012Y-71323256D01*
X101715042Y-71441504D01*
X101691786Y-71532979D01*
X101573537Y-71583009D01*
X101482063Y-71606264D01*
X101432033Y-71724513D01*
X101149025Y-71724513D01*
X101149025Y-70450975D01*
X102847075Y-70450975D01*
X102847075Y-71441504D01*
X102847075Y-72149025D01*
X101149025Y-72149025D01*
X101149025Y-72573538D01*
X101149025Y-73847075D01*
X99450975Y-73847075D01*
X99450975Y-72856546D01*
X99733983Y-72856546D01*
X99750006Y-72938222D01*
X99831837Y-72986184D01*
X100016991Y-72998050D01*
X100180343Y-72990039D01*
X100276267Y-72949123D01*
X100300000Y-72856546D01*
X100323255Y-72765071D01*
X100441504Y-72715042D01*
X100532979Y-72691786D01*
X100583008Y-72573538D01*
X100566985Y-72491862D01*
X100485154Y-72443900D01*
X100300000Y-72432034D01*
X100136648Y-72440045D01*
X100040724Y-72480961D01*
X100016991Y-72573538D01*
X99993736Y-72665013D01*
X99875487Y-72715042D01*
X99784012Y-72738298D01*
X99733983Y-72856546D01*
X99450975Y-72856546D01*
X99450975Y-72149025D01*
X97752925Y-72149025D01*
X97752925Y-70875488D01*
X98318941Y-70875488D01*
X98342197Y-70966963D01*
X98460445Y-71016992D01*
X98551920Y-71040248D01*
X98601950Y-71158496D01*
X98625205Y-71249971D01*
X98743454Y-71300000D01*
X98834929Y-71323256D01*
X98884958Y-71441504D01*
X98861702Y-71532979D01*
X98743454Y-71583009D01*
X98651979Y-71606264D01*
X98601950Y-71724513D01*
X98625205Y-71815988D01*
X98743454Y-71866017D01*
X98834929Y-71842761D01*
X98884958Y-71724513D01*
X98908214Y-71633038D01*
X99026462Y-71583009D01*
X99117937Y-71559753D01*
X99167966Y-71441504D01*
X99144711Y-71350029D01*
X99026462Y-71300000D01*
X98944786Y-71283977D01*
X98896824Y-71202146D01*
X98884958Y-71016992D01*
X98884277Y-70917803D01*
X98863591Y-70788448D01*
X98783098Y-70740792D01*
X98601950Y-70733983D01*
X98438598Y-70741995D01*
X98342674Y-70782911D01*
X98318941Y-70875488D01*
X97752925Y-70875488D01*
X97752925Y-70450975D01*
X99450975Y-70450975D01*
X99450975Y-70026463D01*
X100016991Y-70026463D01*
X100040247Y-70117937D01*
X100158496Y-70167967D01*
X100249971Y-70144711D01*
X100300000Y-70026463D01*
X100583008Y-70026463D01*
X100606264Y-70117937D01*
X100724512Y-70167967D01*
X100815987Y-70144711D01*
X100866017Y-70026463D01*
X100842761Y-69934988D01*
X100724512Y-69884958D01*
X100633037Y-69908214D01*
X100583008Y-70026463D01*
X100300000Y-70026463D01*
X100276744Y-69934988D01*
X100158496Y-69884958D01*
X100067021Y-69908214D01*
X100016991Y-70026463D01*
X99450975Y-70026463D01*
X99450975Y-69318942D01*
X99733983Y-69318942D01*
X99741995Y-69482293D01*
X99782910Y-69578217D01*
X99875487Y-69601950D01*
X99957163Y-69585927D01*
X100005125Y-69504096D01*
X100016991Y-69318942D01*
X100010051Y-69177438D01*
X100300000Y-69177438D01*
X100323255Y-69268912D01*
X100441504Y-69318942D01*
X100532979Y-69295686D01*
X100583008Y-69177438D01*
X100559752Y-69085963D01*
X100441504Y-69035933D01*
X100350029Y-69059189D01*
X100300000Y-69177438D01*
X100010051Y-69177438D01*
X100008980Y-69155590D01*
X99968064Y-69059666D01*
X99875487Y-69035933D01*
X99793811Y-69051956D01*
X99745849Y-69133787D01*
X99733983Y-69318942D01*
X99450975Y-69318942D01*
X99450975Y-68752925D01*
X101149025Y-68752925D01*
X101149025Y-69177438D01*
X101149025Y-70026463D01*
G37*
%TD.AperFunction*%
X104828133Y-69177438D02*
X104828133Y-69884958D01*
X104828133Y-70450975D01*
X104828133Y-72715042D01*
X104828133Y-73847075D01*
X104828133Y-75828134D01*
X95771866Y-75828134D01*
X95771866Y-75545126D01*
X96054874Y-75545126D01*
X97752925Y-75545126D01*
X97752925Y-75262117D01*
X98318941Y-75262117D01*
X98601950Y-75262117D01*
X98765301Y-75254106D01*
X98861225Y-75213190D01*
X98884958Y-75120613D01*
X98908214Y-75029138D01*
X99026462Y-74979109D01*
X99089137Y-74971304D01*
X99140122Y-74919811D01*
X99162803Y-74791695D01*
X99167966Y-74554596D01*
X99165365Y-74366572D01*
X99148200Y-74213616D01*
X99105495Y-74145573D01*
X99026462Y-74130084D01*
X98934987Y-74153339D01*
X98884958Y-74271588D01*
X98861702Y-74363063D01*
X98743454Y-74413092D01*
X98651979Y-74389836D01*
X98601950Y-74271588D01*
X98578694Y-74180113D01*
X98460445Y-74130084D01*
X98423137Y-74132167D01*
X98366877Y-74160583D01*
X98335502Y-74245069D01*
X98321896Y-74414087D01*
X98318941Y-74696100D01*
X98318941Y-75262117D01*
X97752925Y-75262117D01*
X97752925Y-73847075D01*
X99450975Y-73847075D01*
X99450975Y-74554596D01*
X99450975Y-75545126D01*
X101149025Y-75545126D01*
X101149025Y-74696100D01*
X101432033Y-74696100D01*
X101440045Y-74859452D01*
X101480960Y-74955376D01*
X101573537Y-74979109D01*
X101665012Y-74955853D01*
X101715042Y-74837605D01*
X101738297Y-74746130D01*
X101856546Y-74696100D01*
X101938222Y-74712123D01*
X101986184Y-74793955D01*
X101998050Y-74979109D01*
X101998730Y-75078298D01*
X102019417Y-75207652D01*
X102099910Y-75255309D01*
X102281058Y-75262117D01*
X102444410Y-75254106D01*
X102540334Y-75213190D01*
X102564067Y-75120613D01*
X102540811Y-75029138D01*
X102422562Y-74979109D01*
X102331088Y-74955853D01*
X102281058Y-74837605D01*
X102257803Y-74746130D01*
X102139554Y-74696100D01*
X102057878Y-74680078D01*
X102009916Y-74598246D01*
X101998050Y-74413092D01*
X101991110Y-74271588D01*
X102281058Y-74271588D01*
X102304314Y-74363063D01*
X102422562Y-74413092D01*
X102514037Y-74389836D01*
X102564067Y-74271588D01*
X102847075Y-74271588D01*
X102847075Y-75120613D01*
X102847075Y-75545126D01*
X104545125Y-75545126D01*
X104545125Y-73847075D01*
X102847075Y-73847075D01*
X102847075Y-74271588D01*
X102564067Y-74271588D01*
X102540811Y-74180113D01*
X102422562Y-74130084D01*
X102331088Y-74153339D01*
X102281058Y-74271588D01*
X101991110Y-74271588D01*
X101990038Y-74249740D01*
X101949123Y-74153817D01*
X101856546Y-74130084D01*
X101765071Y-74153339D01*
X101715042Y-74271588D01*
X101691786Y-74363063D01*
X101573537Y-74413092D01*
X101491862Y-74429115D01*
X101443900Y-74510946D01*
X101432033Y-74696100D01*
X101149025Y-74696100D01*
X101149025Y-73847075D01*
X102847075Y-73847075D01*
X102847075Y-72432034D01*
X103130083Y-72432034D01*
X103130083Y-73564067D01*
X103696100Y-73564067D01*
X103696100Y-72715042D01*
X103979108Y-72715042D01*
X103987120Y-72878394D01*
X104028035Y-72974318D01*
X104120613Y-72998050D01*
X104202288Y-72982027D01*
X104250250Y-72900196D01*
X104262117Y-72715042D01*
X104254105Y-72551690D01*
X104213190Y-72455766D01*
X104120613Y-72432034D01*
X104038937Y-72448057D01*
X103990975Y-72529888D01*
X103979108Y-72715042D01*
X103696100Y-72715042D01*
X103696100Y-72432034D01*
X103130083Y-72432034D01*
X102847075Y-72432034D01*
X102847075Y-72149025D01*
X104545125Y-72149025D01*
X104545125Y-70450975D01*
X102847075Y-70450975D01*
X102847075Y-70026463D01*
X103130083Y-70026463D01*
X103146106Y-70108138D01*
X103227937Y-70156100D01*
X103413092Y-70167967D01*
X103696100Y-70167967D01*
X103696100Y-69884958D01*
X103979108Y-69884958D01*
X103987120Y-70048310D01*
X104028035Y-70144234D01*
X104120613Y-70167967D01*
X104202288Y-70151944D01*
X104250250Y-70070113D01*
X104262117Y-69884958D01*
X104254105Y-69721607D01*
X104213190Y-69625683D01*
X104120613Y-69601950D01*
X104038937Y-69617973D01*
X103990975Y-69699804D01*
X103988177Y-69743454D01*
X103979108Y-69884958D01*
X103696100Y-69884958D01*
X103696100Y-69743454D01*
X103693499Y-69555430D01*
X103676334Y-69402474D01*
X103633629Y-69334431D01*
X103554596Y-69318942D01*
X103463121Y-69295686D01*
X103413092Y-69177438D01*
X103979108Y-69177438D01*
X104002364Y-69268912D01*
X104120613Y-69318942D01*
X104212088Y-69295686D01*
X104262117Y-69177438D01*
X104238861Y-69085963D01*
X104120613Y-69035933D01*
X104029138Y-69059189D01*
X103979108Y-69177438D01*
X103413092Y-69177438D01*
X103389836Y-69085963D01*
X103271588Y-69035933D01*
X103189912Y-69051956D01*
X103141950Y-69133787D01*
X103130083Y-69318942D01*
X103138095Y-69482293D01*
X103179010Y-69578217D01*
X103271588Y-69601950D01*
X103363062Y-69625206D01*
X103413092Y-69743454D01*
X103389836Y-69834929D01*
X103271588Y-69884958D01*
X103180113Y-69908214D01*
X103130083Y-70026463D01*
X102847075Y-70026463D01*
X102847075Y-68752925D01*
X101149025Y-68752925D01*
X101149025Y-67903900D01*
X101432033Y-67903900D01*
X102564067Y-67903900D01*
X102564067Y-67620892D01*
X102847075Y-67620892D01*
X102847075Y-68752925D01*
X104545125Y-68752925D01*
X104545125Y-67054875D01*
X102847075Y-67054875D01*
X102847075Y-67620892D01*
X102564067Y-67620892D01*
X102556055Y-67457540D01*
X102515140Y-67361616D01*
X102422562Y-67337883D01*
X102331088Y-67361139D01*
X102281058Y-67479387D01*
X102257803Y-67570862D01*
X102139554Y-67620892D01*
X102048079Y-67597636D01*
X101998050Y-67479387D01*
X101982027Y-67397712D01*
X101900196Y-67349750D01*
X101715042Y-67337883D01*
X101615853Y-67338564D01*
X101486498Y-67359250D01*
X101438841Y-67439743D01*
X101432033Y-67620892D01*
X101432033Y-67903900D01*
X101149025Y-67903900D01*
X101149025Y-67054875D01*
X99450975Y-67054875D01*
X99450975Y-67620892D01*
X99450975Y-68752925D01*
X97752925Y-68752925D01*
X97752925Y-69177438D01*
X97752925Y-70450975D01*
X96054874Y-70450975D01*
X96054874Y-72149025D01*
X97752925Y-72149025D01*
X97752925Y-72715042D01*
X97752925Y-73847075D01*
X96054874Y-73847075D01*
X96054874Y-75545126D01*
X95771866Y-75545126D01*
X95771866Y-72856546D01*
X96337883Y-72856546D01*
X96361138Y-72948021D01*
X96479387Y-72998050D01*
X96561063Y-73014073D01*
X96609025Y-73095904D01*
X96620891Y-73281059D01*
X96621572Y-73380248D01*
X96642258Y-73509602D01*
X96722751Y-73557259D01*
X96903900Y-73564067D01*
X97067251Y-73556056D01*
X97163175Y-73515140D01*
X97186908Y-73422563D01*
X97163652Y-73331088D01*
X97045404Y-73281059D01*
X96953929Y-73257803D01*
X96903900Y-73139555D01*
X96919922Y-73057879D01*
X97001754Y-73009917D01*
X97186908Y-72998050D01*
X97286097Y-72997370D01*
X97415451Y-72976683D01*
X97463108Y-72896190D01*
X97469916Y-72715042D01*
X97461905Y-72551690D01*
X97420989Y-72455766D01*
X97328412Y-72432034D01*
X97236937Y-72455289D01*
X97186908Y-72573538D01*
X97163652Y-72665013D01*
X97045404Y-72715042D01*
X96953929Y-72691786D01*
X96903900Y-72573538D01*
X96880644Y-72482063D01*
X96762395Y-72432034D01*
X96670920Y-72455289D01*
X96620891Y-72573538D01*
X96597635Y-72665013D01*
X96479387Y-72715042D01*
X96387912Y-72738298D01*
X96337883Y-72856546D01*
X95771866Y-72856546D01*
X95771866Y-70167967D01*
X96337883Y-70167967D01*
X96620891Y-70167967D01*
X96720080Y-70167286D01*
X96849435Y-70146600D01*
X96897091Y-70066107D01*
X96903900Y-69884958D01*
X96911911Y-69721607D01*
X96952827Y-69625683D01*
X97045404Y-69601950D01*
X97136879Y-69625206D01*
X97186908Y-69743454D01*
X97210164Y-69834929D01*
X97328412Y-69884958D01*
X97419887Y-69861703D01*
X97469916Y-69743454D01*
X97446661Y-69651979D01*
X97328412Y-69601950D01*
X97236937Y-69578694D01*
X97186908Y-69460446D01*
X97210164Y-69368971D01*
X97328412Y-69318942D01*
X97419887Y-69295686D01*
X97469916Y-69177438D01*
X97446661Y-69085963D01*
X97328412Y-69035933D01*
X97236937Y-69059189D01*
X97186908Y-69177438D01*
X97163652Y-69268912D01*
X97045404Y-69318942D01*
X96953929Y-69342197D01*
X96903900Y-69460446D01*
X96880644Y-69551921D01*
X96762395Y-69601950D01*
X96680719Y-69585927D01*
X96632758Y-69504096D01*
X96620891Y-69318942D01*
X96612880Y-69155590D01*
X96571964Y-69059666D01*
X96479387Y-69035933D01*
X96442078Y-69038016D01*
X96385819Y-69066433D01*
X96354444Y-69150918D01*
X96340837Y-69319936D01*
X96337883Y-69601950D01*
X96337883Y-70167967D01*
X95771866Y-70167967D01*
X95771866Y-67054875D01*
X96054874Y-67054875D01*
X96054874Y-68752925D01*
X97752925Y-68752925D01*
X97752925Y-67903900D01*
X98035933Y-67903900D01*
X99167966Y-67903900D01*
X99167966Y-67620892D01*
X99159955Y-67457540D01*
X99119039Y-67361616D01*
X99026462Y-67337883D01*
X98934987Y-67361139D01*
X98884958Y-67479387D01*
X98861702Y-67570862D01*
X98743454Y-67620892D01*
X98651979Y-67597636D01*
X98601950Y-67479387D01*
X98585927Y-67397712D01*
X98504096Y-67349750D01*
X98318941Y-67337883D01*
X98219752Y-67338564D01*
X98090398Y-67359250D01*
X98042741Y-67439743D01*
X98035933Y-67620892D01*
X98035933Y-67903900D01*
X97752925Y-67903900D01*
X97752925Y-67054875D01*
X96054874Y-67054875D01*
X95771866Y-67054875D01*
X95771866Y-66771867D01*
X104828133Y-66771867D01*
X104828133Y-67054875D01*
X104828133Y-69177438D01*
%TA.AperFunction,EtchedComponent*%
G36*
X104828133Y-69177438D02*
G01*
X104828133Y-69884958D01*
X104828133Y-70450975D01*
X104828133Y-72715042D01*
X104828133Y-73847075D01*
X104828133Y-75828134D01*
X95771866Y-75828134D01*
X95771866Y-75545126D01*
X96054874Y-75545126D01*
X97752925Y-75545126D01*
X97752925Y-75262117D01*
X98318941Y-75262117D01*
X98601950Y-75262117D01*
X98765301Y-75254106D01*
X98861225Y-75213190D01*
X98884958Y-75120613D01*
X98908214Y-75029138D01*
X99026462Y-74979109D01*
X99089137Y-74971304D01*
X99140122Y-74919811D01*
X99162803Y-74791695D01*
X99167966Y-74554596D01*
X99165365Y-74366572D01*
X99148200Y-74213616D01*
X99105495Y-74145573D01*
X99026462Y-74130084D01*
X98934987Y-74153339D01*
X98884958Y-74271588D01*
X98861702Y-74363063D01*
X98743454Y-74413092D01*
X98651979Y-74389836D01*
X98601950Y-74271588D01*
X98578694Y-74180113D01*
X98460445Y-74130084D01*
X98423137Y-74132167D01*
X98366877Y-74160583D01*
X98335502Y-74245069D01*
X98321896Y-74414087D01*
X98318941Y-74696100D01*
X98318941Y-75262117D01*
X97752925Y-75262117D01*
X97752925Y-73847075D01*
X99450975Y-73847075D01*
X99450975Y-74554596D01*
X99450975Y-75545126D01*
X101149025Y-75545126D01*
X101149025Y-74696100D01*
X101432033Y-74696100D01*
X101440045Y-74859452D01*
X101480960Y-74955376D01*
X101573537Y-74979109D01*
X101665012Y-74955853D01*
X101715042Y-74837605D01*
X101738297Y-74746130D01*
X101856546Y-74696100D01*
X101938222Y-74712123D01*
X101986184Y-74793955D01*
X101998050Y-74979109D01*
X101998730Y-75078298D01*
X102019417Y-75207652D01*
X102099910Y-75255309D01*
X102281058Y-75262117D01*
X102444410Y-75254106D01*
X102540334Y-75213190D01*
X102564067Y-75120613D01*
X102540811Y-75029138D01*
X102422562Y-74979109D01*
X102331088Y-74955853D01*
X102281058Y-74837605D01*
X102257803Y-74746130D01*
X102139554Y-74696100D01*
X102057878Y-74680078D01*
X102009916Y-74598246D01*
X101998050Y-74413092D01*
X101991110Y-74271588D01*
X102281058Y-74271588D01*
X102304314Y-74363063D01*
X102422562Y-74413092D01*
X102514037Y-74389836D01*
X102564067Y-74271588D01*
X102847075Y-74271588D01*
X102847075Y-75120613D01*
X102847075Y-75545126D01*
X104545125Y-75545126D01*
X104545125Y-73847075D01*
X102847075Y-73847075D01*
X102847075Y-74271588D01*
X102564067Y-74271588D01*
X102540811Y-74180113D01*
X102422562Y-74130084D01*
X102331088Y-74153339D01*
X102281058Y-74271588D01*
X101991110Y-74271588D01*
X101990038Y-74249740D01*
X101949123Y-74153817D01*
X101856546Y-74130084D01*
X101765071Y-74153339D01*
X101715042Y-74271588D01*
X101691786Y-74363063D01*
X101573537Y-74413092D01*
X101491862Y-74429115D01*
X101443900Y-74510946D01*
X101432033Y-74696100D01*
X101149025Y-74696100D01*
X101149025Y-73847075D01*
X102847075Y-73847075D01*
X102847075Y-72432034D01*
X103130083Y-72432034D01*
X103130083Y-73564067D01*
X103696100Y-73564067D01*
X103696100Y-72715042D01*
X103979108Y-72715042D01*
X103987120Y-72878394D01*
X104028035Y-72974318D01*
X104120613Y-72998050D01*
X104202288Y-72982027D01*
X104250250Y-72900196D01*
X104262117Y-72715042D01*
X104254105Y-72551690D01*
X104213190Y-72455766D01*
X104120613Y-72432034D01*
X104038937Y-72448057D01*
X103990975Y-72529888D01*
X103979108Y-72715042D01*
X103696100Y-72715042D01*
X103696100Y-72432034D01*
X103130083Y-72432034D01*
X102847075Y-72432034D01*
X102847075Y-72149025D01*
X104545125Y-72149025D01*
X104545125Y-70450975D01*
X102847075Y-70450975D01*
X102847075Y-70026463D01*
X103130083Y-70026463D01*
X103146106Y-70108138D01*
X103227937Y-70156100D01*
X103413092Y-70167967D01*
X103696100Y-70167967D01*
X103696100Y-69884958D01*
X103979108Y-69884958D01*
X103987120Y-70048310D01*
X104028035Y-70144234D01*
X104120613Y-70167967D01*
X104202288Y-70151944D01*
X104250250Y-70070113D01*
X104262117Y-69884958D01*
X104254105Y-69721607D01*
X104213190Y-69625683D01*
X104120613Y-69601950D01*
X104038937Y-69617973D01*
X103990975Y-69699804D01*
X103988177Y-69743454D01*
X103979108Y-69884958D01*
X103696100Y-69884958D01*
X103696100Y-69743454D01*
X103693499Y-69555430D01*
X103676334Y-69402474D01*
X103633629Y-69334431D01*
X103554596Y-69318942D01*
X103463121Y-69295686D01*
X103413092Y-69177438D01*
X103979108Y-69177438D01*
X104002364Y-69268912D01*
X104120613Y-69318942D01*
X104212088Y-69295686D01*
X104262117Y-69177438D01*
X104238861Y-69085963D01*
X104120613Y-69035933D01*
X104029138Y-69059189D01*
X103979108Y-69177438D01*
X103413092Y-69177438D01*
X103389836Y-69085963D01*
X103271588Y-69035933D01*
X103189912Y-69051956D01*
X103141950Y-69133787D01*
X103130083Y-69318942D01*
X103138095Y-69482293D01*
X103179010Y-69578217D01*
X103271588Y-69601950D01*
X103363062Y-69625206D01*
X103413092Y-69743454D01*
X103389836Y-69834929D01*
X103271588Y-69884958D01*
X103180113Y-69908214D01*
X103130083Y-70026463D01*
X102847075Y-70026463D01*
X102847075Y-68752925D01*
X101149025Y-68752925D01*
X101149025Y-67903900D01*
X101432033Y-67903900D01*
X102564067Y-67903900D01*
X102564067Y-67620892D01*
X102847075Y-67620892D01*
X102847075Y-68752925D01*
X104545125Y-68752925D01*
X104545125Y-67054875D01*
X102847075Y-67054875D01*
X102847075Y-67620892D01*
X102564067Y-67620892D01*
X102556055Y-67457540D01*
X102515140Y-67361616D01*
X102422562Y-67337883D01*
X102331088Y-67361139D01*
X102281058Y-67479387D01*
X102257803Y-67570862D01*
X102139554Y-67620892D01*
X102048079Y-67597636D01*
X101998050Y-67479387D01*
X101982027Y-67397712D01*
X101900196Y-67349750D01*
X101715042Y-67337883D01*
X101615853Y-67338564D01*
X101486498Y-67359250D01*
X101438841Y-67439743D01*
X101432033Y-67620892D01*
X101432033Y-67903900D01*
X101149025Y-67903900D01*
X101149025Y-67054875D01*
X99450975Y-67054875D01*
X99450975Y-67620892D01*
X99450975Y-68752925D01*
X97752925Y-68752925D01*
X97752925Y-69177438D01*
X97752925Y-70450975D01*
X96054874Y-70450975D01*
X96054874Y-72149025D01*
X97752925Y-72149025D01*
X97752925Y-72715042D01*
X97752925Y-73847075D01*
X96054874Y-73847075D01*
X96054874Y-75545126D01*
X95771866Y-75545126D01*
X95771866Y-72856546D01*
X96337883Y-72856546D01*
X96361138Y-72948021D01*
X96479387Y-72998050D01*
X96561063Y-73014073D01*
X96609025Y-73095904D01*
X96620891Y-73281059D01*
X96621572Y-73380248D01*
X96642258Y-73509602D01*
X96722751Y-73557259D01*
X96903900Y-73564067D01*
X97067251Y-73556056D01*
X97163175Y-73515140D01*
X97186908Y-73422563D01*
X97163652Y-73331088D01*
X97045404Y-73281059D01*
X96953929Y-73257803D01*
X96903900Y-73139555D01*
X96919922Y-73057879D01*
X97001754Y-73009917D01*
X97186908Y-72998050D01*
X97286097Y-72997370D01*
X97415451Y-72976683D01*
X97463108Y-72896190D01*
X97469916Y-72715042D01*
X97461905Y-72551690D01*
X97420989Y-72455766D01*
X97328412Y-72432034D01*
X97236937Y-72455289D01*
X97186908Y-72573538D01*
X97163652Y-72665013D01*
X97045404Y-72715042D01*
X96953929Y-72691786D01*
X96903900Y-72573538D01*
X96880644Y-72482063D01*
X96762395Y-72432034D01*
X96670920Y-72455289D01*
X96620891Y-72573538D01*
X96597635Y-72665013D01*
X96479387Y-72715042D01*
X96387912Y-72738298D01*
X96337883Y-72856546D01*
X95771866Y-72856546D01*
X95771866Y-70167967D01*
X96337883Y-70167967D01*
X96620891Y-70167967D01*
X96720080Y-70167286D01*
X96849435Y-70146600D01*
X96897091Y-70066107D01*
X96903900Y-69884958D01*
X96911911Y-69721607D01*
X96952827Y-69625683D01*
X97045404Y-69601950D01*
X97136879Y-69625206D01*
X97186908Y-69743454D01*
X97210164Y-69834929D01*
X97328412Y-69884958D01*
X97419887Y-69861703D01*
X97469916Y-69743454D01*
X97446661Y-69651979D01*
X97328412Y-69601950D01*
X97236937Y-69578694D01*
X97186908Y-69460446D01*
X97210164Y-69368971D01*
X97328412Y-69318942D01*
X97419887Y-69295686D01*
X97469916Y-69177438D01*
X97446661Y-69085963D01*
X97328412Y-69035933D01*
X97236937Y-69059189D01*
X97186908Y-69177438D01*
X97163652Y-69268912D01*
X97045404Y-69318942D01*
X96953929Y-69342197D01*
X96903900Y-69460446D01*
X96880644Y-69551921D01*
X96762395Y-69601950D01*
X96680719Y-69585927D01*
X96632758Y-69504096D01*
X96620891Y-69318942D01*
X96612880Y-69155590D01*
X96571964Y-69059666D01*
X96479387Y-69035933D01*
X96442078Y-69038016D01*
X96385819Y-69066433D01*
X96354444Y-69150918D01*
X96340837Y-69319936D01*
X96337883Y-69601950D01*
X96337883Y-70167967D01*
X95771866Y-70167967D01*
X95771866Y-67054875D01*
X96054874Y-67054875D01*
X96054874Y-68752925D01*
X97752925Y-68752925D01*
X97752925Y-67903900D01*
X98035933Y-67903900D01*
X99167966Y-67903900D01*
X99167966Y-67620892D01*
X99159955Y-67457540D01*
X99119039Y-67361616D01*
X99026462Y-67337883D01*
X98934987Y-67361139D01*
X98884958Y-67479387D01*
X98861702Y-67570862D01*
X98743454Y-67620892D01*
X98651979Y-67597636D01*
X98601950Y-67479387D01*
X98585927Y-67397712D01*
X98504096Y-67349750D01*
X98318941Y-67337883D01*
X98219752Y-67338564D01*
X98090398Y-67359250D01*
X98042741Y-67439743D01*
X98035933Y-67620892D01*
X98035933Y-67903900D01*
X97752925Y-67903900D01*
X97752925Y-67054875D01*
X96054874Y-67054875D01*
X95771866Y-67054875D01*
X95771866Y-66771867D01*
X104828133Y-66771867D01*
X104828133Y-67054875D01*
X104828133Y-69177438D01*
G37*
%TD.AperFunction*%
%TD*%
D13*
%TO.P,J104,1,Pin_1*%
%TO.N,+3.3V*%
X150000000Y-59500000D03*
D14*
%TO.P,J104,2,Pin_2*%
%TO.N,GND*%
X152540000Y-59500000D03*
%TO.P,J104,3,Pin_3*%
%TO.N,/GPIO11{slash}SPI0.SCLK*%
X155080000Y-59500000D03*
%TO.P,J104,4,Pin_4*%
%TO.N,/GPIO10{slash}SPI0.MOSI*%
X157620000Y-59500000D03*
%TO.P,J104,5,Pin_5*%
%TO.N,/GPIO24*%
X160160000Y-59500000D03*
%TO.P,J104,6,Pin_6*%
%TO.N,/GPIO7{slash}SPI0.CE1*%
X162700000Y-59500000D03*
%TO.P,J104,7,Pin_7*%
%TO.N,/GPIO25*%
X165240000Y-59500000D03*
%TD*%
D13*
%TO.P,J103,1,Pin_1*%
%TO.N,+3.3V*%
X100000000Y-59500000D03*
D14*
%TO.P,J103,2,Pin_2*%
%TO.N,GND*%
X102540000Y-59500000D03*
%TO.P,J103,3,Pin_3*%
%TO.N,/GPIO11{slash}SPI0.SCLK*%
X105080000Y-59500000D03*
%TO.P,J103,4,Pin_4*%
%TO.N,/GPIO10{slash}SPI0.MOSI*%
X107620000Y-59500000D03*
%TO.P,J103,5,Pin_5*%
%TO.N,/GPIO22*%
X110160000Y-59500000D03*
%TO.P,J103,6,Pin_6*%
%TO.N,/GPIO8{slash}SPI0.CE0*%
X112700000Y-59500000D03*
%TO.P,J103,7,Pin_7*%
%TO.N,/GPIO23*%
X115240000Y-59500000D03*
%TD*%
D15*
%TO.P,J102,6,Shield*%
%TO.N,Net-(J102-Shield)*%
X96462500Y-83500000D03*
D16*
X99162500Y-84500000D03*
X99162500Y-89500000D03*
D15*
X96462500Y-90500000D03*
%TD*%
D13*
%TO.P,J101,1,Pin_1*%
%TO.N,+3.3V*%
X108370000Y-48770000D03*
D14*
%TO.P,J101,2,Pin_2*%
%TO.N,+5V*%
X108370000Y-46230000D03*
%TO.P,J101,3,Pin_3*%
%TO.N,/GPIO2{slash}SDA1*%
X110910000Y-48770000D03*
%TO.P,J101,4,Pin_4*%
%TO.N,+5V*%
X110910000Y-46230000D03*
%TO.P,J101,5,Pin_5*%
%TO.N,/GPIO3{slash}SCL1*%
X113450000Y-48770000D03*
%TO.P,J101,6,Pin_6*%
%TO.N,GND*%
X113450000Y-46230000D03*
%TO.P,J101,7,Pin_7*%
%TO.N,/GPIO4{slash}GPCLK0*%
X115990000Y-48770000D03*
%TO.P,J101,8,Pin_8*%
%TO.N,/GPIO14{slash}TXD0*%
X115990000Y-46230000D03*
%TO.P,J101,9,Pin_9*%
%TO.N,GND*%
X118530000Y-48770000D03*
%TO.P,J101,10,Pin_10*%
%TO.N,/GPIO15{slash}RXD0*%
X118530000Y-46230000D03*
%TO.P,J101,11,Pin_11*%
%TO.N,/GPIO17*%
X121070000Y-48770000D03*
%TO.P,J101,12,Pin_12*%
%TO.N,/GPIO18{slash}PCM.CLK*%
X121070000Y-46230000D03*
%TO.P,J101,13,Pin_13*%
%TO.N,/GPIO27*%
X123610000Y-48770000D03*
%TO.P,J101,14,Pin_14*%
%TO.N,GND*%
X123610000Y-46230000D03*
%TO.P,J101,15,Pin_15*%
%TO.N,/GPIO22*%
X126150000Y-48770000D03*
%TO.P,J101,16,Pin_16*%
%TO.N,/GPIO23*%
X126150000Y-46230000D03*
%TO.P,J101,17,Pin_17*%
%TO.N,+3.3V*%
X128690000Y-48770000D03*
%TO.P,J101,18,Pin_18*%
%TO.N,/GPIO24*%
X128690000Y-46230000D03*
%TO.P,J101,19,Pin_19*%
%TO.N,/GPIO10{slash}SPI0.MOSI*%
X131230000Y-48770000D03*
%TO.P,J101,20,Pin_20*%
%TO.N,GND*%
X131230000Y-46230000D03*
%TO.P,J101,21,Pin_21*%
%TO.N,/GPIO9{slash}SPI0.MISO*%
X133770000Y-48770000D03*
%TO.P,J101,22,Pin_22*%
%TO.N,/GPIO25*%
X133770000Y-46230000D03*
%TO.P,J101,23,Pin_23*%
%TO.N,/GPIO11{slash}SPI0.SCLK*%
X136310000Y-48770000D03*
%TO.P,J101,24,Pin_24*%
%TO.N,/GPIO8{slash}SPI0.CE0*%
X136310000Y-46230000D03*
%TO.P,J101,25,Pin_25*%
%TO.N,GND*%
X138850000Y-48770000D03*
%TO.P,J101,26,Pin_26*%
%TO.N,/GPIO7{slash}SPI0.CE1*%
X138850000Y-46230000D03*
%TO.P,J101,27,Pin_27*%
%TO.N,/ID_SDA*%
X141390000Y-48770000D03*
%TO.P,J101,28,Pin_28*%
%TO.N,/ID_SCL*%
X141390000Y-46230000D03*
%TO.P,J101,29,Pin_29*%
%TO.N,/GPIO5*%
X143930000Y-48770000D03*
%TO.P,J101,30,Pin_30*%
%TO.N,GND*%
X143930000Y-46230000D03*
%TO.P,J101,31,Pin_31*%
%TO.N,/GPIO6*%
X146470000Y-48770000D03*
%TO.P,J101,32,Pin_32*%
%TO.N,/GPIO12{slash}PWM0*%
X146470000Y-46230000D03*
%TO.P,J101,33,Pin_33*%
%TO.N,/GPIO13{slash}PWM1*%
X149010000Y-48770000D03*
%TO.P,J101,34,Pin_34*%
%TO.N,GND*%
X149010000Y-46230000D03*
%TO.P,J101,35,Pin_35*%
%TO.N,/GPIO19{slash}PCM.FS*%
X151550000Y-48770000D03*
%TO.P,J101,36,Pin_36*%
%TO.N,/GPIO16*%
X151550000Y-46230000D03*
%TO.P,J101,37,Pin_37*%
%TO.N,/GPIO26*%
X154090000Y-48770000D03*
%TO.P,J101,38,Pin_38*%
%TO.N,/GPIO20{slash}PCM.DIN*%
X154090000Y-46230000D03*
%TO.P,J101,39,Pin_39*%
%TO.N,GND*%
X156630000Y-48770000D03*
%TO.P,J101,40,Pin_40*%
%TO.N,/GPIO21{slash}PCM.DOUT*%
X156630000Y-46230000D03*
%TD*%
D17*
%TO.N,GND*%
X123400000Y-53200000D03*
X131400000Y-56500000D03*
X142300000Y-56700000D03*
X126500000Y-53200000D03*
X104400000Y-84100000D03*
X126400000Y-56500000D03*
X118600000Y-56600000D03*
X137600000Y-45000000D03*
X113100000Y-56400000D03*
X100800000Y-89500000D03*
X103100000Y-86900000D03*
X101900000Y-85100000D03*
X118500000Y-52100000D03*
X131400000Y-54400000D03*
X137700000Y-51900000D03*
X116300000Y-56600000D03*
X133100000Y-53000000D03*
X108900000Y-53700000D03*
X113100000Y-52600000D03*
X136400000Y-56500000D03*
%TO.N,/GPIO2{slash}SDA1*%
X111510000Y-64574700D03*
%TO.N,/GPIO3{slash}SCL1*%
X111500000Y-66000000D03*
%TO.N,/GPIO14{slash}TXD0*%
X121000000Y-87500000D03*
%TO.N,/GPIO15{slash}RXD0*%
X119000000Y-82000000D03*
%TO.N,/GPIO17*%
X127400000Y-52400000D03*
%TO.N,/GPIO18{slash}PCM.CLK*%
X138100000Y-54200000D03*
X125300000Y-44973400D03*
%TO.N,/GPIO22*%
X119900000Y-57900000D03*
%TO.N,/ID_SDA*%
X141400000Y-59600000D03*
%TO.N,/ID_SCL*%
X140010000Y-62000000D03*
%TO.N,/GPIO5*%
X105634931Y-51534931D03*
%TO.N,/GPIO6*%
X143737400Y-53737400D03*
%TO.N,/GPIO26*%
X158900000Y-52200000D03*
D18*
%TO.N,+3.3V*%
X132501000Y-62800000D03*
%TD*%
D19*
%TO.N,/GPIO2{slash}SDA1*%
X111020048Y-58300000D02*
X111210000Y-58300000D01*
X111710000Y-56000000D02*
X111710000Y-56400000D01*
X111510000Y-57100000D02*
X111610000Y-57100000D01*
X111510000Y-57700000D02*
X111020048Y-57700000D01*
X110973942Y-57100000D02*
X111510000Y-57100000D01*
X111210000Y-55300000D02*
X110962393Y-55300000D01*
X111510000Y-56500000D02*
X110973942Y-56500000D01*
X111610000Y-57700000D02*
X111510000Y-57700000D01*
X111610000Y-56500000D02*
X111510000Y-56500000D01*
X111710000Y-57200000D02*
X111710000Y-57600000D01*
X110962393Y-55900000D02*
X111610000Y-55900000D01*
X111510000Y-49370000D02*
X111510000Y-55000000D01*
X110910000Y-48770000D02*
X111510000Y-49370000D01*
X111510000Y-58600000D02*
X111510000Y-64574700D01*
X111710000Y-56000000D02*
G75*
G03*
X111610000Y-55900000I-100000J0D01*
G01*
X111510000Y-58600000D02*
G75*
G03*
X111210000Y-58300000I-300000J0D01*
G01*
X110673900Y-56800000D02*
G75*
G03*
X110973942Y-57100000I300000J0D01*
G01*
X110962393Y-55299993D02*
G75*
G03*
X110662393Y-55600000I7J-300007D01*
G01*
X111020048Y-57700048D02*
G75*
G03*
X110720048Y-58000000I-48J-299952D01*
G01*
X111710000Y-57200000D02*
G75*
G03*
X111610000Y-57100000I-100000J0D01*
G01*
X110973942Y-56500042D02*
G75*
G03*
X110673942Y-56800000I-42J-299958D01*
G01*
X111210000Y-55300000D02*
G75*
G03*
X111510000Y-55000000I0J300000D01*
G01*
X111610000Y-56500000D02*
G75*
G03*
X111710000Y-56400000I0J100000D01*
G01*
X110662400Y-55600000D02*
G75*
G03*
X110962393Y-55900000I300000J0D01*
G01*
X111610000Y-57700000D02*
G75*
G03*
X111710000Y-57600000I0J100000D01*
G01*
X110720000Y-58000000D02*
G75*
G03*
X111020048Y-58300000I300000J0D01*
G01*
%TO.N,/GPIO3{slash}SCL1*%
X113850000Y-63650000D02*
X111500000Y-66000000D01*
X113850000Y-49170000D02*
X113850000Y-63650000D01*
X113450000Y-48770000D02*
X113850000Y-49170000D01*
%TO.N,/GPIO14{slash}TXD0*%
X116840000Y-71300000D02*
X116768761Y-71300000D01*
X121000000Y-87360000D02*
X121000000Y-87500000D01*
X116768761Y-71900000D02*
X116840000Y-71900000D01*
X116840000Y-72500000D02*
X116768786Y-72500000D01*
X115990000Y-46230000D02*
X117140000Y-47380000D01*
X117140000Y-73400000D02*
X117140000Y-83500000D01*
X117140000Y-83500000D02*
X121000000Y-87360000D01*
X117140000Y-47380000D02*
X117140000Y-71000000D01*
X116768786Y-73100000D02*
X116840000Y-73100000D01*
X116468800Y-71600000D02*
G75*
G03*
X116768761Y-71900000I300000J0D01*
G01*
X116468800Y-72800000D02*
G75*
G03*
X116768786Y-73100000I300000J0D01*
G01*
X116840000Y-72500000D02*
G75*
G03*
X117140000Y-72200000I0J300000D01*
G01*
X116768786Y-72499986D02*
G75*
G03*
X116468786Y-72800000I14J-300014D01*
G01*
X116840000Y-71300000D02*
G75*
G03*
X117140000Y-71000000I0J300000D01*
G01*
X117140000Y-72200000D02*
G75*
G03*
X116840000Y-71900000I-300000J0D01*
G01*
X116768761Y-71299961D02*
G75*
G03*
X116468761Y-71600000I39J-300039D01*
G01*
X117140000Y-73400000D02*
G75*
G03*
X116840000Y-73100000I-300000J0D01*
G01*
%TO.N,/GPIO15{slash}RXD0*%
X117840000Y-75200000D02*
X118103305Y-75200000D01*
X117540000Y-71900000D02*
X117540000Y-56234539D01*
X117540000Y-80540000D02*
X117540000Y-75500000D01*
X117840000Y-74000000D02*
X118103305Y-74000000D01*
X117840000Y-72800000D02*
X118103281Y-72800000D01*
X119000000Y-82000000D02*
X117540000Y-80540000D01*
X119680000Y-54094539D02*
X119680000Y-47380000D01*
X118103305Y-73400000D02*
X117840000Y-73400000D01*
X118103281Y-72200000D02*
X117840000Y-72200000D01*
X117540000Y-56234539D02*
X119680000Y-54094539D01*
X119680000Y-47380000D02*
X118530000Y-46230000D01*
X118103305Y-74600000D02*
X117840000Y-74600000D01*
X117540000Y-73100000D02*
G75*
G03*
X117840000Y-73400000I300000J0D01*
G01*
X118103281Y-72799981D02*
G75*
G03*
X118403281Y-72500000I19J299981D01*
G01*
X118103305Y-75200005D02*
G75*
G03*
X118403305Y-74900000I-5J300005D01*
G01*
X118403300Y-73700000D02*
G75*
G03*
X118103305Y-73400000I-300000J0D01*
G01*
X118403300Y-74900000D02*
G75*
G03*
X118103305Y-74600000I-300000J0D01*
G01*
X118103305Y-74000005D02*
G75*
G03*
X118403305Y-73700000I-5J300005D01*
G01*
X117840000Y-72800000D02*
G75*
G03*
X117540000Y-73100000I0J-300000D01*
G01*
X117840000Y-75200000D02*
G75*
G03*
X117540000Y-75500000I0J-300000D01*
G01*
X117540000Y-74300000D02*
G75*
G03*
X117840000Y-74600000I300000J0D01*
G01*
X117840000Y-74000000D02*
G75*
G03*
X117540000Y-74300000I0J-300000D01*
G01*
X117540000Y-71900000D02*
G75*
G03*
X117840000Y-72200000I300000J0D01*
G01*
X118403300Y-72500000D02*
G75*
G03*
X118103281Y-72200000I-300000J0D01*
G01*
%TO.N,/GPIO17*%
X127400000Y-52400000D02*
X127400000Y-48393654D01*
X122220000Y-47620000D02*
X121070000Y-48770000D01*
X126626346Y-47620000D02*
X122220000Y-47620000D01*
X127400000Y-48393654D02*
X126626346Y-47620000D01*
%TO.N,/GPIO18{slash}PCM.CLK*%
X129059746Y-44973400D02*
X125300000Y-44973400D01*
X138100000Y-54200000D02*
X137573654Y-54200000D01*
X129840000Y-46640000D02*
X129840000Y-45753654D01*
X129840000Y-45753654D02*
X129059746Y-44973400D01*
X132400000Y-48313654D02*
X131486346Y-47400000D01*
X130600000Y-47400000D02*
X129840000Y-46640000D01*
X132400000Y-49026346D02*
X132400000Y-48313654D01*
X131486346Y-47400000D02*
X130600000Y-47400000D01*
X137573654Y-54200000D02*
X132400000Y-49026346D01*
%TO.N,/GPIO22*%
X126150000Y-48770000D02*
X126150000Y-51650000D01*
X126150000Y-51650000D02*
X119900000Y-57900000D01*
%TO.N,/GPIO23*%
X115240000Y-50005000D02*
X114835000Y-49600000D01*
X114835000Y-45749000D02*
X114835000Y-49600000D01*
X115520000Y-45063700D02*
X114835000Y-45749000D01*
X125236346Y-46230000D02*
X124070046Y-45063700D01*
X115240000Y-59500000D02*
X115240000Y-50005000D01*
X124070046Y-45063700D02*
X115520000Y-45063700D01*
X126150000Y-46230000D02*
X125236346Y-46230000D01*
%TO.N,/GPIO24*%
X128690000Y-46230000D02*
X129840000Y-47380000D01*
X129840000Y-51000661D02*
X138374669Y-59535330D01*
X138374669Y-62630355D02*
X139744314Y-64000000D01*
X138374669Y-59535330D02*
X138374669Y-62630355D01*
X139744314Y-64000000D02*
X155660000Y-64000000D01*
X129840000Y-47380000D02*
X129840000Y-51000661D01*
X155660000Y-64000000D02*
X160160000Y-59500000D01*
%TO.N,/GPIO10{slash}SPI0.MOSI*%
X131230000Y-48770000D02*
X138774669Y-56314669D01*
X138774669Y-56314669D02*
X138774669Y-62464669D01*
X139910000Y-63600000D02*
X153520000Y-63600000D01*
X153520000Y-63600000D02*
X157620000Y-59500000D01*
X138774669Y-62464669D02*
X139910000Y-63600000D01*
%TO.N,/GPIO11{slash}SPI0.SCLK*%
X140149339Y-63200000D02*
X151380000Y-63200000D01*
X136310000Y-48770000D02*
X139174669Y-51634669D01*
X139174669Y-62225331D02*
X140149339Y-63200000D01*
X139174669Y-51634669D02*
X139174669Y-62225331D01*
X151380000Y-63200000D02*
X155080000Y-59500000D01*
%TO.N,/GPIO8{slash}SPI0.CE0*%
X112700000Y-59500000D02*
X112300000Y-59100000D01*
X134236000Y-47440200D02*
X135158000Y-46518000D01*
X130865000Y-44223900D02*
X132500000Y-45858900D01*
X135158000Y-46518000D02*
X135158000Y-46230000D01*
X132500000Y-45858900D02*
X132500000Y-46648400D01*
X135158000Y-46230000D02*
X136310000Y-46230000D01*
X112300000Y-59100000D02*
X112300000Y-45753654D01*
X113829754Y-44223900D02*
X130865000Y-44223900D01*
X112300000Y-45753654D02*
X113829754Y-44223900D01*
X132500000Y-46648400D02*
X133292000Y-47440200D01*
X133292000Y-47440200D02*
X134236000Y-47440200D01*
%TO.N,/ID_SDA*%
X141390000Y-59323537D02*
X141390000Y-48770000D01*
X141400000Y-59600000D02*
X141390000Y-59323537D01*
%TO.N,/ID_SCL*%
X140010000Y-62000000D02*
X140010000Y-47610000D01*
X140010000Y-47610000D02*
X141390000Y-46230000D01*
%TO.N,/GPIO5*%
X105634931Y-51534931D02*
X105634931Y-51465069D01*
X106800000Y-46173654D02*
X109273654Y-43700000D01*
X106800000Y-50300000D02*
X106800000Y-46173654D01*
X142540000Y-45753654D02*
X142540000Y-47380000D01*
X140486346Y-43700000D02*
X142540000Y-45753654D01*
X105634931Y-51465069D02*
X106800000Y-50300000D01*
X142540000Y-47380000D02*
X143930000Y-48770000D01*
X109273654Y-43700000D02*
X140486346Y-43700000D01*
%TO.N,/GPIO6*%
X146470000Y-51004800D02*
X146470000Y-48770000D01*
X143737400Y-53737400D02*
X146470000Y-51004800D01*
%TO.N,/GPIO26*%
X157520000Y-52200000D02*
X154090000Y-48770000D01*
X158900000Y-52200000D02*
X157520000Y-52200000D01*
D20*
%TO.N,+3.3V*%
X100000000Y-58442052D02*
X102221026Y-56221026D01*
X128690000Y-58989000D02*
X132501000Y-62800000D01*
X100000000Y-59500000D02*
X100000000Y-58442052D01*
X108370000Y-50071900D02*
X108370000Y-48770000D01*
X128690000Y-48770000D02*
X128690000Y-58989000D01*
X102221026Y-56221026D02*
X108370000Y-50071900D01*
%TO.N,Net-(J102-Shield)*%
X99162500Y-89500000D02*
X97462500Y-89500000D01*
X97462500Y-89500000D02*
X96462500Y-90500000D01*
X97462500Y-84500000D02*
X96462500Y-83500000D01*
X99162500Y-84500000D02*
X97462500Y-84500000D01*
%TD*%
%TA.AperFunction,Conductor*%
%TO.N,GND*%
G36*
X130345703Y-49351196D02*
G01*
X130360350Y-49366241D01*
X130398096Y-49412235D01*
X130483589Y-49516410D01*
X130544943Y-49566761D01*
X130643550Y-49647685D01*
X130826046Y-49745232D01*
X131024066Y-49805300D01*
X131024065Y-49805300D01*
X131042529Y-49807118D01*
X131230000Y-49825583D01*
X131435934Y-49805300D01*
X131633954Y-49745232D01*
X131648191Y-49737621D01*
X131716592Y-49723379D01*
X131781837Y-49748377D01*
X131794326Y-49759297D01*
X138437851Y-56402822D01*
X138471335Y-56464143D01*
X138474169Y-56490501D01*
X138474169Y-58910497D01*
X138454484Y-58977536D01*
X138401680Y-59023291D01*
X138332522Y-59033235D01*
X138268966Y-59004210D01*
X138262488Y-58998178D01*
X130176819Y-50912509D01*
X130143334Y-50851186D01*
X130140500Y-50824828D01*
X130140500Y-49444909D01*
X130160185Y-49377870D01*
X130212989Y-49332115D01*
X130282147Y-49322171D01*
X130345703Y-49351196D01*
G37*
%TD.AperFunction*%
%TA.AperFunction,Conductor*%
G36*
X112803165Y-49598129D02*
G01*
X112863546Y-49647682D01*
X112863550Y-49647685D01*
X113046046Y-49745232D01*
X113244066Y-49805300D01*
X113244065Y-49805300D01*
X113262964Y-49807161D01*
X113437655Y-49824367D01*
X113502440Y-49850527D01*
X113542799Y-49907561D01*
X113549499Y-49947769D01*
X113549499Y-58576017D01*
X113529814Y-58643056D01*
X113477010Y-58688811D01*
X113407852Y-58698755D01*
X113346835Y-58671871D01*
X113296121Y-58630252D01*
X113286450Y-58622315D01*
X113103954Y-58524768D01*
X112905934Y-58464700D01*
X112905932Y-58464699D01*
X112905934Y-58464699D01*
X112712346Y-58445633D01*
X112647559Y-58419472D01*
X112607200Y-58362438D01*
X112600500Y-58322230D01*
X112600500Y-49693982D01*
X112620185Y-49626943D01*
X112672989Y-49581188D01*
X112742147Y-49571244D01*
X112803165Y-49598129D01*
G37*
%TD.AperFunction*%
%TA.AperFunction,Conductor*%
G36*
X117686434Y-45383885D02*
G01*
X117732189Y-45436689D01*
X117742133Y-45505847D01*
X117715248Y-45566865D01*
X117652317Y-45643546D01*
X117554769Y-45826043D01*
X117494699Y-46024067D01*
X117474417Y-46229999D01*
X117494699Y-46435932D01*
X117514079Y-46499820D01*
X117554768Y-46633954D01*
X117652315Y-46816450D01*
X117672499Y-46841044D01*
X117783589Y-46976410D01*
X117845405Y-47027140D01*
X117943550Y-47107685D01*
X118126046Y-47205232D01*
X118324066Y-47265300D01*
X118324065Y-47265300D01*
X118344347Y-47267297D01*
X118530000Y-47285583D01*
X118735934Y-47265300D01*
X118933954Y-47205232D01*
X118948188Y-47197623D01*
X119016589Y-47183378D01*
X119081834Y-47208375D01*
X119094326Y-47219298D01*
X119343181Y-47468152D01*
X119376666Y-47529475D01*
X119379500Y-47555833D01*
X119379500Y-53918705D01*
X119359815Y-53985744D01*
X119343181Y-54006386D01*
X117652180Y-55697386D01*
X117590857Y-55730871D01*
X117521165Y-55725887D01*
X117465232Y-55684015D01*
X117440815Y-55618551D01*
X117440499Y-55609732D01*
X117440499Y-47442841D01*
X117441095Y-47434258D01*
X117442771Y-47422243D01*
X117442774Y-47422236D01*
X117440991Y-47383678D01*
X117440566Y-47374477D01*
X117440500Y-47371613D01*
X117440500Y-47352159D01*
X117440500Y-47352156D01*
X117440007Y-47349519D01*
X117439017Y-47340987D01*
X117438773Y-47335704D01*
X117437585Y-47310009D01*
X117434784Y-47303666D01*
X117426332Y-47276370D01*
X117425061Y-47269567D01*
X117408738Y-47243205D01*
X117404731Y-47235602D01*
X117392207Y-47207237D01*
X117392206Y-47207236D01*
X117392206Y-47207235D01*
X117387308Y-47202338D01*
X117369563Y-47179934D01*
X117365918Y-47174047D01*
X117341172Y-47155360D01*
X117334694Y-47149723D01*
X116979297Y-46794326D01*
X116945813Y-46733004D01*
X116950797Y-46663312D01*
X116957621Y-46648193D01*
X116965232Y-46633954D01*
X117025300Y-46435934D01*
X117045583Y-46230000D01*
X117025300Y-46024066D01*
X116965232Y-45826046D01*
X116867685Y-45643550D01*
X116867414Y-45643220D01*
X116804752Y-45566865D01*
X116777439Y-45502555D01*
X116789230Y-45433687D01*
X116836383Y-45382127D01*
X116900605Y-45364200D01*
X117619395Y-45364200D01*
X117686434Y-45383885D01*
G37*
%TD.AperFunction*%
%TA.AperFunction,Conductor*%
G36*
X140377552Y-44020185D02*
G01*
X140398194Y-44036819D01*
X141337334Y-44975959D01*
X141370819Y-45037282D01*
X141365835Y-45106974D01*
X141323963Y-45162907D01*
X141261807Y-45187043D01*
X141184067Y-45194699D01*
X140986043Y-45254769D01*
X140942726Y-45277923D01*
X140803550Y-45352315D01*
X140803548Y-45352316D01*
X140803547Y-45352317D01*
X140643589Y-45483589D01*
X140512585Y-45643221D01*
X140512315Y-45643550D01*
X140474319Y-45714634D01*
X140414769Y-45826043D01*
X140354699Y-46024067D01*
X140334417Y-46229999D01*
X140354699Y-46435932D01*
X140374079Y-46499820D01*
X140406349Y-46606201D01*
X140414769Y-46633956D01*
X140422379Y-46648193D01*
X140436620Y-46716596D01*
X140411619Y-46781840D01*
X140400701Y-46794326D01*
X139841948Y-47353080D01*
X139835464Y-47358722D01*
X139825768Y-47366044D01*
X139793559Y-47401374D01*
X139791585Y-47403442D01*
X139777827Y-47417200D01*
X139777822Y-47417206D01*
X139776306Y-47419420D01*
X139770976Y-47426148D01*
X139750083Y-47449066D01*
X139750083Y-47449067D01*
X139747578Y-47455533D01*
X139734259Y-47480802D01*
X139730345Y-47486515D01*
X139730343Y-47486521D01*
X139723244Y-47516699D01*
X139720702Y-47524907D01*
X139709500Y-47553826D01*
X139709500Y-47560751D01*
X139706206Y-47589141D01*
X139704621Y-47595877D01*
X139704621Y-47595881D01*
X139708905Y-47626590D01*
X139709500Y-47635166D01*
X139709500Y-51514164D01*
X139689815Y-51581203D01*
X139637011Y-51626958D01*
X139567853Y-51636902D01*
X139504297Y-51607877D01*
X139472072Y-51564265D01*
X139469462Y-51558356D01*
X139461001Y-51531039D01*
X139459730Y-51524236D01*
X139443407Y-51497874D01*
X139439400Y-51490271D01*
X139426876Y-51461906D01*
X139426875Y-51461905D01*
X139426875Y-51461904D01*
X139421977Y-51457006D01*
X139404232Y-51434603D01*
X139400587Y-51428716D01*
X139375841Y-51410029D01*
X139369363Y-51404392D01*
X137299298Y-49334327D01*
X137265813Y-49273004D01*
X137270797Y-49203312D01*
X137277618Y-49188197D01*
X137285232Y-49173954D01*
X137345300Y-48975934D01*
X137365583Y-48770000D01*
X137345300Y-48564066D01*
X137285232Y-48366046D01*
X137187685Y-48183550D01*
X137105471Y-48083371D01*
X137056410Y-48023589D01*
X136918292Y-47910240D01*
X136896450Y-47892315D01*
X136713954Y-47794768D01*
X136515934Y-47734700D01*
X136515932Y-47734699D01*
X136515934Y-47734699D01*
X136310000Y-47714417D01*
X136104067Y-47734699D01*
X135906043Y-47794769D01*
X135807433Y-47847478D01*
X135723550Y-47892315D01*
X135723548Y-47892316D01*
X135723547Y-47892317D01*
X135563589Y-48023589D01*
X135433004Y-48182710D01*
X135432315Y-48183550D01*
X135412357Y-48220889D01*
X135334769Y-48366043D01*
X135274699Y-48564067D01*
X135254417Y-48770000D01*
X135274699Y-48975932D01*
X135274700Y-48975934D01*
X135334768Y-49173954D01*
X135432315Y-49356450D01*
X135432317Y-49356452D01*
X135563589Y-49516410D01*
X135624943Y-49566761D01*
X135723550Y-49647685D01*
X135906046Y-49745232D01*
X136104066Y-49805300D01*
X136104065Y-49805300D01*
X136122529Y-49807118D01*
X136310000Y-49825583D01*
X136515934Y-49805300D01*
X136713954Y-49745232D01*
X136728191Y-49737621D01*
X136796592Y-49723379D01*
X136861837Y-49748377D01*
X136874327Y-49759298D01*
X138837850Y-51722820D01*
X138871335Y-51784143D01*
X138874169Y-51810501D01*
X138874169Y-53778530D01*
X138854484Y-53845569D01*
X138801680Y-53891324D01*
X138732522Y-53901268D01*
X138668966Y-53872243D01*
X138648119Y-53848970D01*
X138609031Y-53792342D01*
X138590483Y-53765470D01*
X138472240Y-53660717D01*
X138472238Y-53660716D01*
X138472237Y-53660715D01*
X138332365Y-53587303D01*
X138178986Y-53549500D01*
X138178985Y-53549500D01*
X138021015Y-53549500D01*
X138021014Y-53549500D01*
X137867634Y-53587303D01*
X137727761Y-53660715D01*
X137727759Y-53660716D01*
X137672800Y-53709405D01*
X137609567Y-53739125D01*
X137540303Y-53729940D01*
X137502894Y-53704269D01*
X133822665Y-50024040D01*
X133789180Y-49962717D01*
X133794164Y-49893025D01*
X133836036Y-49837092D01*
X133898189Y-49812957D01*
X133975934Y-49805300D01*
X134173954Y-49745232D01*
X134356450Y-49647685D01*
X134516410Y-49516410D01*
X134647685Y-49356450D01*
X134745232Y-49173954D01*
X134805300Y-48975934D01*
X134825583Y-48770000D01*
X134805300Y-48564066D01*
X134745232Y-48366046D01*
X134647685Y-48183550D01*
X134565471Y-48083371D01*
X134516410Y-48023589D01*
X134372180Y-47905224D01*
X134332845Y-47847478D01*
X134330974Y-47777633D01*
X134367161Y-47717865D01*
X134400746Y-47695940D01*
X134408793Y-47692387D01*
X134413666Y-47687511D01*
X134436089Y-47669748D01*
X134441952Y-47666119D01*
X134460646Y-47641361D01*
X134466284Y-47634882D01*
X134467486Y-47633680D01*
X135268955Y-46832036D01*
X135330274Y-46798546D01*
X135399966Y-46803523D01*
X135452498Y-46841044D01*
X135504911Y-46904909D01*
X135563590Y-46976410D01*
X135723550Y-47107685D01*
X135906046Y-47205232D01*
X136104066Y-47265300D01*
X136104065Y-47265300D01*
X136122529Y-47267118D01*
X136310000Y-47285583D01*
X136515934Y-47265300D01*
X136713954Y-47205232D01*
X136896450Y-47107685D01*
X137056410Y-46976410D01*
X137187685Y-46816450D01*
X137285232Y-46633954D01*
X137345300Y-46435934D01*
X137365583Y-46230000D01*
X137794417Y-46230000D01*
X137814699Y-46435932D01*
X137834079Y-46499820D01*
X137874768Y-46633954D01*
X137972315Y-46816450D01*
X137992499Y-46841044D01*
X138103589Y-46976410D01*
X138165405Y-47027140D01*
X138263550Y-47107685D01*
X138446046Y-47205232D01*
X138644066Y-47265300D01*
X138644065Y-47265300D01*
X138662529Y-47267118D01*
X138850000Y-47285583D01*
X139055934Y-47265300D01*
X139253954Y-47205232D01*
X139436450Y-47107685D01*
X139596410Y-46976410D01*
X139727685Y-46816450D01*
X139825232Y-46633954D01*
X139885300Y-46435934D01*
X139905583Y-46230000D01*
X139885300Y-46024066D01*
X139825232Y-45826046D01*
X139727685Y-45643550D01*
X139663367Y-45565178D01*
X139596410Y-45483589D01*
X139450932Y-45364200D01*
X139436450Y-45352315D01*
X139253954Y-45254768D01*
X139055934Y-45194700D01*
X139055932Y-45194699D01*
X139055934Y-45194699D01*
X138850000Y-45174417D01*
X138644067Y-45194699D01*
X138446043Y-45254769D01*
X138402726Y-45277923D01*
X138263550Y-45352315D01*
X138263548Y-45352316D01*
X138263547Y-45352317D01*
X138103589Y-45483589D01*
X137972585Y-45643221D01*
X137972315Y-45643550D01*
X137934319Y-45714634D01*
X137874769Y-45826043D01*
X137814699Y-46024067D01*
X137794417Y-46230000D01*
X137365583Y-46230000D01*
X137345300Y-46024066D01*
X137285232Y-45826046D01*
X137187685Y-45643550D01*
X137123367Y-45565178D01*
X137056410Y-45483589D01*
X136910932Y-45364200D01*
X136896450Y-45352315D01*
X136713954Y-45254768D01*
X136515934Y-45194700D01*
X136515932Y-45194699D01*
X136515934Y-45194699D01*
X136310000Y-45174417D01*
X136104067Y-45194699D01*
X135906043Y-45254769D01*
X135862726Y-45277923D01*
X135723550Y-45352315D01*
X135723548Y-45352316D01*
X135723547Y-45352317D01*
X135563589Y-45483589D01*
X135432585Y-45643221D01*
X135432315Y-45643550D01*
X135394319Y-45714634D01*
X135334769Y-45826043D01*
X135334767Y-45826048D01*
X135330540Y-45839982D01*
X135292240Y-45898419D01*
X135228427Y-45926873D01*
X135197832Y-45924678D01*
X135197649Y-45926659D01*
X135186207Y-45925598D01*
X135146964Y-45929235D01*
X135141241Y-45929500D01*
X135130151Y-45929500D01*
X135119256Y-45931536D01*
X135113588Y-45932327D01*
X135074339Y-45935964D01*
X135065644Y-45938438D01*
X135056008Y-45941668D01*
X135047563Y-45944939D01*
X135014060Y-45965683D01*
X135009058Y-45968470D01*
X134973768Y-45986043D01*
X134969111Y-45989560D01*
X134903748Y-46014246D01*
X134835414Y-45999675D01*
X134785806Y-45950473D01*
X134775733Y-45926598D01*
X134745232Y-45826046D01*
X134647685Y-45643550D01*
X134583367Y-45565178D01*
X134516410Y-45483589D01*
X134370932Y-45364200D01*
X134356450Y-45352315D01*
X134173954Y-45254768D01*
X133975934Y-45194700D01*
X133975932Y-45194699D01*
X133975934Y-45194699D01*
X133788463Y-45176235D01*
X133770000Y-45174417D01*
X133769999Y-45174417D01*
X133564067Y-45194699D01*
X133366043Y-45254769D01*
X133322726Y-45277923D01*
X133183550Y-45352315D01*
X133183548Y-45352316D01*
X133183547Y-45352317D01*
X133023589Y-45483590D01*
X132899433Y-45634875D01*
X132841688Y-45674209D01*
X132771843Y-45676080D01*
X132728852Y-45655163D01*
X132701171Y-45634259D01*
X132694687Y-45628616D01*
X131278252Y-44212181D01*
X131244767Y-44150858D01*
X131249751Y-44081166D01*
X131291623Y-44025233D01*
X131357087Y-44000816D01*
X131365933Y-44000500D01*
X140310513Y-44000500D01*
X140377552Y-44020185D01*
G37*
%TD.AperFunction*%
%TA.AperFunction,Conductor*%
G36*
X130756206Y-44544085D02*
G01*
X130776848Y-44560719D01*
X132163181Y-45947052D01*
X132196666Y-46008375D01*
X132199500Y-46034733D01*
X132199500Y-46585540D01*
X132198906Y-46594106D01*
X132197220Y-46606201D01*
X132199433Y-46653925D01*
X132199500Y-46656797D01*
X132199500Y-46676249D01*
X132199996Y-46678900D01*
X132200986Y-46687428D01*
X132202423Y-46718425D01*
X132202424Y-46718429D01*
X132205211Y-46724738D01*
X132213671Y-46752052D01*
X132214938Y-46758831D01*
X132214939Y-46758834D01*
X132231270Y-46785209D01*
X132235275Y-46792806D01*
X132247815Y-46821196D01*
X132247817Y-46821199D01*
X132252694Y-46826075D01*
X132270450Y-46848488D01*
X132274080Y-46854352D01*
X132298846Y-46873054D01*
X132305325Y-46878692D01*
X132653959Y-47227237D01*
X133034051Y-47607233D01*
X133035104Y-47608285D01*
X133040753Y-47614776D01*
X133048040Y-47624426D01*
X133083393Y-47656654D01*
X133085444Y-47658613D01*
X133089248Y-47662416D01*
X133099229Y-47672396D01*
X133099232Y-47672398D01*
X133099233Y-47672399D01*
X133101427Y-47673901D01*
X133108161Y-47679234D01*
X133131067Y-47700116D01*
X133131068Y-47700116D01*
X133131070Y-47700118D01*
X133140836Y-47706165D01*
X133139693Y-47708009D01*
X133183146Y-47741396D01*
X133206741Y-47807161D01*
X133191035Y-47875243D01*
X133161621Y-47910310D01*
X133023590Y-48023589D01*
X132892314Y-48183550D01*
X132892313Y-48183551D01*
X132892107Y-48183938D01*
X132891945Y-48184101D01*
X132888934Y-48188610D01*
X132888077Y-48188038D01*
X132843135Y-48233772D01*
X132774994Y-48249220D01*
X132709319Y-48225375D01*
X132677331Y-48190737D01*
X132668739Y-48176859D01*
X132664731Y-48169255D01*
X132652207Y-48140892D01*
X132652206Y-48140889D01*
X132647309Y-48135992D01*
X132629563Y-48113588D01*
X132625918Y-48107701D01*
X132601172Y-48089014D01*
X132594694Y-48083377D01*
X131743267Y-47231950D01*
X131737624Y-47225465D01*
X131730302Y-47215770D01*
X131694970Y-47183560D01*
X131692919Y-47181602D01*
X131679143Y-47167826D01*
X131676932Y-47166311D01*
X131670199Y-47160978D01*
X131647279Y-47140084D01*
X131640816Y-47137580D01*
X131615538Y-47124256D01*
X131609827Y-47120344D01*
X131609824Y-47120343D01*
X131609825Y-47120343D01*
X131579648Y-47113244D01*
X131571440Y-47110703D01*
X131542519Y-47099500D01*
X131535595Y-47099500D01*
X131507204Y-47096206D01*
X131500465Y-47094621D01*
X131469755Y-47098905D01*
X131461180Y-47099500D01*
X130775833Y-47099500D01*
X130708794Y-47079815D01*
X130688152Y-47063181D01*
X130176819Y-46551847D01*
X130143334Y-46490524D01*
X130140500Y-46464166D01*
X130140500Y-45816493D01*
X130141095Y-45807917D01*
X130142771Y-45795894D01*
X130142773Y-45795890D01*
X130140566Y-45748144D01*
X130140500Y-45745282D01*
X130140500Y-45725813D01*
X130140499Y-45725807D01*
X130140009Y-45723187D01*
X130139016Y-45714634D01*
X130138008Y-45692824D01*
X130137585Y-45683663D01*
X130134788Y-45677330D01*
X130126332Y-45650023D01*
X130125061Y-45643221D01*
X130108738Y-45616859D01*
X130104731Y-45609256D01*
X130092207Y-45580891D01*
X130092206Y-45580890D01*
X130092206Y-45580889D01*
X130087308Y-45575991D01*
X130069563Y-45553588D01*
X130069561Y-45553585D01*
X130065919Y-45547702D01*
X130057641Y-45541451D01*
X130041172Y-45529014D01*
X130034694Y-45523377D01*
X129316668Y-44805351D01*
X129311024Y-44798865D01*
X129303702Y-44789170D01*
X129268370Y-44756960D01*
X129266319Y-44755002D01*
X129252543Y-44741226D01*
X129252542Y-44741225D01*
X129248488Y-44737171D01*
X129250098Y-44735560D01*
X129216639Y-44685823D01*
X129215173Y-44615969D01*
X129251706Y-44556411D01*
X129314639Y-44526059D01*
X129334857Y-44524400D01*
X130689167Y-44524400D01*
X130756206Y-44544085D01*
G37*
%TD.AperFunction*%
%TA.AperFunction,Conductor*%
G36*
X120226434Y-45383885D02*
G01*
X120272189Y-45436689D01*
X120282133Y-45505847D01*
X120255248Y-45566865D01*
X120192317Y-45643546D01*
X120094769Y-45826043D01*
X120034699Y-46024067D01*
X120014417Y-46230000D01*
X120034699Y-46435932D01*
X120054079Y-46499820D01*
X120094768Y-46633954D01*
X120192315Y-46816450D01*
X120212499Y-46841044D01*
X120323589Y-46976410D01*
X120385405Y-47027140D01*
X120483550Y-47107685D01*
X120666046Y-47205232D01*
X120864066Y-47265300D01*
X120864065Y-47265300D01*
X120882529Y-47267118D01*
X121070000Y-47285583D01*
X121275934Y-47265300D01*
X121473954Y-47205232D01*
X121656450Y-47107685D01*
X121816410Y-46976410D01*
X121947685Y-46816450D01*
X122045232Y-46633954D01*
X122105300Y-46435934D01*
X122125583Y-46230000D01*
X122105300Y-46024066D01*
X122045232Y-45826046D01*
X121947685Y-45643550D01*
X121947414Y-45643220D01*
X121884752Y-45566865D01*
X121857439Y-45502555D01*
X121869230Y-45433687D01*
X121916383Y-45382127D01*
X121980605Y-45364200D01*
X123894213Y-45364200D01*
X123961252Y-45383885D01*
X123981894Y-45400519D01*
X124979424Y-46398049D01*
X124985067Y-46404533D01*
X124992387Y-46414226D01*
X124992388Y-46414228D01*
X125012740Y-46432781D01*
X125027721Y-46446439D01*
X125029769Y-46448394D01*
X125043549Y-46462174D01*
X125045759Y-46463688D01*
X125052489Y-46469018D01*
X125075413Y-46489916D01*
X125081214Y-46492163D01*
X125081874Y-46492419D01*
X125106984Y-46505627D01*
X125107299Y-46505843D01*
X125151572Y-46559894D01*
X125156054Y-46572264D01*
X125174767Y-46633953D01*
X125174769Y-46633956D01*
X125272315Y-46816450D01*
X125292499Y-46841044D01*
X125403589Y-46976410D01*
X125553754Y-47099646D01*
X125593089Y-47157392D01*
X125594960Y-47227237D01*
X125558773Y-47287005D01*
X125496017Y-47317721D01*
X125475090Y-47319500D01*
X122282849Y-47319500D01*
X122274274Y-47318905D01*
X122262239Y-47317226D01*
X122262236Y-47317226D01*
X122240010Y-47318253D01*
X122214478Y-47319434D01*
X122211615Y-47319500D01*
X122192156Y-47319500D01*
X122189521Y-47319992D01*
X122180994Y-47320981D01*
X122150009Y-47322414D01*
X122150006Y-47322415D01*
X122143668Y-47325214D01*
X122116379Y-47333664D01*
X122109572Y-47334936D01*
X122109566Y-47334939D01*
X122083202Y-47351261D01*
X122075603Y-47355266D01*
X122047237Y-47367792D01*
X122042336Y-47372693D01*
X122019942Y-47390431D01*
X122014048Y-47394080D01*
X121995359Y-47418827D01*
X121989718Y-47425310D01*
X121634326Y-47780701D01*
X121573003Y-47814186D01*
X121503311Y-47809202D01*
X121488193Y-47802379D01*
X121473956Y-47794769D01*
X121473955Y-47794768D01*
X121473954Y-47794768D01*
X121275934Y-47734700D01*
X121275932Y-47734699D01*
X121275934Y-47734699D01*
X121070000Y-47714417D01*
X120864067Y-47734699D01*
X120666043Y-47794769D01*
X120567433Y-47847478D01*
X120483550Y-47892315D01*
X120483548Y-47892316D01*
X120483547Y-47892317D01*
X120323589Y-48023589D01*
X120200354Y-48173754D01*
X120142608Y-48213089D01*
X120072763Y-48214960D01*
X120012995Y-48178773D01*
X119982279Y-48116017D01*
X119980500Y-48095090D01*
X119980500Y-47442845D01*
X119981095Y-47434269D01*
X119982772Y-47422241D01*
X119982774Y-47422236D01*
X119980566Y-47374477D01*
X119980500Y-47371614D01*
X119980500Y-47352159D01*
X119980500Y-47352156D01*
X119980007Y-47349519D01*
X119979017Y-47340987D01*
X119978773Y-47335704D01*
X119977585Y-47310009D01*
X119974784Y-47303666D01*
X119966332Y-47276370D01*
X119965061Y-47269567D01*
X119948738Y-47243205D01*
X119944731Y-47235602D01*
X119932207Y-47207237D01*
X119932206Y-47207236D01*
X119932206Y-47207235D01*
X119927308Y-47202338D01*
X119909563Y-47179934D01*
X119905918Y-47174047D01*
X119881172Y-47155360D01*
X119874694Y-47149723D01*
X119519297Y-46794326D01*
X119485813Y-46733004D01*
X119490797Y-46663312D01*
X119497621Y-46648193D01*
X119505232Y-46633954D01*
X119565300Y-46435934D01*
X119585583Y-46230000D01*
X119565300Y-46024066D01*
X119505232Y-45826046D01*
X119407685Y-45643550D01*
X119407414Y-45643220D01*
X119344752Y-45566865D01*
X119317439Y-45502555D01*
X119329230Y-45433687D01*
X119376383Y-45382127D01*
X119440605Y-45364200D01*
X120159395Y-45364200D01*
X120226434Y-45383885D01*
G37*
%TD.AperFunction*%
%TA.AperFunction,Conductor*%
G36*
X115476619Y-44544085D02*
G01*
X115522374Y-44596889D01*
X115532318Y-44666047D01*
X115503293Y-44729603D01*
X115459683Y-44761827D01*
X115443639Y-44768914D01*
X115416328Y-44777374D01*
X115409568Y-44778637D01*
X115409565Y-44778639D01*
X115383167Y-44794982D01*
X115375581Y-44798982D01*
X115347180Y-44811531D01*
X115342311Y-44816402D01*
X115319897Y-44834159D01*
X115314050Y-44837779D01*
X115314047Y-44837782D01*
X115295342Y-44862550D01*
X115289710Y-44869023D01*
X114666879Y-45492129D01*
X114660386Y-45497780D01*
X114650775Y-45505038D01*
X114618550Y-45540387D01*
X114616584Y-45542446D01*
X114602781Y-45556256D01*
X114602777Y-45556261D01*
X114601278Y-45558449D01*
X114595947Y-45565178D01*
X114575084Y-45588065D01*
X114575082Y-45588068D01*
X114572561Y-45594576D01*
X114559255Y-45619827D01*
X114555318Y-45625577D01*
X114555315Y-45625583D01*
X114548233Y-45655722D01*
X114545688Y-45663945D01*
X114534500Y-45692824D01*
X114534500Y-45699797D01*
X114531213Y-45728159D01*
X114529617Y-45734947D01*
X114529617Y-45734950D01*
X114533902Y-45765616D01*
X114534499Y-45774204D01*
X114534500Y-48088997D01*
X114514815Y-48156036D01*
X114462012Y-48201791D01*
X114392853Y-48211735D01*
X114329297Y-48182710D01*
X114314647Y-48167662D01*
X114196410Y-48023590D01*
X114115747Y-47957392D01*
X114036450Y-47892315D01*
X113853954Y-47794768D01*
X113655934Y-47734700D01*
X113655932Y-47734699D01*
X113655934Y-47734699D01*
X113450000Y-47714417D01*
X113244067Y-47734699D01*
X113046043Y-47794769D01*
X112863546Y-47892317D01*
X112803163Y-47941872D01*
X112738853Y-47969184D01*
X112669985Y-47957392D01*
X112618426Y-47910240D01*
X112600499Y-47846021D01*
X112600499Y-45929486D01*
X112620184Y-45862448D01*
X112636818Y-45841806D01*
X113917906Y-44560719D01*
X113979229Y-44527234D01*
X114005587Y-44524400D01*
X115409580Y-44524400D01*
X115476619Y-44544085D01*
G37*
%TD.AperFunction*%
%TA.AperFunction,Conductor*%
G36*
X169892539Y-40070185D02*
G01*
X169938294Y-40122989D01*
X169949500Y-40174500D01*
X169949500Y-99825500D01*
X169929815Y-99892539D01*
X169877011Y-99938294D01*
X169825500Y-99949500D01*
X95174500Y-99949500D01*
X95107461Y-99929815D01*
X95061706Y-99877011D01*
X95050500Y-99825500D01*
X95050500Y-96945037D01*
X112598719Y-96945037D01*
X112598719Y-99156619D01*
X122881730Y-99156619D01*
X122881730Y-96945037D01*
X112598719Y-96945037D01*
X95050500Y-96945037D01*
X95050500Y-96097343D01*
X143949500Y-96097343D01*
X143985274Y-96288714D01*
X143985275Y-96288716D01*
X144055600Y-96470248D01*
X144055604Y-96470257D01*
X144158090Y-96635778D01*
X144158092Y-96635780D01*
X144289248Y-96779652D01*
X144370076Y-96840690D01*
X144444614Y-96896979D01*
X144513452Y-96931256D01*
X144618879Y-96983753D01*
X144618883Y-96983754D01*
X144618890Y-96983758D01*
X144806144Y-97037037D01*
X144999999Y-97055000D01*
X145000000Y-97055000D01*
X145000001Y-97055000D01*
X145096928Y-97046018D01*
X145193856Y-97037037D01*
X145381110Y-96983758D01*
X145555386Y-96896979D01*
X145710749Y-96779654D01*
X145841908Y-96635780D01*
X145944397Y-96470254D01*
X146014726Y-96288714D01*
X146050500Y-96097343D01*
X146050500Y-96000000D01*
X146050500Y-95983592D01*
X146050500Y-80989955D01*
X146050500Y-80989954D01*
X146050500Y-80902657D01*
X146014726Y-80711286D01*
X145944397Y-80529746D01*
X145908943Y-80472486D01*
X145841909Y-80364221D01*
X145841907Y-80364219D01*
X145710751Y-80220347D01*
X145555386Y-80103021D01*
X145381120Y-80016246D01*
X145381107Y-80016241D01*
X145193854Y-79962962D01*
X145193855Y-79962962D01*
X145000001Y-79945000D01*
X144999999Y-79945000D01*
X144806144Y-79962962D01*
X144618892Y-80016241D01*
X144618879Y-80016246D01*
X144444613Y-80103021D01*
X144289248Y-80220347D01*
X144158092Y-80364219D01*
X144158090Y-80364221D01*
X144055604Y-80529742D01*
X144055600Y-80529751D01*
X144014191Y-80636642D01*
X143985274Y-80711286D01*
X143949500Y-80902657D01*
X143949500Y-80989954D01*
X143949500Y-80989955D01*
X143949500Y-95983592D01*
X143949500Y-96000000D01*
X143949500Y-96097343D01*
X95050500Y-96097343D01*
X95050500Y-90500003D01*
X95306935Y-90500003D01*
X95327130Y-90679249D01*
X95327131Y-90679254D01*
X95386711Y-90849523D01*
X95482684Y-91002261D01*
X95482684Y-91002262D01*
X95610238Y-91129816D01*
X95762978Y-91225789D01*
X95933244Y-91285368D01*
X95933245Y-91285368D01*
X95933250Y-91285369D01*
X96023746Y-91295565D01*
X96067540Y-91300499D01*
X96067543Y-91300500D01*
X96067546Y-91300500D01*
X96857457Y-91300500D01*
X96857458Y-91300499D01*
X96924604Y-91292934D01*
X96991749Y-91285369D01*
X96991752Y-91285368D01*
X96991755Y-91285368D01*
X97162022Y-91225789D01*
X97314762Y-91129816D01*
X97442316Y-91002262D01*
X97538289Y-90849522D01*
X97597868Y-90679255D01*
X97618065Y-90500000D01*
X97605113Y-90385051D01*
X97597869Y-90320750D01*
X97597868Y-90320745D01*
X97540910Y-90157968D01*
X97537349Y-90088189D01*
X97570272Y-90029331D01*
X97612786Y-89986818D01*
X97674109Y-89953333D01*
X97700466Y-89950500D01*
X98282329Y-89950500D01*
X98349368Y-89970185D01*
X98389716Y-90012501D01*
X98409626Y-90046987D01*
X98409628Y-90046990D01*
X98539802Y-90191564D01*
X98539805Y-90191566D01*
X98539808Y-90191569D01*
X98657852Y-90277333D01*
X98697202Y-90305923D01*
X98730494Y-90320745D01*
X98874929Y-90385051D01*
X99065226Y-90425500D01*
X99259774Y-90425500D01*
X99450071Y-90385051D01*
X99627799Y-90305922D01*
X99785192Y-90191569D01*
X99915370Y-90046992D01*
X100012644Y-89878508D01*
X100072762Y-89693482D01*
X100093098Y-89500000D01*
X100072762Y-89306518D01*
X100012644Y-89121492D01*
X100012643Y-89121491D01*
X100012643Y-89121489D01*
X100012642Y-89121488D01*
X99974710Y-89055789D01*
X99915370Y-88953008D01*
X99864382Y-88896381D01*
X99785197Y-88808435D01*
X99785194Y-88808433D01*
X99785193Y-88808432D01*
X99785192Y-88808431D01*
X99706495Y-88751254D01*
X99627797Y-88694076D01*
X99491348Y-88633326D01*
X99450071Y-88614949D01*
X99450069Y-88614948D01*
X99259774Y-88574500D01*
X99065226Y-88574500D01*
X98874931Y-88614948D01*
X98697202Y-88694076D01*
X98539805Y-88808433D01*
X98539802Y-88808435D01*
X98409628Y-88953009D01*
X98409626Y-88953012D01*
X98389716Y-88987499D01*
X98339150Y-89035715D01*
X98282329Y-89049500D01*
X97491283Y-89049500D01*
X97484344Y-89049110D01*
X97470069Y-89047502D01*
X97445464Y-89044729D01*
X97387011Y-89055789D01*
X97328211Y-89064652D01*
X97320056Y-89067167D01*
X97312030Y-89069975D01*
X97312029Y-89069976D01*
X97312027Y-89069976D01*
X97312024Y-89069978D01*
X97259426Y-89097777D01*
X97205858Y-89123575D01*
X97198808Y-89128380D01*
X97191961Y-89133435D01*
X97170937Y-89154458D01*
X97149913Y-89175483D01*
X97126270Y-89197420D01*
X97106303Y-89215947D01*
X97100513Y-89223208D01*
X97099862Y-89222688D01*
X97090467Y-89234928D01*
X96662216Y-89663181D01*
X96600893Y-89696666D01*
X96574535Y-89699500D01*
X96067539Y-89699500D01*
X95933250Y-89714630D01*
X95933245Y-89714631D01*
X95762976Y-89774211D01*
X95610237Y-89870184D01*
X95482684Y-89997737D01*
X95386711Y-90150476D01*
X95327131Y-90320745D01*
X95327130Y-90320750D01*
X95306935Y-90499996D01*
X95306935Y-90500003D01*
X95050500Y-90500003D01*
X95050500Y-83500003D01*
X95306935Y-83500003D01*
X95327130Y-83679249D01*
X95327131Y-83679254D01*
X95386711Y-83849523D01*
X95473408Y-83987499D01*
X95482684Y-84002262D01*
X95610238Y-84129816D01*
X95762978Y-84225789D01*
X95933245Y-84285367D01*
X95933245Y-84285368D01*
X95933250Y-84285369D01*
X96023746Y-84295565D01*
X96067540Y-84300499D01*
X96067543Y-84300500D01*
X96067546Y-84300500D01*
X96574534Y-84300500D01*
X96641573Y-84320185D01*
X96662215Y-84336819D01*
X97123590Y-84798193D01*
X97128226Y-84803380D01*
X97152621Y-84833970D01*
X97152621Y-84833971D01*
X97201771Y-84867480D01*
X97249618Y-84902793D01*
X97257154Y-84906776D01*
X97264819Y-84910467D01*
X97264827Y-84910472D01*
X97321676Y-84928007D01*
X97321677Y-84928007D01*
X97377797Y-84947645D01*
X97377799Y-84947645D01*
X97377801Y-84947646D01*
X97377802Y-84947646D01*
X97386198Y-84949234D01*
X97394595Y-84950500D01*
X97394598Y-84950500D01*
X97454059Y-84950500D01*
X97513509Y-84952725D01*
X97513509Y-84952724D01*
X97513510Y-84952725D01*
X97513510Y-84952724D01*
X97522742Y-84951685D01*
X97522835Y-84952513D01*
X97538139Y-84950500D01*
X98282329Y-84950500D01*
X98349368Y-84970185D01*
X98389716Y-85012501D01*
X98409626Y-85046987D01*
X98409628Y-85046990D01*
X98539802Y-85191564D01*
X98539805Y-85191566D01*
X98539808Y-85191569D01*
X98657852Y-85277333D01*
X98697202Y-85305923D01*
X98765426Y-85336297D01*
X98874929Y-85385051D01*
X99065226Y-85425500D01*
X99259774Y-85425500D01*
X99450071Y-85385051D01*
X99627799Y-85305922D01*
X99785192Y-85191569D01*
X99915370Y-85046992D01*
X100012644Y-84878508D01*
X100072762Y-84693482D01*
X100093098Y-84500000D01*
X100072762Y-84306518D01*
X100012644Y-84121492D01*
X100012643Y-84121491D01*
X100012643Y-84121489D01*
X100012642Y-84121488D01*
X99978702Y-84062703D01*
X99915370Y-83953008D01*
X99864382Y-83896381D01*
X99785197Y-83808435D01*
X99785194Y-83808433D01*
X99785193Y-83808432D01*
X99785192Y-83808431D01*
X99706495Y-83751254D01*
X99627797Y-83694076D01*
X99491348Y-83633326D01*
X99450071Y-83614949D01*
X99450069Y-83614948D01*
X99259774Y-83574500D01*
X99065226Y-83574500D01*
X98874931Y-83614948D01*
X98697202Y-83694076D01*
X98539805Y-83808433D01*
X98539802Y-83808435D01*
X98409628Y-83953009D01*
X98409626Y-83953012D01*
X98389716Y-83987499D01*
X98339150Y-84035715D01*
X98282329Y-84049500D01*
X97700465Y-84049500D01*
X97633426Y-84029815D01*
X97612784Y-84013181D01*
X97570270Y-83970667D01*
X97536785Y-83909344D01*
X97540910Y-83842031D01*
X97597866Y-83679262D01*
X97597869Y-83679249D01*
X97618065Y-83500003D01*
X97618065Y-83499996D01*
X97597869Y-83320750D01*
X97597868Y-83320745D01*
X97538288Y-83150476D01*
X97442315Y-82997737D01*
X97314762Y-82870184D01*
X97162023Y-82774211D01*
X96991754Y-82714631D01*
X96991749Y-82714630D01*
X96857460Y-82699500D01*
X96857454Y-82699500D01*
X96067546Y-82699500D01*
X96067539Y-82699500D01*
X95933250Y-82714630D01*
X95933245Y-82714631D01*
X95762976Y-82774211D01*
X95610237Y-82870184D01*
X95482684Y-82997737D01*
X95386711Y-83150476D01*
X95327131Y-83320745D01*
X95327130Y-83320750D01*
X95306935Y-83499996D01*
X95306935Y-83500003D01*
X95050500Y-83500003D01*
X95050500Y-75875038D01*
X95566366Y-75875038D01*
X95570610Y-75883852D01*
X95579777Y-75910050D01*
X95581955Y-75919590D01*
X95588054Y-75927238D01*
X95602822Y-75950740D01*
X95602830Y-75950755D01*
X95607068Y-75959556D01*
X95607069Y-75959557D01*
X95614709Y-75965649D01*
X95634346Y-75985286D01*
X95640442Y-75992930D01*
X95640444Y-75992932D01*
X95649247Y-75997171D01*
X95672764Y-76011948D01*
X95680409Y-76018045D01*
X95689943Y-76020221D01*
X95716149Y-76029390D01*
X95724962Y-76033634D01*
X95724963Y-76033634D01*
X104875036Y-76033634D01*
X104875037Y-76033634D01*
X104883849Y-76029390D01*
X104910055Y-76020220D01*
X104919589Y-76018045D01*
X104927234Y-76011948D01*
X104950748Y-75997172D01*
X104959555Y-75992932D01*
X104965647Y-75985291D01*
X104985290Y-75965648D01*
X104992931Y-75959556D01*
X104997171Y-75950749D01*
X105011948Y-75927232D01*
X105018044Y-75919590D01*
X105020219Y-75910056D01*
X105029389Y-75883850D01*
X105033633Y-75875038D01*
X105033633Y-75781230D01*
X105033633Y-75781229D01*
X105033633Y-73823920D01*
X105033633Y-73823919D01*
X105033633Y-73800171D01*
X105033633Y-72691887D01*
X105033633Y-72691886D01*
X105033633Y-72668138D01*
X105033633Y-72643476D01*
X105033632Y-72643470D01*
X105033633Y-71544242D01*
X105033633Y-70427820D01*
X105033633Y-70427819D01*
X105033633Y-70404071D01*
X105033633Y-69861803D01*
X105033633Y-69861802D01*
X105033633Y-69838054D01*
X105033633Y-69154283D01*
X105033633Y-69154282D01*
X105033633Y-69130534D01*
X105033633Y-69130533D01*
X105033633Y-67031720D01*
X105033633Y-67031719D01*
X105033633Y-67007971D01*
X105033633Y-66748712D01*
X105033633Y-66748711D01*
X105033633Y-66724963D01*
X105029389Y-66716150D01*
X105020220Y-66689944D01*
X105018044Y-66680410D01*
X105011947Y-66672765D01*
X104997170Y-66649248D01*
X104992931Y-66640445D01*
X104992929Y-66640443D01*
X104985285Y-66634347D01*
X104965648Y-66614710D01*
X104959556Y-66607070D01*
X104959555Y-66607069D01*
X104959545Y-66607064D01*
X104950739Y-66602823D01*
X104927237Y-66588055D01*
X104919589Y-66581956D01*
X104919586Y-66581955D01*
X104910049Y-66579778D01*
X104883851Y-66570611D01*
X104875037Y-66566367D01*
X104851288Y-66566367D01*
X95818770Y-66566367D01*
X95724962Y-66566367D01*
X95716143Y-66570613D01*
X95689955Y-66579776D01*
X95680413Y-66581954D01*
X95680406Y-66581958D01*
X95672760Y-66588055D01*
X95649262Y-66602820D01*
X95640449Y-66607064D01*
X95640443Y-66607069D01*
X95634345Y-66614716D01*
X95614715Y-66634346D01*
X95607068Y-66640444D01*
X95607063Y-66640450D01*
X95602819Y-66649263D01*
X95588054Y-66672761D01*
X95581957Y-66680407D01*
X95581953Y-66680414D01*
X95579775Y-66689956D01*
X95570612Y-66716144D01*
X95566366Y-66724963D01*
X95566366Y-75875038D01*
X95050500Y-75875038D01*
X95050500Y-60369752D01*
X98949500Y-60369752D01*
X98961131Y-60428229D01*
X98961132Y-60428230D01*
X99005447Y-60494552D01*
X99071769Y-60538867D01*
X99071770Y-60538868D01*
X99130247Y-60550499D01*
X99130250Y-60550500D01*
X99130252Y-60550500D01*
X100869750Y-60550500D01*
X100869751Y-60550499D01*
X100884568Y-60547552D01*
X100928229Y-60538868D01*
X100928229Y-60538867D01*
X100928231Y-60538867D01*
X100994552Y-60494552D01*
X101038867Y-60428231D01*
X101038867Y-60428229D01*
X101038868Y-60428229D01*
X101050499Y-60369752D01*
X101050500Y-60369750D01*
X101050500Y-59500000D01*
X104024417Y-59500000D01*
X104044699Y-59705932D01*
X104044700Y-59705934D01*
X104104768Y-59903954D01*
X104202315Y-60086450D01*
X104202317Y-60086452D01*
X104333589Y-60246410D01*
X104393165Y-60295302D01*
X104493550Y-60377685D01*
X104676046Y-60475232D01*
X104874066Y-60535300D01*
X104874065Y-60535300D01*
X104894347Y-60537297D01*
X105080000Y-60555583D01*
X105285934Y-60535300D01*
X105483954Y-60475232D01*
X105666450Y-60377685D01*
X105826410Y-60246410D01*
X105957685Y-60086450D01*
X106055232Y-59903954D01*
X106115300Y-59705934D01*
X106135583Y-59500000D01*
X106564417Y-59500000D01*
X106584699Y-59705932D01*
X106584700Y-59705934D01*
X106644768Y-59903954D01*
X106742315Y-60086450D01*
X106742317Y-60086452D01*
X106873589Y-60246410D01*
X106933165Y-60295302D01*
X107033550Y-60377685D01*
X107216046Y-60475232D01*
X107414066Y-60535300D01*
X107414065Y-60535300D01*
X107432529Y-60537118D01*
X107620000Y-60555583D01*
X107825934Y-60535300D01*
X108023954Y-60475232D01*
X108206450Y-60377685D01*
X108366410Y-60246410D01*
X108497685Y-60086450D01*
X108595232Y-59903954D01*
X108655300Y-59705934D01*
X108675583Y-59500000D01*
X108655300Y-59294066D01*
X108595232Y-59096046D01*
X108497685Y-58913550D01*
X108385943Y-58777391D01*
X108366410Y-58753589D01*
X108216121Y-58630252D01*
X108206450Y-58622315D01*
X108023954Y-58524768D01*
X107825934Y-58464700D01*
X107825932Y-58464699D01*
X107825934Y-58464699D01*
X107632346Y-58445633D01*
X107620000Y-58444417D01*
X107619999Y-58444417D01*
X107414067Y-58464699D01*
X107250835Y-58514215D01*
X107216050Y-58524767D01*
X107216043Y-58524769D01*
X107167905Y-58550500D01*
X107033550Y-58622315D01*
X107033548Y-58622316D01*
X107033547Y-58622317D01*
X106873589Y-58753589D01*
X106742317Y-58913547D01*
X106742315Y-58913550D01*
X106703643Y-58985898D01*
X106644769Y-59096043D01*
X106584699Y-59294067D01*
X106564417Y-59500000D01*
X106135583Y-59500000D01*
X106115300Y-59294066D01*
X106055232Y-59096046D01*
X105957685Y-58913550D01*
X105845943Y-58777391D01*
X105826410Y-58753589D01*
X105676121Y-58630252D01*
X105666450Y-58622315D01*
X105483954Y-58524768D01*
X105285934Y-58464700D01*
X105285932Y-58464699D01*
X105285934Y-58464699D01*
X105080000Y-58444417D01*
X104874067Y-58464699D01*
X104710835Y-58514215D01*
X104676050Y-58524767D01*
X104676043Y-58524769D01*
X104627905Y-58550500D01*
X104493550Y-58622315D01*
X104493548Y-58622316D01*
X104493547Y-58622317D01*
X104333589Y-58753589D01*
X104202317Y-58913547D01*
X104202315Y-58913550D01*
X104163643Y-58985898D01*
X104104769Y-59096043D01*
X104044699Y-59294067D01*
X104024417Y-59500000D01*
X101050500Y-59500000D01*
X101050500Y-58630249D01*
X101050499Y-58630247D01*
X101038868Y-58571770D01*
X101038867Y-58571769D01*
X100994552Y-58505447D01*
X100928230Y-58461132D01*
X100897017Y-58454923D01*
X100835106Y-58422537D01*
X100800533Y-58361821D01*
X100804274Y-58292051D01*
X100833525Y-58245629D01*
X102481357Y-56597796D01*
X102481362Y-56597793D01*
X102491566Y-56587588D01*
X102491568Y-56587588D01*
X102550948Y-56528207D01*
X102563451Y-56515704D01*
X102567770Y-56511385D01*
X102567781Y-56511372D01*
X108668209Y-50410793D01*
X108673369Y-50406181D01*
X108703970Y-50381779D01*
X108737481Y-50332626D01*
X108772795Y-50284777D01*
X108772796Y-50284771D01*
X108776792Y-50277212D01*
X108780468Y-50269578D01*
X108780472Y-50269573D01*
X108798009Y-50212715D01*
X108817647Y-50156594D01*
X108817647Y-50156585D01*
X108819234Y-50148202D01*
X108820500Y-50139804D01*
X108820500Y-50080332D01*
X108822724Y-50020884D01*
X108821683Y-50011649D01*
X108822513Y-50011555D01*
X108820499Y-49996252D01*
X108820499Y-49944500D01*
X108840184Y-49877461D01*
X108892988Y-49831706D01*
X108944499Y-49820500D01*
X109239750Y-49820500D01*
X109239751Y-49820499D01*
X109256524Y-49817163D01*
X109298229Y-49808868D01*
X109298229Y-49808867D01*
X109298231Y-49808867D01*
X109364552Y-49764552D01*
X109408867Y-49698231D01*
X109408867Y-49698229D01*
X109408868Y-49698229D01*
X109420499Y-49639752D01*
X109420500Y-49639750D01*
X109420500Y-47900249D01*
X109420499Y-47900247D01*
X109408868Y-47841770D01*
X109408867Y-47841769D01*
X109364552Y-47775447D01*
X109298230Y-47731132D01*
X109298229Y-47731131D01*
X109239752Y-47719500D01*
X109239748Y-47719500D01*
X107500252Y-47719500D01*
X107500247Y-47719500D01*
X107441770Y-47731131D01*
X107441769Y-47731132D01*
X107375447Y-47775447D01*
X107327602Y-47847053D01*
X107273989Y-47891858D01*
X107204664Y-47900565D01*
X107141637Y-47870410D01*
X107104918Y-47810967D01*
X107100500Y-47778162D01*
X107100500Y-46499820D01*
X107120185Y-46432781D01*
X107172989Y-46387026D01*
X107242147Y-46377082D01*
X107305703Y-46406107D01*
X107343160Y-46463823D01*
X107394768Y-46633954D01*
X107492315Y-46816450D01*
X107512499Y-46841044D01*
X107623589Y-46976410D01*
X107685405Y-47027140D01*
X107783550Y-47107685D01*
X107966046Y-47205232D01*
X108164066Y-47265300D01*
X108164065Y-47265300D01*
X108184347Y-47267297D01*
X108370000Y-47285583D01*
X108575934Y-47265300D01*
X108773954Y-47205232D01*
X108956450Y-47107685D01*
X109116410Y-46976410D01*
X109247685Y-46816450D01*
X109345232Y-46633954D01*
X109405300Y-46435934D01*
X109425583Y-46230000D01*
X109405300Y-46024066D01*
X109345232Y-45826046D01*
X109247685Y-45643550D01*
X109183367Y-45565178D01*
X109116410Y-45483589D01*
X108970932Y-45364200D01*
X108956450Y-45352315D01*
X108773954Y-45254768D01*
X108575934Y-45194700D01*
X108575932Y-45194699D01*
X108575934Y-45194699D01*
X108498191Y-45187042D01*
X108433404Y-45160880D01*
X108393045Y-45103845D01*
X108389929Y-45034045D01*
X108422663Y-44975960D01*
X109361805Y-44036819D01*
X109423129Y-44003334D01*
X109449487Y-44000500D01*
X113328820Y-44000500D01*
X113395859Y-44020185D01*
X113441614Y-44072989D01*
X113451558Y-44142147D01*
X113422533Y-44205703D01*
X113416501Y-44212181D01*
X112131948Y-45496734D01*
X112125464Y-45502376D01*
X112115768Y-45509698D01*
X112083559Y-45545028D01*
X112081585Y-45547096D01*
X112067827Y-45560854D01*
X112067822Y-45560860D01*
X112066306Y-45563074D01*
X112060976Y-45569802D01*
X112040083Y-45592720D01*
X112040083Y-45592721D01*
X112037578Y-45599187D01*
X112024259Y-45624456D01*
X112020345Y-45630169D01*
X112015705Y-45640681D01*
X112012458Y-45639247D01*
X111987746Y-45682728D01*
X111925862Y-45715164D01*
X111856265Y-45708994D01*
X111801052Y-45666177D01*
X111792216Y-45652028D01*
X111787685Y-45643550D01*
X111787414Y-45643220D01*
X111656410Y-45483589D01*
X111510932Y-45364200D01*
X111496450Y-45352315D01*
X111313954Y-45254768D01*
X111115934Y-45194700D01*
X111115932Y-45194699D01*
X111115934Y-45194699D01*
X110928463Y-45176235D01*
X110910000Y-45174417D01*
X110909999Y-45174417D01*
X110704067Y-45194699D01*
X110506043Y-45254769D01*
X110462726Y-45277923D01*
X110323550Y-45352315D01*
X110323548Y-45352316D01*
X110323547Y-45352317D01*
X110163589Y-45483589D01*
X110032585Y-45643221D01*
X110032315Y-45643550D01*
X109994319Y-45714634D01*
X109934769Y-45826043D01*
X109874699Y-46024067D01*
X109854417Y-46230000D01*
X109874699Y-46435932D01*
X109894079Y-46499820D01*
X109934768Y-46633954D01*
X110032315Y-46816450D01*
X110052499Y-46841044D01*
X110163589Y-46976410D01*
X110225405Y-47027140D01*
X110323550Y-47107685D01*
X110506046Y-47205232D01*
X110704066Y-47265300D01*
X110704065Y-47265300D01*
X110722529Y-47267118D01*
X110910000Y-47285583D01*
X111115934Y-47265300D01*
X111313954Y-47205232D01*
X111496450Y-47107685D01*
X111656410Y-46976410D01*
X111779647Y-46826244D01*
X111837392Y-46786910D01*
X111907236Y-46785039D01*
X111967005Y-46821226D01*
X111997721Y-46883982D01*
X111999500Y-46904909D01*
X111999500Y-48095090D01*
X111979815Y-48162129D01*
X111927011Y-48207884D01*
X111857853Y-48217828D01*
X111794297Y-48188803D01*
X111779646Y-48173754D01*
X111656410Y-48023589D01*
X111518292Y-47910240D01*
X111496450Y-47892315D01*
X111313954Y-47794768D01*
X111115934Y-47734700D01*
X111115932Y-47734699D01*
X111115934Y-47734699D01*
X110910000Y-47714417D01*
X110704067Y-47734699D01*
X110506043Y-47794769D01*
X110407433Y-47847478D01*
X110323550Y-47892315D01*
X110323548Y-47892316D01*
X110323547Y-47892317D01*
X110163589Y-48023589D01*
X110033004Y-48182710D01*
X110032315Y-48183550D01*
X110012357Y-48220889D01*
X109934769Y-48366043D01*
X109874699Y-48564067D01*
X109854417Y-48769999D01*
X109874699Y-48975932D01*
X109874700Y-48975934D01*
X109934768Y-49173954D01*
X110032315Y-49356450D01*
X110032317Y-49356452D01*
X110163589Y-49516410D01*
X110224943Y-49566761D01*
X110323550Y-49647685D01*
X110506046Y-49745232D01*
X110704066Y-49805300D01*
X110704065Y-49805300D01*
X110724347Y-49807297D01*
X110910000Y-49825583D01*
X111073347Y-49809494D01*
X111141991Y-49822513D01*
X111192702Y-49870577D01*
X111209500Y-49932897D01*
X111209500Y-54875500D01*
X111189815Y-54942539D01*
X111137011Y-54988294D01*
X111085500Y-54999500D01*
X111019981Y-54999500D01*
X111019969Y-54999499D01*
X111013754Y-54999499D01*
X111013730Y-54999492D01*
X110894729Y-54999493D01*
X110894728Y-54999493D01*
X110894726Y-54999494D01*
X110845692Y-55010686D01*
X110762801Y-55029607D01*
X110762792Y-55029611D01*
X110640884Y-55088321D01*
X110535085Y-55172695D01*
X110535082Y-55172697D01*
X110450714Y-55278496D01*
X110392003Y-55400412D01*
X110361893Y-55532333D01*
X110361893Y-55657547D01*
X110361900Y-55657634D01*
X110361900Y-55667664D01*
X110392009Y-55799585D01*
X110450720Y-55921501D01*
X110535090Y-56027300D01*
X110635868Y-56107670D01*
X110676008Y-56164859D01*
X110678857Y-56234671D01*
X110643510Y-56294940D01*
X110635860Y-56301568D01*
X110546655Y-56372696D01*
X110462276Y-56478489D01*
X110403558Y-56600408D01*
X110403557Y-56600410D01*
X110373442Y-56732342D01*
X110373442Y-56748600D01*
X110373400Y-56748743D01*
X110373400Y-56800000D01*
X110373400Y-56867666D01*
X110376106Y-56879520D01*
X110403516Y-56999603D01*
X110403517Y-56999607D01*
X110462240Y-57121532D01*
X110462241Y-57121533D01*
X110546625Y-57227335D01*
X110546626Y-57227336D01*
X110546628Y-57227338D01*
X110548743Y-57229024D01*
X110652439Y-57311704D01*
X110652445Y-57311707D01*
X110654141Y-57312773D01*
X110655004Y-57313748D01*
X110657884Y-57316045D01*
X110657481Y-57316549D01*
X110700433Y-57365108D01*
X110711082Y-57434161D01*
X110682707Y-57498010D01*
X110665474Y-57514722D01*
X110592768Y-57572691D01*
X110592766Y-57572693D01*
X110508383Y-57678491D01*
X110449663Y-57800409D01*
X110419548Y-57932341D01*
X110419548Y-57948594D01*
X110419500Y-57948757D01*
X110419500Y-58067669D01*
X110449618Y-58199607D01*
X110492052Y-58287711D01*
X110503407Y-58356652D01*
X110475688Y-58420788D01*
X110417694Y-58459756D01*
X110368180Y-58464921D01*
X110160000Y-58444417D01*
X109954067Y-58464699D01*
X109790835Y-58514215D01*
X109756050Y-58524767D01*
X109756043Y-58524769D01*
X109707905Y-58550500D01*
X109573550Y-58622315D01*
X109573548Y-58622316D01*
X109573547Y-58622317D01*
X109413589Y-58753589D01*
X109282317Y-58913547D01*
X109282315Y-58913550D01*
X109243643Y-58985897D01*
X109184769Y-59096043D01*
X109124699Y-59294067D01*
X109104417Y-59499999D01*
X109124699Y-59705932D01*
X109124700Y-59705934D01*
X109184768Y-59903954D01*
X109282315Y-60086450D01*
X109282317Y-60086452D01*
X109413589Y-60246410D01*
X109473165Y-60295302D01*
X109573550Y-60377685D01*
X109756046Y-60475232D01*
X109954066Y-60535300D01*
X109954065Y-60535300D01*
X109974347Y-60537297D01*
X110160000Y-60555583D01*
X110365934Y-60535300D01*
X110563954Y-60475232D01*
X110746450Y-60377685D01*
X110906410Y-60246410D01*
X110989646Y-60144985D01*
X111047392Y-60105651D01*
X111117236Y-60103780D01*
X111177005Y-60139967D01*
X111207721Y-60202723D01*
X111209500Y-60223650D01*
X111209500Y-63922804D01*
X111189815Y-63989843D01*
X111143131Y-64032598D01*
X111137761Y-64035416D01*
X111137760Y-64035417D01*
X111019516Y-64140171D01*
X110929781Y-64270175D01*
X110929780Y-64270176D01*
X110873762Y-64417881D01*
X110854722Y-64574699D01*
X110854722Y-64574700D01*
X110873762Y-64731518D01*
X110929780Y-64879222D01*
X110929780Y-64879223D01*
X111019517Y-65009230D01*
X111137760Y-65113983D01*
X111137762Y-65113984D01*
X111253881Y-65174929D01*
X111304094Y-65223513D01*
X111320068Y-65291532D01*
X111296733Y-65357390D01*
X111253882Y-65394521D01*
X111127761Y-65460716D01*
X111009516Y-65565471D01*
X110919781Y-65695475D01*
X110919780Y-65695476D01*
X110863762Y-65843181D01*
X110844722Y-65999999D01*
X110844722Y-66000000D01*
X110863762Y-66156818D01*
X110919780Y-66304523D01*
X111009517Y-66434530D01*
X111127760Y-66539283D01*
X111127762Y-66539284D01*
X111267634Y-66612696D01*
X111421014Y-66650500D01*
X111421015Y-66650500D01*
X111578985Y-66650500D01*
X111732365Y-66612696D01*
X111751182Y-66602820D01*
X111872240Y-66539283D01*
X111990483Y-66434530D01*
X112080220Y-66304523D01*
X112136237Y-66156818D01*
X112155278Y-66000000D01*
X112137618Y-65854562D01*
X112149080Y-65785639D01*
X112173031Y-65751938D01*
X114018059Y-63906910D01*
X114024532Y-63901279D01*
X114034224Y-63893959D01*
X114034228Y-63893958D01*
X114066459Y-63858600D01*
X114068367Y-63856602D01*
X114082174Y-63842797D01*
X114083684Y-63840592D01*
X114089023Y-63833851D01*
X114091368Y-63831278D01*
X114109916Y-63810933D01*
X114112417Y-63804476D01*
X114125750Y-63779184D01*
X114129657Y-63773481D01*
X114136757Y-63743294D01*
X114139296Y-63735092D01*
X114150500Y-63706173D01*
X114150499Y-63699256D01*
X114153796Y-63670846D01*
X114155379Y-63664119D01*
X114151094Y-63633407D01*
X114150500Y-63624833D01*
X114150500Y-60174909D01*
X114170185Y-60107870D01*
X114222989Y-60062115D01*
X114292147Y-60052171D01*
X114355703Y-60081196D01*
X114370350Y-60096241D01*
X114406235Y-60139967D01*
X114493589Y-60246410D01*
X114553165Y-60295302D01*
X114653550Y-60377685D01*
X114836046Y-60475232D01*
X115034066Y-60535300D01*
X115034065Y-60535300D01*
X115052529Y-60537118D01*
X115240000Y-60555583D01*
X115445934Y-60535300D01*
X115643954Y-60475232D01*
X115826450Y-60377685D01*
X115986410Y-60246410D01*
X116117685Y-60086450D01*
X116215232Y-59903954D01*
X116275300Y-59705934D01*
X116295583Y-59500000D01*
X116275300Y-59294066D01*
X116215232Y-59096046D01*
X116117685Y-58913550D01*
X116005943Y-58777391D01*
X115986410Y-58753589D01*
X115836121Y-58630252D01*
X115826450Y-58622315D01*
X115692095Y-58550500D01*
X115643953Y-58524767D01*
X115628504Y-58520081D01*
X115570066Y-58481784D01*
X115541609Y-58417971D01*
X115540500Y-58401421D01*
X115540500Y-50067838D01*
X115541095Y-50059262D01*
X115542771Y-50047239D01*
X115542773Y-50047235D01*
X115540566Y-49999490D01*
X115540500Y-49996627D01*
X115540500Y-49977159D01*
X115540499Y-49977153D01*
X115540009Y-49974533D01*
X115539016Y-49965980D01*
X115538839Y-49962147D01*
X115537585Y-49935008D01*
X115537584Y-49935005D01*
X115535079Y-49924352D01*
X115538894Y-49854587D01*
X115579822Y-49797959D01*
X115644867Y-49772448D01*
X115691780Y-49777305D01*
X115784063Y-49805299D01*
X115784065Y-49805300D01*
X115802529Y-49807118D01*
X115990000Y-49825583D01*
X116195934Y-49805300D01*
X116393954Y-49745232D01*
X116576450Y-49647685D01*
X116619038Y-49612734D01*
X116636835Y-49598129D01*
X116701145Y-49570816D01*
X116770013Y-49582607D01*
X116821573Y-49629760D01*
X116839500Y-49693982D01*
X116839500Y-70875467D01*
X116819815Y-70942506D01*
X116767011Y-70988261D01*
X116715517Y-70999467D01*
X116701097Y-70999468D01*
X116701063Y-70999469D01*
X116687754Y-71002508D01*
X116569142Y-71029594D01*
X116569139Y-71029595D01*
X116447232Y-71088317D01*
X116447226Y-71088320D01*
X116341440Y-71172695D01*
X116257077Y-71278494D01*
X116198368Y-71400416D01*
X116168261Y-71532333D01*
X116168260Y-71532342D01*
X116168261Y-71600000D01*
X116168261Y-71657107D01*
X116168299Y-71657590D01*
X116168299Y-71667652D01*
X116168300Y-71667662D01*
X116198405Y-71799570D01*
X116198406Y-71799572D01*
X116257110Y-71921483D01*
X116263583Y-71929601D01*
X116341468Y-72027277D01*
X116436471Y-72103052D01*
X116476607Y-72160244D01*
X116479451Y-72230056D01*
X116444100Y-72290323D01*
X116436466Y-72296937D01*
X116341482Y-72372689D01*
X116341472Y-72372699D01*
X116257109Y-72478490D01*
X116257106Y-72478495D01*
X116198395Y-72600415D01*
X116168286Y-72732334D01*
X116168286Y-72857273D01*
X116168299Y-72857438D01*
X116168299Y-72867664D01*
X116198406Y-72999573D01*
X116198410Y-72999584D01*
X116257117Y-73121496D01*
X116341484Y-73227294D01*
X116433245Y-73300475D01*
X116447278Y-73311666D01*
X116569191Y-73370381D01*
X116701114Y-73400497D01*
X116701120Y-73400497D01*
X116701142Y-73400500D01*
X116712613Y-73400500D01*
X116715500Y-73400500D01*
X116723369Y-73402810D01*
X116724321Y-73402905D01*
X116724336Y-73402908D01*
X116724300Y-73403084D01*
X116782539Y-73420185D01*
X116828294Y-73472989D01*
X116839500Y-73524500D01*
X116839500Y-83437158D01*
X116838905Y-83445732D01*
X116837227Y-83457763D01*
X116839434Y-83505509D01*
X116839500Y-83508372D01*
X116839500Y-83527845D01*
X116839993Y-83530482D01*
X116840982Y-83539015D01*
X116842415Y-83569991D01*
X116842416Y-83569997D01*
X116845214Y-83576334D01*
X116853664Y-83603620D01*
X116854937Y-83610429D01*
X116854937Y-83610430D01*
X116871260Y-83636793D01*
X116875263Y-83644386D01*
X116887794Y-83672765D01*
X116887795Y-83672766D01*
X116887796Y-83672768D01*
X116892689Y-83677661D01*
X116910435Y-83700065D01*
X116914077Y-83705948D01*
X116914080Y-83705951D01*
X116938826Y-83724639D01*
X116945311Y-83730282D01*
X120360539Y-87145510D01*
X120394024Y-87206833D01*
X120389040Y-87276525D01*
X120388801Y-87277160D01*
X120363763Y-87343180D01*
X120363762Y-87343185D01*
X120344721Y-87499999D01*
X120344721Y-87500000D01*
X120363762Y-87656818D01*
X120419780Y-87804522D01*
X120419780Y-87804523D01*
X120509517Y-87934530D01*
X120627760Y-88039283D01*
X120627762Y-88039284D01*
X120767634Y-88112696D01*
X120921014Y-88150500D01*
X120921015Y-88150500D01*
X121078985Y-88150500D01*
X121232365Y-88112696D01*
X121232364Y-88112696D01*
X121372240Y-88039283D01*
X121490483Y-87934530D01*
X121580220Y-87804523D01*
X121636237Y-87656818D01*
X121655278Y-87500000D01*
X121636237Y-87343182D01*
X121636236Y-87343180D01*
X121610957Y-87276525D01*
X121580220Y-87195477D01*
X121490483Y-87065470D01*
X121372240Y-86960717D01*
X121372238Y-86960716D01*
X121372237Y-86960715D01*
X121232365Y-86887303D01*
X121078986Y-86849500D01*
X121078985Y-86849500D01*
X120965834Y-86849500D01*
X120898795Y-86829815D01*
X120878153Y-86813181D01*
X117476819Y-83411847D01*
X117443334Y-83350524D01*
X117440500Y-83324166D01*
X117440500Y-81164833D01*
X117460185Y-81097794D01*
X117512989Y-81052039D01*
X117582147Y-81042095D01*
X117645703Y-81071120D01*
X117652181Y-81077152D01*
X118326965Y-81751936D01*
X118360450Y-81813259D01*
X118362380Y-81854563D01*
X118344722Y-81999999D01*
X118344721Y-82000000D01*
X118363762Y-82156818D01*
X118419779Y-82304523D01*
X118419780Y-82304523D01*
X118509517Y-82434530D01*
X118627760Y-82539283D01*
X118627762Y-82539284D01*
X118767634Y-82612696D01*
X118921014Y-82650500D01*
X118921015Y-82650500D01*
X119078985Y-82650500D01*
X119232365Y-82612696D01*
X119232364Y-82612695D01*
X119372240Y-82539283D01*
X119490483Y-82434530D01*
X119580220Y-82304523D01*
X119636237Y-82156818D01*
X119655278Y-82000000D01*
X119636237Y-81843182D01*
X119580220Y-81695477D01*
X119490483Y-81565470D01*
X119372240Y-81460717D01*
X119372238Y-81460716D01*
X119372237Y-81460715D01*
X119232365Y-81387303D01*
X119078986Y-81349500D01*
X119078985Y-81349500D01*
X118921015Y-81349500D01*
X118921011Y-81349500D01*
X118871349Y-81361740D01*
X118801547Y-81358670D01*
X118753995Y-81329024D01*
X117876819Y-80451847D01*
X117843334Y-80390524D01*
X117840500Y-80364166D01*
X117840500Y-75624500D01*
X117860185Y-75557461D01*
X117912989Y-75511706D01*
X117964500Y-75500500D01*
X118051923Y-75500500D01*
X118051947Y-75500507D01*
X118051947Y-75500506D01*
X118170928Y-75500504D01*
X118170970Y-75500504D01*
X118302897Y-75470391D01*
X118424815Y-75411676D01*
X118530612Y-75327305D01*
X118614982Y-75221507D01*
X118673694Y-75099587D01*
X118673695Y-75099583D01*
X118703804Y-74967666D01*
X118703805Y-74967658D01*
X118703805Y-74843031D01*
X118703800Y-74842965D01*
X118703800Y-74832342D01*
X118703799Y-74832334D01*
X118673689Y-74700413D01*
X118614979Y-74578500D01*
X118614978Y-74578499D01*
X118614977Y-74578496D01*
X118530608Y-74472699D01*
X118530605Y-74472696D01*
X118530604Y-74472695D01*
X118435623Y-74396950D01*
X118395483Y-74339761D01*
X118392633Y-74269950D01*
X118427979Y-74209680D01*
X118435624Y-74203056D01*
X118530610Y-74127307D01*
X118543442Y-74111216D01*
X118614982Y-74021507D01*
X118673694Y-73899587D01*
X118690964Y-73823920D01*
X118703804Y-73767666D01*
X118703805Y-73767658D01*
X118703805Y-73643031D01*
X118703800Y-73642965D01*
X118703800Y-73632342D01*
X118703799Y-73632334D01*
X118673689Y-73500413D01*
X118614979Y-73378500D01*
X118614978Y-73378499D01*
X118614977Y-73378496D01*
X118530608Y-73272699D01*
X118530605Y-73272696D01*
X118530604Y-73272695D01*
X118473673Y-73227294D01*
X118435599Y-73196930D01*
X118395461Y-73139745D01*
X118392611Y-73069933D01*
X118427957Y-73009663D01*
X118435589Y-73003048D01*
X118530578Y-72927305D01*
X118614952Y-72821508D01*
X118619666Y-72811721D01*
X118673667Y-72699591D01*
X118673666Y-72699591D01*
X118673668Y-72699589D01*
X118703781Y-72567661D01*
X118703781Y-72551382D01*
X118703800Y-72551317D01*
X118703800Y-72432341D01*
X118703800Y-72432337D01*
X118673686Y-72300405D01*
X118667867Y-72288322D01*
X118614971Y-72178485D01*
X118614968Y-72178480D01*
X118530595Y-72072686D01*
X118530592Y-72072683D01*
X118530591Y-72072682D01*
X118473651Y-72027277D01*
X118424788Y-71988312D01*
X118302864Y-71929603D01*
X118302862Y-71929602D01*
X118302859Y-71929601D01*
X118170925Y-71899496D01*
X118170924Y-71899496D01*
X118103261Y-71899500D01*
X117964500Y-71899500D01*
X117897461Y-71879815D01*
X117851706Y-71827011D01*
X117840500Y-71775500D01*
X117840500Y-56410370D01*
X117860185Y-56343331D01*
X117876814Y-56322694D01*
X119848059Y-54351449D01*
X119854532Y-54345818D01*
X119864224Y-54338498D01*
X119864228Y-54338497D01*
X119896459Y-54303139D01*
X119898367Y-54301141D01*
X119912174Y-54287336D01*
X119913684Y-54285131D01*
X119919023Y-54278390D01*
X119921763Y-54275383D01*
X119939916Y-54255472D01*
X119942416Y-54249017D01*
X119955749Y-54223721D01*
X119959656Y-54218020D01*
X119966757Y-54187824D01*
X119969292Y-54179640D01*
X119980500Y-54150712D01*
X119980500Y-54143786D01*
X119983795Y-54115394D01*
X119985378Y-54108662D01*
X119985379Y-54108658D01*
X119981095Y-54077947D01*
X119980500Y-54069372D01*
X119980500Y-49444909D01*
X120000185Y-49377870D01*
X120052989Y-49332115D01*
X120122147Y-49322171D01*
X120185703Y-49351196D01*
X120200350Y-49366241D01*
X120238096Y-49412235D01*
X120323589Y-49516410D01*
X120384943Y-49566761D01*
X120483550Y-49647685D01*
X120666046Y-49745232D01*
X120864066Y-49805300D01*
X120864065Y-49805300D01*
X120884347Y-49807297D01*
X121070000Y-49825583D01*
X121275934Y-49805300D01*
X121473954Y-49745232D01*
X121656450Y-49647685D01*
X121816410Y-49516410D01*
X121947685Y-49356450D01*
X122045232Y-49173954D01*
X122105300Y-48975934D01*
X122125583Y-48770000D01*
X122105300Y-48564066D01*
X122045232Y-48366046D01*
X122037620Y-48351806D01*
X122023379Y-48283404D01*
X122048379Y-48218160D01*
X122059282Y-48205688D01*
X122308154Y-47956816D01*
X122369476Y-47923334D01*
X122395834Y-47920500D01*
X122686018Y-47920500D01*
X122753057Y-47940185D01*
X122798812Y-47992989D01*
X122808756Y-48062147D01*
X122781871Y-48123165D01*
X122732317Y-48183546D01*
X122634769Y-48366043D01*
X122574699Y-48564067D01*
X122554417Y-48770000D01*
X122574699Y-48975932D01*
X122574700Y-48975934D01*
X122634768Y-49173954D01*
X122732315Y-49356450D01*
X122732317Y-49356452D01*
X122863589Y-49516410D01*
X122924943Y-49566761D01*
X123023550Y-49647685D01*
X123206046Y-49745232D01*
X123404066Y-49805300D01*
X123404065Y-49805300D01*
X123422529Y-49807118D01*
X123610000Y-49825583D01*
X123815934Y-49805300D01*
X124013954Y-49745232D01*
X124196450Y-49647685D01*
X124356410Y-49516410D01*
X124487685Y-49356450D01*
X124585232Y-49173954D01*
X124645300Y-48975934D01*
X124665583Y-48770000D01*
X124645300Y-48564066D01*
X124585232Y-48366046D01*
X124487685Y-48183550D01*
X124486996Y-48182710D01*
X124438129Y-48123165D01*
X124410816Y-48058855D01*
X124422607Y-47989987D01*
X124469760Y-47938427D01*
X124533982Y-47920500D01*
X125226018Y-47920500D01*
X125293057Y-47940185D01*
X125338812Y-47992989D01*
X125348756Y-48062147D01*
X125321871Y-48123165D01*
X125272317Y-48183546D01*
X125174769Y-48366043D01*
X125114699Y-48564067D01*
X125094417Y-48770000D01*
X125114699Y-48975932D01*
X125114700Y-48975934D01*
X125174768Y-49173954D01*
X125272315Y-49356450D01*
X125272317Y-49356452D01*
X125403589Y-49516410D01*
X125464943Y-49566761D01*
X125563550Y-49647685D01*
X125746046Y-49745232D01*
X125761496Y-49749918D01*
X125819932Y-49788212D01*
X125848390Y-49852024D01*
X125849500Y-49868578D01*
X125849499Y-51474166D01*
X125829814Y-51541206D01*
X125813180Y-51561847D01*
X120146003Y-57229024D01*
X120084680Y-57262509D01*
X120028648Y-57261740D01*
X119978986Y-57249500D01*
X119978985Y-57249500D01*
X119821015Y-57249500D01*
X119821014Y-57249500D01*
X119667634Y-57287303D01*
X119527762Y-57360715D01*
X119409516Y-57465471D01*
X119319781Y-57595475D01*
X119319780Y-57595476D01*
X119263762Y-57743181D01*
X119244721Y-57899999D01*
X119244721Y-57900000D01*
X119263762Y-58056818D01*
X119317916Y-58199607D01*
X119319780Y-58204523D01*
X119409517Y-58334530D01*
X119527760Y-58439283D01*
X119527762Y-58439284D01*
X119667634Y-58512696D01*
X119821014Y-58550500D01*
X119821015Y-58550500D01*
X119978985Y-58550500D01*
X120132365Y-58512696D01*
X120146177Y-58505447D01*
X120272240Y-58439283D01*
X120390483Y-58334530D01*
X120480220Y-58204523D01*
X120536237Y-58056818D01*
X120555278Y-57900000D01*
X120537618Y-57754562D01*
X120549080Y-57685639D01*
X120573031Y-57651938D01*
X126318059Y-51906910D01*
X126324532Y-51901279D01*
X126334224Y-51893959D01*
X126334228Y-51893958D01*
X126366459Y-51858600D01*
X126368367Y-51856602D01*
X126382174Y-51842797D01*
X126383684Y-51840592D01*
X126389023Y-51833851D01*
X126390489Y-51832242D01*
X126409916Y-51810933D01*
X126412416Y-51804478D01*
X126425750Y-51779183D01*
X126429656Y-51773481D01*
X126429655Y-51773481D01*
X126429657Y-51773480D01*
X126436757Y-51743291D01*
X126439291Y-51735106D01*
X126450500Y-51706173D01*
X126450500Y-51699248D01*
X126453795Y-51670855D01*
X126455378Y-51664123D01*
X126455379Y-51664119D01*
X126451092Y-51633391D01*
X126450499Y-51624848D01*
X126450499Y-49868577D01*
X126470184Y-49801539D01*
X126522988Y-49755784D01*
X126538489Y-49749922D01*
X126553954Y-49745232D01*
X126736450Y-49647685D01*
X126896410Y-49516410D01*
X126896410Y-49516409D01*
X126896835Y-49516061D01*
X126961145Y-49488748D01*
X127030013Y-49500539D01*
X127081573Y-49547691D01*
X127099500Y-49611914D01*
X127099500Y-51748104D01*
X127079815Y-51815143D01*
X127033131Y-51857898D01*
X127027761Y-51860716D01*
X127027760Y-51860717D01*
X126981975Y-51901279D01*
X126909516Y-51965471D01*
X126819781Y-52095475D01*
X126819780Y-52095476D01*
X126763762Y-52243181D01*
X126744721Y-52399999D01*
X126744721Y-52400000D01*
X126763762Y-52556818D01*
X126817118Y-52697503D01*
X126819780Y-52704523D01*
X126909517Y-52834530D01*
X127027760Y-52939283D01*
X127027762Y-52939284D01*
X127167634Y-53012696D01*
X127321014Y-53050500D01*
X127321015Y-53050500D01*
X127478985Y-53050500D01*
X127632365Y-53012696D01*
X127632364Y-53012695D01*
X127772240Y-52939283D01*
X127890483Y-52834530D01*
X127980220Y-52704523D01*
X127999558Y-52653531D01*
X128041736Y-52597829D01*
X128107333Y-52573772D01*
X128175524Y-52588999D01*
X128224657Y-52638675D01*
X128239500Y-52697503D01*
X128239500Y-58960217D01*
X128239110Y-58967155D01*
X128237941Y-58977536D01*
X128234729Y-59006034D01*
X128245788Y-59064479D01*
X128254652Y-59123290D01*
X128257162Y-59131427D01*
X128259978Y-59139475D01*
X128287777Y-59192072D01*
X128313576Y-59245644D01*
X128318383Y-59252696D01*
X128323432Y-59259536D01*
X128323433Y-59259537D01*
X128323434Y-59259538D01*
X128365496Y-59301599D01*
X128405944Y-59345194D01*
X128405945Y-59345194D01*
X128413207Y-59350985D01*
X128412685Y-59351638D01*
X128424930Y-59361034D01*
X131760084Y-62696187D01*
X131793569Y-62757510D01*
X131795204Y-62792500D01*
X131795355Y-62792500D01*
X131795355Y-62795731D01*
X131795499Y-62798813D01*
X131795355Y-62799999D01*
X131795354Y-62799999D01*
X131815859Y-62968869D01*
X131815860Y-62968874D01*
X131876182Y-63127931D01*
X131896836Y-63157853D01*
X131972817Y-63267929D01*
X132078505Y-63361560D01*
X132100150Y-63380736D01*
X132250773Y-63459789D01*
X132250775Y-63459790D01*
X132415944Y-63500500D01*
X132586056Y-63500500D01*
X132751225Y-63459790D01*
X132830692Y-63418081D01*
X132901849Y-63380736D01*
X132901850Y-63380734D01*
X132901852Y-63380734D01*
X133029183Y-63267929D01*
X133125818Y-63127930D01*
X133186140Y-62968872D01*
X133206645Y-62800000D01*
X133186140Y-62631128D01*
X133125818Y-62472070D01*
X133099904Y-62434528D01*
X133091476Y-62422318D01*
X133029183Y-62332071D01*
X132901852Y-62219266D01*
X132901849Y-62219263D01*
X132751226Y-62140210D01*
X132586056Y-62099500D01*
X132488966Y-62099500D01*
X132421927Y-62079815D01*
X132401285Y-62063181D01*
X129176818Y-58838714D01*
X129143333Y-58777391D01*
X129140500Y-58751042D01*
X129140499Y-49794670D01*
X129160184Y-49727635D01*
X129206046Y-49685316D01*
X129276450Y-49647685D01*
X129336834Y-49598129D01*
X129401145Y-49570816D01*
X129470013Y-49582607D01*
X129521573Y-49629760D01*
X129539500Y-49693982D01*
X129539500Y-50937819D01*
X129538905Y-50946393D01*
X129537227Y-50958424D01*
X129539434Y-51006170D01*
X129539500Y-51009033D01*
X129539500Y-51028506D01*
X129539993Y-51031143D01*
X129540982Y-51039676D01*
X129542415Y-51070652D01*
X129542416Y-51070658D01*
X129545214Y-51076995D01*
X129553664Y-51104281D01*
X129554937Y-51111090D01*
X129554937Y-51111091D01*
X129554939Y-51111094D01*
X129569111Y-51133984D01*
X129571260Y-51137454D01*
X129575263Y-51145047D01*
X129587794Y-51173426D01*
X129587795Y-51173427D01*
X129587796Y-51173429D01*
X129592689Y-51178322D01*
X129610435Y-51200726D01*
X129614077Y-51206609D01*
X129614080Y-51206612D01*
X129638826Y-51225300D01*
X129645311Y-51230943D01*
X138037850Y-59623482D01*
X138071335Y-59684805D01*
X138074169Y-59711163D01*
X138074169Y-62567513D01*
X138073574Y-62576087D01*
X138071896Y-62588118D01*
X138074103Y-62635864D01*
X138074169Y-62638727D01*
X138074169Y-62658200D01*
X138074662Y-62660837D01*
X138075651Y-62669370D01*
X138077084Y-62700346D01*
X138077085Y-62700352D01*
X138079883Y-62706689D01*
X138088333Y-62733975D01*
X138089606Y-62740784D01*
X138089606Y-62740785D01*
X138089608Y-62740788D01*
X138099961Y-62757510D01*
X138105929Y-62767148D01*
X138109932Y-62774741D01*
X138122463Y-62803120D01*
X138122464Y-62803121D01*
X138122465Y-62803123D01*
X138127358Y-62808016D01*
X138145104Y-62830420D01*
X138148746Y-62836303D01*
X138148749Y-62836306D01*
X138173495Y-62854994D01*
X138179980Y-62860637D01*
X139487395Y-64168053D01*
X139493037Y-64174537D01*
X139500353Y-64184224D01*
X139500354Y-64184225D01*
X139500356Y-64184228D01*
X139515175Y-64197737D01*
X139535678Y-64216429D01*
X139537726Y-64218384D01*
X139551517Y-64232175D01*
X139552977Y-64233175D01*
X139553733Y-64233693D01*
X139560472Y-64239031D01*
X139583377Y-64259913D01*
X139583379Y-64259914D01*
X139583381Y-64259916D01*
X139589837Y-64262417D01*
X139615121Y-64275743D01*
X139620834Y-64279657D01*
X139635528Y-64283112D01*
X139651012Y-64286755D01*
X139659225Y-64289298D01*
X139688140Y-64300500D01*
X139688141Y-64300500D01*
X139695067Y-64300500D01*
X139723455Y-64303793D01*
X139730196Y-64305379D01*
X139760908Y-64301094D01*
X139769482Y-64300500D01*
X155597159Y-64300500D01*
X155605733Y-64301095D01*
X155617761Y-64302772D01*
X155617761Y-64302771D01*
X155617765Y-64302773D01*
X155660920Y-64300778D01*
X155665510Y-64300566D01*
X155668373Y-64300500D01*
X155687843Y-64300500D01*
X155687844Y-64300500D01*
X155690468Y-64300009D01*
X155699021Y-64299016D01*
X155700245Y-64298959D01*
X155729992Y-64297585D01*
X155736322Y-64294789D01*
X155763629Y-64286332D01*
X155770433Y-64285061D01*
X155796797Y-64268736D01*
X155804392Y-64264733D01*
X155832765Y-64252206D01*
X155837661Y-64247309D01*
X155860069Y-64229561D01*
X155865952Y-64225919D01*
X155884649Y-64201158D01*
X155890266Y-64194703D01*
X159595673Y-60489296D01*
X159656994Y-60455813D01*
X159726686Y-60460797D01*
X159741804Y-60467620D01*
X159750493Y-60472264D01*
X159756046Y-60475232D01*
X159954066Y-60535300D01*
X159954065Y-60535300D01*
X159972529Y-60537118D01*
X160160000Y-60555583D01*
X160365934Y-60535300D01*
X160563954Y-60475232D01*
X160746450Y-60377685D01*
X160906410Y-60246410D01*
X161037685Y-60086450D01*
X161135232Y-59903954D01*
X161195300Y-59705934D01*
X161215583Y-59500000D01*
X161215583Y-59499999D01*
X161644417Y-59499999D01*
X161664699Y-59705932D01*
X161664700Y-59705934D01*
X161724768Y-59903954D01*
X161822315Y-60086450D01*
X161822317Y-60086452D01*
X161953589Y-60246410D01*
X162013165Y-60295302D01*
X162113550Y-60377685D01*
X162296046Y-60475232D01*
X162494066Y-60535300D01*
X162494065Y-60535300D01*
X162512529Y-60537118D01*
X162700000Y-60555583D01*
X162905934Y-60535300D01*
X163103954Y-60475232D01*
X163286450Y-60377685D01*
X163446410Y-60246410D01*
X163577685Y-60086450D01*
X163675232Y-59903954D01*
X163735300Y-59705934D01*
X163755583Y-59500000D01*
X164184417Y-59500000D01*
X164204699Y-59705932D01*
X164204700Y-59705934D01*
X164264768Y-59903954D01*
X164362315Y-60086450D01*
X164362317Y-60086452D01*
X164493589Y-60246410D01*
X164553165Y-60295302D01*
X164653550Y-60377685D01*
X164836046Y-60475232D01*
X165034066Y-60535300D01*
X165034065Y-60535300D01*
X165052529Y-60537118D01*
X165240000Y-60555583D01*
X165445934Y-60535300D01*
X165643954Y-60475232D01*
X165826450Y-60377685D01*
X165986410Y-60246410D01*
X166117685Y-60086450D01*
X166215232Y-59903954D01*
X166275300Y-59705934D01*
X166295583Y-59500000D01*
X166275300Y-59294066D01*
X166215232Y-59096046D01*
X166117685Y-58913550D01*
X166005943Y-58777391D01*
X165986410Y-58753589D01*
X165836121Y-58630252D01*
X165826450Y-58622315D01*
X165643954Y-58524768D01*
X165445934Y-58464700D01*
X165445932Y-58464699D01*
X165445934Y-58464699D01*
X165240000Y-58444417D01*
X165034067Y-58464699D01*
X164870835Y-58514215D01*
X164836050Y-58524767D01*
X164836043Y-58524769D01*
X164787905Y-58550500D01*
X164653550Y-58622315D01*
X164653548Y-58622316D01*
X164653547Y-58622317D01*
X164493589Y-58753589D01*
X164362317Y-58913547D01*
X164362315Y-58913550D01*
X164323643Y-58985897D01*
X164264769Y-59096043D01*
X164204699Y-59294067D01*
X164184417Y-59500000D01*
X163755583Y-59500000D01*
X163735300Y-59294066D01*
X163675232Y-59096046D01*
X163577685Y-58913550D01*
X163465943Y-58777391D01*
X163446410Y-58753589D01*
X163296121Y-58630252D01*
X163286450Y-58622315D01*
X163103954Y-58524768D01*
X162905934Y-58464700D01*
X162905932Y-58464699D01*
X162905934Y-58464699D01*
X162700000Y-58444417D01*
X162494067Y-58464699D01*
X162330835Y-58514215D01*
X162296050Y-58524767D01*
X162296043Y-58524769D01*
X162247905Y-58550500D01*
X162113550Y-58622315D01*
X162113548Y-58622316D01*
X162113547Y-58622317D01*
X161953589Y-58753589D01*
X161822317Y-58913547D01*
X161822315Y-58913550D01*
X161783643Y-58985897D01*
X161724769Y-59096043D01*
X161664699Y-59294067D01*
X161644417Y-59499999D01*
X161215583Y-59499999D01*
X161195300Y-59294066D01*
X161135232Y-59096046D01*
X161037685Y-58913550D01*
X160925943Y-58777391D01*
X160906410Y-58753589D01*
X160756121Y-58630252D01*
X160746450Y-58622315D01*
X160563954Y-58524768D01*
X160365934Y-58464700D01*
X160365932Y-58464699D01*
X160365934Y-58464699D01*
X160160000Y-58444417D01*
X159954067Y-58464699D01*
X159790835Y-58514215D01*
X159756050Y-58524767D01*
X159756043Y-58524769D01*
X159707905Y-58550500D01*
X159573550Y-58622315D01*
X159573548Y-58622316D01*
X159573547Y-58622317D01*
X159413589Y-58753589D01*
X159282317Y-58913547D01*
X159282315Y-58913550D01*
X159243643Y-58985897D01*
X159184769Y-59096043D01*
X159124699Y-59294067D01*
X159104417Y-59499999D01*
X159124699Y-59705932D01*
X159184769Y-59903956D01*
X159192379Y-59918193D01*
X159206620Y-59986596D01*
X159181619Y-60051840D01*
X159170701Y-60064326D01*
X155571848Y-63663181D01*
X155510525Y-63696666D01*
X155484167Y-63699500D01*
X154144833Y-63699500D01*
X154077794Y-63679815D01*
X154032039Y-63627011D01*
X154022095Y-63557853D01*
X154051120Y-63494297D01*
X154057152Y-63487819D01*
X155544972Y-61999999D01*
X157055674Y-60489296D01*
X157116995Y-60455813D01*
X157186687Y-60460797D01*
X157201806Y-60467620D01*
X157216046Y-60475232D01*
X157414066Y-60535300D01*
X157414065Y-60535300D01*
X157432529Y-60537118D01*
X157620000Y-60555583D01*
X157825934Y-60535300D01*
X158023954Y-60475232D01*
X158206450Y-60377685D01*
X158366410Y-60246410D01*
X158497685Y-60086450D01*
X158595232Y-59903954D01*
X158655300Y-59705934D01*
X158675583Y-59500000D01*
X158655300Y-59294066D01*
X158595232Y-59096046D01*
X158497685Y-58913550D01*
X158385943Y-58777391D01*
X158366410Y-58753589D01*
X158216121Y-58630252D01*
X158206450Y-58622315D01*
X158023954Y-58524768D01*
X157825934Y-58464700D01*
X157825932Y-58464699D01*
X157825934Y-58464699D01*
X157632346Y-58445633D01*
X157620000Y-58444417D01*
X157619999Y-58444417D01*
X157414067Y-58464699D01*
X157250835Y-58514215D01*
X157216050Y-58524767D01*
X157216043Y-58524769D01*
X157167905Y-58550500D01*
X157033550Y-58622315D01*
X157033548Y-58622316D01*
X157033547Y-58622317D01*
X156873589Y-58753589D01*
X156742317Y-58913547D01*
X156742315Y-58913550D01*
X156703643Y-58985897D01*
X156644769Y-59096043D01*
X156584699Y-59294067D01*
X156564417Y-59500000D01*
X156584699Y-59705932D01*
X156644769Y-59903956D01*
X156652379Y-59918193D01*
X156666620Y-59986596D01*
X156641619Y-60051840D01*
X156630701Y-60064326D01*
X153431848Y-63263181D01*
X153370525Y-63296666D01*
X153344167Y-63299500D01*
X152004833Y-63299500D01*
X151937794Y-63279815D01*
X151892039Y-63227011D01*
X151882095Y-63157853D01*
X151911120Y-63094297D01*
X151917152Y-63087819D01*
X152532903Y-62472068D01*
X154515673Y-60489296D01*
X154576994Y-60455813D01*
X154646686Y-60460797D01*
X154661804Y-60467620D01*
X154670493Y-60472264D01*
X154676046Y-60475232D01*
X154874066Y-60535300D01*
X154874065Y-60535300D01*
X154892529Y-60537118D01*
X155080000Y-60555583D01*
X155285934Y-60535300D01*
X155483954Y-60475232D01*
X155666450Y-60377685D01*
X155826410Y-60246410D01*
X155957685Y-60086450D01*
X156055232Y-59903954D01*
X156115300Y-59705934D01*
X156135583Y-59500000D01*
X156115300Y-59294066D01*
X156055232Y-59096046D01*
X155957685Y-58913550D01*
X155845943Y-58777391D01*
X155826410Y-58753589D01*
X155676121Y-58630252D01*
X155666450Y-58622315D01*
X155483954Y-58524768D01*
X155285934Y-58464700D01*
X155285932Y-58464699D01*
X155285934Y-58464699D01*
X155080000Y-58444417D01*
X154874067Y-58464699D01*
X154710835Y-58514215D01*
X154676050Y-58524767D01*
X154676043Y-58524769D01*
X154627905Y-58550500D01*
X154493550Y-58622315D01*
X154493548Y-58622316D01*
X154493547Y-58622317D01*
X154333589Y-58753589D01*
X154202317Y-58913547D01*
X154202315Y-58913550D01*
X154163643Y-58985897D01*
X154104769Y-59096043D01*
X154044699Y-59294067D01*
X154024417Y-59500000D01*
X154044699Y-59705932D01*
X154104769Y-59903956D01*
X154112379Y-59918193D01*
X154126620Y-59986596D01*
X154101619Y-60051840D01*
X154090701Y-60064326D01*
X151291848Y-62863181D01*
X151230525Y-62896666D01*
X151204167Y-62899500D01*
X140325172Y-62899500D01*
X140258133Y-62879815D01*
X140237491Y-62863181D01*
X140192836Y-62818526D01*
X140159351Y-62757203D01*
X140164335Y-62687511D01*
X140206207Y-62631578D01*
X140236545Y-62614903D01*
X140242356Y-62612698D01*
X140242365Y-62612696D01*
X140382240Y-62539283D01*
X140500483Y-62434530D01*
X140590220Y-62304523D01*
X140646237Y-62156818D01*
X140665278Y-62000000D01*
X140646237Y-61843182D01*
X140590220Y-61695477D01*
X140500483Y-61565470D01*
X140382240Y-61460717D01*
X140376869Y-61457898D01*
X140326659Y-61409311D01*
X140310500Y-61348104D01*
X140310500Y-60369752D01*
X148949500Y-60369752D01*
X148961131Y-60428229D01*
X148961132Y-60428230D01*
X149005447Y-60494552D01*
X149071769Y-60538867D01*
X149071770Y-60538868D01*
X149130247Y-60550499D01*
X149130250Y-60550500D01*
X149130252Y-60550500D01*
X150869750Y-60550500D01*
X150869751Y-60550499D01*
X150884568Y-60547552D01*
X150928229Y-60538868D01*
X150928229Y-60538867D01*
X150928231Y-60538867D01*
X150994552Y-60494552D01*
X151038867Y-60428231D01*
X151038867Y-60428229D01*
X151038868Y-60428229D01*
X151050499Y-60369752D01*
X151050500Y-60369750D01*
X151050500Y-58630249D01*
X151050499Y-58630247D01*
X151038868Y-58571770D01*
X151038867Y-58571769D01*
X150994552Y-58505447D01*
X150928230Y-58461132D01*
X150928229Y-58461131D01*
X150869752Y-58449500D01*
X150869748Y-58449500D01*
X149130252Y-58449500D01*
X149130247Y-58449500D01*
X149071770Y-58461131D01*
X149071769Y-58461132D01*
X149005447Y-58505447D01*
X148961132Y-58571769D01*
X148961131Y-58571770D01*
X148949500Y-58630247D01*
X148949500Y-60369752D01*
X140310500Y-60369752D01*
X140310500Y-49457095D01*
X140330185Y-49390056D01*
X140382989Y-49344301D01*
X140452147Y-49334357D01*
X140515703Y-49363382D01*
X140530354Y-49378431D01*
X140643589Y-49516410D01*
X140704943Y-49566761D01*
X140803550Y-49647685D01*
X140986046Y-49745232D01*
X141001496Y-49749918D01*
X141059932Y-49788212D01*
X141088390Y-49852024D01*
X141089500Y-49868578D01*
X141089500Y-58953353D01*
X141069815Y-59020392D01*
X141032576Y-59054496D01*
X141033931Y-59056458D01*
X141027760Y-59060717D01*
X140909516Y-59165471D01*
X140819781Y-59295475D01*
X140819780Y-59295476D01*
X140763762Y-59443181D01*
X140744722Y-59599999D01*
X140744722Y-59600000D01*
X140763762Y-59756818D01*
X140819564Y-59903954D01*
X140819780Y-59904523D01*
X140909517Y-60034530D01*
X141027760Y-60139283D01*
X141027762Y-60139284D01*
X141167634Y-60212696D01*
X141321014Y-60250500D01*
X141321015Y-60250500D01*
X141478985Y-60250500D01*
X141632365Y-60212696D01*
X141704361Y-60174909D01*
X141772240Y-60139283D01*
X141890483Y-60034530D01*
X141980220Y-59904523D01*
X142036237Y-59756818D01*
X142055278Y-59600000D01*
X142036237Y-59443182D01*
X142034362Y-59438239D01*
X141999075Y-59345194D01*
X141980220Y-59295477D01*
X141890483Y-59165470D01*
X141772240Y-59060717D01*
X141770490Y-59059798D01*
X141756869Y-59052649D01*
X141706659Y-59004062D01*
X141690500Y-58942855D01*
X141690500Y-53737400D01*
X143082122Y-53737400D01*
X143101162Y-53894218D01*
X143157179Y-54041922D01*
X143157180Y-54041923D01*
X143246917Y-54171930D01*
X143365160Y-54276683D01*
X143365162Y-54276684D01*
X143505034Y-54350096D01*
X143658414Y-54387900D01*
X143658415Y-54387900D01*
X143816385Y-54387900D01*
X143969765Y-54350096D01*
X143977916Y-54345818D01*
X144109640Y-54276683D01*
X144227883Y-54171930D01*
X144317620Y-54041923D01*
X144373637Y-53894218D01*
X144392678Y-53737400D01*
X144375018Y-53591962D01*
X144386480Y-53523039D01*
X144410431Y-53489338D01*
X146638059Y-51261710D01*
X146644532Y-51256079D01*
X146654224Y-51248759D01*
X146654228Y-51248758D01*
X146686459Y-51213400D01*
X146688367Y-51211402D01*
X146702174Y-51197597D01*
X146703684Y-51195392D01*
X146709023Y-51188651D01*
X146718439Y-51178322D01*
X146729916Y-51165733D01*
X146732417Y-51159276D01*
X146745750Y-51133984D01*
X146749657Y-51128281D01*
X146756757Y-51098094D01*
X146759296Y-51089892D01*
X146770500Y-51060973D01*
X146770500Y-51054048D01*
X146773794Y-51025656D01*
X146775379Y-51018919D01*
X146771095Y-50988208D01*
X146770500Y-50979633D01*
X146770500Y-49868578D01*
X146790185Y-49801539D01*
X146842989Y-49755784D01*
X146858488Y-49749923D01*
X146873954Y-49745232D01*
X147056450Y-49647685D01*
X147216410Y-49516410D01*
X147347685Y-49356450D01*
X147445232Y-49173954D01*
X147505300Y-48975934D01*
X147525583Y-48770000D01*
X147954417Y-48770000D01*
X147974699Y-48975932D01*
X147974700Y-48975934D01*
X148034768Y-49173954D01*
X148132315Y-49356450D01*
X148132317Y-49356452D01*
X148263589Y-49516410D01*
X148324943Y-49566761D01*
X148423550Y-49647685D01*
X148606046Y-49745232D01*
X148804066Y-49805300D01*
X148804065Y-49805300D01*
X148824347Y-49807297D01*
X149010000Y-49825583D01*
X149215934Y-49805300D01*
X149413954Y-49745232D01*
X149596450Y-49647685D01*
X149756410Y-49516410D01*
X149887685Y-49356450D01*
X149985232Y-49173954D01*
X150045300Y-48975934D01*
X150065583Y-48770000D01*
X150494417Y-48770000D01*
X150514699Y-48975932D01*
X150514700Y-48975934D01*
X150574768Y-49173954D01*
X150672315Y-49356450D01*
X150672317Y-49356452D01*
X150803589Y-49516410D01*
X150864943Y-49566761D01*
X150963550Y-49647685D01*
X151146046Y-49745232D01*
X151344066Y-49805300D01*
X151344065Y-49805300D01*
X151362529Y-49807118D01*
X151550000Y-49825583D01*
X151755934Y-49805300D01*
X151953954Y-49745232D01*
X152136450Y-49647685D01*
X152296410Y-49516410D01*
X152427685Y-49356450D01*
X152525232Y-49173954D01*
X152585300Y-48975934D01*
X152605583Y-48770000D01*
X153034417Y-48770000D01*
X153054699Y-48975932D01*
X153054700Y-48975934D01*
X153114768Y-49173954D01*
X153212315Y-49356450D01*
X153212317Y-49356452D01*
X153343589Y-49516410D01*
X153404943Y-49566761D01*
X153503550Y-49647685D01*
X153686046Y-49745232D01*
X153884066Y-49805300D01*
X153884065Y-49805300D01*
X153902529Y-49807118D01*
X154090000Y-49825583D01*
X154295934Y-49805300D01*
X154493954Y-49745232D01*
X154508188Y-49737623D01*
X154576589Y-49723378D01*
X154641834Y-49748375D01*
X154654326Y-49759298D01*
X157263081Y-52368053D01*
X157268723Y-52374537D01*
X157276039Y-52384224D01*
X157276040Y-52384225D01*
X157276042Y-52384228D01*
X157293342Y-52399999D01*
X157311364Y-52416429D01*
X157313412Y-52418384D01*
X157327203Y-52432175D01*
X157328663Y-52433175D01*
X157329419Y-52433693D01*
X157336158Y-52439031D01*
X157359063Y-52459913D01*
X157359065Y-52459914D01*
X157359067Y-52459916D01*
X157365523Y-52462417D01*
X157390807Y-52475743D01*
X157396520Y-52479657D01*
X157411214Y-52483112D01*
X157426698Y-52486755D01*
X157434911Y-52489298D01*
X157463826Y-52500500D01*
X157463827Y-52500500D01*
X157470753Y-52500500D01*
X157499141Y-52503793D01*
X157505882Y-52505379D01*
X157536594Y-52501094D01*
X157545168Y-52500500D01*
X158251923Y-52500500D01*
X158318962Y-52520185D01*
X158353972Y-52554059D01*
X158409517Y-52634530D01*
X158527760Y-52739283D01*
X158527762Y-52739284D01*
X158667634Y-52812696D01*
X158821014Y-52850500D01*
X158821015Y-52850500D01*
X158978985Y-52850500D01*
X159132365Y-52812696D01*
X159132365Y-52812695D01*
X159272240Y-52739283D01*
X159390483Y-52634530D01*
X159480220Y-52504523D01*
X159536237Y-52356818D01*
X159555278Y-52200000D01*
X159554286Y-52191825D01*
X159536237Y-52043181D01*
X159508278Y-51969461D01*
X159480220Y-51895477D01*
X159390483Y-51765470D01*
X159272240Y-51660717D01*
X159272238Y-51660716D01*
X159272237Y-51660715D01*
X159132365Y-51587303D01*
X158978986Y-51549500D01*
X158978985Y-51549500D01*
X158821015Y-51549500D01*
X158821014Y-51549500D01*
X158667634Y-51587303D01*
X158527762Y-51660715D01*
X158409516Y-51765471D01*
X158353973Y-51845940D01*
X158299690Y-51889930D01*
X158251923Y-51899500D01*
X157695833Y-51899500D01*
X157628794Y-51879815D01*
X157608152Y-51863181D01*
X155079298Y-49334327D01*
X155045813Y-49273004D01*
X155050797Y-49203312D01*
X155057618Y-49188197D01*
X155065232Y-49173954D01*
X155125300Y-48975934D01*
X155145583Y-48770000D01*
X155125300Y-48564066D01*
X155065232Y-48366046D01*
X154967685Y-48183550D01*
X154885471Y-48083371D01*
X154836410Y-48023589D01*
X154698292Y-47910240D01*
X154676450Y-47892315D01*
X154493954Y-47794768D01*
X154295934Y-47734700D01*
X154295932Y-47734699D01*
X154295934Y-47734699D01*
X154090000Y-47714417D01*
X153884067Y-47734699D01*
X153686043Y-47794769D01*
X153587433Y-47847478D01*
X153503550Y-47892315D01*
X153503548Y-47892316D01*
X153503547Y-47892317D01*
X153343589Y-48023589D01*
X153213004Y-48182710D01*
X153212315Y-48183550D01*
X153192357Y-48220889D01*
X153114769Y-48366043D01*
X153054699Y-48564067D01*
X153034417Y-48770000D01*
X152605583Y-48770000D01*
X152585300Y-48564066D01*
X152525232Y-48366046D01*
X152427685Y-48183550D01*
X152345471Y-48083371D01*
X152296410Y-48023589D01*
X152158292Y-47910240D01*
X152136450Y-47892315D01*
X151953954Y-47794768D01*
X151755934Y-47734700D01*
X151755932Y-47734699D01*
X151755934Y-47734699D01*
X151550000Y-47714417D01*
X151344067Y-47734699D01*
X151146043Y-47794769D01*
X151047433Y-47847478D01*
X150963550Y-47892315D01*
X150963548Y-47892316D01*
X150963547Y-47892317D01*
X150803589Y-48023589D01*
X150673004Y-48182710D01*
X150672315Y-48183550D01*
X150652357Y-48220889D01*
X150574769Y-48366043D01*
X150514699Y-48564067D01*
X150494417Y-48770000D01*
X150065583Y-48770000D01*
X150045300Y-48564066D01*
X149985232Y-48366046D01*
X149887685Y-48183550D01*
X149805471Y-48083371D01*
X149756410Y-48023589D01*
X149618292Y-47910240D01*
X149596450Y-47892315D01*
X149413954Y-47794768D01*
X149215934Y-47734700D01*
X149215932Y-47734699D01*
X149215934Y-47734699D01*
X149010000Y-47714417D01*
X148804067Y-47734699D01*
X148606043Y-47794769D01*
X148507433Y-47847478D01*
X148423550Y-47892315D01*
X148423548Y-47892316D01*
X148423547Y-47892317D01*
X148263589Y-48023589D01*
X148133004Y-48182710D01*
X148132315Y-48183550D01*
X148112357Y-48220889D01*
X148034769Y-48366043D01*
X147974699Y-48564067D01*
X147954417Y-48770000D01*
X147525583Y-48770000D01*
X147505300Y-48564066D01*
X147445232Y-48366046D01*
X147347685Y-48183550D01*
X147265471Y-48083371D01*
X147216410Y-48023589D01*
X147078292Y-47910240D01*
X147056450Y-47892315D01*
X146873954Y-47794768D01*
X146675934Y-47734700D01*
X146675932Y-47734699D01*
X146675934Y-47734699D01*
X146488463Y-47716235D01*
X146470000Y-47714417D01*
X146469999Y-47714417D01*
X146264067Y-47734699D01*
X146066043Y-47794769D01*
X145967433Y-47847478D01*
X145883550Y-47892315D01*
X145883548Y-47892316D01*
X145883547Y-47892317D01*
X145723589Y-48023589D01*
X145593004Y-48182710D01*
X145592315Y-48183550D01*
X145572357Y-48220889D01*
X145494769Y-48366043D01*
X145434699Y-48564067D01*
X145414417Y-48770000D01*
X145434699Y-48975932D01*
X145434700Y-48975934D01*
X145494768Y-49173954D01*
X145592315Y-49356450D01*
X145592317Y-49356452D01*
X145723589Y-49516410D01*
X145784943Y-49566761D01*
X145883550Y-49647685D01*
X146066046Y-49745232D01*
X146081496Y-49749918D01*
X146139932Y-49788212D01*
X146168390Y-49852024D01*
X146169500Y-49868578D01*
X146169500Y-50828965D01*
X146149815Y-50896004D01*
X146133181Y-50916646D01*
X143983403Y-53066424D01*
X143922080Y-53099909D01*
X143866048Y-53099140D01*
X143816386Y-53086900D01*
X143816385Y-53086900D01*
X143658415Y-53086900D01*
X143658414Y-53086900D01*
X143505034Y-53124703D01*
X143365162Y-53198115D01*
X143246916Y-53302871D01*
X143157181Y-53432875D01*
X143157180Y-53432876D01*
X143101162Y-53580581D01*
X143082122Y-53737399D01*
X143082122Y-53737400D01*
X141690500Y-53737400D01*
X141690500Y-49868578D01*
X141710185Y-49801539D01*
X141762989Y-49755784D01*
X141778488Y-49749923D01*
X141793954Y-49745232D01*
X141976450Y-49647685D01*
X142136410Y-49516410D01*
X142267685Y-49356450D01*
X142365232Y-49173954D01*
X142425300Y-48975934D01*
X142445583Y-48770000D01*
X142425300Y-48564066D01*
X142365232Y-48366046D01*
X142267685Y-48183550D01*
X142185471Y-48083371D01*
X142136410Y-48023589D01*
X141998292Y-47910240D01*
X141976450Y-47892315D01*
X141793954Y-47794768D01*
X141595934Y-47734700D01*
X141595932Y-47734699D01*
X141595934Y-47734699D01*
X141408463Y-47716235D01*
X141390000Y-47714417D01*
X141389999Y-47714417D01*
X141184067Y-47734699D01*
X140986043Y-47794769D01*
X140887433Y-47847478D01*
X140803550Y-47892315D01*
X140803548Y-47892316D01*
X140803547Y-47892317D01*
X140643589Y-48023590D01*
X140530353Y-48161569D01*
X140472608Y-48200903D01*
X140402763Y-48202774D01*
X140342995Y-48166586D01*
X140312279Y-48103831D01*
X140310500Y-48082904D01*
X140310500Y-47785832D01*
X140330185Y-47718793D01*
X140346815Y-47698155D01*
X140825672Y-47219297D01*
X140886995Y-47185813D01*
X140956687Y-47190797D01*
X140971805Y-47197620D01*
X140977447Y-47200635D01*
X140984051Y-47204166D01*
X140986046Y-47205232D01*
X141184066Y-47265300D01*
X141184065Y-47265300D01*
X141204347Y-47267297D01*
X141390000Y-47285583D01*
X141595934Y-47265300D01*
X141793954Y-47205232D01*
X141976450Y-47107685D01*
X142036834Y-47058129D01*
X142101145Y-47030816D01*
X142170013Y-47042607D01*
X142221573Y-47089760D01*
X142239500Y-47153982D01*
X142239500Y-47317158D01*
X142238905Y-47325732D01*
X142237227Y-47337763D01*
X142239434Y-47385509D01*
X142239500Y-47388372D01*
X142239500Y-47407845D01*
X142239993Y-47410482D01*
X142240982Y-47419015D01*
X142242415Y-47449991D01*
X142242416Y-47449997D01*
X142245214Y-47456334D01*
X142253664Y-47483620D01*
X142254937Y-47490429D01*
X142254937Y-47490430D01*
X142254939Y-47490433D01*
X142271201Y-47516699D01*
X142271260Y-47516793D01*
X142275263Y-47524386D01*
X142287794Y-47552765D01*
X142287795Y-47552766D01*
X142287796Y-47552768D01*
X142292689Y-47557661D01*
X142310435Y-47580065D01*
X142314077Y-47585948D01*
X142314080Y-47585951D01*
X142338826Y-47604639D01*
X142345311Y-47610282D01*
X142940701Y-48205672D01*
X142974186Y-48266995D01*
X142969202Y-48336687D01*
X142962381Y-48351800D01*
X142954770Y-48366039D01*
X142894699Y-48564067D01*
X142874417Y-48770000D01*
X142894699Y-48975932D01*
X142894700Y-48975934D01*
X142954768Y-49173954D01*
X143052315Y-49356450D01*
X143052317Y-49356452D01*
X143183589Y-49516410D01*
X143244943Y-49566761D01*
X143343550Y-49647685D01*
X143526046Y-49745232D01*
X143724066Y-49805300D01*
X143724065Y-49805300D01*
X143744347Y-49807297D01*
X143930000Y-49825583D01*
X144135934Y-49805300D01*
X144333954Y-49745232D01*
X144516450Y-49647685D01*
X144676410Y-49516410D01*
X144807685Y-49356450D01*
X144905232Y-49173954D01*
X144965300Y-48975934D01*
X144985583Y-48770000D01*
X144965300Y-48564066D01*
X144905232Y-48366046D01*
X144807685Y-48183550D01*
X144725471Y-48083371D01*
X144676410Y-48023589D01*
X144538292Y-47910240D01*
X144516450Y-47892315D01*
X144333954Y-47794768D01*
X144135934Y-47734700D01*
X144135932Y-47734699D01*
X144135934Y-47734699D01*
X143930000Y-47714417D01*
X143724067Y-47734699D01*
X143526039Y-47794770D01*
X143511800Y-47802381D01*
X143443397Y-47816620D01*
X143378154Y-47791616D01*
X143365672Y-47780701D01*
X143130800Y-47545829D01*
X142876819Y-47291847D01*
X142843334Y-47230524D01*
X142840500Y-47204166D01*
X142840500Y-46230000D01*
X145414417Y-46230000D01*
X145434699Y-46435932D01*
X145454079Y-46499820D01*
X145494768Y-46633954D01*
X145592315Y-46816450D01*
X145612499Y-46841044D01*
X145723589Y-46976410D01*
X145785405Y-47027140D01*
X145883550Y-47107685D01*
X146066046Y-47205232D01*
X146264066Y-47265300D01*
X146264065Y-47265300D01*
X146284347Y-47267297D01*
X146470000Y-47285583D01*
X146675934Y-47265300D01*
X146873954Y-47205232D01*
X147056450Y-47107685D01*
X147216410Y-46976410D01*
X147347685Y-46816450D01*
X147445232Y-46633954D01*
X147505300Y-46435934D01*
X147525583Y-46230000D01*
X147525583Y-46229999D01*
X150494417Y-46229999D01*
X150514699Y-46435932D01*
X150534079Y-46499820D01*
X150574768Y-46633954D01*
X150672315Y-46816450D01*
X150692499Y-46841044D01*
X150803589Y-46976410D01*
X150865405Y-47027140D01*
X150963550Y-47107685D01*
X151146046Y-47205232D01*
X151344066Y-47265300D01*
X151344065Y-47265300D01*
X151362529Y-47267118D01*
X151550000Y-47285583D01*
X151755934Y-47265300D01*
X151953954Y-47205232D01*
X152136450Y-47107685D01*
X152296410Y-46976410D01*
X152427685Y-46816450D01*
X152525232Y-46633954D01*
X152585300Y-46435934D01*
X152605583Y-46230000D01*
X152605583Y-46229999D01*
X153034417Y-46229999D01*
X153054699Y-46435932D01*
X153074079Y-46499820D01*
X153114768Y-46633954D01*
X153212315Y-46816450D01*
X153232499Y-46841044D01*
X153343589Y-46976410D01*
X153405405Y-47027140D01*
X153503550Y-47107685D01*
X153686046Y-47205232D01*
X153884066Y-47265300D01*
X153884065Y-47265300D01*
X153902529Y-47267118D01*
X154090000Y-47285583D01*
X154295934Y-47265300D01*
X154493954Y-47205232D01*
X154676450Y-47107685D01*
X154836410Y-46976410D01*
X154967685Y-46816450D01*
X155065232Y-46633954D01*
X155125300Y-46435934D01*
X155145583Y-46230000D01*
X155574417Y-46230000D01*
X155594699Y-46435932D01*
X155614079Y-46499820D01*
X155654768Y-46633954D01*
X155752315Y-46816450D01*
X155772499Y-46841044D01*
X155883589Y-46976410D01*
X155945405Y-47027140D01*
X156043550Y-47107685D01*
X156226046Y-47205232D01*
X156424066Y-47265300D01*
X156424065Y-47265300D01*
X156442529Y-47267118D01*
X156630000Y-47285583D01*
X156835934Y-47265300D01*
X157033954Y-47205232D01*
X157216450Y-47107685D01*
X157376410Y-46976410D01*
X157507685Y-46816450D01*
X157605232Y-46633954D01*
X157665300Y-46435934D01*
X157685583Y-46230000D01*
X157665300Y-46024066D01*
X157605232Y-45826046D01*
X157507685Y-45643550D01*
X157443367Y-45565178D01*
X157376410Y-45483589D01*
X157230932Y-45364200D01*
X157216450Y-45352315D01*
X157033954Y-45254768D01*
X156835934Y-45194700D01*
X156835932Y-45194699D01*
X156835934Y-45194699D01*
X156630000Y-45174417D01*
X156424067Y-45194699D01*
X156226043Y-45254769D01*
X156182726Y-45277923D01*
X156043550Y-45352315D01*
X156043548Y-45352316D01*
X156043547Y-45352317D01*
X155883589Y-45483589D01*
X155752585Y-45643221D01*
X155752315Y-45643550D01*
X155714319Y-45714634D01*
X155654769Y-45826043D01*
X155594699Y-46024067D01*
X155574417Y-46230000D01*
X155145583Y-46230000D01*
X155125300Y-46024066D01*
X155065232Y-45826046D01*
X154967685Y-45643550D01*
X154903367Y-45565178D01*
X154836410Y-45483589D01*
X154690932Y-45364200D01*
X154676450Y-45352315D01*
X154493954Y-45254768D01*
X154295934Y-45194700D01*
X154295932Y-45194699D01*
X154295934Y-45194699D01*
X154090000Y-45174417D01*
X153884067Y-45194699D01*
X153686043Y-45254769D01*
X153642726Y-45277923D01*
X153503550Y-45352315D01*
X153503548Y-45352316D01*
X153503547Y-45352317D01*
X153343589Y-45483589D01*
X153212585Y-45643221D01*
X153212315Y-45643550D01*
X153174319Y-45714634D01*
X153114769Y-45826043D01*
X153054699Y-46024067D01*
X153034417Y-46229999D01*
X152605583Y-46229999D01*
X152585300Y-46024066D01*
X152525232Y-45826046D01*
X152427685Y-45643550D01*
X152363367Y-45565178D01*
X152296410Y-45483589D01*
X152150932Y-45364200D01*
X152136450Y-45352315D01*
X151953954Y-45254768D01*
X151755934Y-45194700D01*
X151755932Y-45194699D01*
X151755934Y-45194699D01*
X151568463Y-45176235D01*
X151550000Y-45174417D01*
X151549999Y-45174417D01*
X151344067Y-45194699D01*
X151146043Y-45254769D01*
X151102726Y-45277923D01*
X150963550Y-45352315D01*
X150963548Y-45352316D01*
X150963547Y-45352317D01*
X150803589Y-45483589D01*
X150672585Y-45643221D01*
X150672315Y-45643550D01*
X150634319Y-45714634D01*
X150574769Y-45826043D01*
X150514699Y-46024067D01*
X150494417Y-46229999D01*
X147525583Y-46229999D01*
X147505300Y-46024066D01*
X147445232Y-45826046D01*
X147347685Y-45643550D01*
X147283367Y-45565178D01*
X147216410Y-45483589D01*
X147070932Y-45364200D01*
X147056450Y-45352315D01*
X146873954Y-45254768D01*
X146675934Y-45194700D01*
X146675932Y-45194699D01*
X146675934Y-45194699D01*
X146470000Y-45174417D01*
X146264067Y-45194699D01*
X146066043Y-45254769D01*
X146022726Y-45277923D01*
X145883550Y-45352315D01*
X145883548Y-45352316D01*
X145883547Y-45352317D01*
X145723589Y-45483589D01*
X145592585Y-45643221D01*
X145592315Y-45643550D01*
X145554319Y-45714634D01*
X145494769Y-45826043D01*
X145434699Y-46024067D01*
X145414417Y-46230000D01*
X142840500Y-46230000D01*
X142840500Y-45816492D01*
X142841095Y-45807916D01*
X142842772Y-45795891D01*
X142842773Y-45795889D01*
X142840566Y-45748144D01*
X142840500Y-45745281D01*
X142840500Y-45725813D01*
X142840499Y-45725807D01*
X142840009Y-45723187D01*
X142839016Y-45714634D01*
X142838755Y-45708994D01*
X142837585Y-45683662D01*
X142834786Y-45677324D01*
X142826333Y-45650027D01*
X142825061Y-45643221D01*
X142822600Y-45639247D01*
X142819512Y-45634259D01*
X142808740Y-45616861D01*
X142804734Y-45609262D01*
X142792206Y-45580888D01*
X142787309Y-45575991D01*
X142769561Y-45553585D01*
X142765919Y-45547702D01*
X142757641Y-45541451D01*
X142741176Y-45529017D01*
X142734692Y-45523374D01*
X141750148Y-44538830D01*
X140743267Y-43531950D01*
X140737624Y-43525465D01*
X140730302Y-43515770D01*
X140694970Y-43483560D01*
X140692919Y-43481602D01*
X140679143Y-43467826D01*
X140676932Y-43466311D01*
X140670199Y-43460978D01*
X140647279Y-43440084D01*
X140640816Y-43437580D01*
X140615538Y-43424256D01*
X140609827Y-43420344D01*
X140609824Y-43420343D01*
X140609825Y-43420343D01*
X140579648Y-43413244D01*
X140571440Y-43410703D01*
X140542519Y-43399500D01*
X140535595Y-43399500D01*
X140507204Y-43396206D01*
X140500465Y-43394621D01*
X140469755Y-43398905D01*
X140461180Y-43399500D01*
X109336495Y-43399500D01*
X109327921Y-43398905D01*
X109315892Y-43397227D01*
X109315889Y-43397227D01*
X109290873Y-43398383D01*
X109268144Y-43399434D01*
X109265281Y-43399500D01*
X109245809Y-43399500D01*
X109244861Y-43399677D01*
X109243169Y-43399993D01*
X109234641Y-43400982D01*
X109205451Y-43402332D01*
X109203662Y-43402415D01*
X109197317Y-43405215D01*
X109170034Y-43413665D01*
X109163222Y-43414938D01*
X109163221Y-43414939D01*
X109136860Y-43431260D01*
X109129261Y-43435265D01*
X109100889Y-43447793D01*
X109095990Y-43452693D01*
X109073596Y-43470431D01*
X109067702Y-43474080D01*
X109049013Y-43498827D01*
X109043372Y-43505310D01*
X106631948Y-45916734D01*
X106625464Y-45922376D01*
X106615768Y-45929698D01*
X106583559Y-45965028D01*
X106581585Y-45967096D01*
X106567827Y-45980854D01*
X106567822Y-45980860D01*
X106566306Y-45983074D01*
X106560976Y-45989802D01*
X106540083Y-46012720D01*
X106540083Y-46012721D01*
X106537578Y-46019187D01*
X106524259Y-46044456D01*
X106520345Y-46050169D01*
X106520343Y-46050175D01*
X106513244Y-46080353D01*
X106510702Y-46088561D01*
X106499500Y-46117480D01*
X106499500Y-46124405D01*
X106496206Y-46152795D01*
X106494621Y-46159531D01*
X106494621Y-46159535D01*
X106498905Y-46190244D01*
X106499500Y-46198820D01*
X106499500Y-50124165D01*
X106479815Y-50191204D01*
X106463181Y-50211846D01*
X105824885Y-50850141D01*
X105763562Y-50883626D01*
X105721638Y-50883052D01*
X105721361Y-50885335D01*
X105713916Y-50884431D01*
X105555946Y-50884431D01*
X105555945Y-50884431D01*
X105402565Y-50922234D01*
X105262693Y-50995646D01*
X105144447Y-51100402D01*
X105054712Y-51230406D01*
X105054711Y-51230407D01*
X104998693Y-51378112D01*
X104979653Y-51534930D01*
X104979653Y-51534931D01*
X104998693Y-51691749D01*
X105043894Y-51810933D01*
X105054711Y-51839454D01*
X105144448Y-51969461D01*
X105262691Y-52074214D01*
X105262693Y-52074215D01*
X105402561Y-52147625D01*
X105407887Y-52149645D01*
X105463588Y-52191825D01*
X105487643Y-52257423D01*
X105472414Y-52325613D01*
X105451594Y-52353266D01*
X101933863Y-55871085D01*
X99701804Y-58103144D01*
X99696617Y-58107779D01*
X99666033Y-58132169D01*
X99666029Y-58132173D01*
X99632519Y-58181323D01*
X99597206Y-58229170D01*
X99593216Y-58236719D01*
X99589528Y-58244378D01*
X99571992Y-58301229D01*
X99549286Y-58366121D01*
X99545690Y-58364863D01*
X99522169Y-58410812D01*
X99461761Y-58445920D01*
X99432181Y-58449500D01*
X99130247Y-58449500D01*
X99071770Y-58461131D01*
X99071769Y-58461132D01*
X99005447Y-58505447D01*
X98961132Y-58571769D01*
X98961131Y-58571770D01*
X98949500Y-58630247D01*
X98949500Y-60369752D01*
X95050500Y-60369752D01*
X95050500Y-40174500D01*
X95070185Y-40107461D01*
X95122989Y-40061706D01*
X95174500Y-40050500D01*
X169825500Y-40050500D01*
X169892539Y-40070185D01*
G37*
%TD.AperFunction*%
%TD*%
M02*
