%TF.GenerationSoftware,KiCad,Pcbnew,7.0.8-7.0.8~ubuntu23.04.1*%
%TF.CreationDate,2023-11-21T11:50:57+00:00*%
%TF.ProjectId,baggerdails,62616767-6572-4646-9169-6c732e6b6963,rev?*%
%TF.SameCoordinates,Original*%
%TF.FileFunction,Paste,Top*%
%TF.FilePolarity,Positive*%
%FSLAX46Y46*%
G04 Gerber Fmt 4.6, Leading zero omitted, Abs format (unit mm)*
G04 Created by KiCad (PCBNEW 7.0.8-7.0.8~ubuntu23.04.1) date 2023-11-21 11:50:57*
%MOMM*%
%LPD*%
G01*
G04 APERTURE LIST*
G04 Aperture macros list*
%AMRoundRect*
0 Rectangle with rounded corners*
0 $1 Rounding radius*
0 $2 $3 $4 $5 $6 $7 $8 $9 X,Y pos of 4 corners*
0 Add a 4 corners polygon primitive as box body*
4,1,4,$2,$3,$4,$5,$6,$7,$8,$9,$2,$3,0*
0 Add four circle primitives for the rounded corners*
1,1,$1+$1,$2,$3*
1,1,$1+$1,$4,$5*
1,1,$1+$1,$6,$7*
1,1,$1+$1,$8,$9*
0 Add four rect primitives between the rounded corners*
20,1,$1+$1,$2,$3,$4,$5,0*
20,1,$1+$1,$4,$5,$6,$7,0*
20,1,$1+$1,$6,$7,$8,$9,0*
20,1,$1+$1,$8,$9,$2,$3,0*%
G04 Aperture macros list end*
%ADD10RoundRect,0.150000X0.512500X0.150000X-0.512500X0.150000X-0.512500X-0.150000X0.512500X-0.150000X0*%
%ADD11RoundRect,0.147500X-0.172500X0.147500X-0.172500X-0.147500X0.172500X-0.147500X0.172500X0.147500X0*%
%ADD12RoundRect,0.218750X0.256250X-0.218750X0.256250X0.218750X-0.256250X0.218750X-0.256250X-0.218750X0*%
%ADD13RoundRect,0.140000X-0.170000X0.140000X-0.170000X-0.140000X0.170000X-0.140000X0.170000X0.140000X0*%
%ADD14RoundRect,0.135000X-0.135000X-0.185000X0.135000X-0.185000X0.135000X0.185000X-0.135000X0.185000X0*%
%ADD15RoundRect,0.135000X-0.185000X0.135000X-0.185000X-0.135000X0.185000X-0.135000X0.185000X0.135000X0*%
%ADD16RoundRect,0.250000X0.475000X-0.250000X0.475000X0.250000X-0.475000X0.250000X-0.475000X-0.250000X0*%
%ADD17RoundRect,0.140000X0.140000X0.170000X-0.140000X0.170000X-0.140000X-0.170000X0.140000X-0.170000X0*%
%ADD18RoundRect,0.135000X0.135000X0.185000X-0.135000X0.185000X-0.135000X-0.185000X0.135000X-0.185000X0*%
%ADD19R,0.600000X0.500000*%
%ADD20R,0.300000X0.750000*%
%ADD21RoundRect,0.150000X-0.825000X-0.150000X0.825000X-0.150000X0.825000X0.150000X-0.825000X0.150000X0*%
%ADD22RoundRect,0.150000X0.150000X-0.825000X0.150000X0.825000X-0.150000X0.825000X-0.150000X-0.825000X0*%
%ADD23RoundRect,0.218750X-0.218750X-0.256250X0.218750X-0.256250X0.218750X0.256250X-0.218750X0.256250X0*%
%ADD24R,1.350000X0.400000*%
%ADD25R,1.900000X1.500000*%
G04 APERTURE END LIST*
D10*
%TO.C,U103*%
X111137500Y-83200000D03*
X111137500Y-81300000D03*
X108862500Y-82250000D03*
%TD*%
D11*
%TO.C,FB101*%
X97000000Y-92030000D03*
X97000000Y-93000000D03*
%TD*%
D12*
%TO.C,D105*%
X120000000Y-56500000D03*
X120000000Y-54925000D03*
%TD*%
%TO.C,D113*%
X160000000Y-56500000D03*
X160000000Y-54925000D03*
%TD*%
D13*
%TO.C,C101*%
X108250000Y-67290000D03*
X108250000Y-68250000D03*
%TD*%
D14*
%TO.C,R109*%
X138990000Y-61000000D03*
X140010000Y-61000000D03*
%TD*%
D15*
%TO.C,R114*%
X150000000Y-52192500D03*
X150000000Y-53212500D03*
%TD*%
D12*
%TO.C,D101*%
X100000000Y-56500000D03*
X100000000Y-54925000D03*
%TD*%
D16*
%TO.C,C104*%
X113250000Y-83200000D03*
X113250000Y-81300000D03*
%TD*%
D15*
%TO.C,R112*%
X145000000Y-52192500D03*
X145000000Y-53212500D03*
%TD*%
%TO.C,R117*%
X160000000Y-52192500D03*
X160000000Y-53212500D03*
%TD*%
D17*
%TO.C,C106*%
X116500000Y-84500000D03*
X115540000Y-84500000D03*
%TD*%
D12*
%TO.C,D108*%
X135000000Y-56500000D03*
X135000000Y-54925000D03*
%TD*%
D15*
%TO.C,R116*%
X155000000Y-52192500D03*
X155000000Y-53212500D03*
%TD*%
D16*
%TO.C,C103*%
X106500000Y-82450000D03*
X106500000Y-80550000D03*
%TD*%
D15*
%TO.C,R102*%
X105000000Y-52192500D03*
X105000000Y-53212500D03*
%TD*%
D13*
%TO.C,C102*%
X135500000Y-66020000D03*
X135500000Y-66980000D03*
%TD*%
D12*
%TO.C,D106*%
X125000000Y-56500000D03*
X125000000Y-54925000D03*
%TD*%
D14*
%TO.C,R113*%
X110490000Y-63570000D03*
X111510000Y-63570000D03*
%TD*%
D15*
%TO.C,R104*%
X115000000Y-52192500D03*
X115000000Y-53212500D03*
%TD*%
D17*
%TO.C,C105*%
X116480000Y-91500000D03*
X115520000Y-91500000D03*
%TD*%
D12*
%TO.C,D107*%
X130000000Y-56500000D03*
X130000000Y-54925000D03*
%TD*%
D14*
%TO.C,R115*%
X109730000Y-66000000D03*
X110750000Y-66000000D03*
%TD*%
D12*
%TO.C,D114*%
X165000000Y-56500000D03*
X165000000Y-54925000D03*
%TD*%
D18*
%TO.C,R119*%
X110020000Y-78500000D03*
X109000000Y-78500000D03*
%TD*%
D14*
%TO.C,R107*%
X139490000Y-59500000D03*
X140510000Y-59500000D03*
%TD*%
D12*
%TO.C,D103*%
X110000000Y-56500000D03*
X110000000Y-54925000D03*
%TD*%
%TO.C,D111*%
X150000000Y-56500000D03*
X150000000Y-54925000D03*
%TD*%
D15*
%TO.C,R118*%
X165000000Y-52192500D03*
X165000000Y-53212500D03*
%TD*%
D12*
%TO.C,D109*%
X140000000Y-56500000D03*
X140000000Y-54925000D03*
%TD*%
D15*
%TO.C,R110*%
X135000000Y-52192500D03*
X135000000Y-53212500D03*
%TD*%
D19*
%TO.C,U102*%
X110000000Y-69150000D03*
X110750000Y-69150000D03*
X110000000Y-68500000D03*
X110750000Y-68500000D03*
D20*
X109625000Y-70275000D03*
X110125000Y-70275000D03*
X110625000Y-70275000D03*
X111125000Y-70275000D03*
X111125000Y-67375000D03*
X110625000Y-67375000D03*
X110125000Y-67375000D03*
X109625000Y-67375000D03*
%TD*%
D12*
%TO.C,D102*%
X105000000Y-56500000D03*
X105000000Y-54925000D03*
%TD*%
%TO.C,D112*%
X155000000Y-56500000D03*
X155000000Y-54925000D03*
%TD*%
D21*
%TO.C,U105*%
X111025000Y-86145000D03*
X111025000Y-87415000D03*
X111025000Y-88685000D03*
X111025000Y-89955000D03*
X115975000Y-89955000D03*
X115975000Y-88685000D03*
X115975000Y-87415000D03*
X115975000Y-86145000D03*
%TD*%
D15*
%TO.C,R108*%
X130000000Y-52192500D03*
X130000000Y-53212500D03*
%TD*%
D10*
%TO.C,U104*%
X107025000Y-87750000D03*
X107025000Y-86800000D03*
X107025000Y-85850000D03*
X104750000Y-85850000D03*
X104750000Y-86800000D03*
X104750000Y-87750000D03*
%TD*%
D22*
%TO.C,U101*%
X137230000Y-70975000D03*
X138500000Y-70975000D03*
X139770000Y-70975000D03*
X141040000Y-70975000D03*
X141040000Y-66025000D03*
X139770000Y-66025000D03*
X138500000Y-66025000D03*
X137230000Y-66025000D03*
%TD*%
D23*
%TO.C,D115*%
X105712500Y-78500000D03*
X107287500Y-78500000D03*
%TD*%
D15*
%TO.C,R103*%
X110000000Y-52192500D03*
X110000000Y-53212500D03*
%TD*%
D24*
%TO.C,J102*%
X99162500Y-85700000D03*
X99162500Y-86350000D03*
X99162500Y-87000000D03*
X99162500Y-87650000D03*
X99162500Y-88300000D03*
D25*
X96462500Y-86000000D03*
X96462500Y-88000000D03*
%TD*%
D15*
%TO.C,R111*%
X140000000Y-52192500D03*
X140000000Y-53212500D03*
%TD*%
%TO.C,R105*%
X120000000Y-52192500D03*
X120000000Y-53212500D03*
%TD*%
D12*
%TO.C,D110*%
X145000000Y-56500000D03*
X145000000Y-54925000D03*
%TD*%
D15*
%TO.C,R106*%
X125000000Y-52192500D03*
X125000000Y-53212500D03*
%TD*%
D12*
%TO.C,D104*%
X115000000Y-56500000D03*
X115000000Y-54925000D03*
%TD*%
D15*
%TO.C,R101*%
X100000000Y-52192500D03*
X100000000Y-53212500D03*
%TD*%
M02*
