%TF.GenerationSoftware,KiCad,Pcbnew,7.0.7-7.0.7~ubuntu23.04.1*%
%TF.CreationDate,2023-08-30T06:09:57+00:00*%
%TF.ProjectId,baggerdails,62616767-6572-4646-9169-6c732e6b6963,rev?*%
%TF.SameCoordinates,Original*%
%TF.FileFunction,Soldermask,Bot*%
%TF.FilePolarity,Negative*%
%FSLAX46Y46*%
G04 Gerber Fmt 4.6, Leading zero omitted, Abs format (unit mm)*
G04 Created by KiCad (PCBNEW 7.0.7-7.0.7~ubuntu23.04.1) date 2023-08-30 06:09:57*
%MOMM*%
%LPD*%
G01*
G04 APERTURE LIST*
%ADD10C,2.700000*%
%ADD11R,1.700000X1.700000*%
%ADD12O,1.700000X1.700000*%
%ADD13O,1.900000X1.200000*%
%ADD14C,1.450000*%
G04 APERTURE END LIST*
D10*
%TO.C,MH2*%
X161500000Y-47500000D03*
%TD*%
D11*
%TO.C,J104*%
X150000000Y-59500000D03*
D12*
X152540000Y-59500000D03*
X155080000Y-59500000D03*
X157620000Y-59500000D03*
X160160000Y-59500000D03*
X162700000Y-59500000D03*
X165240000Y-59500000D03*
%TD*%
D10*
%TO.C,MH3*%
X103500000Y-96500000D03*
%TD*%
%TO.C,MH1*%
X103500000Y-47500000D03*
%TD*%
D11*
%TO.C,J103*%
X100000000Y-59500000D03*
D12*
X102540000Y-59500000D03*
X105080000Y-59500000D03*
X107620000Y-59500000D03*
X110160000Y-59500000D03*
X112700000Y-59500000D03*
X115240000Y-59500000D03*
%TD*%
D10*
%TO.C,MH4*%
X161500000Y-96500000D03*
%TD*%
D13*
%TO.C,J102*%
X96462500Y-83500000D03*
D14*
X99162500Y-84500000D03*
X99162500Y-89500000D03*
D13*
X96462500Y-90500000D03*
%TD*%
D11*
%TO.C,J101*%
X108370000Y-48770000D03*
D12*
X108370000Y-46230000D03*
X110910000Y-48770000D03*
X110910000Y-46230000D03*
X113450000Y-48770000D03*
X113450000Y-46230000D03*
X115990000Y-48770000D03*
X115990000Y-46230000D03*
X118530000Y-48770000D03*
X118530000Y-46230000D03*
X121070000Y-48770000D03*
X121070000Y-46230000D03*
X123610000Y-48770000D03*
X123610000Y-46230000D03*
X126150000Y-48770000D03*
X126150000Y-46230000D03*
X128690000Y-48770000D03*
X128690000Y-46230000D03*
X131230000Y-48770000D03*
X131230000Y-46230000D03*
X133770000Y-48770000D03*
X133770000Y-46230000D03*
X136310000Y-48770000D03*
X136310000Y-46230000D03*
X138850000Y-48770000D03*
X138850000Y-46230000D03*
X141390000Y-48770000D03*
X141390000Y-46230000D03*
X143930000Y-48770000D03*
X143930000Y-46230000D03*
X146470000Y-48770000D03*
X146470000Y-46230000D03*
X149010000Y-48770000D03*
X149010000Y-46230000D03*
X151550000Y-48770000D03*
X151550000Y-46230000D03*
X154090000Y-48770000D03*
X154090000Y-46230000D03*
X156630000Y-48770000D03*
X156630000Y-46230000D03*
%TD*%
M02*
