M48
; DRILL file {KiCad 7.0.7-7.0.7~ubuntu23.04.1} date Wed Aug 30 06:09:28 2023
; FORMAT={-:-/ absolute / inch / decimal}
; #@! TF.CreationDate,2023-08-30T06:09:28+00:00
; #@! TF.GenerationSoftware,Kicad,Pcbnew,7.0.7-7.0.7~ubuntu23.04.1
; #@! TF.FileFunction,Plated,1,2,PTH
FMAT,2
INCH
; #@! TA.AperFunction,Plated,PTH,ViaDrill
T1C0.0236
; #@! TA.AperFunction,Plated,PTH,ComponentDrill
T2C0.0236
; #@! TA.AperFunction,Plated,PTH,ViaDrill
T3C0.0276
; #@! TA.AperFunction,Plated,PTH,ComponentDrill
T4C0.0335
; #@! TA.AperFunction,Plated,PTH,ComponentDrill
T5C0.0394
%
G90
G05
T1
X3.9685Y-3.5236
X4.0118Y-3.3504
X4.0591Y-3.4213
X4.1102Y-3.311
X4.1589Y-2.0289
X4.2874Y-2.1142
X4.3898Y-2.5984
X4.3902Y-2.5423
X4.4528Y-2.0709
X4.4528Y-2.2205
X4.5787Y-2.2283
X4.6654Y-2.0512
X4.6693Y-2.2283
X4.685Y-3.2283
X4.7205Y-2.2795
X4.7638Y-3.4449
X4.8583Y-2.0945
X4.9331Y-1.7706
X4.9764Y-2.2244
X4.9803Y-2.0945
X5.0157Y-2.063
X5.1732Y-2.1417
X5.1732Y-2.2244
X5.2402Y-2.0866
X5.3701Y-2.2244
X5.4173Y-1.7717
X5.4213Y-2.0433
X5.437Y-2.1339
X5.5122Y-2.4409
X5.5669Y-2.3465
X5.6024Y-2.2323
X5.659Y-2.1156
X6.2559Y-2.0551
T3
X5.2166Y-2.4724
T4
X3.904Y-3.3268
X3.904Y-3.5236
T5
X3.937Y-2.3425
X4.037Y-2.3425
X4.137Y-2.3425
X4.237Y-2.3425
X4.2665Y-1.8201
X4.2665Y-1.9201
X4.337Y-2.3425
X4.3665Y-1.8201
X4.3665Y-1.9201
X4.437Y-2.3425
X4.4665Y-1.8201
X4.4665Y-1.9201
X4.537Y-2.3425
X4.5665Y-1.8201
X4.5665Y-1.9201
X4.6665Y-1.8201
X4.6665Y-1.9201
X4.7665Y-1.8201
X4.7665Y-1.9201
X4.8665Y-1.8201
X4.8665Y-1.9201
X4.9665Y-1.8201
X4.9665Y-1.9201
X5.0665Y-1.8201
X5.0665Y-1.9201
X5.1665Y-1.8201
X5.1665Y-1.9201
X5.2665Y-1.8201
X5.2665Y-1.9201
X5.3665Y-1.8201
X5.3665Y-1.9201
X5.4665Y-1.8201
X5.4665Y-1.9201
X5.5665Y-1.8201
X5.5665Y-1.9201
X5.6665Y-1.8201
X5.6665Y-1.9201
X5.7665Y-1.8201
X5.7665Y-1.9201
X5.8665Y-1.8201
X5.8665Y-1.9201
X5.9055Y-2.3425
X5.9665Y-1.8201
X5.9665Y-1.9201
X6.0055Y-2.3425
X6.0665Y-1.8201
X6.0665Y-1.9201
X6.1055Y-2.3425
X6.1665Y-1.8201
X6.1665Y-1.9201
X6.2055Y-2.3425
X6.3055Y-2.3425
X6.4055Y-2.3425
X6.5055Y-2.3425
T2
G00X3.784Y-3.2874
M15
G01X3.8115Y-3.2874
M16
G05
G00X3.8115Y-3.563
M15
G01X3.784Y-3.563
M16
G05
T0
M30
